<svg width="518" height="288" viewBox="0 0 518 288" fill="none" xmlns="http://www.w3.org/2000/svg">
<circle opacity="0.87" cx="188.627" cy="137.791" r="63.7571" fill="white"/>
<circle cx="507.078" cy="211.729" r="6.84303" fill="#FFCD07"/>
<circle opacity="0.3" cx="52.1012" cy="259.63" r="13.5192" fill="#FFCD07"/>
<path d="M68.8294 230.49C30.6551 230.49 -0.291016 199.268 -0.291016 160.753C-0.291016 122.239 30.6551 91.0168 68.8294 91.0168C107.004 91.0168 137.95 122.239 137.95 160.753C137.95 199.268 107.004 230.49 68.8294 230.49Z" fill="#ECEDEE" stroke="#3D3D3C" stroke-width="1.22981" stroke-linecap="round" stroke-linejoin="round"/>
<path d="M99.6943 166.906L89.0732 181.207L99.6943 166.906Z" fill="#F5F6F7"/>
<path d="M99.6943 166.906L89.0732 181.207" stroke="#3D3D3C" stroke-width="1.22981" stroke-linecap="round" stroke-linejoin="round"/>
<path d="M484.71 2.23413H290.119C284.634 2.23413 280.188 6.72049 280.188 12.2546V102.114C280.188 107.648 284.634 112.134 290.119 112.134H417.324C422.451 118.665 428.3 126.104 432.551 131.508C434.515 134.005 438.475 132.572 438.475 129.383V112.134H484.71C490.194 112.134 494.641 107.648 494.641 102.114V12.2546C494.641 6.72041 490.194 2.23413 484.71 2.23413Z" fill="#ECEDEE" stroke="#3D3D3C" stroke-width="1.22981" stroke-linecap="round" stroke-linejoin="round"/>
<ellipse cx="323.489" cy="54.1793" rx="9.92016" ry="10.0086" fill="#F5F6F7" stroke="#3D3D3C" stroke-width="1.22981" stroke-linecap="round" stroke-linejoin="round"/>
<ellipse cx="364.957" cy="54.1793" rx="9.92016" ry="10.0086" fill="#FAD436" stroke="#3D3D3C" stroke-width="1.22981" stroke-linecap="round" stroke-linejoin="round"/>
<ellipse cx="406.428" cy="54.1793" rx="9.92016" ry="10.0086" fill="#F5F6F7" stroke="#3D3D3C" stroke-width="1.22981" stroke-linecap="round" stroke-linejoin="round"/>
<ellipse cx="447.898" cy="54.1793" rx="9.92016" ry="10.0086" fill="#FAD436" stroke="#3D3D3C" stroke-width="1.22981" stroke-linecap="round" stroke-linejoin="round"/>
<path d="M337.994 17.4449L322.067 29.0773L337.994 17.4449Z" fill="#F5F6F7"/>
<path d="M337.994 17.4449L322.067 29.0773" stroke="#3D3D3C" stroke-width="1.22981" stroke-linecap="round" stroke-linejoin="round"/>
<path d="M456.506 86.696L447.074 90.2465L456.506 86.696Z" fill="#F5F6F7"/>
<path d="M456.506 86.696L447.074 90.2465" stroke="#3D3D3C" stroke-width="1.22981" stroke-linecap="round" stroke-linejoin="round"/>
<mask id="mask0_1_469" style="mask-type:alpha" maskUnits="userSpaceOnUse" x="36" y="-29" width="238" height="331">
<rect x="36.5342" y="-28.063" width="237.01" height="329.781" fill="white"/>
</mask>
<g mask="url(#mask0_1_469)">
<path d="M198.585 -6.64539C149.047 -38.7403 166.857 28.8647 117.151 25.2498C44.5011 19.9654 2.31771 144.49 135.809 140.842C135.809 140.842 132.54 137.111 174.128 125.56C215.716 114.009 208.568 77.7583 200.663 63.971C192.756 50.1838 233.835 16.1919 198.585 -6.64539Z" fill="#FAD436" stroke="#3D3D3C" stroke-width="1.22981" stroke-linecap="round" stroke-linejoin="round"/>
<path d="M206.708 138.251C221.941 126.471 251.58 99.5926 255.529 95.9679C255.529 95.9679 264.18 97.2365 243.681 116.81C243.681 116.81 247.254 128.227 242.741 135.658C238.227 143.088 217.728 157.405 217.728 157.405L206.708 138.251Z" fill="white"/>
<mask id="mask1_1_469" style="mask-type:alpha" maskUnits="userSpaceOnUse" x="206" y="95" width="52" height="63">
<path fill-rule="evenodd" clip-rule="evenodd" d="M206.708 138.251C221.941 126.471 251.58 99.5926 255.529 95.9679C255.529 95.9679 264.18 97.2365 243.681 116.81C243.681 116.81 247.254 128.227 242.741 135.658C238.227 143.088 217.728 157.405 217.728 157.405L206.708 138.251Z" fill="white"/>
</mask>
<g mask="url(#mask1_1_469)">
<path d="M209.955 126.687C229.889 133.243 231.744 141.061 233.366 149.995C234.989 158.93 222.472 154.686 222.472 154.686L215.286 141.507" fill="#CFCFD0"/>
</g>
<path fill-rule="evenodd" clip-rule="evenodd" d="M206.708 138.251C221.941 126.471 251.58 99.5926 255.529 95.9679C255.529 95.9679 264.18 97.2365 243.681 116.81C243.681 116.81 247.254 128.227 242.741 135.658C238.227 143.088 217.728 157.405 217.728 157.405L206.708 138.251Z" stroke="#3D3D3C" stroke-width="1.22981" stroke-linecap="round" stroke-linejoin="round"/>
<path d="M194.604 141.974L216.359 128.426C216.359 128.426 216.597 140.316 227.955 150.909L211.188 168.779" fill="#4F4F5B"/>
<path d="M194.604 141.974L216.359 128.426C216.359 128.426 216.597 140.316 227.955 150.909L211.188 168.779" stroke="#3D3D3C" stroke-width="1.22981" stroke-linecap="round" stroke-linejoin="round"/>
<path d="M95.1688 491.868C104.779 502.325 112.457 507.36 132.944 497.705C153.431 488.05 167.751 364.774 167.751 364.774C168.938 359.692 169.483 354.48 169.372 349.262C169.372 349.262 186.658 229.709 176.364 202.178C166.071 174.647 125.363 207 125.363 207L115.646 332.733C115.646 332.733 83.1746 478.817 95.1688 491.868Z" fill="#FFCD07"/>
<mask id="mask2_1_469" style="mask-type:alpha" maskUnits="userSpaceOnUse" x="92" y="191" width="88" height="312">
<path fill-rule="evenodd" clip-rule="evenodd" d="M95.1688 491.868C104.779 502.325 112.457 507.36 132.944 497.705C153.431 488.05 167.751 364.774 167.751 364.774C168.938 359.692 169.483 354.48 169.372 349.262C169.372 349.262 186.658 229.709 176.364 202.178C166.071 174.647 125.363 207 125.363 207L115.646 332.733C115.646 332.733 83.1746 478.817 95.1688 491.868Z" fill="white"/>
</mask>
<g mask="url(#mask2_1_469)">
<path opacity="0.1" d="M111.368 360.84C138.082 338.54 142.294 246.183 142.294 246.183L97.125 284.409L98.1207 364.393L109.074 361.767" fill="#1E216E"/>
</g>
<path fill-rule="evenodd" clip-rule="evenodd" d="M95.1688 491.868C104.779 502.325 112.457 507.36 132.944 497.705C153.431 488.05 167.751 364.774 167.751 364.774C168.938 359.692 169.483 354.48 169.372 349.262C169.372 349.262 186.658 229.709 176.364 202.178C166.071 174.647 125.363 207 125.363 207L115.646 332.733C115.646 332.733 83.1746 478.817 95.1688 491.868Z" stroke="#3D3D3C" stroke-width="1.22981" stroke-linecap="round" stroke-linejoin="round"/>
<path d="M166.062 205.073C166.062 205.073 118.598 177.893 105.388 183.834C92.1784 189.776 -6.66279 464.224 9.96615 491.624C31.413 526.963 31.5155 505.473 47.1609 501.452C71.3615 495.233 138.742 277.796 138.742 277.796" fill="#FAD436"/>
<path d="M166.062 205.073C166.062 205.073 118.598 177.893 105.388 183.834C92.1784 189.776 -6.66279 464.224 9.96615 491.624C31.413 526.963 31.5155 505.473 47.1609 501.452C71.3615 495.233 138.742 277.796 138.742 277.796" stroke="#3D3D3C" stroke-width="1.22981" stroke-linecap="round" stroke-linejoin="round"/>
<path d="M158.56 157.751C213.789 169.089 138.933 237.666 173.913 255.444" stroke="#3D3D3C" stroke-width="1.22981" stroke-linecap="round" stroke-linejoin="round"/>
<ellipse cx="174.998" cy="255.426" rx="1.78179" ry="2.33418" transform="rotate(-70.4686 174.998 255.426)" fill="#4F4F5B" stroke="#3D3D3C" stroke-width="1.22981" stroke-linecap="round" stroke-linejoin="round"/>
<path d="M148.632 143.308C204.615 149.882 135.789 224.614 172.137 239.336" stroke="#3D3D3C" stroke-width="1.22981" stroke-linecap="round" stroke-linejoin="round"/>
<ellipse cx="172.136" cy="239.225" rx="1.6207" ry="2.81187" transform="rotate(-75.6832 172.136 239.225)" fill="#4F4F5B" stroke="#3D3D3C" stroke-width="1.22981" stroke-linecap="round" stroke-linejoin="round"/>
<path d="M91.8931 192.307C98.1683 214.032 179.3 226.57 193.086 204.987C198.904 195.879 186.133 132.758 186.133 132.758C186.133 132.758 201.178 105.573 185.757 84.5504L143.254 62.8026L115.774 77.213L111.106 126.687C111.106 126.687 83.5485 163.418 91.8931 192.307Z" fill="white"/>
<path fill-rule="evenodd" clip-rule="evenodd" d="M91.8931 192.307C98.1683 214.032 179.3 226.57 193.086 204.987C198.904 195.879 186.133 132.758 186.133 132.758C186.133 132.758 201.178 105.573 185.757 84.5504L143.254 62.8026L115.774 77.213L111.106 126.687C111.106 126.687 83.5485 163.418 91.8931 192.307Z" stroke="#3D3D3C" stroke-width="1.22981" stroke-linecap="round" stroke-linejoin="round"/>
<path d="M161.871 31.6307L141.605 63.6664C141.605 63.6664 161.119 93.612 185.755 84.5504L173.907 67.5146L184.815 36.8864L161.871 31.6307Z" fill="white"/>
<mask id="mask3_1_469" style="mask-type:alpha" maskUnits="userSpaceOnUse" x="141" y="31" width="45" height="56">
<path fill-rule="evenodd" clip-rule="evenodd" d="M161.871 31.6307L141.605 63.6664C141.605 63.6664 161.119 93.612 185.755 84.5504L173.907 67.5146L184.815 36.8864L161.871 31.6307Z" fill="white"/>
</mask>
<g mask="url(#mask3_1_469)">
<path d="M166.521 45.7465C166.521 45.7465 176.278 59.1563 173.907 67.5147C173.907 71.4857 190.153 42.7112 190.153 42.7112L166.521 45.7465Z" fill="#CFCFD0"/>
</g>
<path fill-rule="evenodd" clip-rule="evenodd" d="M161.871 31.6307L141.605 63.6664C141.605 63.6664 161.119 93.612 185.755 84.5504L173.907 67.5146L184.815 36.8864L161.871 31.6307Z" stroke="#3D3D3C" stroke-width="1.22981" stroke-linecap="round" stroke-linejoin="round"/>
<path d="M166.283 46.0776C174.679 51.7143 188.961 58.9957 195.534 47.7144C209.721 23.3642 201.546 6.22083 201.546 6.22083C196.417 13.6351 179.158 23.7726 165.146 26.2401L164.45 28.3715" fill="white"/>
<path d="M166.283 46.0776C174.679 51.7143 188.961 58.9957 195.534 47.7144C209.721 23.3642 201.546 6.22083 201.546 6.22083C196.417 13.6351 179.158 23.7726 165.146 26.2401L164.45 28.3715" stroke="#3D3D3C" stroke-width="1.22981" stroke-linecap="round" stroke-linejoin="round"/>
<path d="M161.697 36.0867C159.019 35.0209 156.879 32.926 155.757 30.2705C153.551 25.1258 155.655 19.406 160.455 17.4949C165.255 15.5838 170.935 18.2051 173.14 23.3499C173.614 24.4485 173.901 25.6187 173.99 26.812" fill="white"/>
<path d="M161.697 36.0867C159.019 35.0209 156.879 32.926 155.757 30.2705C153.551 25.1258 155.655 19.406 160.455 17.4949C165.255 15.5838 170.935 18.2051 173.14 23.3499C173.614 24.4485 173.901 25.6187 173.99 26.812" stroke="#3D3D3C" stroke-width="1.22981" stroke-linecap="round" stroke-linejoin="round"/>
<path d="M154.367 109.242L170.085 152.026C170.085 152.026 192.296 136.042 204.738 135.385C204.738 135.385 210.759 156.538 218.943 160.933C218.066 173.469 172.375 200.201 172.375 200.201C160.053 209.809 141.612 205.362 135.438 191.294L102.492 116.233C95.9682 101.369 102.282 84.1624 117.053 76.5546L129.802 69.9879L134.604 67.5146" fill="white"/>
<mask id="mask4_1_469" style="mask-type:alpha" maskUnits="userSpaceOnUse" x="99" y="67" width="120" height="139">
<path fill-rule="evenodd" clip-rule="evenodd" d="M154.367 109.242L170.085 152.026C170.085 152.026 192.296 136.042 204.738 135.385C204.738 135.385 210.759 156.538 218.943 160.933C218.066 173.469 172.375 200.201 172.375 200.201C160.053 209.809 141.612 205.362 135.438 191.294L102.492 116.233C95.9682 101.369 102.282 84.1624 117.053 76.5546L129.802 69.9879L134.604 67.5146" fill="white"/>
</mask>
<g mask="url(#mask4_1_469)">
<ellipse cx="152.185" cy="218.028" rx="22.9321" ry="22.4006" fill="#4F4F5B" stroke="#3D3D3C" stroke-width="1.22981" stroke-linecap="round" stroke-linejoin="round"/>
</g>
<path d="M154.367 109.242L170.085 152.026C170.085 152.026 192.296 136.042 204.738 135.385C204.738 135.385 210.759 156.538 218.943 160.933C218.066 173.469 172.375 200.201 172.375 200.201C160.053 209.809 141.612 205.362 135.438 191.294L102.492 116.233C95.9682 101.369 102.282 84.1624 117.053 76.5546L129.802 69.9879L134.604 67.5146" stroke="#3D3D3C" stroke-width="1.22981" stroke-linecap="round" stroke-linejoin="round"/>
<path d="M195.468 29.7018C194.948 29.6366 194.477 29.3649 194.16 28.9481C193.844 28.5314 193.708 28.0046 193.785 27.4868L194.31 24.2376C194.508 23.1571 195.532 22.4319 196.616 22.6048C197.136 22.67 197.607 22.9417 197.924 23.3584C198.24 23.7752 198.376 24.302 198.299 24.8198L197.773 28.069C197.576 29.1495 196.552 29.8747 195.468 29.7018Z" fill="#4F4F5B"/>
<path d="M199.434 16.428C193.451 15.2908 191.72 17.5041 195.411 18.4503C199.101 19.3966 203.343 17.171 199.434 16.428Z" fill="#4F4F5B"/>
<path d="M201.391 27.1244C204.759 32.9691 205.091 39.9828 198.324 39.1006L201.391 27.1244Z" fill="white"/>
<path d="M201.391 27.1244C204.759 32.9691 205.091 39.9828 198.324 39.1006" stroke="#3D3D3C" stroke-width="1.22981" stroke-linecap="round" stroke-linejoin="round"/>
<ellipse opacity="0.27" cx="181.772" cy="30.9125" rx="6.78046" ry="6.53371" transform="rotate(-3.654 181.772 30.9125)" fill="#CFCFD0"/>
<path d="M187.982 36.9207C189.042 39.3418 191.322 41.0068 193.95 41.2806L187.982 36.9207Z" fill="white"/>
<path d="M187.982 36.9207C189.042 39.3418 191.322 41.0068 193.95 41.2806" stroke="#3D3D3C" stroke-width="1.22981" stroke-linecap="round" stroke-linejoin="round"/>
<path d="M168.211 25.2146C167.977 24.1341 166.596 23.4489 165.543 23.8908C164.49 24.3327 164.063 25.7768 164.717 26.681" fill="#F5F6F7"/>
<path d="M168.211 25.2146C167.977 24.1341 166.596 23.4489 165.543 23.8908C164.49 24.3327 164.063 25.7768 164.717 26.681" stroke="#3D3D3C" stroke-width="1.22981" stroke-linecap="round" stroke-linejoin="round"/>
<path d="M97.3447 255.444C123.618 252.766 125.684 230.727 125.684 230.727" stroke="#3D3D3C" stroke-width="1.22981" stroke-linecap="round" stroke-linejoin="round"/>
<path d="M184.87 1.39929L181.771 5.7178L184.87 1.39929Z" fill="#F5F6F7"/>
<path d="M184.87 1.39929L181.771 5.7178" stroke="#3D3D3C" stroke-width="1.22981" stroke-linecap="round" stroke-linejoin="round"/>
<path d="M90.2419 60.3019C85.7056 62.6886 81.1124 65.2163 77.6627 69.0281C74.2129 72.8398 72.0559 78.2225 73.3202 83.2241" stroke="#3D3D3C" stroke-width="1.22981" stroke-linecap="round" stroke-linejoin="round"/>
<path d="M168.783 152.994C168.121 153.698 167.573 154.502 167.159 155.376L168.783 152.994Z" fill="#F5F6F7"/>
<path d="M168.783 152.994C168.121 153.698 167.573 154.502 167.159 155.376" stroke="#3D3D3C" stroke-width="1.22981" stroke-linecap="round" stroke-linejoin="round"/>
<path d="M148.633 261.01L101.582 392.65L148.633 261.01Z" fill="#F5F6F7"/>
<path d="M148.633 261.01L101.582 392.65" stroke="#3D3D3C" stroke-width="1.22981" stroke-linecap="round" stroke-linejoin="round"/>
</g>
<path d="M345.697 220.758L370.773 293.187L333.91 295.75L313.067 234.074L345.697 220.758Z" fill="white"/>
<mask id="mask5_1_469" style="mask-type:alpha" maskUnits="userSpaceOnUse" x="313" y="220" width="58" height="76">
<path fill-rule="evenodd" clip-rule="evenodd" d="M345.696 220.758L370.772 293.187L333.909 295.75L313.066 234.074L345.696 220.758Z" fill="white"/>
</mask>
<g mask="url(#mask5_1_469)">
<path d="M313 256.329C330.564 255.067 341.418 233.979 349.108 230.611C356.797 227.242 324.956 226.178 324.956 226.178L308.009 234.358" fill="#CFCFD0"/>
</g>
<path fill-rule="evenodd" clip-rule="evenodd" d="M345.697 220.758L370.773 293.187L333.91 295.75L313.067 234.074L345.697 220.758V220.758Z" stroke="#3D3D3C" stroke-width="1.22981" stroke-linecap="round" stroke-linejoin="round"/>
<path d="M312.394 246.694L356.797 227.242C356.797 227.242 341.389 180.394 339.638 178.438C337.112 175.615 293.114 192.465 293.114 192.465L312.394 246.694Z" fill="#FFCD07"/>
<mask id="mask6_1_469" style="mask-type:alpha" maskUnits="userSpaceOnUse" x="293" y="178" width="64" height="69">
<path fill-rule="evenodd" clip-rule="evenodd" d="M312.395 246.694L356.798 227.242C356.798 227.242 341.39 180.394 339.639 178.438C337.113 175.615 293.115 192.465 293.115 192.465L312.395 246.694Z" fill="white"/>
</mask>
<g mask="url(#mask6_1_469)">
<path d="M313.069 279.055C331.704 247.967 319.24 201.916 319.24 201.916L287.576 238.442L313.069 279.055Z" fill="#CFCFD0"/>
<path d="M303.918 243.445L358.453 216.801L362.291 232.426L298.779 257.304" fill="white"/>
<path d="M303.918 243.445L358.453 216.801L362.291 232.426L298.779 257.304" stroke="#3D3D3C" stroke-width="1.22981" stroke-linecap="round" stroke-linejoin="round"/>
</g>
<path fill-rule="evenodd" clip-rule="evenodd" d="M312.394 246.694L356.797 227.242C356.797 227.242 341.389 180.394 339.638 178.438C337.112 175.615 293.114 192.465 293.114 192.465L312.394 246.694Z" stroke="#3D3D3C" stroke-width="1.22981" stroke-linecap="round" stroke-linejoin="round"/>
<path d="M339.415 178.318C328.343 174.143 282.597 174.918 260.232 174.808C254.683 174.788 249.506 177.6 246.502 182.266L172.173 297.239L293.114 302.102C293.114 302.102 315.117 253.187 328.984 216.802" fill="#FFCD07"/>
<mask id="mask7_1_469" style="mask-type:alpha" maskUnits="userSpaceOnUse" x="172" y="174" width="168" height="129">
<path fill-rule="evenodd" clip-rule="evenodd" d="M339.414 178.318C328.342 174.143 282.596 174.918 260.231 174.808C254.682 174.788 249.505 177.6 246.501 182.266L172.172 297.239L293.113 302.102C293.113 302.102 315.116 253.187 328.983 216.802" fill="white"/>
</mask>
<g mask="url(#mask7_1_469)">
<path d="M234.913 235.211C176.46 312.679 309.302 287.633 309.302 287.633L296.904 318.498L102.96 302.102L180.892 220.758" fill="#FAD436"/>
<ellipse cx="298.779" cy="176.299" rx="42.7634" ry="19.3374" transform="rotate(-83.7307 298.779 176.299)" fill="white" stroke="#3D3D3C" stroke-width="1.22981" stroke-linecap="round" stroke-linejoin="round"/>
<path d="M275.931 231.937L258.42 269.616L299.518 266.077L275.931 231.937Z" fill="white" stroke="#3D3D3C" stroke-width="1.22981" stroke-linecap="round" stroke-linejoin="round"/>
<ellipse cx="261.481" cy="242.785" rx="15.2544" ry="15.3904" fill="#4F4F5B" stroke="#3D3D3C" stroke-width="1.22981" stroke-linecap="round" stroke-linejoin="round"/>
<rect x="282.815" y="228.879" width="22.1895" height="22.3873" fill="#4F4F5B" stroke="#3D3D3C" stroke-width="1.22981" stroke-linecap="round" stroke-linejoin="round"/>
</g>
<path d="M339.415 178.318C328.343 174.143 282.597 174.918 260.232 174.808C254.683 174.788 249.506 177.6 246.502 182.266L172.173 297.239L293.114 302.102C293.114 302.102 315.117 253.187 328.984 216.802" stroke="#3D3D3C" stroke-width="1.22981" stroke-linecap="round" stroke-linejoin="round"/>
<path d="M55.9121 289.134C60.586 286.776 246.227 181.288 246.227 181.288L224.478 241.318L131.864 289.134H55.9121Z" fill="white"/>
<mask id="mask8_1_469" style="mask-type:alpha" maskUnits="userSpaceOnUse" x="55" y="181" width="192" height="109">
<path fill-rule="evenodd" clip-rule="evenodd" d="M55.9121 289.134C60.586 286.776 246.227 181.288 246.227 181.288L224.478 241.318L131.864 289.134H55.9121Z" fill="white"/>
</mask>
<g mask="url(#mask8_1_469)">
<path d="M193.15 208.914C172.799 201.751 214.208 239.137 175.322 266.864C136.765 294.355 222.67 256.708 222.67 256.708L217.651 223.646" fill="#CFCFD0"/>
</g>
<path fill-rule="evenodd" clip-rule="evenodd" d="M55.9121 289.134C60.586 286.776 246.227 181.288 246.227 181.288L224.478 241.318L131.864 289.134H55.9121Z" stroke="#3D3D3C" stroke-width="1.22981" stroke-linecap="round" stroke-linejoin="round"/>
<path d="M253.371 176.299L186.198 209.51L206.062 257.304L231.497 246.486" fill="#FFCD07"/>
<mask id="mask9_1_469" style="mask-type:alpha" maskUnits="userSpaceOnUse" x="186" y="176" width="68" height="82">
<path fill-rule="evenodd" clip-rule="evenodd" d="M253.37 176.299L186.197 209.51L206.061 257.304L231.496 246.486" fill="white"/>
</mask>
<g mask="url(#mask9_1_469)">
<path d="M191.961 202.643L217.201 261.092L184.812 261.797L173.659 199.963" fill="white"/>
<path d="M191.961 202.643L217.201 261.092L184.812 261.797L173.659 199.963" stroke="#3D3D3C" stroke-width="1.22981" stroke-linecap="round" stroke-linejoin="round"/>
</g>
<path d="M253.371 176.299L186.198 209.51L206.062 257.304L231.497 246.486" stroke="#3D3D3C" stroke-width="1.22981" stroke-linecap="round" stroke-linejoin="round"/>
<path d="M467.401 287.501H352.306L402.061 214.096C403.994 211.233 407.222 209.515 410.677 209.51H513.339C516.277 209.51 518.014 212.831 516.356 215.278L467.401 287.501Z" fill="#ECEDEE"/>
<mask id="mask10_1_469" style="mask-type:alpha" maskUnits="userSpaceOnUse" x="352" y="209" width="165" height="79">
<path fill-rule="evenodd" clip-rule="evenodd" d="M467.401 287.501H352.306L402.061 214.096C403.994 211.233 407.222 209.515 410.677 209.51H513.339C516.277 209.51 518.014 212.831 516.356 215.278L467.401 287.501Z" fill="white"/>
</mask>
<g mask="url(#mask10_1_469)">
<path d="M489.526 204.585C519.046 208.159 485.393 280.829 414.546 286.19C343.699 291.551 452.968 314.301 452.968 314.301L507.238 289.134L534.986 257.304L535.577 238.123L537.938 192.076L502.515 197.437" fill="#CFCFD0"/>
</g>
<path fill-rule="evenodd" clip-rule="evenodd" d="M467.401 287.501H352.306L402.061 214.096C403.994 211.233 407.222 209.515 410.677 209.51H513.339C516.277 209.51 518.014 212.831 516.356 215.278L467.401 287.501Z" stroke="#3D3D3C" stroke-width="1.22981" stroke-linecap="round" stroke-linejoin="round"/>
<path d="M438.445 257.443C431.341 257.443 429.123 249.237 434.403 242.491L436.285 240.087C438.84 236.822 442.573 234.789 446.012 234.789C453.116 234.789 455.334 242.994 450.054 249.74L448.172 252.144C445.617 255.409 441.884 257.443 438.445 257.443Z" fill="#FAD436" stroke="#3D3D3C" stroke-width="1.22981" stroke-linecap="round" stroke-linejoin="round"/>
<path d="M466.373 291.557H293.379L293.762 290.322C294.965 286.401 298.582 283.72 302.684 283.709H468.809L466.373 291.557Z" fill="white" stroke="#3D3D3C" stroke-width="1.22981" stroke-linecap="round" stroke-linejoin="round"/>
<path d="M330.214 147.814L313.067 181.855C313.067 181.855 306.552 213.98 294.721 212.506C282.89 211.032 283.328 174.781 283.328 174.781L300.856 134.551L330.214 147.814Z" fill="white"/>
<mask id="mask11_1_469" style="mask-type:alpha" maskUnits="userSpaceOnUse" x="283" y="134" width="48" height="79">
<path fill-rule="evenodd" clip-rule="evenodd" d="M330.214 147.814L313.067 181.855C313.067 181.855 306.552 213.98 294.721 212.506C282.89 211.032 283.328 174.781 283.328 174.781L300.856 134.551L330.214 147.814Z" fill="white"/>
</mask>
<g mask="url(#mask11_1_469)">
<path d="M307.493 145.39C299.375 181.289 316.337 180.234 314.247 193.568C313.024 201.364 329.271 142.953 329.271 142.953L300.855 134.551" fill="#CFCFD0"/>
</g>
<path fill-rule="evenodd" clip-rule="evenodd" d="M330.214 147.814L313.067 181.855C313.067 181.855 306.552 213.98 294.721 212.506C282.89 211.032 283.328 174.781 283.328 174.781L300.856 134.551L330.214 147.814Z" stroke="#3D3D3C" stroke-width="1.22981" stroke-linecap="round" stroke-linejoin="round"/>
<path d="M298.779 139.731V107.751C298.771 105.935 300.237 104.456 302.053 104.448H340.525C342.341 104.456 343.807 105.935 343.799 107.751V143.179C343.799 155.722 333.721 165.89 321.289 165.89C315.307 165.893 309.573 163.497 305.372 159.238" fill="white"/>
<mask id="mask12_1_469" style="mask-type:alpha" maskUnits="userSpaceOnUse" x="298" y="104" width="46" height="62">
<path fill-rule="evenodd" clip-rule="evenodd" d="M298.779 139.731V107.751C298.771 105.934 300.237 104.456 302.053 104.448H340.525C342.341 104.456 343.807 105.934 343.799 107.751V143.179C343.799 155.722 333.721 165.89 321.289 165.89C315.307 165.893 309.573 163.497 305.372 159.238" fill="white"/>
</mask>
<g mask="url(#mask12_1_469)">
<ellipse opacity="0.27" cx="344.248" cy="146.123" rx="4.80244" ry="6.25191" transform="rotate(-84.6525 344.248 146.123)" fill="#CFCFD0"/>
<ellipse opacity="0.27" cx="314.837" cy="143.459" rx="4.80222" ry="6.25162" transform="rotate(-84.652 314.837 143.459)" fill="#CFCFD0"/>
<path d="M338.262 139.236C337.035 139.214 336.058 138.2 336.081 136.973L336.152 133.147C336.175 131.919 337.189 130.943 338.416 130.966C339.643 130.989 340.62 132.002 340.597 133.229L340.526 137.055C340.515 137.645 340.27 138.206 339.846 138.615C339.421 139.024 338.852 139.247 338.262 139.236Z" fill="#4F4F5B"/>
<path d="M321.771 137.668C320.544 137.646 319.567 136.632 319.59 135.405L319.661 131.579C319.684 130.352 320.698 129.375 321.925 129.398C323.152 129.421 324.129 130.434 324.106 131.662L324.035 135.488C324.012 136.715 322.998 137.691 321.771 137.668L321.771 137.668Z" fill="#4F4F5B"/>
<path d="M339.064 125.692C343.575 127.111 342.281 129.581 339.404 128.88C336.527 128.178 336.117 124.765 339.064 125.692Z" fill="#4F4F5B"/>
<path d="M322.157 123.941C317.598 125.191 318.461 127.51 321.362 126.916C324.263 126.322 325.136 123.124 322.157 123.941Z" fill="#4F4F5B"/>
<path d="M328.502 138.733C328.304 140.236 329.658 139.811 331.232 140.021C332.805 140.231 334.002 140.998 334.2 139.495C334.397 137.991 333.281 136.603 331.708 136.392C330.134 136.182 328.699 137.23 328.502 138.733Z" fill="#CFCFD0"/>
<path d="M336.472 147.896C333.272 158.533 323.62 152.86 324.178 146.09C324.211 145.742 324.459 145.451 324.797 145.363C326.223 144.978 330.319 144.288 336.008 146.877C336.393 147.055 336.591 147.488 336.472 147.896Z" fill="#CFCFD0"/>
<mask id="mask13_1_469" style="mask-type:alpha" maskUnits="userSpaceOnUse" x="324" y="144" width="13" height="10">
<path fill-rule="evenodd" clip-rule="evenodd" d="M336.473 147.896C333.273 158.533 323.621 152.86 324.178 146.09C324.212 145.742 324.46 145.451 324.798 145.363C326.224 144.978 330.32 144.288 336.009 146.877C336.394 147.055 336.592 147.488 336.473 147.896Z" fill="white"/>
</mask>
<g mask="url(#mask13_1_469)">
<ellipse opacity="0.29" cx="328.113" cy="153.025" rx="4.96501" ry="5.53299" transform="rotate(-62.6845 328.113 153.025)" fill="#4F4F5B"/>
<path d="M334.776 145.935C334.679 146.651 334.482 147.615 334.273 147.767C332.987 148.705 327.515 147.477 326.841 146.752C326.653 146.55 326.929 144.236 326.929 144.236L333.985 145.432" fill="white"/>
</g>
</g>
<path d="M298.779 139.731V107.751C298.771 105.935 300.237 104.456 302.053 104.448H340.525C342.341 104.456 343.807 105.935 343.799 107.751V143.179C343.799 155.722 333.721 165.89 321.289 165.89V165.89C315.307 165.893 309.573 163.497 305.372 159.238" stroke="#3D3D3C" stroke-width="1.22981" stroke-linecap="round" stroke-linejoin="round"/>
<path d="M346.148 76.9231C343.339 76.9264 340.556 77.4595 337.945 78.4942C334.086 75.3574 329.265 73.6458 324.292 73.6475C312.497 73.6475 302.909 83.0823 302.479 94.8769C302.464 94.8769 302.452 94.8746 302.438 94.8746C292.085 94.8746 283.693 103.342 283.693 113.786C283.693 124.231 292.085 132.698 302.438 132.698C311.55 132.698 319.135 126.137 320.824 117.443C324.236 118.03 327.739 117.764 331.023 116.67C335.151 120.454 340.548 122.555 346.148 122.557C358.637 122.557 368.762 112.341 368.762 99.74C368.762 87.1385 358.637 76.9231 346.148 76.9231Z" fill="#4F4F5B" stroke="#3D3D3C" stroke-width="1.22981" stroke-linecap="round" stroke-linejoin="round"/>
<path d="M301.291 141.491C299.088 140.421 297.219 138.769 295.886 136.713C292.285 131.258 292.995 124.397 297.473 121.389C301.95 118.38 308.499 120.363 312.1 125.818C313.199 127.467 313.931 129.333 314.246 131.289" fill="white"/>
<path d="M301.291 141.491C299.088 140.421 297.219 138.769 295.886 136.713C292.285 131.258 292.995 124.397 297.473 121.389C301.95 118.38 308.499 120.363 312.1 125.818C313.199 127.467 313.931 129.333 314.246 131.289" stroke="#3D3D3C" stroke-width="1.22981" stroke-linecap="round" stroke-linejoin="round"/>
<path d="M302.998 127.766C302.155 127.975 301.457 128.565 301.113 129.363C300.78 130.169 300.839 131.084 301.272 131.841" fill="#F5F6F7"/>
<path d="M302.998 127.766C302.155 127.975 301.457 128.565 301.113 129.363C300.78 130.169 300.839 131.084 301.272 131.841" stroke="#3D3D3C" stroke-width="1.22981" stroke-linecap="round" stroke-linejoin="round"/>
<path d="M343.984 100.804C346.198 101.408 348.485 101.697 350.778 101.664L343.984 100.804Z" fill="#F5F6F7"/>
<path d="M343.984 100.804C346.198 101.408 348.485 101.697 350.778 101.664" stroke="#3D3D3C" stroke-width="1.22981" stroke-linecap="round" stroke-linejoin="round"/>
<path d="M233.344 265.77C234.12 269.236 235.924 272.386 238.519 274.81" stroke="#3D3D3C" stroke-width="1.22981" stroke-linecap="round" stroke-linejoin="round"/>
<path d="M330.691 194.877L328.914 196.059" stroke="#3D3D3C" stroke-width="1.22981" stroke-linecap="round" stroke-linejoin="round"/>
<path d="M143.549 245.532L150.043 252.68L143.549 245.532Z" fill="#F5F6F7"/>
<path d="M143.549 245.532L150.043 252.68" stroke="#3D3D3C" stroke-width="1.22981" stroke-linecap="round" stroke-linejoin="round"/>
<path d="M351.958 261.613L349.597 262.804L351.958 261.613Z" fill="#F5F6F7"/>
<path d="M351.958 261.613L349.597 262.804" stroke="#3D3D3C" stroke-width="1.22981" stroke-linecap="round" stroke-linejoin="round"/>
<path d="M236.205 200.962C236.9 202.843 236.371 204.958 234.871 206.29" stroke="#3D3D3C" stroke-width="1.22981" stroke-linecap="round" stroke-linejoin="round"/>
<path d="M270.934 281.461L276.242 282.675L270.934 281.461Z" fill="#F5F6F7"/>
<path d="M270.934 281.461L276.242 282.675" stroke="#3D3D3C" stroke-width="1.22981" stroke-linecap="round" stroke-linejoin="round"/>
</svg>
