<svg width="425" height="354" viewBox="0 0 425 354" fill="none" xmlns="http://www.w3.org/2000/svg">
<path opacity="0.5" d="M396.594 209.464C386.407 251.822 393.152 280.668 382.8 306.372C372.477 332.586 344.519 355.175 318.522 353.3C292.525 351.425 268.73 324.816 207.497 302.613C146.293 280.922 47.9216 263.877 17.5135 215.336C-13.4057 166.823 23.8797 86.5438 81.9315 52.0134C139.983 17.4831 218.801 28.702 285.663 37.0022C352.256 45.0611 407.133 49.9315 420.636 80.4501C434.14 110.969 406.781 167.107 396.594 209.464Z" fill="#EEEFF3"/>
<rect x="66.0698" y="51.1262" width="290.822" height="211.52" rx="9.78962" fill="#ECEDEE"/>
<mask id="mask0_1_9058" style="mask-type:alpha" maskUnits="userSpaceOnUse" x="66" y="51" width="291" height="212">
<rect x="66.0693" y="51.1262" width="290.822" height="211.52" rx="9.78962" fill="white"/>
</mask>
<g mask="url(#mask0_1_9058)">
<rect x="52.1055" y="43.343" width="323.645" height="37.5426" fill="#FAD436"/>
<mask id="mask1_1_9058" style="mask-type:alpha" maskUnits="userSpaceOnUse" x="52" y="43" width="324" height="38">
<rect x="52.1045" y="43.343" width="323.645" height="37.5426" fill="white"/>
</mask>
<g mask="url(#mask1_1_9058)">
<path d="M39.5493 82.6881C346.528 85.4351 378.806 64.996 363.01 27.6247C347.215 -9.74668 384.987 65.033 384.987 65.033L378.119 100.544L288.154 103.291L88.757 99.1702" fill="#FFA008"/>
</g>
<rect x="52.1055" y="43.343" width="323.645" height="37.5426" stroke="#3D3D3C" stroke-width="1.07592" stroke-linecap="round" stroke-linejoin="round"/>
<path d="M252.65 62.858C253.305 62.858 253.856 63.0783 254.303 63.519C254.75 63.9596 254.973 64.5007 254.973 65.1422C254.973 65.7838 254.75 66.3249 254.303 66.7655C253.856 67.2062 253.305 67.4265 252.65 67.4265H251.455V69.6621H250.113V62.858H252.65ZM252.65 66.1726C252.935 66.1726 253.172 66.0754 253.36 65.881C253.548 65.6801 253.642 65.4338 253.642 65.1422C253.642 64.8442 253.548 64.5979 253.36 64.4035C253.172 64.2091 252.935 64.1119 252.65 64.1119H251.455V66.1726H252.65ZM260.305 69.6621L259.897 68.4374H257.185L256.777 69.6621H255.329L257.71 62.858H259.372L261.763 69.6621H260.305ZM257.613 67.1835H259.479L258.546 64.4035L257.613 67.1835ZM267.704 62.858L265.371 67.0085V69.6621H264.039V67.0085L261.716 62.858H263.233L264.71 65.6963L266.188 62.858H267.704Z" fill="black"/>
<mask id="path-9-inside-1_1_9058" fill="white">
<path d="M190.198 66.3103L188.819 67.6895L187.427 66.3103L188.818 64.9188L190.198 66.3103ZM193.568 62.9397L195.943 65.3144L197.335 63.9234L193.568 60.1689L189.801 63.9356L191.193 65.3267L193.568 62.9397ZM198.318 64.9188L196.939 66.3103L198.33 67.7018L199.721 66.3103L198.318 64.9188ZM193.568 69.6809L191.193 67.2939L189.801 68.6855L193.568 72.4517L197.335 68.685L195.943 67.2939L193.568 69.6809ZM193.568 67.6901L194.96 66.298L193.568 64.9193L192.177 66.3103L193.568 67.6901ZM208.202 67.8334V67.8098C208.202 66.9101 207.722 66.4541 206.942 66.1542C207.422 65.8906 207.83 65.4582 207.83 64.7028V64.6793C207.83 63.6235 206.978 62.9397 205.611 62.9397H202.48V69.6691H205.683C207.206 69.6809 208.202 69.0565 208.202 67.8334ZM206.354 64.9551C206.354 65.4587 205.947 65.6624 205.287 65.6624H203.92V64.235H205.383C206.007 64.235 206.354 64.4868 206.354 64.9311V64.9551ZM206.726 67.642C206.726 68.1455 206.331 68.3738 205.682 68.3738H203.92V66.8978H205.635C206.391 66.8978 206.726 67.1742 206.726 67.6297V67.642ZM211.308 69.6809V62.9397H209.821V69.6691H211.308V69.6809ZM219.273 69.6809V62.9397H217.81V67.0903L214.655 62.9397H213.288V69.6691H214.751V65.3988L218.014 69.6809H219.273ZM227.477 69.6809L224.587 62.9039H223.22L220.329 69.6809H221.853L222.464 68.1696H225.307L225.919 69.6809H227.478H227.477ZM224.778 66.862H222.991L223.891 64.6793L224.778 66.862ZM234.543 69.6809V62.9397H233.079V67.0903L229.924 62.9397H228.557V69.6691H230.021V65.3988L233.283 69.6809H234.543ZM242.183 68.5893L241.236 67.642C240.708 68.1215 240.24 68.4332 239.46 68.4332C238.309 68.4332 237.505 67.4736 237.505 66.3221V66.2862C237.505 65.1347 238.321 64.1874 239.46 64.1874C240.132 64.1874 240.66 64.4751 241.188 64.9428L242.135 63.8512C241.512 63.2396 240.756 62.8077 239.484 62.8077C237.422 62.8077 235.97 64.3788 235.97 66.2862V66.3103C235.97 68.2412 237.445 69.7766 239.425 69.7766C240.72 69.7889 241.488 69.3329 242.183 68.5893ZM248.505 69.6809V68.3615H244.846V66.9459H248.025V65.6266H244.846V64.2591H248.457V62.9397H243.383V69.6691H248.505V69.6809Z"/>
</mask>
<path d="M190.198 66.3103L188.819 67.6895L187.427 66.3103L188.818 64.9188L190.198 66.3103ZM193.568 62.9397L195.943 65.3144L197.335 63.9234L193.568 60.1689L189.801 63.9356L191.193 65.3267L193.568 62.9397ZM198.318 64.9188L196.939 66.3103L198.33 67.7018L199.721 66.3103L198.318 64.9188ZM193.568 69.6809L191.193 67.2939L189.801 68.6855L193.568 72.4517L197.335 68.685L195.943 67.2939L193.568 69.6809ZM193.568 67.6901L194.96 66.298L193.568 64.9193L192.177 66.3103L193.568 67.6901ZM208.202 67.8334V67.8098C208.202 66.9101 207.722 66.4541 206.942 66.1542C207.422 65.8906 207.83 65.4582 207.83 64.7028V64.6793C207.83 63.6235 206.978 62.9397 205.611 62.9397H202.48V69.6691H205.683C207.206 69.6809 208.202 69.0565 208.202 67.8334ZM206.354 64.9551C206.354 65.4587 205.947 65.6624 205.287 65.6624H203.92V64.235H205.383C206.007 64.235 206.354 64.4868 206.354 64.9311V64.9551ZM206.726 67.642C206.726 68.1455 206.331 68.3738 205.682 68.3738H203.92V66.8978H205.635C206.391 66.8978 206.726 67.1742 206.726 67.6297V67.642ZM211.308 69.6809V62.9397H209.821V69.6691H211.308V69.6809ZM219.273 69.6809V62.9397H217.81V67.0903L214.655 62.9397H213.288V69.6691H214.751V65.3988L218.014 69.6809H219.273ZM227.477 69.6809L224.587 62.9039H223.22L220.329 69.6809H221.853L222.464 68.1696H225.307L225.919 69.6809H227.478H227.477ZM224.778 66.862H222.991L223.891 64.6793L224.778 66.862ZM234.543 69.6809V62.9397H233.079V67.0903L229.924 62.9397H228.557V69.6691H230.021V65.3988L233.283 69.6809H234.543ZM242.183 68.5893L241.236 67.642C240.708 68.1215 240.24 68.4332 239.46 68.4332C238.309 68.4332 237.505 67.4736 237.505 66.3221V66.2862C237.505 65.1347 238.321 64.1874 239.46 64.1874C240.132 64.1874 240.66 64.4751 241.188 64.9428L242.135 63.8512C241.512 63.2396 240.756 62.8077 239.484 62.8077C237.422 62.8077 235.97 64.3788 235.97 66.2862V66.3103C235.97 68.2412 237.445 69.7766 239.425 69.7766C240.72 69.7889 241.488 69.3329 242.183 68.5893ZM248.505 69.6809V68.3615H244.846V66.9459H248.025V65.6266H244.846V64.2591H248.457V62.9397H243.383V69.6691H248.505V69.6809Z" fill="white" stroke="black" stroke-width="2" mask="url(#path-9-inside-1_1_9058)"/>
</g>
<rect x="66.0698" y="51.1262" width="290.822" height="211.52" rx="9.78962" stroke="#3D3D3C" stroke-width="1.07592" stroke-linecap="round" stroke-linejoin="round"/>
<circle cx="83.4346" cy="65.0328" r="5.32234" fill="#FAD436" stroke="#3D3D3C" stroke-width="1.07592" stroke-linecap="round" stroke-linejoin="round"/>
<circle cx="99.5372" cy="65.0328" r="5.32234" fill="#FAD436" stroke="#3D3D3C" stroke-width="1.07592" stroke-linecap="round" stroke-linejoin="round"/>
<circle cx="115.643" cy="65.0328" r="5.32234" fill="#FAD436" stroke="#3D3D3C" stroke-width="1.07592" stroke-linecap="round" stroke-linejoin="round"/>
<rect x="164.387" y="96.5792" width="169.232" height="143.05" rx="10.0572" fill="#F5F6F7"/>
<rect x="164.387" y="96.5792" width="169.232" height="143.05" rx="10.0572" stroke="#3D3D3C" stroke-width="1.07592" stroke-linecap="round" stroke-linejoin="round"/>
<rect x="88.063" y="96.5792" width="66.5715" height="143.05" rx="6.30786" fill="#F5F6F7" stroke="#3D3D3C" stroke-width="1.07592" stroke-linecap="round" stroke-linejoin="round"/>
<circle cx="121.346" cy="130.49" r="22.2844" fill="#FAD436"/>
<mask id="mask2_1_9058" style="mask-type:alpha" maskUnits="userSpaceOnUse" x="99" y="108" width="45" height="45">
<circle cx="121.345" cy="130.49" r="22.2844" fill="white"/>
</mask>
<g mask="url(#mask2_1_9058)">
<circle cx="121.345" cy="130.49" r="22.2844" fill="#FAD436" stroke="#3D3D3C" stroke-width="1.07592" stroke-linecap="round" stroke-linejoin="round"/>
<path d="M103.952 149.178L106.417 140.007C106.417 140.007 122.095 133.372 138.384 141.307L142.747 161.481L138.737 170.679C138.737 170.679 139.742 179.989 139.319 181.218C138.895 182.446 111.92 189.817 105.065 180.268C105.065 166.469 103.952 149.178 103.952 149.178Z" fill="#FAD436"/>
<mask id="mask3_1_9058" style="mask-type:alpha" maskUnits="userSpaceOnUse" x="103" y="137" width="40" height="49">
<path fill-rule="evenodd" clip-rule="evenodd" d="M103.952 149.178L106.418 140.007C106.418 140.007 122.096 133.372 138.384 141.307L142.748 161.481L138.738 170.679C138.738 170.679 139.742 179.989 139.319 181.218C138.896 182.446 111.92 189.817 105.066 180.268C105.066 166.469 103.952 149.178 103.952 149.178Z" fill="white"/>
</mask>
<g mask="url(#mask3_1_9058)">
<ellipse cx="122.532" cy="140.489" rx="9.52617" ry="8.53467" transform="rotate(-59.5084 122.532 140.489)" fill="#F5F6F7" stroke="#3D3D3C" stroke-width="1.07592" stroke-linecap="round" stroke-linejoin="round"/>
<path d="M105.392 149.346C110.764 143.117 105.861 162.281 111.191 158.879L114.475 161.652C119.401 162.187 94.6624 183.022 131.507 184.689C149.227 185.491 99.5266 188.931 99.5266 188.931L93.063 157.385L95.0622 155.15" fill="#FAD436"/>
<path d="M105.392 149.346C110.764 143.117 105.861 162.281 111.191 158.879V158.879L114.475 161.652V161.652C119.401 162.187 94.6624 183.022 131.507 184.689C149.227 185.491 99.5266 188.931 99.5266 188.931L93.063 157.385L95.0622 155.15" stroke="#3D3D3C" stroke-width="1.07592" stroke-linecap="round" stroke-linejoin="round"/>
<path d="M138.291 148.613C135.803 147.969 139.268 156.555 137.58 155.15C135.891 153.745 137.022 162.709 137.022 162.709C137.022 162.709 138.135 159.852 135.625 159.52C133.115 159.188 139.403 178.01 139.403 180.643C139.403 183.276 144.599 168.723 144.599 168.723L143.658 156.854" fill="#FAD436"/>
<path d="M138.291 148.613C135.803 147.969 139.268 156.555 137.58 155.15C135.891 153.745 137.022 162.709 137.022 162.709C137.022 162.709 138.135 159.852 135.625 159.52C133.115 159.188 139.403 178.01 139.403 180.643C139.403 183.276 144.599 168.723 144.599 168.723L143.658 156.854" stroke="#3D3D3C" stroke-width="1.07592" stroke-linecap="round" stroke-linejoin="round"/>
</g>
<path fill-rule="evenodd" clip-rule="evenodd" d="M103.952 149.178L106.417 140.007C106.417 140.007 122.095 133.372 138.384 141.307L142.747 161.481L138.737 170.679C138.737 170.679 139.742 179.989 139.319 181.218C138.895 182.446 111.92 189.817 105.065 180.268C105.065 166.469 103.952 149.178 103.952 149.178Z" stroke="#3D3D3C" stroke-width="1.07592" stroke-linecap="round" stroke-linejoin="round"/>
<path d="M106.33 163.75L106.831 140.073C98.8463 139.029 92.2256 172.702 92.2256 172.702L101.316 171.492L106.33 163.75Z" fill="#FAD436"/>
<path fill-rule="evenodd" clip-rule="evenodd" d="M106.33 163.75L106.831 140.073C98.8463 139.029 92.2256 172.702 92.2256 172.702L101.316 171.492L106.33 163.75Z" stroke="#3D3D3C" stroke-width="1.07592" stroke-linecap="round" stroke-linejoin="round"/>
<path d="M146.479 173.404L151.276 173.73C151.276 173.73 144.777 138.084 136.668 141.237L140.218 163.089L146.479 173.404Z" fill="#FAD436" stroke="#3D3D3C" stroke-width="1.07592" stroke-linecap="round" stroke-linejoin="round"/>
<path d="M141.828 162.421C140.014 158.463 138.185 154.83 137.795 153.903C137.405 152.977 136.536 149.24 136.536 149.24C134.783 148.118 135.477 152.213 135.477 152.213C135.477 152.213 130.865 152.846 131.583 154.647C131.583 154.647 131.508 155.991 132.226 156.463C132.226 156.463 131.961 157.525 132.717 158.046C132.717 158.046 132.566 159.504 133.7 159.747C134.834 159.99 135.364 159.921 135.364 159.921L138.653 165.45L141.828 162.421Z" fill="#FAD436"/>
<path fill-rule="evenodd" clip-rule="evenodd" d="M141.828 162.421C140.014 158.463 138.185 154.83 137.795 153.903C137.405 152.977 136.536 149.24 136.536 149.24C134.783 148.118 135.477 152.213 135.477 152.213C135.477 152.213 130.865 152.846 131.583 154.647C131.583 154.647 131.508 155.991 132.226 156.463C132.226 156.463 131.961 157.525 132.717 158.046C132.717 158.046 132.566 159.504 133.7 159.747C134.834 159.99 135.364 159.921 135.364 159.921L138.653 165.45L141.828 162.421Z" stroke="#3D3D3C" stroke-width="1.07592" stroke-linecap="round" stroke-linejoin="round"/>
<ellipse cx="127.878" cy="126.014" rx="3.34078" ry="2.84455" transform="rotate(-53.2194 127.878 126.014)" fill="#F5F6F7" stroke="#3D3D3C" stroke-width="1.07592" stroke-linecap="round" stroke-linejoin="round"/>
<path d="M117.426 141.605V131.726H127.878V139.525" fill="#F5F6F7"/>
<mask id="mask4_1_9058" style="mask-type:alpha" maskUnits="userSpaceOnUse" x="117" y="131" width="11" height="11">
<path fill-rule="evenodd" clip-rule="evenodd" d="M117.426 141.605V131.726H127.878V139.525" fill="white"/>
</mask>
<g mask="url(#mask4_1_9058)">
<path d="M112.057 143.054C125.204 139.206 126.567 133.675 126.567 133.675L117.668 132.392L116.546 137.603L113.019 142.332" fill="#CFCFD0"/>
</g>
<path d="M117.426 141.605V131.726H127.878V139.525" stroke="#3D3D3C" stroke-width="1.07592" stroke-linecap="round" stroke-linejoin="round"/>
<path d="M121.346 136.825C117.31 136.825 114.038 133.553 114.038 129.516V121.868C114.038 119.93 114.808 118.071 116.178 116.7C117.549 115.33 119.408 114.56 121.346 114.56C123.284 114.56 125.143 115.33 126.514 116.7C127.884 118.071 128.654 119.93 128.654 121.868V129.516C128.654 131.455 127.884 133.314 126.514 134.684C125.143 136.055 123.284 136.825 121.346 136.825Z" fill="#F5F6F7"/>
<mask id="mask5_1_9058" style="mask-type:alpha" maskUnits="userSpaceOnUse" x="114" y="114" width="15" height="23">
<path fill-rule="evenodd" clip-rule="evenodd" d="M121.346 136.825C117.31 136.825 114.038 133.553 114.038 129.516V121.868C114.038 119.93 114.808 118.071 116.179 116.7C117.549 115.33 119.408 114.56 121.346 114.56C123.285 114.56 125.144 115.33 126.514 116.7C127.885 118.071 128.655 119.93 128.655 121.868V129.516C128.655 131.455 127.885 133.314 126.514 134.684C125.144 136.055 123.285 136.825 121.346 136.825Z" fill="white"/>
</mask>
<g mask="url(#mask5_1_9058)">
<path d="M111.404 122.973C111.701 122.336 113.012 122.39 113.263 121.868C115.03 118.193 116.6 117.921 118.999 119.51C121.843 121.393 125.086 116.089 126.87 118.979C128.655 121.868 128.995 133.553 122.961 128.199C116.928 122.845 111.956 134.743 111.956 134.743L118.372 139.289L128.655 139.544L131.629 123.653L128.655 112.563L117.183 112.435L113.358 117.917" fill="#4B4D5C"/>
<path d="M111.404 122.973C111.701 122.336 113.012 122.39 113.263 121.868C115.03 118.193 116.6 117.921 118.999 119.51C121.843 121.393 125.086 116.089 126.87 118.979C128.655 121.868 128.995 133.553 122.961 128.199C116.928 122.845 111.956 134.743 111.956 134.743L118.372 139.289L128.655 139.544L131.629 123.653L128.655 112.563L117.183 112.435L113.358 117.917" stroke="#3D3D3C" stroke-width="1.07592" stroke-linecap="round" stroke-linejoin="round"/>
</g>
<path fill-rule="evenodd" clip-rule="evenodd" d="M121.346 136.825V136.825C117.31 136.825 114.038 133.553 114.038 129.516V121.868C114.038 119.93 114.808 118.071 116.178 116.7C117.549 115.33 119.408 114.56 121.346 114.56V114.56C123.284 114.56 125.143 115.33 126.514 116.7C127.884 118.071 128.654 119.93 128.654 121.868V129.516C128.654 131.455 127.884 133.314 126.514 134.684C125.143 136.055 123.284 136.825 121.346 136.825Z" stroke="#3D3D3C" stroke-width="1.07592" stroke-linecap="round" stroke-linejoin="round"/>
<path d="M107.612 161.749L108.347 160.846L109.614 159.273C110.598 153.376 111.648 153.707 111.648 152.946C111.648 152.186 113.322 151.361 112.239 155.729C112.239 155.729 117.531 152.804 118.379 152.775C119.964 153.518 117.386 154.949 117.386 154.949C118.877 153.746 118.291 156.051 118.291 156.051C118.291 156.051 119.048 156.817 118.272 157.903C118.272 157.903 114.846 161.554 114.475 161.652C114.105 161.749 109.016 165.882 109.016 165.882L107.612 161.749Z" fill="#FAD436"/>
<path fill-rule="evenodd" clip-rule="evenodd" d="M107.612 161.749L108.347 160.846L109.614 159.273C110.598 153.376 111.648 153.707 111.648 152.946C111.648 152.186 113.322 151.361 112.239 155.729C112.239 155.729 117.531 152.804 118.379 152.775C119.964 153.518 117.386 154.949 117.386 154.949C118.877 153.746 118.291 156.051 118.291 156.051C118.291 156.051 119.048 156.817 118.272 157.903C118.272 157.903 114.846 161.554 114.475 161.652C114.105 161.749 109.016 165.882 109.016 165.882L107.612 161.749Z" stroke="#3D3D3C" stroke-width="1.07592" stroke-linecap="round" stroke-linejoin="round"/>
</g>
<circle cx="121.346" cy="130.49" r="22.2844" stroke="#3D3D3C" stroke-width="1.07592" stroke-linecap="round" stroke-linejoin="round"/>
<rect x="102.118" y="165.767" width="38.4582" height="9.27118" rx="4.63559" fill="#F5F6F7" stroke="#3D3D3C" stroke-width="1.07592" stroke-linecap="round" stroke-linejoin="round"/>
<rect x="102.118" y="185.597" width="38.4582" height="9.27118" rx="4.63559" fill="#F5F6F7" stroke="#3D3D3C" stroke-width="1.07592" stroke-linecap="round" stroke-linejoin="round"/>
<rect x="102.118" y="205.427" width="38.4582" height="9.27118" rx="4.63559" fill="#F5F6F7" stroke="#3D3D3C" stroke-width="1.07592" stroke-linecap="round" stroke-linejoin="round"/>
<rect x="182.197" y="142.922" width="25.9408" height="38.4401" fill="#FAD436" stroke="#3D3D3C" stroke-width="1.07592" stroke-linecap="round" stroke-linejoin="round"/>
<rect x="218.088" y="115.901" width="25.9408" height="65.461" fill="#FAD436"/>
<mask id="mask6_1_9058" style="mask-type:alpha" maskUnits="userSpaceOnUse" x="218" y="115" width="27" height="67">
<rect x="218.088" y="115.901" width="25.9408" height="65.461" fill="white"/>
</mask>
<g mask="url(#mask6_1_9058)">
<path d="M269.277 105.737L244.03 115.901L211.699 195.281L250.957 198.165L253.051 118.23" fill="#FFA008"/>
</g>
<rect x="218.088" y="115.901" width="25.9408" height="65.461" stroke="#3D3D3C" stroke-width="1.07592" stroke-linecap="round" stroke-linejoin="round"/>
<rect x="253.977" y="130.601" width="25.9408" height="50.7607" fill="#FAD436" stroke="#3D3D3C" stroke-width="1.07592" stroke-linecap="round" stroke-linejoin="round"/>
<rect x="289.868" y="134.708" width="25.9408" height="46.6544" fill="#FAD436"/>
<mask id="mask7_1_9058" style="mask-type:alpha" maskUnits="userSpaceOnUse" x="289" y="134" width="27" height="48">
<rect x="289.868" y="134.708" width="25.9408" height="46.6544" fill="white"/>
</mask>
<g mask="url(#mask7_1_9058)">
<path d="M318.321 158.638C312.825 157.42 318.321 180.318 300.524 181.699C282.727 183.08 311.255 187.808 311.255 187.808L321.265 176.365" fill="#FFA008"/>
</g>
<rect x="289.868" y="134.708" width="25.9408" height="46.6544" stroke="#3D3D3C" stroke-width="1.07592" stroke-linecap="round" stroke-linejoin="round"/>
<rect x="182.197" y="189.946" width="133.61" height="6.61" rx="3.30499" fill="#F5F6F7" stroke="#3D3D3C" stroke-width="1.07592" stroke-linecap="round" stroke-linejoin="round"/>
<rect x="182.197" y="203.452" width="81.2329" height="6.61" rx="3.30499" fill="#F5F6F7" stroke="#3D3D3C" stroke-width="1.07592" stroke-linecap="round" stroke-linejoin="round"/>
<path d="M119.62 248.461L122.542 251.331" stroke="#3D3D3C" stroke-width="1.07592" stroke-linecap="round" stroke-linejoin="round"/>
<path d="M54.2681 161.234C61.2688 180.066 49.0864 207.5 49.0864 207.5L54.2681 161.234Z" fill="#FAD436"/>
<path d="M54.2681 161.234C61.2688 180.066 49.0864 207.5 49.0864 207.5" stroke="#3D3D3C" stroke-width="1.07592" stroke-linecap="round" stroke-linejoin="round"/>
<path d="M41.2499 146.97C54.3045 158.344 65.2265 177.179 45.3159 207.352C45.3159 207.352 17.4378 181.178 41.2499 146.97Z" fill="#FAD436"/>
<mask id="mask8_1_9058" style="mask-type:alpha" maskUnits="userSpaceOnUse" x="31" y="146" width="26" height="62">
<path fill-rule="evenodd" clip-rule="evenodd" d="M41.2499 146.97C54.3045 158.344 65.2265 177.179 45.3159 207.352C45.3159 207.352 17.4378 181.178 41.2499 146.97Z" fill="white"/>
</mask>
<g mask="url(#mask8_1_9058)">
<path d="M40.545 142.32C25.3169 166.809 47.4278 165.904 48.2564 186.702C49.0851 207.5 28.6685 170.137 28.6685 170.137L32.9794 146.97H34.9249" fill="#FFA008"/>
</g>
<path fill-rule="evenodd" clip-rule="evenodd" d="M41.2499 146.97C54.3045 158.344 65.2265 177.179 45.3159 207.352C45.3159 207.352 17.4378 181.178 41.2499 146.97Z" stroke="#3D3D3C" stroke-width="1.07592" stroke-linecap="round" stroke-linejoin="round"/>
<path d="M62.3239 120.855C71.0434 140.383 76.1499 167.447 51.6909 192.357C51.6909 192.357 33.513 148.485 62.3239 120.855Z" fill="#ECEDEE"/>
<mask id="mask9_1_9058" style="mask-type:alpha" maskUnits="userSpaceOnUse" x="46" y="120" width="24" height="73">
<path fill-rule="evenodd" clip-rule="evenodd" d="M62.3235 120.855C71.0429 140.383 76.1495 167.447 51.6904 192.357C51.6904 192.357 33.5125 148.485 62.3235 120.855Z" fill="white"/>
</mask>
<g mask="url(#mask9_1_9058)">
<path d="M60.2866 115.949L62.324 120.855C62.324 120.855 69.1789 161.055 54.3572 188.795C39.5354 216.535 90.837 145.545 90.837 145.545L71.5268 121.666L60.2866 115.949Z" fill="#CFCFD0"/>
</g>
<path fill-rule="evenodd" clip-rule="evenodd" d="M62.3239 120.855C71.0434 140.383 76.1499 167.447 51.6909 192.357C51.6909 192.357 33.513 148.485 62.3239 120.855Z" stroke="#3D3D3C" stroke-width="1.07592" stroke-linecap="round" stroke-linejoin="round"/>
<path d="M7.01611 151.978C25.04 154.72 46.0962 164.673 49.084 199.546C49.084 199.546 9.38519 192.142 7.01611 151.978Z" fill="#ECEDEE"/>
<mask id="mask10_1_9058" style="mask-type:alpha" maskUnits="userSpaceOnUse" x="7" y="151" width="43" height="49">
<path fill-rule="evenodd" clip-rule="evenodd" d="M7.01611 151.978C25.04 154.72 46.0962 164.673 49.084 199.546C49.084 199.546 9.38519 192.142 7.01611 151.978Z" fill="white"/>
</mask>
<g mask="url(#mask10_1_9058)">
<path d="M-3.12041 158.748L7.01576 151.978C7.01576 151.978 19.3638 187.844 47.893 196.576C76.4222 205.308 -11.9829 211.491 -11.9829 211.491L-5.28199 160.067" fill="#CFCFD0"/>
</g>
<path fill-rule="evenodd" clip-rule="evenodd" d="M7.01611 151.978C25.04 154.72 46.0962 164.673 49.084 199.546C49.084 199.546 9.38519 192.142 7.01611 151.978Z" stroke="#3D3D3C" stroke-width="1.07592" stroke-linecap="round" stroke-linejoin="round"/>
<path d="M87.2301 150.261C90.2813 166.276 86.6753 187.219 50.6154 201.263C50.6154 201.263 45.3451 165.537 87.2301 150.261Z" fill="#FAD436"/>
<mask id="mask11_1_9058" style="mask-type:alpha" maskUnits="userSpaceOnUse" x="50" y="150" width="39" height="52">
<path fill-rule="evenodd" clip-rule="evenodd" d="M87.2291 150.261C90.2803 166.276 86.6743 187.219 50.6144 201.263C50.6144 201.263 45.3441 165.537 87.2291 150.261Z" fill="white"/>
</mask>
<g mask="url(#mask11_1_9058)">
<path d="M41.5868 189.155C72.192 203.24 86.9861 167.968 86.9861 167.968L90.26 197.224L69.5371 209.329L36.9409 198.05L38.0938 191.151" fill="#FFA008"/>
</g>
<path fill-rule="evenodd" clip-rule="evenodd" d="M87.2301 150.261C90.2813 166.276 86.6753 187.219 50.6154 201.263C50.6154 201.263 45.3451 165.537 87.2301 150.261Z" stroke="#3D3D3C" stroke-width="1.07592" stroke-linecap="round" stroke-linejoin="round"/>
<path d="M30.0738 235.378H67.3865L74.1952 192.886H23.2651L30.0738 235.378Z" fill="#4F4F5B"/>
<mask id="mask12_1_9058" style="mask-type:alpha" maskUnits="userSpaceOnUse" x="23" y="192" width="52" height="44">
<path fill-rule="evenodd" clip-rule="evenodd" d="M30.0743 235.378H67.387L74.1957 192.886H23.2656L30.0743 235.378Z" fill="white"/>
</mask>
<g mask="url(#mask12_1_9058)">
<path d="M19.1219 198.05C85.0767 201.98 62.6843 235.378 62.6843 235.378L74.1965 236.565L83.6275 195.468L74.1965 187.469L14.1768 192.357" fill="#3D3D3C"/>
</g>
<path fill-rule="evenodd" clip-rule="evenodd" d="M30.0738 235.378H67.3865L74.1952 192.886H23.2651L30.0738 235.378V235.378Z" stroke="#3D3D3C" stroke-width="1.07592" stroke-linecap="round" stroke-linejoin="round"/>
<rect x="78.4795" y="198.05" width="59.3602" height="6.89883" transform="rotate(-180 78.4795 198.05)" fill="#4F4F5B" stroke="#3D3D3C" stroke-width="1.07592" stroke-linecap="round" stroke-linejoin="round"/>
<path d="M41.7212 224.464L42.3661 224.901L41.7212 224.464Z" fill="#ECEDEE"/>
<path d="M41.7212 224.464L42.3661 224.901" stroke="#3D3D3C" stroke-width="1.07592" stroke-linecap="round" stroke-linejoin="round"/>
<path d="M24.3296 173.432C24.6107 174.19 24.9749 174.914 25.4154 175.592L24.3296 173.432Z" fill="#ECEDEE"/>
<path d="M24.3296 173.432C24.6107 174.19 24.9749 174.914 25.4154 175.592" stroke="#3D3D3C" stroke-width="1.07592" stroke-linecap="round" stroke-linejoin="round"/>
<path d="M65.6155 141.872C65.8242 143.088 65.8226 144.33 65.6108 145.545L65.6155 141.872Z" fill="#ECEDEE"/>
<path d="M65.6155 141.872C65.8242 143.088 65.8226 144.33 65.6108 145.545" stroke="#3D3D3C" stroke-width="1.07592" stroke-linecap="round" stroke-linejoin="round"/>
<path d="M67.4745 178.955L65.9648 181.011L67.4745 178.955Z" fill="#ECEDEE"/>
<path d="M67.4745 178.955L65.9648 181.011" stroke="#3D3D3C" stroke-width="1.07592" stroke-linecap="round" stroke-linejoin="round"/>
<path opacity="0.32" d="M315.573 191.753C318.991 189.685 363.476 161.901 349.624 124.87L339.836 119.277L339.846 119.246L339.764 119.236L339.691 119.195L339.681 119.225L328.498 117.797C295.144 139.026 313.935 187.992 315.419 191.701L315.358 191.882C315.358 191.882 315.399 191.858 315.466 191.818C315.494 191.889 315.513 191.934 315.513 191.934L315.573 191.753Z" fill="#FAD436"/>
<path opacity="0.38" d="M320.624 176.611C323.328 174.974 358.522 152.993 347.563 123.696L339.819 119.271L339.827 119.247L339.762 119.239L339.705 119.206L339.697 119.231L330.849 118.101C304.461 134.896 319.327 173.635 320.501 176.57L320.454 176.713C320.454 176.713 320.486 176.694 320.539 176.662C320.561 176.719 320.576 176.754 320.576 176.754L320.624 176.611Z" fill="#FAD436"/>
<path d="M325.919 160.737C327.876 159.553 353.334 143.652 345.407 122.46L339.805 119.259L339.811 119.242L339.764 119.236L339.722 119.212L339.716 119.23L333.316 118.412C314.228 130.561 324.982 158.584 325.831 160.707L325.796 160.811C325.796 160.811 325.82 160.797 325.858 160.774C325.874 160.815 325.885 160.84 325.885 160.84L325.919 160.737Z" fill="#FAD436" stroke="#3D3D3C" stroke-width="1.07592" stroke-linecap="round" stroke-linejoin="round"/>
<path d="M378.436 1.23646C370.29 8.70796 322.832 54.708 321.879 113.239L339.632 119.182L339.899 119.272L357.651 125.214C392.13 77.9067 381.932 12.6055 379.925 1.7349C379.866 1.41377 379.638 1.15005 379.328 1.04641C379.018 0.942761 378.677 1.01556 378.436 1.23646Z" fill="#F5F6F7"/>
<mask id="mask13_1_9058" style="mask-type:alpha" maskUnits="userSpaceOnUse" x="321" y="1" width="62" height="125">
<path fill-rule="evenodd" clip-rule="evenodd" d="M378.436 1.23646C370.29 8.70796 322.832 54.708 321.879 113.239L339.632 119.182L339.899 119.272L357.651 125.214C392.13 77.9067 381.932 12.6055 379.925 1.7349C379.866 1.41377 379.638 1.15005 379.328 1.04641C379.018 0.942761 378.677 1.01556 378.436 1.23646Z" fill="white"/>
</mask>
<g mask="url(#mask13_1_9058)">
<path d="M371.463 24.5375C386.396 29.5365 396.952 39.656 397.781 48.8344C398.901 47.6154 399.755 46.1759 400.286 44.6082C403.703 34.4018 392.164 21.3376 374.513 15.4285C356.862 9.51952 339.782 13.0033 336.366 23.2096C335.846 24.7816 335.661 26.4447 335.822 28.0924C342.01 21.2632 356.53 19.5385 371.463 24.5375Z" fill="#FAD436" stroke="#3D3D3C" stroke-width="1.07592" stroke-linecap="round" stroke-linejoin="round"/>
<path d="M355.848 71.1814C377.494 78.428 392.796 93.0973 393.998 106.402C395.622 104.635 396.859 102.549 397.63 100.276C402.583 85.4807 385.855 66.5428 360.268 57.9771C334.681 49.4113 309.923 54.4614 304.97 69.2566C304.217 71.5353 303.949 73.9461 304.181 76.3347C313.151 66.435 334.201 63.9348 355.848 71.1814Z" fill="#4F4F5B" stroke="#3D3D3C" stroke-width="1.07592" stroke-linecap="round" stroke-linejoin="round"/>
</g>
<path fill-rule="evenodd" clip-rule="evenodd" d="M378.436 1.23646C370.29 8.70796 322.832 54.708 321.879 113.239L339.632 119.182L339.899 119.272L357.651 125.214C392.13 77.9067 381.932 12.6055 379.925 1.7349C379.866 1.41377 379.638 1.15005 379.328 1.04641C379.018 0.942761 378.677 1.01556 378.436 1.23646Z" stroke="#3D3D3C" stroke-width="1.07592" stroke-linecap="round" stroke-linejoin="round"/>
<circle cx="365.619" cy="42.0018" r="11.8336" fill="#F5F6F7" stroke="#3D3D3C" stroke-width="1.07592" stroke-linecap="round" stroke-linejoin="round"/>
<circle cx="365.619" cy="42.0017" r="9.42093" fill="#FAD436"/>
<mask id="mask14_1_9058" style="mask-type:alpha" maskUnits="userSpaceOnUse" x="356" y="32" width="20" height="20">
<circle cx="365.619" cy="42.0017" r="9.42093" fill="white"/>
</mask>
<g mask="url(#mask14_1_9058)">
<path d="M373.246 34.6201C373.909 49.0298 354.855 50.1259 354.855 50.1259L375.42 60.4297L380.787 40.5974" fill="#FFA008"/>
</g>
<circle cx="365.619" cy="42.0017" r="9.42093" stroke="#3D3D3C" stroke-width="1.07592" stroke-linecap="round" stroke-linejoin="round"/>
<path d="M321.917 113.252L357.612 125.201L356.291 129.147C356.228 129.337 356.022 129.44 355.831 129.376L320.825 117.658C320.635 117.594 320.532 117.388 320.596 117.197L321.917 113.252V113.252Z" fill="#F5F6F7" stroke="#3D3D3C" stroke-width="1.07592" stroke-linecap="round" stroke-linejoin="round"/>
<path d="M330.129 71.3573L313.989 79.5876C307.61 82.8407 302.948 89.097 301.465 96.3943L295.109 127.675L326.397 110.099L330.129 71.3573Z" fill="#4F4F5B"/>
<mask id="mask15_1_9058" style="mask-type:alpha" maskUnits="userSpaceOnUse" x="295" y="71" width="36" height="57">
<path fill-rule="evenodd" clip-rule="evenodd" d="M330.129 71.3573L313.989 79.5876C307.61 82.8407 302.948 89.097 301.465 96.3943L295.109 127.675L326.397 110.099L330.129 71.3573Z" fill="white"/>
</mask>
<g mask="url(#mask15_1_9058)">
<path d="M370.976 71.0295L381.064 69.3972L342.678 73.2456L330.128 71.3574C319.137 76.9623 335.294 102.024 307.027 123.573C278.759 145.122 342.01 127.89 342.01 127.89L350.005 92.6357" fill="#3D3D3C"/>
</g>
<path fill-rule="evenodd" clip-rule="evenodd" d="M330.129 71.3573L313.989 79.5876C307.61 82.8407 302.948 89.097 301.465 96.3943L295.109 127.675L326.397 110.099L330.129 71.3573Z" stroke="#3D3D3C" stroke-width="1.07592" stroke-linecap="round" stroke-linejoin="round"/>
<path d="M376.279 86.8069L384.21 103.095C387.345 109.534 387.301 117.336 384.092 124.055L370.334 152.858L355.933 119.987L376.279 86.8069Z" fill="#4F4F5B"/>
<mask id="mask16_1_9058" style="mask-type:alpha" maskUnits="userSpaceOnUse" x="355" y="86" width="32" height="67">
<path fill-rule="evenodd" clip-rule="evenodd" d="M376.28 86.8069L384.211 103.095C387.346 109.534 387.302 117.336 384.093 124.055L370.335 152.858L355.934 119.987L376.28 86.8069Z" fill="white"/>
</mask>
<g mask="url(#mask16_1_9058)">
<path d="M343.861 61.9525L336.788 54.5752L365.121 80.7588L376.278 86.8069C381.68 97.8996 353.69 108.183 363.286 142.407C372.883 176.632 332.755 124.791 332.755 124.791L347.597 91.8296" fill="#3D3D3C"/>
</g>
<path fill-rule="evenodd" clip-rule="evenodd" d="M376.279 86.8069L384.21 103.095C387.345 109.534 387.301 117.336 384.092 124.055L370.334 152.858L355.933 119.987L376.279 86.8069Z" stroke="#3D3D3C" stroke-width="1.07592" stroke-linecap="round" stroke-linejoin="round"/>
<path d="M352.469 92.9266L351.985 82.7252L345.457 90.5798C343.646 92.7594 342.393 95.3474 341.806 98.1201L333.873 135.618C333.833 135.81 333.943 136.002 334.129 136.065C334.316 136.127 334.519 136.04 334.603 135.862L350.845 101.145C352.046 98.5783 352.603 95.7574 352.469 92.9266Z" fill="#4F4F5B"/>
<mask id="mask17_1_9058" style="mask-type:alpha" maskUnits="userSpaceOnUse" x="333" y="82" width="20" height="55">
<path fill-rule="evenodd" clip-rule="evenodd" d="M352.47 92.9266L351.986 82.7252L345.458 90.5798C343.646 92.7594 342.393 95.3474 341.806 98.1201L333.874 135.618C333.833 135.81 333.943 136.002 334.13 136.065C334.316 136.127 334.52 136.04 334.603 135.862L350.845 101.145C352.046 98.5783 352.604 95.7574 352.47 92.9266Z" fill="white"/>
</mask>
<g mask="url(#mask17_1_9058)">
<path d="M358.313 79.1949L351.985 82.7253L333.506 137.924L349.623 124.87L358.382 93.2928" fill="#3D3D3C"/>
</g>
<path fill-rule="evenodd" clip-rule="evenodd" d="M352.469 92.9266L351.985 82.7252L345.457 90.5798C343.646 92.7594 342.393 95.3474 341.806 98.1201L333.873 135.618C333.833 135.81 333.943 136.002 334.129 136.065C334.316 136.127 334.519 136.04 334.603 135.862L350.845 101.145C352.046 98.5783 352.603 95.7574 352.469 92.9266V92.9266Z" stroke="#3D3D3C" stroke-width="1.07592" stroke-linecap="round" stroke-linejoin="round"/>
<path d="M314.077 96.9373C312.783 99.0757 312.618 101.711 313.633 103.995" stroke="#3D3D3C" stroke-width="1.07592" stroke-linecap="round" stroke-linejoin="round"/>
<path d="M379.587 35.8789C380.038 36.8043 379.921 37.9065 379.285 38.7164L379.587 35.8789Z" fill="#ECEDEE"/>
<path d="M379.587 35.8789C380.038 36.8043 379.921 37.9065 379.285 38.7164" stroke="#3D3D3C" stroke-width="1.07592" stroke-linecap="round" stroke-linejoin="round"/>
<path d="M373.308 128.865L370.758 130.624L373.308 128.865Z" fill="#ECEDEE"/>
<path d="M373.308 128.865L370.758 130.624" stroke="#3D3D3C" stroke-width="1.07592" stroke-linecap="round" stroke-linejoin="round"/>
<path d="M337.77 337.604H333.659L335.026 249.732H336.403L337.77 337.604Z" fill="#ECEDEE"/>
<mask id="mask18_1_9058" style="mask-type:alpha" maskUnits="userSpaceOnUse" x="333" y="249" width="5" height="89">
<path fill-rule="evenodd" clip-rule="evenodd" d="M337.771 337.604H333.66L335.026 249.732H336.404L337.771 337.604Z" fill="white"/>
</mask>
<g mask="url(#mask18_1_9058)">
<path d="M327.298 255.634C332.46 266.879 338.022 262.441 338.132 271.784C338.242 281.127 341.794 258.546 341.794 258.546L335.747 253.451" fill="#CFCFD0"/>
<path d="M340.1 277.61C335.48 287.529 328.206 288.033 328.206 288.033L330.808 297.567L334.801 291.937L345.263 299.369L344.13 281.005" fill="#CFCFD0"/>
<path d="M339.222 317.808C332.322 316.986 331.221 329.513 331.221 329.513L343.864 331.419L343.059 318.225" fill="#CFCFD0"/>
</g>
<path fill-rule="evenodd" clip-rule="evenodd" d="M337.77 337.604H333.659L335.026 249.732H336.403L337.77 337.604V337.604Z" stroke="#3D3D3C" stroke-width="1.07592" stroke-linecap="round" stroke-linejoin="round"/>
<path d="M364.55 299.369C366.569 332.918 345.713 340.909 333.64 337.932C333.64 313.959 352.687 303.208 364.55 299.369Z" fill="#FAD436"/>
<mask id="mask19_1_9058" style="mask-type:alpha" maskUnits="userSpaceOnUse" x="333" y="299" width="32" height="40">
<path fill-rule="evenodd" clip-rule="evenodd" d="M364.549 299.369C366.568 332.918 345.713 340.909 333.64 337.932C333.64 313.959 352.687 303.208 364.549 299.369Z" fill="white"/>
</mask>
<g mask="url(#mask19_1_9058)">
<path d="M358.32 310.169C345.327 338.205 328.12 340.827 328.12 340.827L327.087 337.181C327.087 337.181 334.941 343.45 358.32 310.169Z" fill="#FFA008"/>
<path d="M341.27 311.48C327.641 324.558 343.665 325.766 335.716 340.079C327.768 354.391 325.739 330.182 325.739 330.182L329.921 317.164" fill="#FAD436"/>
<path d="M341.27 311.48C327.641 324.558 343.665 325.766 335.716 340.079C327.768 354.391 325.739 330.182 325.739 330.182L329.921 317.164" stroke="#3D3D3C" stroke-width="1.07592" stroke-linecap="round" stroke-linejoin="round"/>
</g>
<path fill-rule="evenodd" clip-rule="evenodd" d="M364.55 299.369C366.569 332.918 345.713 340.909 333.64 337.932C333.64 313.959 352.687 303.208 364.55 299.369Z" stroke="#3D3D3C" stroke-width="1.07592" stroke-linecap="round" stroke-linejoin="round"/>
<path d="M359.938 263.671C358.498 286.862 343.514 290.588 335.48 287.529C337.5 271.079 351.475 265.306 359.938 263.671Z" fill="#FAD436"/>
<mask id="mask20_1_9058" style="mask-type:alpha" maskUnits="userSpaceOnUse" x="335" y="263" width="25" height="26">
<path fill-rule="evenodd" clip-rule="evenodd" d="M359.937 263.671C358.497 286.862 343.513 290.589 335.479 287.529C337.499 271.079 351.474 265.306 359.937 263.671Z" fill="white"/>
</mask>
<g mask="url(#mask20_1_9058)">
<path d="M354.754 270.557C343.477 288.7 331.449 289.05 331.449 289.05L331.047 286.462C331.047 286.462 335.909 291.425 354.754 270.557Z" fill="#FFA008"/>
<path d="M363.847 263.491C363.296 263.163 362.771 263.009 359.939 263.671C357.106 264.333 358.303 286.48 335.481 287.529C312.658 288.578 347.71 291.081 347.71 291.081L356.913 289.504L366.417 268.229L362.211 260.352" fill="#FFA008"/>
</g>
<path fill-rule="evenodd" clip-rule="evenodd" d="M359.938 263.671C358.498 286.862 343.514 290.588 335.48 287.529C337.5 271.079 351.475 265.306 359.938 263.671Z" stroke="#3D3D3C" stroke-width="1.07592" stroke-linecap="round" stroke-linejoin="round"/>
<path d="M311.956 270.334C313.396 293.525 328.38 297.252 336.413 294.192C334.394 277.742 320.419 271.969 311.956 270.334Z" fill="#FAD436"/>
<mask id="mask21_1_9058" style="mask-type:alpha" maskUnits="userSpaceOnUse" x="311" y="270" width="26" height="26">
<path fill-rule="evenodd" clip-rule="evenodd" d="M311.956 270.334C313.396 293.525 328.38 297.252 336.413 294.192C334.394 277.742 320.419 271.969 311.956 270.334Z" fill="white"/>
</mask>
<g mask="url(#mask21_1_9058)">
<path d="M317.14 277.22C328.417 295.364 340.445 295.714 340.445 295.714L340.847 293.125C340.847 293.125 335.985 298.088 317.14 277.22Z" fill="#FFA008"/>
<path d="M315.915 268.229L311.956 270.334C322.932 273.706 333.76 285.577 336.413 294.192C339.067 302.808 339.534 287.086 339.534 287.086L327.779 268.229L318.831 266.604" fill="#FFA008"/>
</g>
<path fill-rule="evenodd" clip-rule="evenodd" d="M311.956 270.334C313.396 293.525 328.38 297.252 336.413 294.192C334.394 277.742 320.419 271.969 311.956 270.334Z" stroke="#3D3D3C" stroke-width="1.07592" stroke-linecap="round" stroke-linejoin="round"/>
<circle cx="335.747" cy="239.187" r="21.1622" fill="#ECEDEE" stroke="#3D3D3C" stroke-width="1.07592" stroke-linecap="round" stroke-linejoin="round"/>
<path d="M343.329 226.752C350.317 231.014 352.583 240.101 348.414 247.145C348.45 247.089 348.488 247.035 348.522 246.977C351.308 242.413 351.446 236.709 348.885 232.014C346.324 227.32 341.452 224.35 336.106 224.222C330.76 224.095 325.752 226.83 322.97 231.397C322.935 231.454 322.905 231.512 322.871 231.57C327.224 224.638 336.34 222.491 343.329 226.752Z" fill="#FE8C07"/>
<path d="M327.956 251.963C320.967 247.701 318.701 238.614 322.87 231.57C322.835 231.626 322.797 231.68 322.762 231.737C319.976 236.302 319.838 242.006 322.4 246.7C324.961 251.395 329.833 254.365 335.179 254.493C340.525 254.62 345.532 251.885 348.314 247.318C348.349 247.261 348.38 247.202 348.414 247.145C344.061 254.077 334.945 256.224 327.956 251.963Z" fill="#FAD436" stroke="#3D3D3C" stroke-width="1.07592" stroke-linecap="round" stroke-linejoin="round"/>
<ellipse cx="335.643" cy="239.357" rx="14.7644" ry="14.9589" transform="rotate(-58.625 335.643 239.357)" fill="#FAD436" stroke="#3D3D3C" stroke-width="1.07592" stroke-linecap="round" stroke-linejoin="round"/>
<ellipse cx="335.643" cy="239.357" rx="14.7644" ry="14.9589" transform="rotate(-58.625 335.643 239.357)" fill="#F5F6F7" stroke="#3D3D3C" stroke-width="1.07592" stroke-linecap="round" stroke-linejoin="round"/>
<path fill-rule="evenodd" clip-rule="evenodd" d="M338.818 240.625L338.817 240.624C338.661 240.357 338.258 239.856 337.613 239.127L338.879 237.051C339.073 237.48 339.064 237.864 338.845 238.2L341.178 239.623C341.875 238.529 341.981 237.387 341.494 236.197C341.241 235.583 340.871 235.023 340.404 234.55L341.281 233.113L340.321 232.528L339.538 233.812C339.4 233.713 339.259 233.619 339.114 233.531C339.056 233.496 338.997 233.464 338.938 233.432L338.898 233.41L339.676 232.134L338.718 231.55L337.872 232.937C337.241 232.711 336.571 232.611 335.901 232.645C334.708 232.715 333.769 233.223 333.084 234.167C332.245 235.317 332.195 236.508 332.934 237.739C333.084 237.999 333.469 238.468 334.086 239.145L332.665 241.475C332.641 241.434 332.619 241.392 332.598 241.349C332.341 240.833 332.344 240.226 332.605 239.712L330.205 238.249C329.51 239.515 329.416 240.789 329.922 242.073C330.201 242.775 330.624 243.411 331.163 243.939L330.318 245.325L331.277 245.909L332.036 244.663C332.156 244.747 332.279 244.83 332.407 244.908C332.468 244.945 332.529 244.978 332.59 245.012C332.62 245.028 332.65 245.044 332.679 245.061L331.922 246.303L332.881 246.888L333.709 245.53C334.403 245.776 335.14 245.877 335.874 245.827C337.074 245.775 338.175 245.149 338.834 244.145C339.564 243.048 339.559 241.874 338.818 240.625ZM335.569 236.714C335.344 236.283 335.333 235.942 335.541 235.69C335.731 235.449 336.016 235.339 336.394 235.361L335.569 236.714ZM333.75 242.552C333.865 242.622 333.98 242.682 334.094 242.738L335.423 240.559C335.241 240.372 335.061 240.185 334.881 239.996L333.449 242.344C333.546 242.419 333.646 242.488 333.75 242.552ZM336.827 238.258C336.676 238.092 336.524 237.927 336.371 237.763L336.294 237.681L337.502 235.701L337.544 235.723L337.544 235.723C337.585 235.745 337.626 235.766 337.667 235.791L337.667 235.79C337.829 235.889 337.984 235.999 338.131 236.12L336.827 238.258ZM335.222 243.049C335.692 243.08 336.038 242.957 336.252 242.68H336.252C336.483 242.378 336.455 241.984 336.169 241.494L335.222 243.049Z" fill="#FAD436"/>
<path d="M338.817 240.624L338.352 240.895C338.398 240.973 338.462 241.038 338.539 241.085L338.817 240.624ZM338.818 240.625L339.28 240.35C339.235 240.274 339.171 240.21 339.095 240.164L338.818 240.625ZM337.613 239.127L337.154 238.847C337.031 239.048 337.054 239.306 337.21 239.483L337.613 239.127ZM338.879 237.051L339.37 236.829C339.287 236.648 339.112 236.526 338.912 236.514C338.713 236.501 338.524 236.6 338.42 236.771L338.879 237.051ZM338.845 238.2L338.394 237.907C338.315 238.029 338.288 238.178 338.321 238.32C338.353 238.461 338.441 238.584 338.565 238.66L338.845 238.2ZM341.178 239.623L340.898 240.082C341.148 240.235 341.474 240.159 341.632 239.912L341.178 239.623ZM341.494 236.197L341.992 235.993L341.991 235.993L341.494 236.197ZM340.404 234.55L339.945 234.27C339.816 234.481 339.848 234.752 340.021 234.928L340.404 234.55ZM341.281 233.113L341.74 233.393C341.894 233.139 341.814 232.808 341.561 232.653L341.281 233.113ZM340.321 232.528L340.601 232.068C340.479 231.994 340.333 231.971 340.194 232.005C340.056 232.038 339.936 232.126 339.862 232.248L340.321 232.528ZM339.538 233.812L339.224 234.249C339.346 234.336 339.498 234.369 339.645 234.339C339.792 234.309 339.919 234.22 339.997 234.092L339.538 233.812ZM339.114 233.531L338.833 233.99L338.833 233.99L339.114 233.531ZM338.938 233.432L338.68 233.904L338.681 233.904L338.938 233.432ZM338.898 233.41L338.439 233.13C338.363 233.255 338.341 233.407 338.379 233.549C338.417 233.691 338.511 233.811 338.64 233.882L338.898 233.41ZM339.676 232.134L340.135 232.414C340.21 232.293 340.233 232.146 340.199 232.008C340.165 231.869 340.078 231.749 339.956 231.675L339.676 232.134ZM338.718 231.55L338.998 231.09C338.744 230.936 338.413 231.016 338.258 231.27L338.718 231.55ZM337.872 232.937L337.69 233.443C337.93 233.53 338.198 233.435 338.331 233.217L337.872 232.937ZM335.901 232.645L335.874 232.107L335.869 232.108L335.901 232.645ZM333.084 234.167L333.519 234.484L333.52 234.483L333.084 234.167ZM332.934 237.739L333.399 237.469L333.395 237.463L332.934 237.739ZM334.086 239.145L334.546 239.425C334.67 239.221 334.645 238.959 334.484 238.782L334.086 239.145ZM332.665 241.475L332.201 241.747C332.297 241.911 332.471 242.012 332.661 242.013C332.85 242.015 333.026 241.917 333.125 241.755L332.665 241.475ZM332.598 241.349L333.083 241.116L333.08 241.109L332.598 241.349ZM332.605 239.712L333.084 239.955C333.211 239.705 333.125 239.399 332.885 239.253L332.605 239.712ZM330.205 238.249L330.485 237.79C330.36 237.713 330.209 237.691 330.067 237.729C329.925 237.767 329.805 237.861 329.734 237.99L330.205 238.249ZM329.922 242.073L329.422 242.271L329.422 242.272L329.922 242.073ZM331.163 243.939L331.622 244.219C331.753 244.006 331.718 243.73 331.54 243.555L331.163 243.939ZM330.318 245.325L329.859 245.045C329.704 245.299 329.784 245.63 330.038 245.784L330.318 245.325ZM331.277 245.909L330.997 246.369C331.118 246.443 331.265 246.466 331.403 246.432C331.542 246.399 331.662 246.311 331.736 246.19L331.277 245.909ZM332.036 244.663L332.346 244.223C332.224 244.138 332.072 244.106 331.927 244.137C331.781 244.167 331.655 244.256 331.577 244.383L332.036 244.663ZM332.407 244.908L332.127 245.368L332.127 245.368L332.407 244.908ZM332.59 245.012L332.847 244.539L332.847 244.539L332.59 245.012ZM332.679 245.061L333.138 245.341C333.214 245.216 333.236 245.066 333.199 244.924C333.162 244.783 333.069 244.663 332.942 244.591L332.679 245.061ZM331.922 246.303L331.462 246.023C331.308 246.276 331.388 246.607 331.641 246.762L331.922 246.303ZM332.881 246.888L332.601 247.347C332.723 247.421 332.869 247.444 333.008 247.411C333.146 247.377 333.266 247.29 333.34 247.168L332.881 246.888ZM333.709 245.53L333.889 245.023C333.649 244.938 333.382 245.032 333.25 245.25L333.709 245.53ZM335.874 245.827L335.851 245.29L335.838 245.291L335.874 245.827ZM338.834 244.145L338.386 243.847L338.384 243.85L338.834 244.145ZM335.541 235.69L335.956 236.032L335.963 236.023L335.541 235.69ZM335.569 236.714L335.092 236.963C335.182 237.135 335.357 237.245 335.551 237.252C335.745 237.258 335.927 237.16 336.028 236.994L335.569 236.714ZM336.394 235.361L336.853 235.641C336.952 235.479 336.958 235.278 336.87 235.111C336.783 234.943 336.613 234.834 336.425 234.824L336.394 235.361ZM334.094 242.738L333.86 243.222C334.11 243.342 334.41 243.254 334.554 243.018L334.094 242.738ZM333.75 242.552L333.467 243.01L333.47 243.011L333.75 242.552ZM335.423 240.559L335.882 240.84C336.01 240.63 335.98 240.361 335.809 240.185L335.423 240.559ZM334.881 239.996L335.271 239.625C335.156 239.504 334.99 239.443 334.824 239.461C334.658 239.479 334.509 239.573 334.422 239.716L334.881 239.996ZM333.449 242.344L332.99 242.064C332.847 242.298 332.904 242.603 333.121 242.77L333.449 242.344ZM336.371 237.763L335.977 238.129L335.978 238.13L336.371 237.763ZM336.827 238.258L336.429 238.62C336.544 238.745 336.71 238.809 336.879 238.793C337.047 238.777 337.198 238.683 337.287 238.538L336.827 238.258ZM336.294 237.681L335.835 237.401C335.71 237.606 335.736 237.871 335.901 238.047L336.294 237.681ZM337.502 235.701L337.751 235.224C337.5 235.093 337.19 235.179 337.042 235.421L337.502 235.701ZM337.544 235.723L337.802 235.251L337.793 235.247L337.544 235.723ZM337.544 235.723L337.287 236.196L337.297 236.201L337.544 235.723ZM337.667 235.791L337.387 236.25C337.64 236.405 337.971 236.325 338.126 236.072L337.667 235.791ZM337.667 235.79L337.948 235.331C337.695 235.176 337.364 235.256 337.209 235.509L337.667 235.79ZM338.131 236.12L338.59 236.4C338.729 236.172 338.68 235.876 338.473 235.705L338.131 236.12ZM336.252 242.68V242.142C336.085 242.142 335.927 242.219 335.825 242.351L336.252 242.68ZM335.222 243.049L334.763 242.768C334.665 242.929 334.658 243.129 334.744 243.296C334.831 243.463 334.999 243.573 335.186 243.585L335.222 243.049ZM336.252 242.68V243.217C336.419 243.217 336.576 243.14 336.678 243.007L336.252 242.68ZM336.169 241.494L336.634 241.224C336.539 241.06 336.364 240.958 336.175 240.956C335.985 240.955 335.809 241.053 335.71 241.214L336.169 241.494ZM338.539 241.085L338.54 241.085L339.095 240.164L339.095 240.163L338.539 241.085ZM337.21 239.483C337.862 240.221 338.228 240.682 338.352 240.895L339.281 240.353C339.094 240.032 338.653 239.492 338.017 238.771L337.21 239.483ZM338.42 236.771L337.154 238.847L338.073 239.407L339.339 237.331L338.42 236.771ZM339.296 238.493C339.635 237.972 339.622 237.389 339.37 236.829L338.389 237.272C338.524 237.572 338.493 237.756 338.394 237.907L339.296 238.493ZM341.458 239.164L339.125 237.741L338.565 238.66L340.898 240.082L341.458 239.164ZM340.996 236.401C341.416 237.427 341.329 238.385 340.724 239.334L341.632 239.912C342.422 238.672 342.545 237.346 341.992 235.993L340.996 236.401ZM340.021 234.928C340.439 235.351 340.77 235.852 340.996 236.402L341.991 235.993C341.712 235.313 341.303 234.695 340.787 234.172L340.021 234.928ZM340.821 232.833L339.945 234.27L340.863 234.83L341.74 233.393L340.821 232.833ZM340.041 232.987L341 233.572L341.561 232.653L340.601 232.068L340.041 232.987ZM339.997 234.092L340.78 232.808L339.862 232.248L339.079 233.532L339.997 234.092ZM338.833 233.99C338.967 234.072 339.097 234.158 339.224 234.249L339.852 233.375C339.703 233.268 339.55 233.167 339.394 233.072L338.833 233.99ZM338.681 233.904C338.742 233.937 338.789 233.963 338.833 233.99L339.394 233.072C339.323 233.029 339.253 232.991 339.196 232.959L338.681 233.904ZM338.64 233.882L338.68 233.904L339.196 232.96L339.156 232.938L338.64 233.882ZM339.217 231.854L338.439 233.13L339.358 233.69L340.135 232.414L339.217 231.854ZM338.438 232.009L339.396 232.594L339.956 231.675L338.998 231.09L338.438 232.009ZM338.331 233.217L339.177 231.83L338.258 231.27L337.412 232.657L338.331 233.217ZM335.928 233.182C336.527 233.152 337.126 233.241 337.69 233.443L338.053 232.431C337.355 232.18 336.615 232.071 335.874 232.108L335.928 233.182ZM333.52 234.483C334.107 233.673 334.896 233.243 335.933 233.182L335.869 232.108C334.52 232.187 333.431 232.773 332.649 233.852L333.52 234.483ZM333.395 237.463C333.068 236.918 332.935 236.416 332.955 235.946C332.975 235.476 333.149 234.991 333.519 234.484L332.65 233.85C332.18 234.494 331.91 235.18 331.88 235.9C331.849 236.621 332.06 237.329 332.472 238.016L333.395 237.463ZM334.484 238.782C333.859 238.097 333.516 237.671 333.399 237.469L332.468 238.009C332.653 238.328 333.078 238.838 333.689 239.507L334.484 238.782ZM333.125 241.755L334.546 239.425L333.627 238.865L332.206 241.195L333.125 241.755ZM332.113 241.581C332.14 241.638 332.17 241.693 332.201 241.747L333.13 241.203C333.113 241.175 333.098 241.146 333.083 241.116L332.113 241.581ZM332.125 239.468C331.787 240.134 331.784 240.92 332.117 241.588L333.08 241.109C332.899 240.745 332.9 240.318 333.084 239.955L332.125 239.468ZM329.925 238.708L332.325 240.171L332.885 239.253L330.485 237.79L329.925 238.708ZM330.422 241.876C329.978 240.749 330.055 239.641 330.677 238.508L329.734 237.99C328.966 239.388 328.854 240.83 329.422 242.271L330.422 241.876ZM331.54 243.555C331.054 243.079 330.673 242.507 330.422 241.874L329.422 242.272C329.729 243.044 330.194 243.742 330.786 244.323L331.54 243.555ZM330.777 245.605L331.622 244.219L330.704 243.659L329.859 245.045L330.777 245.605ZM331.557 245.45L330.598 244.866L330.038 245.784L330.997 246.369L331.557 245.45ZM331.577 244.383L330.817 245.629L331.736 246.19L332.496 244.943L331.577 244.383ZM332.687 244.449C332.572 244.379 332.46 244.303 332.346 244.223L331.727 245.103C331.853 245.192 331.985 245.281 332.127 245.368L332.687 244.449ZM332.847 244.539C332.784 244.505 332.735 244.478 332.687 244.449L332.127 245.368C332.201 245.412 332.274 245.452 332.333 245.484L332.847 244.539ZM332.942 244.591C332.909 244.573 332.876 244.555 332.847 244.539L332.333 245.484C332.363 245.501 332.39 245.515 332.416 245.53L332.942 244.591ZM332.381 246.583L333.138 245.341L332.22 244.781L331.462 246.023L332.381 246.583ZM333.161 246.429L332.202 245.843L331.641 246.762L332.601 247.347L333.161 246.429ZM333.25 245.25L332.422 246.608L333.34 247.168L334.168 245.81L333.25 245.25ZM335.838 245.291C335.177 245.335 334.513 245.244 333.889 245.023L333.529 246.037C334.292 246.307 335.103 246.419 335.91 246.364L335.838 245.291ZM338.384 243.85C337.82 244.709 336.878 245.245 335.851 245.29L335.898 246.365C337.27 246.305 338.53 245.589 339.284 244.44L338.384 243.85ZM338.355 240.899C338.688 241.461 338.838 241.974 338.84 242.444C338.842 242.911 338.7 243.376 338.386 243.847L339.282 244.443C339.699 243.817 339.919 243.146 339.916 242.439C339.912 241.737 339.688 241.038 339.28 240.35L338.355 240.899ZM335.126 235.347C334.715 235.845 334.825 236.452 335.092 236.963L336.046 236.465C335.956 236.292 335.932 236.181 335.93 236.12C335.929 236.072 335.939 236.053 335.956 236.032L335.126 235.347ZM336.425 234.824C335.917 234.795 335.444 234.945 335.119 235.356L335.963 236.023C336.019 235.953 336.114 235.884 336.364 235.898L336.425 234.824ZM336.028 236.994L336.853 235.641L335.935 235.081L335.11 236.434L336.028 236.994ZM334.329 242.253C334.225 242.203 334.126 242.151 334.03 242.092L333.47 243.011C333.604 243.093 333.736 243.162 333.86 243.222L334.329 242.253ZM334.963 240.279L333.635 242.457L334.554 243.018L335.882 240.84L334.963 240.279ZM334.492 240.367C334.672 240.557 334.854 240.746 335.036 240.934L335.809 240.185C335.629 239.999 335.449 239.812 335.271 239.625L334.492 240.367ZM333.909 242.624L335.341 240.276L334.422 239.716L332.99 242.064L333.909 242.624ZM334.032 242.094C333.944 242.04 333.86 241.981 333.778 241.918L333.121 242.77C333.232 242.856 333.348 242.936 333.467 243.01L334.032 242.094ZM335.978 238.13C336.129 238.292 336.28 238.456 336.429 238.62L337.225 237.896C337.073 237.728 336.919 237.561 336.764 237.396L335.978 238.13ZM335.901 238.047L335.977 238.129L336.765 237.396L336.688 237.314L335.901 238.047ZM337.042 235.421L335.835 237.401L336.754 237.961L337.961 235.981L337.042 235.421ZM337.793 235.247L337.751 235.224L337.252 236.178L337.295 236.2L337.793 235.247ZM337.802 235.251L337.802 235.251L337.287 236.196L337.287 236.196L337.802 235.251ZM337.947 235.332C337.888 235.295 337.831 235.266 337.792 235.246L337.297 236.201C337.34 236.223 337.364 236.236 337.387 236.25L337.947 235.332ZM337.209 235.509L337.208 235.51L338.126 236.072L338.126 236.071L337.209 235.509ZM338.473 235.705C338.307 235.568 338.132 235.443 337.948 235.331L337.387 236.249C337.527 236.335 337.661 236.43 337.788 236.535L338.473 235.705ZM337.287 238.538L338.59 236.4L337.671 235.84L336.368 237.978L337.287 238.538ZM335.825 242.351C335.758 242.438 335.619 242.536 335.257 242.512L335.186 243.585C335.765 243.624 336.318 243.476 336.678 243.008L335.825 242.351ZM336.252 242.142H336.252V243.217H336.252V242.142ZM335.705 241.765C335.944 242.176 335.86 242.306 335.825 242.352L336.678 243.007C337.106 242.45 336.966 241.792 336.634 241.224L335.705 241.765ZM335.681 243.329L336.629 241.774L335.71 241.214L334.763 242.768L335.681 243.329Z" fill="#3D3D3C"/>
<circle cx="302.014" cy="289.975" r="10.7357" fill="#ECEDEE" stroke="#3D3D3C" stroke-width="1.07592" stroke-linecap="round" stroke-linejoin="round"/>
<path d="M305.861 283.667C309.406 285.829 310.556 290.439 308.441 294.012C308.459 293.984 308.478 293.956 308.496 293.927C309.908 291.612 309.977 288.719 308.678 286.338C307.378 283.958 304.908 282.451 302.196 282.386C299.485 282.321 296.945 283.708 295.533 286.023C295.515 286.052 295.5 286.082 295.482 286.111C297.691 282.594 302.315 281.505 305.861 283.667Z" fill="#FE8C07"/>
<path d="M298.062 296.457C294.517 294.294 293.367 289.685 295.482 286.111C295.464 286.14 295.445 286.167 295.427 286.196C294.011 288.512 293.94 291.407 295.239 293.79C296.538 296.173 299.011 297.681 301.725 297.745C304.439 297.809 306.98 296.419 308.39 294.1C308.408 294.071 308.423 294.041 308.441 294.012C306.232 297.529 301.608 298.618 298.062 296.457Z" fill="#FAD436" stroke="#3D3D3C" stroke-width="1.07592" stroke-linecap="round" stroke-linejoin="round"/>
<ellipse cx="301.962" cy="290.061" rx="7.49009" ry="7.58873" transform="rotate(-58.625 301.962 290.061)" fill="#FAD436" stroke="#3D3D3C" stroke-width="1.07592" stroke-linecap="round" stroke-linejoin="round"/>
<ellipse cx="301.962" cy="290.061" rx="7.49009" ry="7.58873" transform="rotate(-58.625 301.962 290.061)" fill="#F5F6F7" stroke="#3D3D3C" stroke-width="1.07592" stroke-linecap="round" stroke-linejoin="round"/>
<path fill-rule="evenodd" clip-rule="evenodd" d="M303.572 290.705L303.572 290.704C303.388 290.436 303.184 290.182 302.962 289.945L303.604 288.891C303.704 289.075 303.697 289.298 303.586 289.475L304.77 290.196C305.12 289.684 305.18 289.027 304.93 288.458C304.802 288.147 304.614 287.863 304.377 287.623L304.822 286.894L304.335 286.597L303.938 287.248C303.868 287.198 303.796 287.151 303.723 287.106C303.693 287.088 303.664 287.072 303.634 287.055L303.613 287.044L304.008 286.397L303.522 286.101L303.093 286.805C302.772 286.69 302.433 286.639 302.093 286.656C301.521 286.674 300.992 286.96 300.664 287.429C300.238 288.012 300.213 288.616 300.588 289.241C300.762 289.495 300.957 289.733 301.172 289.954L300.451 291.136C300.439 291.115 300.428 291.094 300.417 291.072C300.287 290.81 300.288 290.502 300.421 290.241L299.203 289.499C298.855 290.088 298.801 290.806 299.06 291.439C299.201 291.795 299.416 292.118 299.689 292.386L299.261 293.089L299.747 293.386L300.132 292.753C300.193 292.796 300.255 292.838 300.321 292.878C300.351 292.896 300.382 292.913 300.413 292.93L300.413 292.93L300.413 292.93C300.428 292.938 300.443 292.947 300.458 292.955L300.074 293.585L300.561 293.882L300.981 293.193C301.333 293.318 301.707 293.369 302.079 293.344C302.688 293.317 303.247 293 303.581 292.49C303.951 291.934 303.949 291.338 303.572 290.705ZM301.925 288.721C301.81 288.502 301.805 288.329 301.91 288.201C302.017 288.075 302.18 288.012 302.343 288.034L301.925 288.721ZM301.001 291.682C301.059 291.718 301.118 291.748 301.176 291.776L301.85 290.671C301.758 290.577 301.666 290.481 301.575 290.386L300.849 291.577C300.898 291.615 300.948 291.65 301.001 291.682ZM302.564 289.504C302.488 289.42 302.411 289.336 302.333 289.253L302.294 289.211L302.906 288.207L302.928 288.218C302.949 288.229 302.97 288.24 302.99 288.252L302.991 288.252C303.073 288.302 303.151 288.358 303.226 288.419L302.564 289.504ZM301.748 291.934C301.943 291.967 302.141 291.896 302.271 291.747C302.388 291.594 302.374 291.394 302.229 291.146L301.748 291.934Z" fill="#3D3D3C"/>
<circle cx="372.948" cy="275.648" r="10.7357" fill="#ECEDEE" stroke="#3D3D3C" stroke-width="1.07592" stroke-linecap="round" stroke-linejoin="round"/>
<path d="M376.792 269.34C380.338 271.502 381.487 276.112 379.372 279.685C379.39 279.657 379.409 279.629 379.427 279.6C380.843 277.285 380.915 274.389 379.615 272.006C378.316 269.623 375.843 268.115 373.129 268.051C370.416 267.987 367.874 269.377 366.464 271.696C366.446 271.725 366.431 271.755 366.414 271.784C368.622 268.267 373.247 267.178 376.792 269.34Z" fill="#FE8C07"/>
<path d="M368.996 282.13C365.45 279.967 364.301 275.358 366.416 271.784C366.398 271.813 366.378 271.84 366.361 271.869C364.945 274.185 364.873 277.08 366.173 279.463C367.472 281.846 369.945 283.354 372.659 283.418C375.372 283.482 377.913 282.092 379.324 279.773C379.341 279.744 379.357 279.715 379.374 279.685C377.166 283.202 372.541 284.291 368.996 282.13Z" fill="#FAD436" stroke="#3D3D3C" stroke-width="1.07592" stroke-linecap="round" stroke-linejoin="round"/>
<ellipse cx="372.893" cy="275.735" rx="7.49009" ry="7.58873" transform="rotate(-58.625 372.893 275.735)" fill="#FAD436" stroke="#3D3D3C" stroke-width="1.07592" stroke-linecap="round" stroke-linejoin="round"/>
<ellipse cx="372.893" cy="275.735" rx="7.49009" ry="7.58873" transform="rotate(-58.625 372.893 275.735)" fill="#F5F6F7" stroke="#3D3D3C" stroke-width="1.07592" stroke-linecap="round" stroke-linejoin="round"/>
<path fill-rule="evenodd" clip-rule="evenodd" d="M374.503 276.378L374.503 276.377C374.319 276.109 374.115 275.855 373.892 275.618L374.534 274.565C374.635 274.748 374.628 274.971 374.517 275.148L375.701 275.869C376.05 275.357 376.111 274.7 375.861 274.132C375.733 273.82 375.545 273.536 375.308 273.296L375.753 272.567L375.266 272.27L374.869 272.922C374.799 272.871 374.727 272.824 374.653 272.779C374.624 272.761 374.594 272.745 374.564 272.728L374.544 272.717L374.939 272.07L374.452 271.774L374.023 272.478C373.703 272.363 373.363 272.312 373.024 272.329C372.452 272.347 371.922 272.633 371.595 273.102C371.169 273.685 371.143 274.289 371.518 274.914C371.693 275.168 371.888 275.406 372.103 275.627L371.382 276.809C371.37 276.788 371.358 276.767 371.348 276.745C371.218 276.483 371.219 276.175 371.351 275.915L370.134 275.172C369.785 275.761 369.732 276.479 369.99 277.113C370.132 277.469 370.346 277.791 370.62 278.059L370.191 278.762L370.678 279.059L371.063 278.426C371.124 278.469 371.186 278.511 371.251 278.551C371.282 278.569 371.313 278.586 371.344 278.603C371.359 278.611 371.374 278.62 371.389 278.628L371.005 279.258L371.491 279.555L371.912 278.866C372.264 278.991 372.637 279.042 373.01 279.017C373.619 278.99 374.177 278.673 374.512 278.164C374.882 277.607 374.879 277.011 374.503 276.378ZM372.855 274.394C372.741 274.175 372.735 274.002 372.841 273.874C372.947 273.748 373.11 273.685 373.274 273.707L372.855 274.394ZM371.932 277.355C371.99 277.391 372.049 277.421 372.107 277.45L372.78 276.345C372.688 276.25 372.597 276.154 372.506 276.059L371.779 277.25C371.828 277.288 371.879 277.323 371.932 277.355ZM373.495 275.177C373.418 275.093 373.341 275.009 373.264 274.926L373.225 274.884L373.837 273.88L373.859 273.891L373.859 273.891C373.88 273.902 373.9 273.913 373.921 273.925L373.921 273.925C374.003 273.975 374.082 274.031 374.156 274.093L373.495 275.177ZM372.679 277.607C372.874 277.64 373.072 277.569 373.201 277.42C373.319 277.267 373.304 277.067 373.16 276.819L372.679 277.607Z" fill="#3D3D3C"/>
<path d="M308.201 304.173C306.268 333.647 326.234 340.668 337.792 338.052C337.792 316.991 319.558 307.545 308.201 304.173Z" fill="#FAD436"/>
<mask id="mask22_1_9058" style="mask-type:alpha" maskUnits="userSpaceOnUse" x="308" y="304" width="30" height="35">
<path fill-rule="evenodd" clip-rule="evenodd" d="M308.2 304.173C306.267 333.647 326.233 340.668 337.791 338.052C337.791 316.991 319.557 307.545 308.2 304.173Z" fill="white"/>
</mask>
<g mask="url(#mask22_1_9058)">
<path d="M314.165 313.661C326.604 338.292 343.077 340.596 343.077 340.596L344.066 337.393C344.066 337.393 336.546 342.9 314.165 313.661Z" fill="#FFA008"/>
<path d="M301.85 308.452C302.312 308.314 308.201 304.173 308.201 304.173C308.201 304.173 312.153 333.376 337.792 338.052C363.432 342.729 327.366 343.554 327.366 343.554L313.428 337.605" fill="#FFA008"/>
</g>
<path fill-rule="evenodd" clip-rule="evenodd" d="M308.201 304.173C306.268 333.647 326.234 340.668 337.792 338.052C337.792 316.991 319.558 307.545 308.201 304.173Z" stroke="#3D3D3C" stroke-width="1.07592" stroke-linecap="round" stroke-linejoin="round"/>
<path d="M331.931 231.561L330.52 232.633L331.931 231.561Z" fill="#ECEDEE"/>
<path d="M331.931 231.561L330.52 232.633" stroke="#3D3D3C" stroke-width="1.07592" stroke-linecap="round" stroke-linejoin="round"/>
<path d="M353.52 313.778C352.794 314.73 351.846 315.49 350.759 315.991L353.52 313.778Z" fill="#ECEDEE"/>
<path d="M353.52 313.778C352.794 314.73 351.846 315.49 350.759 315.991" stroke="#3D3D3C" stroke-width="1.07592" stroke-linecap="round" stroke-linejoin="round"/>
<path d="M316.981 281.832C317.57 283.195 318.378 284.452 319.373 285.554L316.981 281.832Z" fill="#ECEDEE"/>
<path d="M316.981 281.832C317.57 283.195 318.378 284.452 319.373 285.554" stroke="#3D3D3C" stroke-width="1.07592" stroke-linecap="round" stroke-linejoin="round"/>
<rect x="159.626" y="277.589" width="111.425" height="6.78239" fill="url(#paint0_linear_1_9058)"/>
<rect x="204.561" y="276.136" width="21.5583" height="8.96245" fill="#FAD436" stroke="#3D3D3C" stroke-width="1.07592" stroke-linecap="round" stroke-linejoin="round"/>
<path d="M164.864 279.641L157.705 274.904L169.601 260.801C183.597 262.524 191.864 249.933 215.763 263.713L215.374 278.821L177.891 275.218L164.864 279.641Z" fill="#F5F6F7" stroke="#3D3D3C" stroke-width="1.07592" stroke-linecap="round" stroke-linejoin="round"/>
<path d="M153.298 284.511L155.398 279.128H156.259L157.82 274.93C173.807 275.243 199.771 259.037 215.489 278.846C215.489 278.846 208.15 281.604 207.611 284.511C189.094 280.42 169.824 285.695 153.298 284.511Z" fill="#F5F6F7"/>
<path fill-rule="evenodd" clip-rule="evenodd" d="M153.298 284.511L155.398 279.128H156.259L157.82 274.93C173.807 275.243 199.771 259.037 215.489 278.846C215.489 278.846 208.15 281.604 207.611 284.511C189.094 280.42 169.824 285.695 153.298 284.511Z" stroke="#3D3D3C" stroke-width="1.07592" stroke-linecap="round" stroke-linejoin="round"/>
<path d="M171.324 262.739L164.757 271.89C196.946 262.847 209.219 267.369 214.171 274.043L214.602 265.431C195.654 254.988 184.27 263.17 171.324 262.739Z" fill="#FAD436" stroke="#3D3D3C" stroke-width="1.07592" stroke-linecap="round" stroke-linejoin="round"/>
<path d="M168.956 276.65C180.69 272.236 202.114 267.63 211.48 276.65C211.48 276.65 200.122 266.419 168.956 276.65Z" fill="#CFCFD0"/>
<path d="M165.646 280.553C177.381 278.686 198.804 276.738 208.171 280.553C208.171 280.553 196.813 276.226 165.646 280.553Z" fill="#CFCFD0"/>
<path d="M265.813 279.641L272.972 274.905L261.076 260.801C247.08 262.524 238.813 249.933 214.914 263.713L215.303 278.821L252.786 275.218L265.813 279.641Z" fill="#F5F6F7"/>
<mask id="mask23_1_9058" style="mask-type:alpha" maskUnits="userSpaceOnUse" x="214" y="257" width="59" height="23">
<path fill-rule="evenodd" clip-rule="evenodd" d="M265.812 279.641L272.971 274.905L261.075 260.801C247.08 262.524 238.813 249.933 214.913 263.713L215.303 278.821L252.786 275.218L265.812 279.641Z" fill="white"/>
</mask>
<g mask="url(#mask23_1_9058)">
<path d="M228.898 269.842C230.543 267.523 218.86 280.553 218.86 280.553H208.169L212.667 272.324" fill="#F5F6F7"/>
<path d="M228.898 269.842C230.543 267.523 218.86 280.553 218.86 280.553H208.169L212.667 272.324" stroke="#3D3D3C" stroke-width="1.07592" stroke-linecap="round" stroke-linejoin="round"/>
</g>
<path fill-rule="evenodd" clip-rule="evenodd" d="M265.813 279.641L272.972 274.905L261.076 260.801C247.08 262.524 238.813 249.933 214.914 263.713L215.303 278.821L252.786 275.218L265.813 279.641Z" stroke="#3D3D3C" stroke-width="1.07592" stroke-linecap="round" stroke-linejoin="round"/>
<path d="M277.382 284.511L275.283 279.128H274.422L272.861 274.93C256.873 275.243 230.91 259.037 215.192 278.846C215.192 278.846 222.531 281.604 223.069 284.511C241.586 280.42 260.857 285.695 277.382 284.511Z" fill="#F5F6F7" stroke="#3D3D3C" stroke-width="1.07592" stroke-linecap="round" stroke-linejoin="round"/>
<path d="M259.354 262.739L265.921 271.89C233.731 262.847 221.459 267.369 216.506 274.043L216.076 265.431C235.023 254.988 246.408 263.17 259.354 262.739Z" fill="#FAD436" stroke="#3D3D3C" stroke-width="1.07592" stroke-linecap="round" stroke-linejoin="round"/>
<path d="M261.723 276.65C249.989 272.236 228.565 267.63 219.199 276.65C219.199 276.65 230.557 266.419 261.723 276.65Z" fill="#CFCFD0"/>
<path d="M265.033 280.553C253.299 278.686 231.875 276.738 222.509 280.553C222.509 280.553 233.867 276.226 265.033 280.553Z" fill="#CFCFD0"/>
<path d="M202.325 233.419L191.021 241.494C191.021 241.494 215.24 260.102 215.079 279.641L215.244 265.232C215.244 265.232 218.474 246.015 202.325 233.419Z" fill="#F5F6F7" stroke="#3D3D3C" stroke-width="1.07592" stroke-linecap="round" stroke-linejoin="round"/>
<path d="M277.548 283.409H223.8C223.352 283.41 222.936 283.644 222.703 284.027H207.975C207.742 283.644 207.326 283.41 206.878 283.409H153.13C152.668 283.408 152.239 283.654 152.008 284.054C151.776 284.454 151.776 284.948 152.008 285.348C152.239 285.749 152.668 285.995 153.13 285.993H206.441C206.645 286.755 207.334 287.284 208.123 287.285H222.555C223.343 287.284 224.033 286.755 224.237 285.993H277.548C278.01 285.995 278.438 285.749 278.67 285.348C278.902 284.948 278.902 284.454 278.67 284.054C278.438 283.654 278.01 283.408 277.548 283.409Z" fill="#4F4F5B" stroke="#3D3D3C" stroke-width="1.07592" stroke-linecap="round" stroke-linejoin="round"/>
<path d="M222.958 286.575C222.54 286.575 222.19 286.259 222.147 285.843C221.82 282.692 218.886 280.316 215.321 280.316C211.9 280.316 208.979 282.585 208.526 285.595C208.458 286.039 208.043 286.345 207.598 286.279C207.153 286.212 206.846 285.797 206.912 285.352C207.483 281.55 211.098 278.682 215.321 278.682C219.725 278.682 223.358 281.689 223.771 285.674C223.818 286.123 223.492 286.524 223.043 286.571C223.015 286.574 222.986 286.575 222.958 286.575Z" fill="#4F4F5B" stroke="#3D3D3C" stroke-width="1.07592" stroke-linecap="round" stroke-linejoin="round"/>
<path d="M183.628 264.701L183.362 264.967L183.628 264.701Z" fill="#ECEDEE"/>
<path d="M183.628 264.701L183.362 264.967" stroke="#3D3D3C" stroke-width="1.07592" stroke-linecap="round" stroke-linejoin="round"/>
<path d="M236.68 276.617L238.829 276.16L236.68 276.617Z" fill="#ECEDEE"/>
<path d="M236.68 276.617L238.829 276.16" stroke="#3D3D3C" stroke-width="1.07592" stroke-linecap="round" stroke-linejoin="round"/>
<path d="M233.751 263.579C236.318 262.976 238.998 263.058 241.523 263.817L233.751 263.579Z" fill="#ECEDEE"/>
<path d="M233.751 263.579C236.318 262.976 238.998 263.058 241.523 263.817" stroke="#3D3D3C" stroke-width="1.07592" stroke-linecap="round" stroke-linejoin="round"/>
<ellipse opacity="0.5" cx="140.691" cy="327.879" rx="27.6445" ry="18.5732" fill="#EEEFF3"/>
<path d="M207.943 88.608C211.217 84.9945 216.389 81.0097 219.853 77.7054C219.853 77.7054 220.91 77.8639 220.517 79.4628C229.772 71.5054 229.32 70.5417 229.854 70.7421C230.388 70.9426 233.603 70.4822 226.713 79.1689C226.713 79.1689 231.039 83.8893 228.966 87.0011C226.893 90.113 218.601 96.8446 218.601 96.8446" fill="#F5F6F7"/>
<mask id="mask24_1_9058" style="mask-type:alpha" maskUnits="userSpaceOnUse" x="207" y="70" width="25" height="27">
<path fill-rule="evenodd" clip-rule="evenodd" d="M207.942 88.608C211.217 84.9945 216.389 81.0097 219.852 77.7054C219.852 77.7054 220.909 77.8639 220.516 79.4628C229.772 71.5054 229.32 70.5417 229.854 70.7421C230.388 70.9426 233.603 70.4822 226.712 79.1689C226.712 79.1689 231.039 83.8893 228.966 87.0011C226.893 90.113 218.601 96.8446 218.601 96.8446" fill="white"/>
</mask>
<g mask="url(#mask24_1_9058)">
<path d="M212.981 84.6545C215.797 80.7544 225.965 93.6286 227.274 95.3738C228.583 97.1191 220.596 99.5159 220.596 99.5159L217.542 100.389" fill="#CFCFD0"/>
</g>
<path d="M207.943 88.608C211.217 84.9945 216.389 81.0097 219.853 77.7054C219.853 77.7054 220.91 77.8639 220.517 79.4628C229.772 71.5054 229.32 70.5417 229.854 70.7421C230.388 70.9426 233.603 70.4822 226.713 79.1689C226.713 79.1689 231.039 83.8893 228.966 87.0011C226.893 90.113 218.601 96.8446 218.601 96.8446" stroke="#3D3D3C" stroke-width="1.07592" stroke-linecap="round" stroke-linejoin="round"/>
<path d="M40.7866 277.355L20.0146 294.117L32.0837 304.208L60.5289 282.688L40.7866 277.355Z" fill="#F5F6F7"/>
<mask id="mask25_1_9058" style="mask-type:alpha" maskUnits="userSpaceOnUse" x="20" y="277" width="41" height="28">
<path fill-rule="evenodd" clip-rule="evenodd" d="M40.787 277.355L20.0151 294.117L32.0842 304.208L60.5294 282.688L40.787 277.355Z" fill="white"/>
</mask>
<g mask="url(#mask25_1_9058)">
<path d="M25.084 286.862C34.1915 277.99 41.1491 295.862 44.048 294.771C46.947 293.679 39.3381 274.861 39.3381 274.861L32.0353 275.529" fill="#CFCFD0"/>
</g>
<path fill-rule="evenodd" clip-rule="evenodd" d="M40.7866 277.355L20.0146 294.117L32.0837 304.208L60.5289 282.688L40.7866 277.355V277.355Z" stroke="#3D3D3C" stroke-width="1.07592" stroke-linecap="round" stroke-linejoin="round"/>
<path d="M25.438 288.956C25.438 288.956 28.5588 299.624 38.3481 299.913C38.3481 299.913 31.6417 310.46 36.8946 318.313C46.0798 332.046 36.362 334.143 36.362 334.143L11.0271 298.462C9.26598 296.3 25.438 288.956 25.438 288.956Z" fill="#FAD436"/>
<mask id="mask26_1_9058" style="mask-type:alpha" maskUnits="userSpaceOnUse" x="10" y="288" width="31" height="47">
<path fill-rule="evenodd" clip-rule="evenodd" d="M25.438 288.956C25.438 288.956 28.5588 299.624 38.3481 299.913C38.3481 299.913 31.6417 310.46 36.8946 318.313C46.0798 332.046 36.362 334.143 36.362 334.143L11.0271 298.462C9.26598 296.3 25.438 288.956 25.438 288.956Z" fill="white"/>
</mask>
<g mask="url(#mask26_1_9058)">
<path d="M11.4103 295.263L39.0979 334.143L32.2595 335.493L7.2915 306.549" fill="white"/>
<path d="M11.4103 295.263L39.0979 334.143L32.2595 335.493L7.2915 306.549" stroke="#3D3D3C" stroke-width="1.07592" stroke-linecap="round" stroke-linejoin="round"/>
</g>
<path fill-rule="evenodd" clip-rule="evenodd" d="M25.438 288.956C25.438 288.956 28.5588 299.624 38.3481 299.913C38.3481 299.913 31.6417 310.46 36.8946 318.313C46.0798 332.046 36.362 334.143 36.362 334.143L11.0271 298.462C9.26598 296.3 25.438 288.956 25.438 288.956Z" stroke="#3D3D3C" stroke-width="1.07592" stroke-linecap="round" stroke-linejoin="round"/>
<path d="M30.9004 273.846C42.1748 300.203 52.2367 299.237 52.2367 299.237L114.832 228.663L125.495 159.005C125.495 159.005 128.518 140.634 105.804 158.081C94.3602 166.871 88.1374 218.187 78.0852 227.299C65.0657 239.101 30.9004 273.846 30.9004 273.846Z" fill="#ECEDEE"/>
<mask id="mask27_1_9058" style="mask-type:alpha" maskUnits="userSpaceOnUse" x="30" y="150" width="96" height="150">
<path fill-rule="evenodd" clip-rule="evenodd" d="M30.8999 273.846C42.1743 300.203 52.2362 299.237 52.2362 299.237L114.832 228.663L125.494 159.005C125.494 159.005 128.517 140.634 105.804 158.081C94.3597 166.871 88.1369 218.187 78.0847 227.299C65.0652 239.101 30.8999 273.846 30.8999 273.846Z" fill="white"/>
</mask>
<g mask="url(#mask27_1_9058)">
<path d="M37.7477 262.418C40.7857 277.355 51.5815 289.851 60.5281 292.236C69.4747 294.622 57.6863 304.208 57.6863 304.208L28.7517 299.242L15.8013 255.852" fill="#ECEDEE"/>
<path d="M37.7477 262.418C40.7857 277.355 51.5815 289.851 60.5281 292.236C69.4747 294.622 57.6863 304.208 57.6863 304.208L28.7517 299.242L15.8013 255.852" stroke="#3D3D3C" stroke-width="1.07592" stroke-linecap="round" stroke-linejoin="round"/>
<path d="M107.404 229.736C107.404 229.736 63.9519 229.532 62.9539 230.272C61.9558 231.011 24.6279 273.391 24.6279 273.391C24.6279 273.391 79.4442 270.78 82.8055 263.61C86.1667 256.441 104.78 237.37 104.78 237.37" fill="#CFCFD0"/>
</g>
<path fill-rule="evenodd" clip-rule="evenodd" d="M30.9004 273.846C42.1748 300.203 52.2367 299.237 52.2367 299.237L114.832 228.663L125.495 159.005C125.495 159.005 128.518 140.634 105.804 158.081C94.3602 166.871 88.1374 218.187 78.0852 227.299C65.0657 239.101 30.9004 273.846 30.9004 273.846Z" stroke="#3D3D3C" stroke-width="1.07592" stroke-linecap="round" stroke-linejoin="round"/>
<path d="M34.0336 246.315L9.87451 249.159L15.1773 265.389L47.6292 262.788L34.0336 246.315Z" fill="#F5F6F7"/>
<mask id="mask28_1_9058" style="mask-type:alpha" maskUnits="userSpaceOnUse" x="9" y="246" width="39" height="20">
<path fill-rule="evenodd" clip-rule="evenodd" d="M34.0331 246.315L9.87402 249.159L15.1768 265.389L47.6287 262.788L34.0331 246.315Z" fill="white"/>
</mask>
<g mask="url(#mask28_1_9058)">
<path d="M18.0522 243.995C29.7206 244.157 28.9699 262.853 31.6533 264.227C34.3368 265.601 35.1936 245.686 35.1936 245.686L29.6721 240.637" fill="#CFCFD0"/>
</g>
<path fill-rule="evenodd" clip-rule="evenodd" d="M34.0336 246.315L9.87451 249.159L15.1773 265.389L47.6292 262.788L34.0336 246.315V246.315Z" stroke="#3D3D3C" stroke-width="1.07592" stroke-linecap="round" stroke-linejoin="round"/>
<path d="M16.5295 247.71C16.5295 247.71 14.3513 259.173 22.1298 265.218C22.1298 265.218 12.0684 270.766 12.8517 280.952C14.2213 298.762 5.44933 294.912 5.44933 294.912L0.703831 247.768C0.233626 244.778 16.5295 247.71 16.5295 247.71Z" fill="#FAD436"/>
<mask id="mask29_1_9058" style="mask-type:alpha" maskUnits="userSpaceOnUse" x="0" y="246" width="23" height="50">
<path fill-rule="evenodd" clip-rule="evenodd" d="M16.5295 247.71C16.5295 247.71 14.3513 259.173 22.1298 265.218C22.1298 265.218 12.0684 270.766 12.8517 280.952C14.2213 298.762 5.44933 294.912 5.44933 294.912L0.703831 247.768C0.233626 244.778 16.5295 247.71 16.5295 247.71Z" fill="white"/>
</mask>
<g mask="url(#mask29_1_9058)">
<path d="M3.15834 243.811L7.92938 299.242L-2.3282 288.956L-3.521 252.16" fill="white"/>
<path d="M3.15834 243.811L7.92938 299.242L-2.3282 288.956L-3.521 252.16" stroke="#3D3D3C" stroke-width="1.07592" stroke-linecap="round" stroke-linejoin="round"/>
</g>
<path fill-rule="evenodd" clip-rule="evenodd" d="M16.5295 247.71C16.5295 247.71 14.3513 259.173 22.1298 265.218C22.1298 265.218 12.0684 270.766 12.8517 280.952C14.2213 298.762 5.44933 294.912 5.44933 294.912L0.703831 247.768C0.233626 244.778 16.5295 247.71 16.5295 247.71Z" stroke="#3D3D3C" stroke-width="1.07592" stroke-linecap="round" stroke-linejoin="round"/>
<path d="M101.249 202.417C101.614 210.593 102.411 219.593 103.932 228.738L32.5549 241.841C28.3698 252.51 32.5549 270.708 32.5549 270.708C32.5549 270.708 116.257 259.413 128.114 256.275C139.972 253.137 145.257 159.005 145.257 159.005L102.074 167.163" fill="#ECEDEE"/>
<mask id="mask30_1_9058" style="mask-type:alpha" maskUnits="userSpaceOnUse" x="30" y="159" width="116" height="112">
<path fill-rule="evenodd" clip-rule="evenodd" d="M101.248 202.417C101.613 210.593 102.411 219.593 103.932 228.738L32.5544 241.841C28.3693 252.51 32.5544 270.708 32.5544 270.708C32.5544 270.708 116.256 259.413 128.114 256.275C139.972 253.137 145.257 159.005 145.257 159.005L102.073 167.163" fill="white"/>
</mask>
<g mask="url(#mask30_1_9058)">
<path d="M107.215 165.512C98.8645 178.489 144.419 172.009 141.058 207.1C137.697 242.191 164.312 171.071 164.312 171.071L150.676 162.051" fill="#CFCFD0"/>
<path d="M40.8433 234.507C32.555 241.841 41.0861 271.959 44.9029 274.822C48.7197 277.685 16.9927 272.914 16.9927 272.914L20.0125 234.507" fill="#ECEDEE"/>
<path d="M40.8433 234.507C32.555 241.841 41.0861 271.959 44.9029 274.822C48.7197 277.685 16.9927 272.914 16.9927 272.914L20.0125 234.507" stroke="#3D3D3C" stroke-width="1.07592" stroke-linecap="round" stroke-linejoin="round"/>
<ellipse cx="130.029" cy="260.003" rx="15.2298" ry="10.7056" fill="white" stroke="#3D3D3C" stroke-width="1.07592" stroke-linecap="round" stroke-linejoin="round"/>
</g>
<path d="M101.249 202.417C101.614 210.593 102.411 219.593 103.932 228.738L32.5549 241.841C28.3698 252.51 32.5549 270.708 32.5549 270.708C32.5549 270.708 116.257 259.413 128.114 256.275C139.972 253.137 145.257 159.005 145.257 159.005L102.074 167.163" stroke="#3D3D3C" stroke-width="1.07592" stroke-linecap="round" stroke-linejoin="round"/>
<path d="M59.1812 166.351C54.802 168.484 51.0497 170.77 46.6045 172.555C46.6045 172.555 45.6697 172.039 46.6163 170.723C35.0527 174.699 35.1292 175.735 34.7003 175.365C34.2715 174.994 31.0871 174.28 40.6932 168.808C40.6932 168.808 38.3361 162.99 41.4063 160.89C44.4765 158.791 54.6922 155.59 54.6922 155.59" fill="#F5F6F7"/>
<mask id="mask31_1_9058" style="mask-type:alpha" maskUnits="userSpaceOnUse" x="33" y="155" width="27" height="21">
<path fill-rule="evenodd" clip-rule="evenodd" d="M59.1808 166.351C54.8015 168.484 51.0492 170.77 46.604 172.555C46.604 172.555 45.6692 172.039 46.6158 170.723C35.0522 174.699 35.1287 175.735 34.6999 175.365C34.271 174.994 31.0866 174.28 40.6928 168.808C40.6928 168.808 38.3356 162.99 41.4058 160.89C44.476 158.791 54.6917 155.59 54.6917 155.59" fill="white"/>
</mask>
<g mask="url(#mask31_1_9058)">
<path d="M52.4902 155.332C48.127 155.768 51.1812 166.239 49.8723 172.784C48.5634 179.329 55.108 172.784 55.108 172.784L58.5985 164.494" fill="#CFCFD0"/>
</g>
<path d="M59.1812 166.351C54.802 168.484 51.0497 170.77 46.6045 172.555C46.6045 172.555 45.6697 172.039 46.6163 170.723C35.0527 174.699 35.1292 175.735 34.7003 175.365C34.2715 174.994 31.0871 174.28 40.6932 168.808C40.6932 168.808 38.3361 162.99 41.4063 160.89C44.4765 158.791 54.6922 155.59 54.6922 155.59" stroke="#3D3D3C" stroke-width="1.07592" stroke-linecap="round" stroke-linejoin="round"/>
<path d="M54.6348 151.494C51.8081 158.914 56.0481 168.531 56.0481 168.531C102.039 154.271 121.628 138.854 121.628 138.854L118.66 115.223C77.2484 134.733 54.6348 151.494 54.6348 151.494Z" fill="#FAD436"/>
<path fill-rule="evenodd" clip-rule="evenodd" d="M54.6348 151.494C51.8081 158.914 56.0481 168.531 56.0481 168.531C102.039 154.271 121.628 138.854 121.628 138.854L118.66 115.223C77.2484 134.733 54.6348 151.494 54.6348 151.494Z" stroke="#3D3D3C" stroke-width="1.07592" stroke-linecap="round" stroke-linejoin="round"/>
<path d="M142.231 77.7983C154.226 89.4512 152.998 107.187 141.384 100.504C129.77 93.821 131.537 82.3395 131.537 82.3395L141.059 78.3124L142.231 77.7983Z" fill="#F5F6F7"/>
<mask id="mask32_1_9058" style="mask-type:alpha" maskUnits="userSpaceOnUse" x="131" y="77" width="20" height="25">
<path fill-rule="evenodd" clip-rule="evenodd" d="M142.231 77.7983C154.226 89.4512 152.999 107.187 141.385 100.504C129.771 93.821 131.538 82.3395 131.538 82.3395L141.06 78.3124L142.231 77.7983Z" fill="white"/>
</mask>
<g mask="url(#mask32_1_9058)">
<path d="M152.351 101.966C147.102 106.739 141.06 96.3461 141.06 96.3461V105.148L148.877 105.284L150.238 102.557" fill="#CFCFD0"/>
</g>
<path fill-rule="evenodd" clip-rule="evenodd" d="M142.231 77.7983C154.226 89.4512 152.998 107.187 141.384 100.504C129.77 93.821 131.537 82.3395 131.537 82.3395L141.059 78.3124L142.231 77.7983Z" stroke="#3D3D3C" stroke-width="1.07592" stroke-linecap="round" stroke-linejoin="round"/>
<path d="M142.304 94.2987L143.248 112.631L126.056 111.125L128.053 94.2987L140.741 94.9564L142.304 94.2987Z" fill="#F5F6F7" stroke="#3D3D3C" stroke-width="1.07592" stroke-linecap="round" stroke-linejoin="round"/>
<path d="M139.996 88.3258C146.505 90.9599 143.158 81.4477 143.158 81.4477C152.256 52.6077 113.978 75.0285 121.67 91.3545C129.562 108.104 142.071 100.765 144.102 92.8623L139.996 88.3258Z" fill="#4F4F5B" stroke="#3D3D3C" stroke-width="1.07592" stroke-linecap="round" stroke-linejoin="round"/>
<path d="M144.145 87.3091C135.869 80.9686 135.069 92.3644 145.019 93.564L144.145 87.3091Z" fill="#F5F6F7"/>
<path d="M144.145 87.3091C135.869 80.9686 135.069 92.3644 145.019 93.564" stroke="#3D3D3C" stroke-width="1.07592" stroke-linecap="round" stroke-linejoin="round"/>
<path d="M121.627 110.939C122.849 102.292 143.742 103.465 143.742 103.465L146.127 107.758L121.269 112.907" fill="#FAD436"/>
<path d="M121.627 110.939C122.849 102.292 143.742 103.465 143.742 103.465L146.127 107.758L121.269 112.907" stroke="#3D3D3C" stroke-width="1.07592" stroke-linecap="round" stroke-linejoin="round"/>
<path d="M82.8052 164.714C118.499 179.798 148.912 174.665 148.912 174.665C168.257 160.693 152.458 106.099 152.458 106.099C152.458 106.099 138.375 100.263 118.964 112.95C98.0298 122.592 118.202 159.004 82.8052 164.714Z" fill="#FAD436"/>
<path fill-rule="evenodd" clip-rule="evenodd" d="M82.8052 164.714C118.499 179.798 148.912 174.665 148.912 174.665C168.257 160.693 152.458 106.099 152.458 106.099C152.458 106.099 138.375 100.263 118.964 112.95C98.0298 122.592 118.202 159.004 82.8052 164.714Z" stroke="#3D3D3C" stroke-width="1.07592" stroke-linecap="round" stroke-linejoin="round"/>
<path d="M143.808 104.655L144.241 104.752C165.167 106.177 210.66 85.5437 212.908 82.1614C219.087 87.2349 220.773 98.7911 220.773 98.7911C196.054 117.394 167.297 132.534 147.354 131.971C144.861 131.9 142.936 131.421 141.476 130.635" fill="#FAD436"/>
<path d="M143.808 104.655L144.241 104.752C165.167 106.177 210.66 85.5437 212.908 82.1614C219.087 87.2349 220.773 98.7911 220.773 98.7911C196.054 117.394 167.297 132.534 147.354 131.971C144.861 131.9 142.936 131.421 141.476 130.635" stroke="#3D3D3C" stroke-width="1.07592" stroke-linecap="round" stroke-linejoin="round"/>
<path d="M200.994 85.5337L212.908 82.1614C212.908 82.1614 220.513 86.8022 220.773 98.7911L213.347 104.186C213.347 104.186 215.705 91.3781 200.994 85.5337Z" fill="white" stroke="#3D3D3C" stroke-width="1.07592" stroke-linecap="round" stroke-linejoin="round"/>
<path d="M58.5471 144.758L49.9135 150.559C49.9135 150.559 46.7053 161.712 56.1158 169.145L65.9862 165.857C65.9862 165.857 54.345 160.019 58.5471 144.758Z" fill="white" stroke="#3D3D3C" stroke-width="1.07592" stroke-linecap="round" stroke-linejoin="round"/>
<circle cx="156.193" cy="139.451" r="0.681503" fill="#FAD436" stroke="#3D3D3C" stroke-width="1.07592" stroke-linecap="round" stroke-linejoin="round"/>
<circle cx="154.159" cy="156.422" r="0.681503" fill="#FAD436" stroke="#3D3D3C" stroke-width="1.07592" stroke-linecap="round" stroke-linejoin="round"/>
<path d="M123.246 150.451C124.659 151.39 126.318 151.892 128.014 151.892L123.246 150.451Z" fill="#ECEDEE"/>
<path d="M123.246 150.451C124.659 151.39 126.318 151.892 128.014 151.892" stroke="#3D3D3C" stroke-width="1.07592" stroke-linecap="round" stroke-linejoin="round"/>
<path d="M103.688 228.695C105.576 230.183 107.973 230.871 110.364 230.611L103.688 228.695Z" fill="#ECEDEE"/>
<path d="M103.688 228.695C105.576 230.183 107.973 230.871 110.364 230.611" stroke="#3D3D3C" stroke-width="1.07592" stroke-linecap="round" stroke-linejoin="round"/>
<path d="M130.726 78.2571C130.17 79.6159 129.944 81.0868 130.065 82.5498L130.726 78.2571Z" fill="#ECEDEE"/>
<path d="M130.726 78.2571C130.17 79.6159 129.944 81.0868 130.065 82.5498" stroke="#3D3D3C" stroke-width="1.07592" stroke-linecap="round" stroke-linejoin="round"/>
<path d="M141.592 88.6072C141.541 88.9083 141.732 89.1975 142.029 89.2685" stroke="#3D3D3C" stroke-width="1.07592" stroke-linecap="round" stroke-linejoin="round"/>
<path d="M390.749 132.274C389.225 132.28 387.707 132.475 386.231 132.856C382.456 126.87 375.178 124.104 368.381 126.07C361.584 128.037 356.907 134.263 356.912 141.338C356.912 141.355 356.914 141.37 356.914 141.387C356.596 141.365 356.279 141.338 355.954 141.338C348.289 141.346 342.078 147.562 342.078 155.228C342.078 162.894 348.289 169.111 355.954 169.118H388.7V168.998C395.484 169.758 402.132 166.705 405.975 161.063C409.818 155.421 410.225 148.116 407.034 142.082C403.842 136.048 397.575 132.273 390.749 132.274Z" fill="#FAD436"/>
<mask id="mask33_1_9058" style="mask-type:alpha" maskUnits="userSpaceOnUse" x="342" y="125" width="68" height="45">
<path fill-rule="evenodd" clip-rule="evenodd" d="M390.748 132.274C389.224 132.28 387.706 132.475 386.23 132.856C382.456 126.87 375.178 124.104 368.38 126.07C361.583 128.037 356.907 134.263 356.912 141.338C356.912 141.355 356.914 141.37 356.914 141.387C356.595 141.365 356.278 141.338 355.954 141.338C348.288 141.346 342.078 147.562 342.078 155.228C342.078 162.894 348.288 169.111 355.954 169.118H388.699V168.998C395.483 169.758 402.131 166.705 405.974 161.063C409.817 155.421 410.225 148.116 407.033 142.082C403.842 136.048 397.575 132.273 390.748 132.274Z" fill="white"/>
</mask>
<g mask="url(#mask33_1_9058)">
<path d="M387.158 127.23L386.231 132.856C386.231 132.856 387.645 135.301 387.99 138.16C387.99 138.16 392.955 130.425 397.623 131.434C402.291 132.442 387.158 127.23 387.158 127.23Z" fill="#FFA008"/>
</g>
<path fill-rule="evenodd" clip-rule="evenodd" d="M390.749 132.274C389.225 132.28 387.707 132.475 386.231 132.856C382.456 126.87 375.178 124.104 368.381 126.07C361.584 128.037 356.907 134.263 356.912 141.338C356.912 141.355 356.914 141.37 356.914 141.387C356.596 141.365 356.279 141.338 355.954 141.338C348.289 141.346 342.078 147.562 342.078 155.228C342.078 162.894 348.289 169.111 355.954 169.118H388.7V168.998C395.484 169.758 402.132 166.705 405.975 161.063C409.818 155.421 410.225 148.116 407.034 142.082C403.842 136.048 397.575 132.273 390.749 132.274Z" stroke="#3D3D3C" stroke-width="1.07592" stroke-linecap="round" stroke-linejoin="round"/>
<path d="M371.183 146.904C369.869 148.015 368.395 148.922 366.811 149.594L371.183 146.904Z" fill="#ECEDEE"/>
<path d="M371.183 146.904C369.869 148.015 368.395 148.922 366.811 149.594" stroke="#3D3D3C" stroke-width="1.07592" stroke-linecap="round" stroke-linejoin="round"/>
<defs>
<linearGradient id="paint0_linear_1_9058" x1="211.012" y1="320.138" x2="211.017" y2="317.805" gradientUnits="userSpaceOnUse">
<stop offset="0.1011" stop-color="#CB541D"/>
<stop offset="0.8855" stop-color="#CB1F11"/>
</linearGradient>
</defs>
</svg>
