<svg width="39" height="38" viewBox="0 0 39 38" fill="none" xmlns="http://www.w3.org/2000/svg">
<g clip-path="url(#clip0_1_9467)">
<path d="M9.11171 16.0105L9.05093 15.889L10.0865 15.3709L10.1473 15.493C10.3678 15.9347 10.8112 16.2085 11.305 16.2085C11.7987 16.2085 12.2421 15.9341 12.4627 15.493L12.5235 15.3709L13.559 15.889L13.4983 16.0111C13.0803 16.847 12.2398 17.3662 11.305 17.3662C10.3701 17.3662 9.52906 16.847 9.11171 16.0105ZM0.306773 29.5221V29.0162C0.306773 27.3178 0.773328 25.6716 1.64855 24.2262L0.535999 22.2795C0.305615 21.8778 0.245993 21.4095 0.368131 20.9609C0.490269 20.5134 0.779696 20.1401 1.18258 19.9103C1.44248 19.7609 1.74001 19.6816 2.04333 19.6816C2.66618 19.6816 3.24387 20.0173 3.55182 20.5586L4.111 21.5368C4.71474 21.0963 5.37116 20.7293 6.06347 20.4463C4.78247 19.8119 3.79205 18.6854 3.33649 17.3326C1.95072 17.1185 0.885626 15.9173 0.885626 14.4719V14.0928C0.885626 13.9249 0.900097 13.7576 0.92904 13.5956L1.92004 7.89385C2.71596 3.32033 6.66258 0.000610352 11.305 0.000610352C15.9474 0.000610352 19.894 3.32033 20.6899 7.89385L21.6815 13.5967C21.7099 13.7576 21.7243 13.9249 21.7243 14.0928V14.4719C21.7243 15.9173 20.6593 17.1185 19.2735 17.3321C18.8179 18.6854 17.8275 19.8119 16.5453 20.4463C19.9594 21.8517 22.3032 25.2317 22.3032 29.0162V29.5221C22.3032 31.7565 20.485 33.5741 18.2512 33.5741H16.5147V35.8895H6.0953V33.5741H4.35875C2.12437 33.5741 0.306773 31.7565 0.306773 29.5221ZM6.67416 32.4164H9.56842V30.3406L8.98957 29.7618C8.67988 29.4527 8.14155 29.4521 7.83186 29.7618L7.49266 30.101H6.67416C6.35463 30.101 6.0953 30.3609 6.0953 30.6798V31.8375C6.0953 32.1565 6.35463 32.4164 6.67416 32.4164ZM4.72979 24.9532L3.76426 25.5969L5.67679 28.9433H6.0953V27.3427L4.72979 24.9532ZM8.41072 24.3124H7.25301V28.7499C8.01536 28.2093 9.13428 28.2701 9.80807 28.9427L10.039 29.1742C10.2318 29.0312 10.468 28.9433 10.7261 28.9433H15.357V24.3124H14.1992C14.1992 24.9509 13.68 25.4701 13.0415 25.4701H9.56842C8.92995 25.4701 8.41072 24.9509 8.41072 24.3124ZM13.0415 12.1565C13.0415 13.1139 13.8207 13.8931 14.7781 13.8931C15.7355 13.8931 16.5147 13.1139 16.5147 12.1565C16.5147 11.1991 15.7355 10.42 14.7781 10.42C13.8207 10.42 13.0415 11.1991 13.0415 12.1565ZM12.8835 9.9864C11.8856 9.60147 10.986 8.97341 10.2821 8.12887L9.60258 7.31384C9.40866 7.08056 9.12329 6.94685 8.81997 6.94685C8.43098 6.94685 8.08135 7.16276 7.90769 7.51065L7.664 7.9992L6.79224 8.28979C6.37547 8.42871 6.0953 8.8177 6.0953 9.25705V9.85616C6.58038 9.48859 7.17776 9.26226 7.83186 9.26226C9.22922 9.26226 10.3985 10.2585 10.6677 11.5777H11.9423C12.0708 10.945 12.4146 10.3962 12.8835 9.9864ZM7.83186 10.42C6.87444 10.42 6.0953 11.1991 6.0953 12.1565C6.0953 13.1139 6.87444 13.8931 7.83186 13.8931C8.78929 13.8931 9.56842 13.1139 9.56842 12.1565C9.56842 11.1991 8.78929 10.42 7.83186 10.42ZM6.0953 14.5397C6.0953 15.981 7.01395 17.2551 8.3812 17.7106C9.09145 17.948 9.56842 18.6096 9.56842 19.358V20.1898L9.70851 20.7502C9.892 21.4847 10.5484 21.997 11.305 21.997C12.0615 21.997 12.7174 21.4847 12.9015 20.7508L13.0415 20.1904V19.3586C13.0415 18.6102 13.5185 17.948 14.2288 17.7112C15.596 17.2556 16.5147 15.9816 16.5147 14.5402V14.4575C16.0296 14.825 15.4322 15.0514 14.7781 15.0514C13.3808 15.0514 12.2115 14.0552 11.9423 12.736H10.6677C10.3985 14.0552 9.22979 15.0514 7.83186 15.0514C7.17776 15.0514 6.58038 14.825 6.0953 14.4575V14.5397ZM9.56842 23.1547V24.3124H13.0421L13.0415 23.1547H9.56842ZM15.357 33.5741H11.305H9.56842H7.25301V34.7318H15.357V33.5741ZM14.7387 21.0923L14.0459 20.9435L14.0239 21.0315C13.9243 21.4298 13.7362 21.7834 13.4936 22.0891C13.9081 22.2656 14.1992 22.6766 14.1992 23.1547H16.5147V28.9433H18.609L19.3476 30.4211L18.312 30.9391L17.8935 30.101H10.7261V32.4164H11.305H18.2512C19.8471 32.4164 21.1455 31.118 21.1455 29.5221V29.0162C21.1455 25.2207 18.4509 21.8882 14.7387 21.0923ZM6.78009 19.5109L7.76124 19.9317L8.41014 19.7928V19.3586C8.41014 19.1091 8.25153 18.888 8.0142 18.8093C6.17345 18.1957 4.93702 16.4806 4.93702 14.5402V9.25647C4.93702 8.31815 5.53497 7.48807 6.42525 7.19112L6.84145 7.05278L6.87155 6.99316C7.24317 6.25049 7.98931 5.78914 8.81939 5.78914C9.46712 5.78914 10.0772 6.07452 10.4923 6.57291L11.1718 7.38793C11.8213 8.16765 12.6728 8.72451 13.6169 9.01972C13.4878 8.77487 13.39 8.50975 13.3425 8.22322C13.2158 7.46376 12.6062 6.94685 11.8838 6.94685V5.78914C13.1741 5.78914 14.2647 6.71299 14.4765 7.98589C14.6033 8.74534 15.2134 9.26226 15.9358 9.26226H17.0935H17.6724V14.5397C17.6724 16.48 16.4354 18.1957 14.5952 18.8087C14.3584 18.8874 14.1992 19.1086 14.1992 19.358V19.7922L14.8481 19.9311L15.8287 19.5103C17.0379 18.9922 17.9496 17.9219 18.2686 16.6461L18.3774 16.2085H18.8295C19.7869 16.2085 20.5661 15.4294 20.5661 14.4719V14.0928C20.5661 13.9938 20.5574 13.8948 20.5406 13.7964L19.5484 8.0924C18.8503 4.07458 15.383 1.15832 11.305 1.15832C7.22696 1.15832 3.75963 4.07458 3.06038 8.0924L2.0688 13.7953C2.05144 13.8948 2.04275 13.9938 2.04275 14.0928V14.4719C2.04275 15.4294 2.82189 16.2085 3.77931 16.2085H4.2314L4.34022 16.6467C4.65975 17.9225 5.57144 18.9934 6.78009 19.5109ZM4.69564 22.5597L6.0953 25.0088V23.1547H8.41072C8.41072 22.6766 8.70188 22.2656 9.11634 22.0891C8.8738 21.7834 8.68567 21.4298 8.58611 21.0315L8.56411 20.9435L7.87065 21.0923C6.71641 21.3395 5.63396 21.8517 4.69564 22.5597ZM1.54031 21.7047L3.18888 24.5897L4.15441 23.946L2.54636 21.1316C2.39354 20.8636 2.02191 20.7629 1.75738 20.9152C1.62193 20.9927 1.52584 21.1166 1.48474 21.2659C1.44422 21.4153 1.4639 21.571 1.54031 21.7047ZM1.46448 29.5221C1.46448 31.118 2.76285 32.4164 4.35875 32.4164H5.04411C4.97928 32.2346 4.9376 32.0413 4.9376 31.8375V30.6798C4.9376 30.4761 4.97928 30.2827 5.04411 30.101H4.13762L3.71853 30.9386L2.68296 30.4205L3.42216 28.9433H4.34369L2.32002 25.4018C1.76085 26.5208 1.46448 27.752 1.46448 29.0162V29.5221ZM34.1732 13.0752L31.4618 15.2574C31.1637 15.4971 30.7892 15.6296 30.4071 15.6296C30.0251 15.6296 29.65 15.4977 29.3525 15.2574L26.6411 13.0746C25.3555 12.0402 24.6186 10.4975 24.6186 8.84201C24.6186 8.36041 24.6823 7.88112 24.8085 7.4163L26.0906 2.68591L26.5138 2.66854C27.7844 2.61587 29.0127 2.32007 30.1652 1.78985L30.4071 1.67871L30.6491 1.78985C31.801 2.32007 33.0293 2.61529 34.3005 2.66854L34.7236 2.68591L36.0058 7.41572C36.132 7.88112 36.1957 8.36041 36.1957 8.84143C36.1957 10.4981 35.4582 12.0408 34.1732 13.0752ZM35.038 8.84201C35.038 8.46286 34.9876 8.08487 34.8886 7.71904L33.8258 3.79962C32.8499 3.72148 31.9006 3.50614 30.986 3.17215V9.84111H29.8283V3.17215C28.9137 3.50614 27.9638 3.7209 26.9884 3.79962L25.9257 7.71962C25.8267 8.08545 25.7763 8.46344 25.7763 8.84201C25.7763 10.145 26.3563 11.3594 27.367 12.1727L29.8283 14.1541V10.9988H30.986V14.1541L33.4473 12.1733C34.458 11.36 35.038 10.1456 35.038 8.84201ZM33.471 16.3775L28.0917 21.7574L27.3433 21.0089L26.5248 21.8274L28.0917 23.3944L34.2895 17.196L33.471 16.3775ZM33.471 20.4295L28.0917 25.8094L27.3433 25.0609L26.5248 25.8794L28.0917 27.4464L34.2895 21.248L33.471 20.4295ZM27.3433 29.1129L26.5248 29.9314L28.0917 31.4983L34.2895 25.3L33.471 24.4815L28.0917 29.8613L27.3433 29.1129Z" fill="#E1E1E1"/>
</g>
<defs>
<clipPath id="clip0_1_9467">
<rect width="38" height="38" fill="white" transform="translate(0.305664)"/>
</clipPath>
</defs>
</svg>
