<svg width="39" height="38" viewBox="0 0 39 38" fill="none" xmlns="http://www.w3.org/2000/svg">
<g clip-path="url(#clip0_1_9424)">
<path d="M36.8325 1.43686C36.4832 1.0876 35.9749 0.967075 35.506 1.12226L10.4295 9.42221C9.7463 9.64834 10.096 10.7052 10.7793 10.479L35.8558 2.1791C36.0303 2.16084 36.1085 2.23899 36.0902 2.41355L25.4526 34.553C25.3697 34.8033 25.0208 34.8242 24.9086 34.5856L20.6131 25.4469L22.6509 22.1576C23.03 21.5458 22.0836 20.9596 21.7046 21.5714L19.6876 24.8271L14.6557 24.4009L28.5751 10.4814L23.2486 19.0791C22.8696 19.6909 23.8159 20.2772 24.195 19.6654L32.051 6.98458C32.3539 6.49661 31.7712 5.91558 31.2839 6.21882L12.8514 17.6851L3.68011 13.3617C3.4418 13.2493 3.46288 12.9007 3.71299 12.8179L7.99228 11.4015C8.67551 11.1754 8.32573 10.1186 7.6425 10.3447L3.36321 11.7611C2.18191 12.152 2.07986 13.8381 3.20542 14.3686L12.3591 18.6838L12.86 24.8991C12.8817 25.1682 13.1003 25.3847 13.3679 25.4091L19.6138 25.938L23.9011 35.0592C24.4279 36.1798 26.1187 36.0833 26.5094 34.9028L37.1471 2.7634C37.3023 2.29443 37.1817 1.7862 36.8325 1.43686ZM13.873 23.6092L13.5176 19.1989L13.4702 18.6113L27.7605 9.72174L13.873 23.6092Z" fill="#E1E1E1"/>
<path d="M11.2062 26.7613C10.9853 26.5474 10.633 26.5531 10.4191 26.7739L0.464097 37.0545C-0.0354506 37.5703 0.761407 38.3478 1.26377 37.8289L11.2188 27.5484C11.4327 27.3275 11.4271 26.9752 11.2062 26.7613Z" fill="#E1E1E1"/>
<path d="M14.7803 26.7762L6.91218 34.9699C6.41516 35.4875 7.21439 36.2624 7.71513 35.741L15.5833 27.5473C16.0818 27.0282 15.2789 26.2572 14.7803 26.7762Z" fill="#E1E1E1"/>
<path d="M2.71898 31.508C2.86519 31.508 3.01125 31.4507 3.12057 31.3369L10.9886 23.1433C11.4872 22.6241 10.6842 21.8531 10.1857 22.3722L2.31755 30.5658C1.99701 30.8997 2.25832 31.508 2.71898 31.508Z" fill="#E1E1E1"/>
</g>
<defs>
<clipPath id="clip0_1_9424">
<rect width="38" height="38" fill="white" transform="translate(0.305664)"/>
</clipPath>
</defs>
</svg>
