<svg width="24" height="25" viewBox="0 0 24 25" fill="none" xmlns="http://www.w3.org/2000/svg">
<g clip-path="url(#clip0_1_639)">
<path d="M22.5 3.85278H1.5C1.30299 3.85267 1.10788 3.89139 0.925843 3.96674C0.743804 4.04208 0.578401 4.15256 0.439091 4.29187C0.299781 4.43118 0.189296 4.59659 0.113953 4.77863C0.0386109 4.96066 -0.000111495 5.15577 2.41129e-07 5.35278V20.3528C-0.000111495 20.5498 0.0386109 20.7449 0.113953 20.9269C0.189296 21.109 0.299781 21.2744 0.439091 21.4137C0.578401 21.553 0.743804 21.6635 0.925843 21.7388C1.10788 21.8142 1.30299 21.8529 1.5 21.8528H22.5C22.697 21.8529 22.8921 21.8142 23.0742 21.7388C23.2562 21.6635 23.4216 21.553 23.5609 21.4137C23.7002 21.2744 23.8107 21.109 23.886 20.9269C23.9614 20.7449 24.0001 20.5498 24 20.3528V5.35278C24.0001 5.15577 23.9614 4.96066 23.886 4.77863C23.8107 4.59659 23.7002 4.43118 23.5609 4.29187C23.4216 4.15256 23.2562 4.04208 23.0742 3.96674C22.8921 3.89139 22.697 3.85267 22.5 3.85278ZM21 6.85278V7.48248L12 12.6257L3 7.48248V6.85278H21ZM3 18.8528V10.9373L11.2558 15.655C11.4825 15.7846 11.739 15.8528 12 15.8528C12.261 15.8528 12.5175 15.7846 12.7442 15.655L21 10.9373V18.8528H3Z" fill="#FAD436"/>
</g>
<defs>
<clipPath id="clip0_1_639">
<rect width="24" height="24" fill="white" transform="translate(0 0.852783)"/>
</clipPath>
</defs>
</svg>
