<svg width="1107" height="240" viewBox="0 0 1107 240" fill="none" xmlns="http://www.w3.org/2000/svg">
<path d="M325.852 92.9038L365.999 76.2489L332.269 75.0256L333.892 80.7415L325.686 87.4717L325.852 92.9038Z" fill="#FAD436"/>
<path d="M366 76.2484L326.452 79.4765L295.202 95.6227L366 76.2484Z" fill="#FDF6D8"/>
<path d="M332.27 75.0255L366 76.2487L332.815 63.0767L332.27 75.0255Z" fill="#FDF6D8"/>
<path d="M304.5 70.4999C282 63.9999 273.9 46.0999 235.5 38.4999C197.1 30.8999 174.667 43.6666 168 49.4999" stroke="#18E1F7" stroke-linecap="round" stroke-linejoin="round" stroke-dasharray="5 7"/>
<path d="M369 98C378 109 402.5 125.8 432.5 129C462.5 132.2 486.667 130.333 495 129" stroke="#33AFE1" stroke-linecap="round" stroke-linejoin="round" stroke-dasharray="5 7"/>
<path d="M756.217 63.6012L807.284 59.1048L767.633 40.5849L768.331 49.7657L757.182 55.5587L756.217 63.6012Z" fill="#FAD436"/>
<path d="M807.284 59.1039L759.798 44.2222L719.368 52.3853L807.284 59.1039Z" fill="#FDF6D8"/>
<path d="M767.634 40.5846L807.284 59.1044L770.833 23.3451L767.634 40.5846Z" fill="#FDF6D8"/>
<path d="M744.5 32.9999C704.5 16 684.4 26.4999 666 44.4999C643 66.9999 664 120.5 609 117" stroke="#685ED6" stroke-linecap="round" stroke-linejoin="round" stroke-dasharray="5 7"/>
<path d="M824 68C836.833 76.8333 877.5 92.5 930.5 77" stroke="#685ED6" stroke-linecap="round" stroke-linejoin="round" stroke-dasharray="5 7"/>
</svg>
