<svg width="28" height="18" viewBox="0 0 28 18" fill="none" xmlns="http://www.w3.org/2000/svg">
<g id="logo">
<path id="path" d="M25.6725 17.9573H0L2.3275 10.1309H28L25.6725 17.9573Z" fill="#00B2C3"/>
<path id="path_2" d="M10.9515 7.1964V2.3004H13.0445V3.9204H14.007V2.3004H16.0965V7.1964H14.007V5.5728H13.0445V7.1964H10.9515ZM21.3045 4.4712L22.099 2.3004H20.0585L19.4215 3.9204H19.0505V2.3004H16.9575V7.1964H19.0505V5.5728H19.5475L20.1845 7.1964H22.274L21.3045 4.4712ZM25.984 2.8404C25.7296 2.83171 25.4762 2.87891 25.2406 2.97885C25.0054 3.0788 24.7933 3.22919 24.619 3.42C24.6337 3.19912 24.7065 2.98651 24.8297 2.80509C24.9533 2.62366 25.1223 2.48028 25.319 2.3904C26.019 2.0844 26.831 2.2968 27.419 1.782V0C26.9668 0.164565 26.4964 0.270973 26.019 0.3168C25.3124 0.393098 24.6306 0.62649 24.0205 1.0008C23.17 1.5516 22.5645 2.4408 22.5645 4.2876C22.5645 6.678 23.9085 7.3512 25.2945 7.3512C26.6805 7.3512 27.8775 6.6312 27.8775 5.0724C27.8775 3.5676 27.006 2.844 25.977 2.844L25.984 2.8404ZM25.2245 5.7024C24.7205 5.7024 24.6015 5.2956 24.6015 4.9824C24.6015 4.6692 24.7205 4.2624 25.2245 4.2624C25.7285 4.2624 25.837 4.6584 25.837 4.9824C25.837 5.3064 25.718 5.7024 25.2245 5.7024ZM10.227 4.7484C10.227 3.546 9.70203 2.4084 8.49803 2.178L8.40003 2.16C8.33003 2.16 8.25653 2.142 8.18303 2.1384H7.89953C7.5518 2.15488 7.21517 2.26947 6.92653 2.4696C6.76381 2.5834 6.61867 2.72175 6.49603 2.88L6.30003 2.3004H4.65503V9.1404H6.75503V6.8976C6.91683 7.04372 7.10461 7.15619 7.30803 7.2288C7.54617 7.32031 7.79943 7.36312 8.05353 7.3548C9.57253 7.3548 10.234 6.0912 10.234 4.7448L10.227 4.7484ZM7.35003 5.634C7.2255 5.6358 7.10275 5.60336 6.99446 5.54008C6.88617 5.47679 6.79629 5.38495 6.73403 5.274V4.194C6.79839 4.08499 6.88876 3.99474 6.99656 3.93174C7.10436 3.86874 7.22602 3.83508 7.35003 3.834C7.85403 3.834 8.07453 4.284 8.07453 4.7196C8.07792 4.77353 8.07792 4.82767 8.07453 4.8816C8.06924 5.07085 7.99378 5.25082 7.86365 5.3847C7.73349 5.51855 7.55849 5.59616 7.37453 5.6016" fill="#2C384A"/>
</g>
</svg>
