<svg width="43" height="43" viewBox="0 0 43 43" fill="none" xmlns="http://www.w3.org/2000/svg">
<g id="logo">
<path id="path" fill-rule="evenodd" clip-rule="evenodd" d="M29.4132 34.8973C33.4372 35.7766 37.4741 36.8161 41.8375 42.2782C42.2251 42.7629 41.6332 43.2486 41.1886 42.857C36.748 38.9583 32.7361 37.7014 29.0387 37.7014C24.9226 37.7014 22.1185 38.2462 19.2924 38.2462C8.6377 38.2462 0 29.6836 0 19.1221C0 8.56259 8.6377 0 19.2924 0C29.948 0 38.5847 8.56159 38.5847 19.1221C38.5898 22.5825 37.6452 25.978 35.8537 28.9386C35.7966 29.0317 35.6534 28.9986 35.6394 28.8915C34.9774 24.1926 32.0802 21.6028 27.865 20.8477C27.4994 20.7816 27.4313 20.5582 27.915 20.5172C29.2009 20.407 31.0336 20.426 31.965 20.5923C32.0211 20.1106 32.0451 19.6188 32.0451 19.1221C32.0451 12.1419 26.3357 6.48153 19.2924 6.48153C12.249 6.48153 6.53962 12.1409 6.53962 19.1221C6.53962 26.1044 12.249 31.7637 19.2924 31.7637C19.4927 31.7637 19.693 31.7657 19.8912 31.7567C19.6957 30.6284 19.6156 29.4832 19.6519 28.3387C19.6829 27.5675 19.8412 27.4614 20.1927 28.0613C21.9563 31.0757 24.489 33.8227 29.4122 34.8973H29.4132ZM29.0858 30.2054C29.5565 30.2054 30.0502 30.4017 30.4748 30.7582C31.3331 31.4773 31.5945 32.3325 31.1398 32.9364C30.8874 33.2669 30.4788 33.4492 29.9881 33.4492C29.5074 33.4492 29.0167 33.2719 28.6762 32.9785C27.895 32.3015 27.6657 31.2059 28.1754 30.583C28.3747 30.3396 28.6982 30.2054 29.0858 30.2054ZM33.3631 27.0768C34.0791 27.3452 34.3605 28.4308 34.4346 28.9315C34.5608 29.7698 34.2944 30.1163 34.026 30.1163C33.7336 30.1163 33.3651 29.7768 32.9324 29.1068C32.5048 28.4458 32.3486 27.6847 32.5599 27.3021C32.7001 27.0488 32.9935 26.9376 33.3631 27.0768Z" fill="#FF8C00"/>
</g>
</svg>
