<svg width="37" height="37" viewBox="0 0 37 37" fill="none" xmlns="http://www.w3.org/2000/svg">
<g id="Group">
<path id="Vector" d="M36.4166 18.5387C36.4126 28.4883 28.4465 36.4232 18.4689 36.4163C8.54366 36.4095 0.577783 28.4081 0.583255 18.451C0.58869 8.54487 8.65918 0.568377 18.6617 0.583028C28.4573 0.597384 36.4206 8.65077 36.4166 18.5387ZM32.4704 18.2911C32.2992 14.4906 31.0343 11.1587 28.3033 8.49271C24.7424 5.01651 20.4578 4.01371 15.6804 4.79947C10.3032 5.68387 4.41563 10.9464 4.54293 18.7413C4.66537 26.2387 10.8042 32.444 18.5178 32.4087C26.3971 32.3728 32.5944 25.9625 32.4704 18.2911Z" fill="#030302"/>
<path id="Vector_2" d="M32.4696 18.2909C32.5945 25.9619 26.3972 32.3722 18.5179 32.4082C10.8044 32.4434 4.66547 26.2382 4.54304 18.7408C4.41574 10.9459 10.3034 5.68334 15.6805 4.79894C20.458 4.01318 24.7426 5.01598 28.3035 8.49218C31.0344 11.1582 32.2993 14.4901 32.4696 18.2909Z" fill="#DEA038"/>
<path id="Vector_3" d="M16.5643 27.0418C14.9235 27.0418 13.4131 27.0418 11.8885 27.0418C11.5857 25.2371 11.8006 23.6772 13.0081 22.2177C15.1297 19.6534 16.8657 16.7788 19.2055 14.1672C16.8474 14.1672 14.6534 14.1672 12.4071 14.1672C12.4071 12.7511 12.4071 11.4138 12.4071 9.9782C13.7497 9.9782 15.1082 9.9782 16.5351 9.9782C16.5351 8.89918 16.5351 7.91563 16.5351 6.87598C17.8236 6.87598 19.0428 6.87598 20.3554 6.87598C20.3554 7.87981 20.3554 8.88205 20.3554 9.96169C21.9267 9.96169 23.4075 9.96169 24.9393 9.96169C24.9606 11.6686 25.1321 13.203 23.924 14.6815C21.8198 17.2565 20.0691 20.121 17.8048 22.8046C20.3642 22.8046 22.7699 22.8046 25.2099 22.8046C25.2099 24.2444 25.2099 25.5857 25.2099 27.0085C23.6205 27.0085 22.0457 27.0085 20.3942 27.0085C20.3942 28.047 20.3942 29.0065 20.3942 30.0175C19.0936 30.0175 17.8699 30.0175 16.5642 30.0175C16.5643 29.0578 16.5643 28.099 16.5643 27.0418Z" fill="#030302"/>
</g>
</svg>
