<svg width="33" height="33" viewBox="0 0 33 33" fill="none" xmlns="http://www.w3.org/2000/svg">
<g id="Layer 2">
<g id="Layer 1">
<g id="Layer_1">
<path id="Vector" d="M16.5002 32.9086C25.4057 32.9086 32.625 25.6894 32.625 16.7839C32.625 7.87847 25.4057 0.65918 16.5002 0.65918C7.59478 0.65918 0.375488 7.87847 0.375488 16.7839C0.375488 25.6894 7.59478 32.9086 16.5002 32.9086Z" fill="#BA9F33"/>
<path id="Vector_2" fill-rule="evenodd" clip-rule="evenodd" d="M6.92328 14.9668C6.8269 14.8788 6.72507 14.7906 6.63141 14.7025C6.53775 14.6145 6.44154 14.5263 6.34516 14.4383L6.05873 14.166C6.0119 14.1192 5.96235 14.0779 5.91552 14.0309C5.86869 13.9897 5.81369 13.9429 5.76686 13.9015C5.38677 13.5409 5.0045 13.1802 4.62968 12.8193C5.01793 13.1746 5.39802 13.5272 5.78628 13.8877L5.92114 14.0228C5.96798 14.0694 6.01753 14.1108 6.06436 14.1576L6.35061 14.4219C6.44699 14.51 6.54065 14.5982 6.63703 14.6942C6.73342 14.7902 6.82708 14.8786 6.92346 14.9665L6.92328 14.9668ZM1.87884 14.9124C1.87884 14.9124 3.26107 15.0554 3.93575 15.1518C4.5607 15.24 6.51578 15.54 6.51578 15.54L1.87884 14.9124ZM1.87884 14.9124C2.2671 14.9454 2.65536 14.9866 3.04361 15.028C3.24183 15.0472 3.43187 15.0692 3.62192 15.0884L3.91361 15.1216C4.00999 15.1353 4.10365 15.1491 4.20004 15.1629L5.35664 15.3473L5.93476 15.4437C6.1248 15.4767 6.31485 15.5126 6.51306 15.5457C6.32302 15.5264 6.1248 15.4988 5.93476 15.4712L5.35664 15.3887L4.20004 15.218C4.10365 15.2042 4.00999 15.1848 3.91361 15.1712L3.62173 15.1376C3.43169 15.1184 3.23348 15.0908 3.04343 15.0686C2.65518 15.022 2.26692 14.9723 1.87866 14.9118L1.87884 14.9124ZM6.3782 15.9002C6.3782 15.9002 4.90231 16.2748 4.40388 16.418C3.91379 16.5529 2.42956 17.0045 2.42956 17.0045L6.37801 15.9003L6.3782 15.9002Z" fill="#CFB66C"/>
<path id="Vector_3" fill-rule="evenodd" clip-rule="evenodd" d="M6.37855 15.9004C6.05092 15.9968 5.7251 16.0904 5.39275 16.1787L4.40695 16.443C4.07932 16.5393 3.7535 16.633 3.42678 16.7294L2.93669 16.8643C2.77424 16.9111 2.60906 16.9523 2.44116 16.9993C2.60343 16.9449 2.76879 16.8891 2.93125 16.8423L3.42133 16.6855C3.74897 16.5835 4.07478 16.4871 4.40151 16.3852C4.73458 16.3026 5.0624 16.2144 5.39547 16.1346C5.71203 16.0547 6.04529 15.975 6.37855 15.9006V15.9004ZM2.63665 17.9135C2.79892 17.8528 4.67142 16.9801 5.1065 16.7762C5.32432 16.6742 5.95744 16.4495 5.95744 16.4495L2.63665 17.9135Z" fill="#CFB66C"/>
<path id="Vector_4" fill-rule="evenodd" clip-rule="evenodd" d="M2.63666 17.9131C2.77969 17.8587 2.91473 17.7921 3.05232 17.7287L3.45982 17.5387L4.27772 17.145C4.54999 17.0156 4.81463 16.8727 5.09544 16.7511C5.23865 16.6906 5.38186 16.6411 5.5249 16.5943L5.74271 16.5255C5.81695 16.5062 5.88593 16.4841 5.96053 16.4648C5.68826 16.5943 5.40165 16.7044 5.12902 16.831C4.85675 16.966 4.5783 17.0762 4.29732 17.1973L3.46581 17.5634C3.18664 17.6764 2.91437 17.7975 2.63647 17.9131H2.63666ZM2.81817 18.6755C2.81817 18.6755 4.51423 17.6815 5.09798 17.3621C5.40364 17.1914 6.39217 16.7012 6.39217 16.7012L2.81817 18.6755Z" fill="#CFB66C"/>
<path id="Vector_5" fill-rule="evenodd" clip-rule="evenodd" d="M2.81812 18.6761C3.10436 18.4998 3.39623 18.3208 3.6881 18.1391L4.12373 17.8747C4.27239 17.7866 4.4156 17.7041 4.56717 17.616C4.71583 17.5278 4.85904 17.4398 5.01042 17.3572C5.08248 17.3127 5.15799 17.274 5.23622 17.2416L5.46747 17.1259C5.77313 16.9773 6.0788 16.8257 6.40099 16.6963C6.10911 16.8809 5.80889 17.0379 5.50885 17.2002C5.36019 17.2828 5.20863 17.3572 5.05997 17.4398C4.91131 17.5224 4.7681 17.6106 4.61654 17.6904C4.46788 17.7785 4.32467 17.8611 4.17329 17.9409L3.72441 18.186L2.81848 18.6761H2.81812ZM6.3783 16.9192C6.3783 16.9192 5.32371 17.7287 4.98229 17.9876C4.64086 18.2464 3.63583 18.9734 3.63583 18.9734L6.3783 16.9192Z" fill="#CFB66C"/>
<path id="Vector_6" fill-rule="evenodd" clip-rule="evenodd" d="M12.4308 23.4473L11.8911 22.4257L12.205 21.148L14.4436 20.2835L13.4908 18.3286L13.9616 16.3543L14.8456 14.5863L17.5772 14.1569L19.5844 12.2432L23.9186 12.5708L24.7694 17.205L23.131 23.0398L22.1977 26.0605L18.4142 26.2037L16.6575 24.9867L14.6006 24.1274L12.4308 23.4473Z" fill="#E2CC85"/>
<path id="Vector_7" fill-rule="evenodd" clip-rule="evenodd" d="M19.0665 23.4146C19.0665 23.4146 18.5432 23.6542 17.6507 23.599C17.3924 23.2522 15.5835 23.0897 15.5835 23.0897C15.5835 23.0897 15.3577 23.0209 14.9583 23.1861C14.5565 23.3494 14.1764 23.3293 13.8212 23.4173C13.4659 23.5054 13.1133 23.0429 12.841 22.9465C12.5687 22.8447 12.2077 22.5996 12.2077 22.5996L11.4454 22.5252L9.91448 21.8781L7.4824 19.4551L6.82151 20.4897L6.61768 21.7701L7.35298 23.2874L9.33273 25.0909L13.1931 26.0711L15.4813 25.3969L18.3477 24.1853L19.0665 23.4144V23.4146Z" fill="#F1D789"/>
<path id="Vector_8" fill-rule="evenodd" clip-rule="evenodd" d="M5.35151 14.8514L5.84161 13.3674L6.42554 12.409L8.30605 12.252L7.74153 13.8986L6.16942 16.6963L6.82197 19.1937L5.66554 19.7719L5.31013 19.2268L5.02388 17.9767L5.00464 16.5723L5.35151 14.8514Z" fill="#F4ECB4"/>
<path id="Vector_9" fill-rule="evenodd" clip-rule="evenodd" d="M7.4607 23.3127L7.10003 22.8088C7.10003 22.8088 7.00365 22.5692 7.05883 22.36C7.11328 22.148 7.10547 22.1342 7.07807 22.0543C7.05066 21.9744 6.81923 21.6991 6.83302 21.4622C6.84664 21.2226 6.81378 21.1427 6.98985 20.9529C7.17427 20.7685 7.11927 20.449 7.11927 20.449L7.35887 20.5976L7.41332 20.5151C7.41332 20.5151 7.50135 20.5839 7.50135 20.6913C7.5206 20.5426 7.44073 19.8542 7.62242 19.6973C7.80412 19.5405 8.12631 20.4325 8.12631 20.4325L7.92809 19.1383L7.41858 17.8112L6.51265 16.5996L6.4582 15.2641V15.1484C6.4582 15.1484 6.04235 15.7874 5.92673 16.292C5.84414 16.6388 6.04235 17.0601 6.00115 17.5586C5.96793 18.0543 5.92673 18.0156 6.0478 18.212C6.16887 18.4084 6.46364 18.8123 6.34802 19.1042C6.24619 19.3548 5.89914 19.1786 5.89914 19.1786C5.89914 19.1786 5.83034 19.3822 5.73668 19.4567C5.70365 19.3356 5.66789 19.2584 5.60182 19.1844C5.59619 19.2312 5.58258 19.2946 5.58258 19.2946C5.58258 19.2946 5.52195 19.1045 5.46133 18.8649C5.37892 18.5456 5.2907 18.1243 5.21084 17.8985C5.1778 18.028 5.09521 18.4217 5.09521 18.4217L5.14205 19.0276L5.36785 19.8591L5.58566 20.4036L5.79767 21.0699L5.98191 21.5176L6.13057 21.859L6.25999 22.6273L6.88494 23.288L7.21819 23.4369L7.46033 23.3129L7.4607 23.3127Z" fill="#F3E19D"/>
<path id="Vector_10" fill-rule="evenodd" clip-rule="evenodd" d="M5.67866 13.6394C5.67866 13.6394 5.22977 14.4018 5.10054 15.1703C4.9713 15.9388 4.85549 16.7509 4.93717 17.7972C5.01976 18.8519 5.17677 19.4989 5.30347 19.9615C5.52129 20.7299 6.08544 21.7983 6.08544 21.7983L6.10468 21.7569C6.00985 21.5771 5.93417 21.3879 5.87887 21.1924C5.80445 20.9005 5.77686 20.5536 5.70807 20.3966C5.64744 20.2398 5.54561 20.1047 5.49606 19.912C5.44923 19.7276 5.4416 19.4357 5.29784 19.2182C5.23722 19.13 5.1628 18.8988 5.14083 18.6675C5.11324 18.3205 5.15463 17.9322 5.12159 17.6129C5.06097 17.0815 5.01976 16.7208 5.07476 16.4425C5.12976 16.1643 5.41637 15.3743 5.59262 14.7465C5.70825 14.3444 5.63927 14.0057 5.85128 13.6559C6.06329 13.3091 6.19289 13.0034 6.23954 12.7914C6.294 12.5986 5.67793 13.6394 5.67793 13.6394H5.67866Z" fill="#F2E8B0"/>
<path id="Vector_11" fill-rule="evenodd" clip-rule="evenodd" d="M7.8075 13.334C7.8075 13.334 7.57625 13.403 7.46607 13.524C7.35589 13.6396 7.30906 13.736 7.1604 13.9315C7.01174 14.127 7.00339 14.2867 6.88214 14.5318C6.76106 14.7714 6.49387 15.132 6.46084 15.2614C6.4278 15.3909 6.3728 15.9966 6.30401 16.283C6.24338 16.5694 6.3728 16.9219 6.3728 16.9219L6.52963 16.8887C6.52963 16.8887 6.52963 17.0925 6.68664 17.2303C6.84347 17.3651 6.87106 16.7731 6.87106 16.7731L7.45754 14.7933L8.34134 14.1931L8.43773 13.7084L7.80714 13.334H7.8075Z" fill="#F5EEC0"/>
<path id="Vector_12" fill-rule="evenodd" clip-rule="evenodd" d="M8.23669 14.2314C8.23669 14.2314 7.82085 14.2588 7.6172 14.4076C7.53461 14.4681 7.50158 14.5176 7.41355 14.592C7.25109 14.7269 7.08574 14.8509 7.00606 15.0277C6.91784 15.2037 6.82146 15.4709 6.75539 15.9748C6.7278 16.1868 6.7278 16.3823 6.70856 16.5531C6.68097 16.7844 6.63977 16.9688 6.66173 17.0977C6.68932 17.3619 6.96195 17.4997 6.98845 17.7997L7.55294 17.5135L8.08441 15.4179L9.2134 14.71L8.57448 13.9941L8.23597 14.2301L8.23669 14.2314Z" fill="#E6DB9D"/>
<path id="Vector_13" fill-rule="evenodd" clip-rule="evenodd" d="M5.25897 28.3425C5.26133 28.3218 5.26369 28.3011 5.26605 28.2799C5.34846 27.572 5.36243 27.0354 5.42288 26.6994C5.51091 26.2231 5.57154 26.046 5.55774 25.8677C5.5385 25.5815 5.51654 25.3722 5.54413 25.1519C5.58533 24.86 5.87176 24.5131 5.8636 24.2735C5.85797 24.0835 5.76158 23.9597 5.679 23.8441C5.59641 23.7284 5.53033 23.632 5.53033 23.632C5.53033 23.632 6.09485 23.2438 6.0894 21.6797C6.10093 21.6829 6.11202 21.6876 6.12244 21.6935L6.40052 22.4836L6.59056 22.7149L7.32025 24.0751L8.25923 24.9867L9.64691 25.92L10.5171 26.867L10.6051 29.392L9.46793 30.8679L9.2817 31.2051C7.80212 30.4624 6.44535 29.4968 5.25879 28.3423L5.25897 28.3425Z" fill="#E5CB7A"/>
<path id="Vector_14" fill-rule="evenodd" clip-rule="evenodd" d="M8.73291 30.7586C8.73291 30.7586 8.75215 30.4447 9.01099 30.2409C9.05237 30.3097 9.07978 30.3759 9.07161 30.4253C9.11844 30.3429 9.44607 29.8141 10.1868 29.6764C10.9276 29.5415 11.1066 29.0019 11.1066 29.0019L12.6786 27.5728L14.4767 25.918L16.663 25.1496L17.6848 24.8989C17.6848 24.8989 17.704 24.9734 17.6655 25.1385C17.8554 25.1249 18.2767 25.0285 18.7145 24.8743C18.8907 24.8055 19.0561 24.7779 19.1441 24.8688C19.2735 24.9899 19.2928 25.2763 19.301 25.4469C19.513 25.4001 19.758 25.1964 19.9544 25.2157C20.2684 25.2487 20.5465 25.6177 20.866 25.6177C21.2873 25.6177 21.4771 25.3589 21.7719 25.1551C21.9481 25.034 22.2014 24.8828 22.3446 24.7806C22.686 24.5299 26.2986 23.4258 26.2986 23.4258L27.5652 23.5084L27.7691 24.8686L27.6602 28.4245C27.6467 28.4374 27.6333 28.4508 27.6197 28.4637L21.8607 31.4715L13.8777 32.6953C12.0895 32.4031 10.3639 31.8096 8.7743 30.9399L8.73345 30.7584L8.73291 30.7586Z" fill="#D8C173"/>
<path id="Vector_15" fill-rule="evenodd" clip-rule="evenodd" d="M5.74316 28.7947C5.85661 28.5575 5.95862 28.3591 5.97659 28.2881C5.99075 28.4311 6.0167 28.745 6.06898 29.0786C5.95923 28.9853 5.85062 28.8906 5.74316 28.7945V28.7947Z" fill="#F1D789"/>
<path id="Vector_16" fill-rule="evenodd" clip-rule="evenodd" d="M11.574 32.1411L12.6065 31.8539L12.6945 31.8815C12.6945 31.8815 12.7413 31.9091 12.7413 32.0026C12.8708 31.9283 12.9809 31.942 13.0608 31.8926C13.102 31.9806 13.1432 32.2725 13.3251 32.3083C13.515 32.3496 13.7188 32.2257 13.9254 32.0688C14.129 31.9064 14.361 31.7025 14.5365 31.62C14.6009 31.7384 14.658 31.8606 14.7073 31.9861C14.9386 31.8017 15.3406 31.0527 15.9133 31.0663C16.0788 30.6752 16.3554 30.3411 16.7087 30.1054C17.2402 29.7447 17.5733 29.7171 17.9891 29.7502C18.1543 29.5356 18.3578 29.3536 18.5894 29.2133C18.6582 29.2408 18.8482 29.3565 19.0851 29.2463C19.3247 29.1363 19.5944 28.7094 19.9496 28.6544C20.1411 28.628 20.3357 28.6689 20.5004 28.77C20.5004 28.77 21.535 27.7428 22.2489 27.4014C22.2213 27.3188 22.1663 27.0077 23.0033 26.3192C23.0501 26.3606 23.0171 26.4762 23.0501 26.4826C23.0637 26.4826 23.2679 26.3945 23.5264 26.1961C23.8459 25.9567 24.2285 25.706 24.4597 25.6372C24.8954 25.5078 25.3575 25.7721 25.3575 25.7721C25.3968 25.7445 25.4406 25.724 25.4869 25.7115C25.5969 25.6922 25.6768 25.6784 25.7374 25.657C25.732 25.8002 25.8118 26.0453 25.7374 26.2573C25.8236 26.3058 25.9149 26.3446 26.0097 26.3729C25.963 26.4748 25.861 26.7336 25.6904 26.8576C25.8334 26.9264 25.8527 27.0062 26.0565 27.0754C25.9739 27.191 25.8387 27.3894 25.7784 27.511C25.7178 27.6404 25.5002 28.1774 25.4038 28.381C25.302 28.5849 25.1644 28.9593 25.0981 29.0345C25.0319 29.1096 24.7924 29.4282 24.608 29.585C24.7714 29.5244 25.4397 29.3207 25.7233 29.2436C25.6389 29.3674 25.211 30.0021 24.7997 30.6126C22.8304 31.7929 20.6321 32.54 18.3513 32.8041C16.0705 33.0681 13.7597 32.843 11.5728 32.1438L11.574 32.1411Z" fill="#E0CD81"/>
<path id="Vector_17" fill-rule="evenodd" clip-rule="evenodd" d="M8.30458 14.1569C8.30458 14.1569 8.06515 14.1569 8.01832 14.1899C7.97149 14.223 8.25792 14.2919 8.34596 14.325C8.434 14.358 8.62405 14.5094 8.6736 14.6306C8.72043 14.7463 10.3946 15.4208 10.3946 15.4208L11.5786 15.3601L11.9869 14.7962L11.2103 14.116L11.7549 12.5107L11.0335 12.6264L9.29875 13.661L8.42855 13.9943L8.30458 14.1569Z" fill="#DFC57C"/>
<path id="Vector_18" fill-rule="evenodd" clip-rule="evenodd" d="M10.905 14.6885C10.9221 14.7162 10.9462 14.7389 10.9749 14.7544C11.0036 14.7698 11.0358 14.7774 11.0684 14.7765C11.3134 14.7765 11.539 14.8371 11.6327 14.9609C11.7897 15.1593 12.2248 15.7926 12.2248 15.7926L13.2656 16.1671L13.3327 14.9415L12.1956 14.1514L10.9014 14.6277V14.6883H10.9043L10.905 14.6885Z" fill="#E5CC7C"/>
<path id="Vector_19" fill-rule="evenodd" clip-rule="evenodd" d="M10.7008 15.1427C10.7008 15.1427 10.8907 15.1565 11.1303 15.0682C11.3699 14.98 11.7636 14.7902 11.9344 14.8646C12.1738 14.9664 12.1242 15.2859 12.3832 15.5725C12.5401 15.7487 12.8265 15.7433 12.989 15.9333C13.1514 16.1234 13.7103 16.0352 13.7103 16.0352L13.9223 17.1787L13.0715 18.2692L12.7933 19.6239H11.6429L10.5919 19.2069L10.0742 17.9545L10.3331 16.6879L10.7008 15.1427Z" fill="#D2C281"/>
<path id="Vector_20" fill-rule="evenodd" clip-rule="evenodd" d="M12.9266 15.1979C12.9551 15.2066 12.9848 15.2113 13.0146 15.2116C12.9816 15.2392 12.9126 15.2997 12.9402 15.4567C12.9678 15.6137 13.0559 15.8119 12.9816 15.933C13.0409 15.9978 13.0851 16.0749 13.111 16.1588C13.1579 16.2938 13.1717 16.4176 13.4771 16.437C13.4331 16.4641 13.3924 16.4965 13.3561 16.5334C13.3561 16.5334 13.5681 16.7178 13.6755 16.8884C13.7855 16.8837 14.0774 16.7929 14.0774 16.7929L14.138 16.8343L14.2675 16.7799C14.2675 16.7799 14.1464 16.733 14.2344 16.4385C14.317 16.1796 14.3914 16.1934 14.3978 16.1742C14.4041 16.1549 14.4584 15.8823 14.4584 15.7721C14.4996 15.6291 14.5326 15.194 14.5326 15.194L14.4446 14.2331L13.9491 13.9329L13.5461 13.5439L13.166 14.2598L12.9157 14.5094L12.8965 15.1289L12.9266 15.1979Z" fill="#E2C270"/>
<path id="Vector_21" fill-rule="evenodd" clip-rule="evenodd" d="M14.1187 14.3937C14.1187 14.3937 14.2067 14.6442 14.2399 14.8369C14.2516 14.7995 14.2581 14.7606 14.2591 14.7213C14.2591 14.7213 14.3279 15.1014 14.3416 15.2584C14.3691 15.2528 14.396 15.2446 14.4022 15.272C14.4083 15.2994 14.4712 15.6053 14.4566 15.7759C14.5713 15.5867 14.73 15.4281 14.9191 15.3134C15.0293 15.2444 15.1587 15.1702 15.2938 15.1646C15.5058 15.1591 15.6599 15.2996 15.9133 15.2996C16.5244 15.2996 17.078 14.8507 17.4855 14.7131C17.7856 14.6111 18.0444 14.5369 18.2261 14.3715C18.3143 14.2973 18.4713 14.1321 18.6144 13.8869C18.8044 13.5602 19.0026 13.2757 19.201 13.24C19.1113 13.2565 19.0199 13.2629 18.9288 13.2592C18.9288 13.2592 18.9894 13.1986 19.0921 13.116C19.1949 13.0334 19.3179 12.9316 19.494 12.9316C19.808 12.9316 19.9648 12.9782 20.1411 12.9782C20.3173 12.9728 20.4192 12.9316 20.4192 12.9316C20.4192 12.9316 20.6038 13.061 21.0194 13.061C21.4353 13.0665 21.7134 13.1022 21.931 13.1216C22.1486 13.1411 22.8781 13.061 23.0874 13.0672C23.2239 13.0724 23.3578 13.1052 23.4813 13.1636L22.8066 11.2032L20.383 9.08496L18.9402 10.1065L16.7206 12.3259L14.573 13.1216L14.1241 13.6255V14.3937H14.1187Z" fill="#CCB360"/>
<path id="Vector_22" fill-rule="evenodd" clip-rule="evenodd" d="M18.9375 13.2702C18.9375 13.2702 18.9982 13.2097 19.0998 13.1271C19.2014 13.0445 19.3258 12.9425 19.5019 12.9425C19.8157 12.9425 19.9727 12.9894 20.149 12.9894C20.3252 12.9839 20.427 12.9425 20.427 12.9425C20.427 12.9425 20.6118 13.0718 21.0273 13.0718C21.4432 13.0772 21.7213 13.113 21.9389 13.1322C22.1565 13.1515 22.886 13.0718 23.0953 13.0778C23.2317 13.0829 23.3657 13.1157 23.489 13.1741L23.1834 12.2902L22.8283 11.6157L21.8149 10.5059L20.5895 9.78457C20.5841 9.77912 20.1682 9.66895 20.1682 9.66895L19.0668 10.3353L18.0673 12.9209L18.0481 13.4655L18.695 13.7711C18.8575 13.4989 19.0366 13.2811 19.2045 13.2535C19.053 13.27 18.9373 13.27 18.9373 13.27L18.9375 13.2702Z" fill="#D5B457"/>
<path id="Vector_23" fill-rule="evenodd" clip-rule="evenodd" d="M18.9235 13.4551C18.8271 13.4605 18.7474 13.4413 18.7252 13.3725C18.6427 13.1412 18.5766 13.1082 18.5074 13.1082C18.4383 13.1082 18.345 13.2569 18.2896 13.2705C18.2343 13.2841 18.1686 13.0999 18.1686 13.0999L18.1079 13.0723C18.1079 13.0723 17.7527 13.3035 17.5022 13.5761C17.2518 13.8488 16.8414 14.3115 16.657 14.3939C16.4725 14.4763 15.8391 14.504 15.6224 14.5509C15.4056 14.5977 15.1653 14.7547 15.1323 14.7905C15.0993 14.8262 15.2289 14.8647 15.2481 14.9005C15.2673 14.9335 15.0359 14.9197 15.0167 14.9549C15.0031 14.9825 15.0711 15.1393 15.1049 15.2192C15.164 15.1898 15.2288 15.1738 15.2947 15.1724C15.5067 15.1669 15.661 15.3074 15.9142 15.3074C16.5255 15.3074 17.079 14.8585 17.4865 14.7208C17.7867 14.6189 18.0455 14.5445 18.2272 14.3793C18.3152 14.3051 18.4722 14.1397 18.6154 13.8947C18.72 13.7268 18.822 13.5698 18.924 13.4542L18.9235 13.4551Z" fill="#D2B257"/>
<path id="Vector_24" fill-rule="evenodd" clip-rule="evenodd" d="M10.156 27.0828C10.156 27.0828 10.1016 26.8789 9.59696 26.3531C9.45374 26.2044 9.36571 26.0808 9.26933 25.9924C9.02973 25.7664 8.88923 25.706 8.71861 25.5766C8.34414 25.2985 7.93664 25.2985 7.62281 24.957C7.30897 24.6156 6.94322 23.9632 6.68909 23.2965C6.4386 22.6302 6.36963 22.4182 6.36963 22.3989C6.36963 22.3797 6.4386 22.2503 6.52664 22.2695C6.61467 22.2888 6.61467 22.4594 6.63682 22.5008C6.68068 22.5683 6.73043 22.6319 6.78548 22.6906C6.9149 22.8395 7.09932 23.0174 7.19298 23.2827C7.17374 23.0569 7.0966 22.8064 7.0966 22.8064C7.0966 22.8064 7.58124 23.1121 7.99418 23.4314C8.41003 23.7509 8.58066 23.8611 8.70209 24.0647C8.82352 24.2684 9.10959 24.8055 9.24664 24.9625C9.38368 25.1195 11.2614 25.7114 11.2614 25.7114L12.1547 26.3774L12.5981 27.3494L12.2511 27.894L11.5847 28.0372L10.5025 27.5525L10.156 27.0826V27.0828Z" fill="#D2B159"/>
<path id="Vector_25" fill-rule="evenodd" clip-rule="evenodd" d="M7.75244 23.7342C7.75244 23.7342 7.97824 24.0948 8.52895 24.4363C9.02466 24.7365 9.80933 25.0091 10.5089 25.1716C10.9107 25.2679 11.3128 25.3422 11.6735 25.3478C12.6455 25.3614 13.3145 25.0835 14.1435 24.9926C14.5924 24.9458 15.1431 24.91 15.7157 24.7748C16.4509 24.5985 16.8859 24.4001 17.478 24.1213C17.9075 23.9231 18.3014 23.7745 18.6207 23.5844C19.0695 23.3201 19.3972 23.0255 19.7772 22.9375C19.7304 23.0669 19.6809 23.2982 19.3064 23.5378C19.5046 23.5321 19.7772 23.5185 19.7772 23.5185C19.7772 23.5185 19.513 23.6754 19.0476 24.0278C18.7611 24.2457 18.3812 24.6143 17.993 24.8594C17.7423 25.0164 17.4697 25.1316 17.2907 25.2257C16.8551 25.4653 16.6794 25.5863 16.3931 25.8791C16.495 25.8737 16.5033 25.8791 16.5033 25.8791C16.5033 25.8791 16.1425 25.9259 15.8838 26.0635C15.8294 26.0635 15.735 26.0443 15.5698 26.0911C15.4404 26.1323 15.2696 26.2262 15.0935 26.2755C14.8428 26.3499 14.7604 26.3169 14.7604 26.3169L14.8016 26.3995C14.8016 26.3995 14.4749 26.3939 14.366 26.4049C14.3853 26.4104 14.3798 26.4187 14.3798 26.4187C14.3607 26.4219 14.3423 26.4285 14.3254 26.438C14.2729 26.4719 14.2153 26.497 14.1547 26.5122C14.1217 26.5177 14.0941 26.5177 14.0527 26.526C14.0665 26.5591 14.174 26.7438 14.2235 26.8527C14.1823 26.8803 13.5626 27.3485 13.5626 27.3485C13.5819 27.3787 13.5976 27.411 13.6095 27.4448C13.6287 27.5053 13.6371 27.5935 13.6563 27.6347C13.7029 27.7173 13.7305 27.7311 13.7305 27.7311C13.7305 27.7311 13.6563 27.7449 13.5267 27.7779C13.4167 27.8055 13.2817 27.8522 13.0911 27.8797C13.0326 27.8873 12.9738 27.892 12.9148 27.8935C12.9424 27.9542 13.0635 28.1854 12.8404 28.4524C12.6173 28.7194 12.5485 28.7583 12.4797 28.9289C12.4451 28.9027 12.4082 28.8796 12.3696 28.8599C12.2953 28.8269 12.1933 28.7775 12.1576 28.7113C12.1367 28.7995 12.1091 28.8861 12.075 28.9701C12.0062 29.1545 11.9043 29.3364 11.8851 29.474C11.8107 29.3914 11.6731 29.2289 11.4831 29.262C11.293 29.295 11.1416 29.5538 11.1086 29.6283C11.1086 29.5814 11.0756 29.5457 11.0674 29.6007C11.0618 29.6613 10.9572 30.2944 10.3735 30.8066C10.368 30.6772 10.368 30.3908 10.3542 30.2973C10.2998 30.3518 10.2332 30.4322 9.83656 30.603C9.44831 30.7736 9.50984 30.9444 9.50984 30.9444C9.50984 30.9444 9.47681 30.6721 9.68609 30.3854C9.8981 30.0991 10.0275 29.9641 10.0275 29.9421C10.0241 29.9197 10.0145 29.8987 9.99992 29.8815C9.97233 29.8539 9.91734 29.8208 9.91734 29.7989C9.95037 29.7853 10.278 29.6283 10.2588 29.3032C10.2395 29.0115 10.1157 28.8599 10.0275 28.7526C10.0139 28.7388 10.1571 28.637 10.1377 28.604C10.1239 28.5847 9.94783 28.4551 9.92569 28.3862C9.93089 28.345 9.94013 28.3044 9.95327 28.2651C9.97251 28.2045 9.98631 28.1631 9.98086 28.1219C9.96707 28.0531 9.89265 27.863 9.87069 27.8438C9.88993 27.8492 10.0275 27.8438 10.0275 27.8438C10.0275 27.8438 9.91752 27.6676 9.8981 27.585C9.87867 27.5024 9.83747 27.2847 9.81551 27.2435C9.86234 27.249 9.97796 27.2572 9.97796 27.2435C9.98359 27.2022 9.87613 27.1334 9.92351 27.0802C9.95654 27.0856 10.0199 27.1132 10.0803 27.1904C10.0473 27.1021 9.9923 26.9315 9.8765 26.8627C9.93095 26.8435 10.1161 26.7937 10.2785 26.8901C10.441 26.9865 10.4964 27.1214 10.4964 27.1214C10.4964 27.1214 10.5927 27.1958 10.7416 27.306C10.9122 27.4408 11.1297 27.6327 11.4767 27.7685C11.5511 27.8099 11.741 27.8099 11.8788 27.7823C11.9387 27.768 11.9963 27.7448 12.0494 27.7135C12.0686 27.7022 12.0889 27.6929 12.11 27.6859C12.0804 27.6265 12.0464 27.5694 12.0082 27.5151C12.055 27.5151 12.11 27.5207 12.11 27.5207C12.11 27.5207 12.143 27.4463 11.9944 27.3029C12.0274 27.2699 12.0688 27.2484 12.0688 27.1927C12.022 27.1873 11.9394 27.1185 11.9201 27.0909C11.9475 27.0716 11.9889 27.0083 12.0358 26.9891C11.9944 26.956 11.8925 26.8183 11.8457 26.8046C11.8905 26.788 11.9337 26.7678 11.9751 26.744C11.9751 26.744 11.7439 26.6834 11.6695 26.6338C11.5951 26.5794 11.4851 26.4852 11.419 26.4576C11.35 26.43 11.2289 26.4164 11.1794 26.3612C11.226 26.375 11.3005 26.3612 11.3556 26.3612C11.3968 26.3612 11.4163 26.3666 11.4299 26.3666C11.4244 26.3474 11.4244 26.306 11.5319 26.2924C11.5836 26.2846 11.6337 26.2688 11.6805 26.2456C11.6805 26.2456 11.5785 26.2401 11.4627 26.13C11.3469 26.0198 11.2507 25.9317 11.1847 25.9179C11.1159 25.9042 10.9864 25.9648 10.9066 25.9592C10.7964 25.9455 10.7496 25.8904 10.7496 25.8904C10.7496 25.8904 10.3835 25.9234 9.57119 25.4279C8.86892 24.9982 8.56326 24.6183 8.56326 24.6183C8.49753 24.5945 8.43401 24.5649 8.37339 24.5301C8.10911 24.3925 7.74282 24.1061 7.75389 23.7314L7.75244 23.7342Z" fill="#C2A44D"/>
<path id="Vector_26" fill-rule="evenodd" clip-rule="evenodd" d="M17.8825 7.20697C17.9462 7.22766 18.0028 7.26584 18.0458 7.31714C18.1753 7.4658 18.2579 7.7466 17.9633 8.04683C18.0789 8.08803 18.1266 8.10128 18.2275 8.08803C18.1257 8.20928 17.8945 8.46812 17.8807 8.69392C17.8669 8.87834 17.9825 8.93352 17.9825 8.93352C17.9825 8.93352 17.8062 9.13718 17.7981 9.47806C17.8813 9.3842 17.9724 9.2976 18.0703 9.21922C18.2742 9.05677 18.555 8.87235 18.745 8.75673C18.7425 8.80519 18.749 8.8537 18.7643 8.89976C18.7643 8.89976 19.1193 8.60789 19.4177 8.73749C19.5526 8.79811 19.492 8.98797 19.492 8.98797C19.492 8.98797 19.6766 8.91918 19.806 9.0486C19.9354 9.17802 20.1184 9.51182 20.2122 9.64124C20.2534 9.70187 20.3609 9.81749 20.4709 9.99646C20.6212 10.247 20.7466 10.5117 20.8455 10.7866C20.851 10.6434 20.8867 10.4205 21.2944 10.5608C21.7019 10.704 22.1644 11.0042 22.5527 11.5954C22.941 12.1866 23.0372 12.854 23.2327 13.1081C23.4309 13.3532 23.6347 13.7607 23.6485 13.9315C23.6623 14.1023 23.5879 14.6528 23.9954 16.1425C24.111 15.68 24.2873 14.6528 24.2873 14.6528L24.3836 13.7469L24.4938 10.9438L21.5667 8.51205L19.2785 6.85156L17.7888 6.99478L17.8823 7.20678L17.8825 7.20697Z" fill="#CAA13E"/>
<path id="Vector_27" fill-rule="evenodd" clip-rule="evenodd" d="M23.3208 11.3789C23.3208 11.3789 23.2794 11.1066 22.5911 10.6438C21.9026 10.1867 21.3657 10.1867 20.8702 9.79846C20.4901 9.4928 20.0937 8.79052 19.8356 8.55927C19.5849 8.33075 19.5437 7.66986 19.5437 7.66986L20.389 6.96196L21.6462 5.14483L22.7089 3.97461L23.2183 4.68251L23.9262 5.51402L24.3199 7.18268L24.4631 9.62512L23.3195 11.3791L23.3208 11.3789Z" fill="#B59544"/>
<path id="Vector_28" fill-rule="evenodd" clip-rule="evenodd" d="M24.172 14.3067C24.1929 13.9363 24.1471 13.5651 24.037 13.2109C23.8555 12.6464 23.4588 11.644 23.2746 11.2687C23.2002 10.8528 23.2554 10.8198 23.3352 10.773C23.4151 10.7261 23.7153 10.5551 23.8798 9.95524C24.0442 9.35534 24.5545 9.33574 24.5545 9.33574L24.8683 9.10449L25.3448 10.2967L25.7605 11.3734L25.8899 12.1968L25.9863 12.8988L25.7605 14.3831L24.6454 15.3908L24.1718 14.3067H24.172Z" fill="#C89D3A"/>
<path id="Vector_29" fill-rule="evenodd" clip-rule="evenodd" d="M8.61157 30.8494V30.8189C8.63474 30.8044 8.6552 30.786 8.67202 30.7644C8.69126 30.7369 8.70523 30.7038 8.71885 30.6957C8.74644 30.6819 8.87586 30.6412 8.94465 30.6543C9.01344 30.6673 9.19532 30.7423 9.2917 30.7369C9.48991 30.7314 9.72116 30.5798 10.0875 30.6488C10.6382 30.7506 10.7676 31.1251 11.0871 31.3371C11.3049 31.486 11.5303 31.4197 11.5633 31.4197H11.6376C11.6514 31.4197 11.7532 31.3041 11.8084 31.3097C11.9186 31.3152 11.9295 31.4061 11.9982 31.4116C12.1607 31.4308 12.4747 31.329 12.6317 31.3703C12.6783 31.3849 12.7206 31.4106 12.7551 31.445C12.7897 31.4795 12.8153 31.5218 12.8299 31.5684C12.863 31.6702 12.8354 31.7996 12.7555 31.8741C12.5849 32.0309 12.4224 32.1797 12.3894 32.3097C12.4314 32.3417 12.4718 32.3759 12.5103 32.4121C11.1479 32.0649 9.83707 31.5401 8.61157 30.851V30.8494Z" fill="#CEB052"/>
<path id="Vector_30" fill-rule="evenodd" clip-rule="evenodd" d="M23.2737 25.3471C23.2737 25.3471 23.7031 24.7744 23.852 24.4907C24.0006 24.1983 23.3811 20.4954 23.3811 20.4954L24.6258 16.4176L24.5925 15.0903C24.5925 15.0903 24.6532 13.8649 24.7964 13.3335C24.9672 13.6391 25.4987 14.0082 25.6143 14.2036C25.6687 13.829 25.8537 13.0389 25.8263 12.1963C25.9281 12.3531 26.1732 13.931 26.1732 13.931L26.4182 14.9938L26.7377 16.1228L27.0929 17.3151L27.3049 18.1385L27.4259 18.3367L27.528 18.6836L27.6243 19.0582L27.9024 19.9366L28.0658 20.6579L28.1952 21.9659C28.2233 22.066 28.2436 22.1682 28.2558 22.2716C28.2613 22.4148 28.2366 22.4974 28.2366 22.5222C28.2366 22.5471 28.2834 22.8361 28.2642 23.0537C28.2366 23.2715 28.2366 23.4419 28.0658 23.5982C27.895 23.7545 27.7877 24.6886 27.7877 24.6886L27.482 24.4849C27.482 24.4849 27.5427 24.2067 27.3994 23.9535C27.2562 23.7002 26.9782 23.6478 26.8211 23.6892C26.6643 23.7222 26.3505 23.7716 26.2485 23.8598C26.1521 23.9478 25.9154 24.2205 25.6978 24.3444C25.4255 24.5078 24.9819 24.5207 24.7452 24.5757C24.5056 24.6301 24.2413 24.7935 23.9631 24.9832C23.7449 25.1244 23.5145 25.2459 23.2748 25.3462L23.2737 25.3471Z" fill="#CCA847"/>
<path id="Vector_31" fill-rule="evenodd" clip-rule="evenodd" d="M23.2737 31.3644C23.2737 31.3644 23.2918 31.3762 23.3269 31.3954C25.2831 30.4789 27.036 29.1797 28.4818 27.5746C28.466 27.0173 28.4455 26.4461 28.423 26.2345C28.3764 25.7856 28.4094 25.3285 28.3956 25.0642C28.3818 24.8 28.2332 23.7232 28.1644 23.4451C28.09 23.1671 27.9466 23.0293 27.9248 23.0293C27.9055 23.0349 27.7897 23.5526 27.7897 23.6827C27.7897 23.8129 27.7621 24.1262 27.7621 24.206C27.7429 24.2004 27.7347 24.1516 27.7347 24.1316C27.7071 24.2004 27.6741 24.3217 27.6603 24.3355C27.6465 24.3493 27.6796 24.2198 27.6603 24.1923C27.6411 24.1647 27.6059 24.1785 27.6135 24.1097C27.6167 24.0689 27.6232 24.0284 27.6327 23.9886C27.6327 23.9886 27.5501 24.1097 27.4897 24.4181C27.4291 24.7237 27.4291 24.7321 27.4071 24.7595C27.3879 24.7927 27.2777 24.9027 27.2721 24.9441C27.2666 25.0183 27.3741 25.0927 27.3822 25.1339C27.3877 25.2029 27.2859 25.5222 27.2528 25.6785C27.2198 25.8348 27.2336 26.141 27.1984 26.298C27.1708 26.4412 27.1439 26.5238 27.0497 26.5842C27.1185 26.598 27.1846 26.6173 27.1846 26.6173C27.1846 26.6173 27.2809 27.0248 27.0359 27.3718C26.9479 27.4929 26.9259 27.5481 26.8322 27.6582C26.6476 27.8619 26.5044 28.0939 26.4906 28.2447C26.4811 28.2002 26.4747 28.1551 26.4714 28.1097C26.4714 28.1097 26.1852 28.4429 26.0639 28.633C25.9071 28.878 25.6894 28.8642 25.6283 28.9248C25.5671 28.9855 25.5539 29.0955 25.5738 29.1837C25.5194 29.1973 25.417 29.2167 25.348 29.4287C25.315 29.5387 25.2324 29.6465 25.103 29.7206C24.9736 29.7947 24.8165 29.817 24.7367 29.8362C24.8055 29.8555 24.8331 29.8555 24.8661 29.8774C24.8249 29.9462 24.6348 30.0537 24.4228 30.1914C24.2108 30.3209 24.1088 30.5107 24.0565 30.6347C24.0021 30.7503 23.9217 30.8247 23.7923 30.8385C23.8467 30.8716 23.9273 30.9485 23.9685 30.9734C23.9079 30.9872 23.8052 30.9872 23.6216 31.1442C23.4289 31.3039 23.3628 31.3508 23.2746 31.3646L23.2737 31.3644Z" fill="#C39D3C"/>
<path id="Vector_32" fill-rule="evenodd" clip-rule="evenodd" d="M19.4423 32.64C19.5477 32.5661 19.6619 32.5055 19.7823 32.4597C20.2117 32.2891 20.6661 32.2561 20.845 32.2011C21.0159 32.1466 21.1507 32.0715 21.3627 32.0303C21.3571 32.0786 21.3524 32.1239 21.3473 32.1668C20.7223 32.3633 20.0858 32.5213 19.4414 32.64H19.4423Z" fill="#D2BA6B"/>
<path id="Vector_33" fill-rule="evenodd" clip-rule="evenodd" d="M27.3636 21.3444C27.3636 21.3444 27.2756 21.8207 27.1186 22.1209C26.9616 22.4211 26.7919 22.8368 26.7919 22.8368C26.7929 22.7431 26.804 22.6498 26.8249 22.5585C26.6267 22.6741 26.1448 22.9524 26.0081 23.0762C25.8787 23.1918 25.661 23.3957 25.606 23.492C25.7355 23.1121 25.8703 22.7707 25.8925 22.6137C25.6942 22.7569 24.7689 23.5196 24.2872 24.0235L22.7864 25.2378C22.6132 25.3313 22.4349 25.4148 22.2522 25.488C21.9936 25.598 21.6879 25.6916 21.4621 25.7798C21.5227 25.6174 21.6189 25.474 21.754 25.3364C21.8972 25.2015 22.3266 24.7361 22.3927 24.5196C22.4533 24.2938 22.4671 24.1589 22.3873 23.9689C22.3128 23.9881 22.1422 23.9965 22.0266 24.0295C21.911 24.0625 21.787 24.1863 21.787 24.1863C21.787 24.1863 21.875 23.6824 22.0651 23.2062C21.9219 23.2116 21.6768 23.2528 21.6768 23.2528C21.6768 23.2528 22.0182 22.6801 22.6025 22.281C22.4236 22.3191 22.2485 22.3734 22.0794 22.4433C21.738 22.5865 21.3635 22.7985 21.0854 22.9141C21.2423 22.6963 22.3437 21.1244 22.9991 19.6594C23.6526 18.1973 23.8967 17.8228 24.0399 17.0381C24.1142 16.6499 24.0944 16.0761 24.1142 15.5623C24.1334 15.0528 24.1968 14.5957 24.1556 14.29C24.3262 14.502 24.9651 15.0996 24.9871 16.4352C25.0063 17.7706 24.3759 19.5743 23.7067 20.5461C23.87 20.5929 24.2933 20.6481 24.7282 19.8926C25.1631 19.1372 25.1579 18.9262 25.3149 18.6122C25.3341 18.7692 25.3285 18.8242 25.3285 18.8242C25.3285 18.8242 25.962 18.0561 26.262 17.0895C26.3226 17.5054 26.5016 17.8717 26.2206 18.6344C25.9702 19.3227 25.6425 19.4908 25.6425 19.4908C25.6425 19.4908 25.805 19.4632 26.0444 19.32C26.0858 19.4218 26.0776 19.5378 26.1464 19.5788C26.2152 19.6198 26.3089 19.689 26.3226 19.755C26.3969 19.6449 26.5125 19.5044 26.5485 19.3998C26.5209 19.6176 26.5016 20.57 26.6029 21.0547C26.8151 21.0354 27.0325 21.0216 27.1812 20.6388C27.0794 21.0135 27.0794 21.2391 27.1482 21.5586C27.2611 21.4816 27.3629 21.3438 27.3629 21.3438L27.3636 21.3444Z" fill="#C0993A"/>
<path id="Vector_34" fill-rule="evenodd" clip-rule="evenodd" d="M20.209 6.16682C20.209 6.16682 19.9969 6.25486 19.6363 6.25486C19.3224 6.25486 19.4105 6.13379 18.9204 6.13379C18.166 6.13379 15.5307 6.56942 15.068 6.56325C14.7678 6.55781 16.0813 6.69267 16.0813 6.69267L19.4381 6.7395L20.1126 6.68505L20.3632 6.17499L20.209 6.16682Z" fill="#A88F33"/>
<path id="Vector_35" fill-rule="evenodd" clip-rule="evenodd" d="M11.5056 12.7283C11.5056 12.7283 11.076 13.056 10.8943 13.3066C10.7126 13.5573 10.6162 13.7223 10.4097 13.9261C10.4582 13.928 10.5066 13.9215 10.5529 13.9069C10.5529 13.9069 10.5529 13.9613 10.5198 13.9757C10.5484 13.9725 10.5773 13.9757 10.6044 13.9851C10.6316 13.9946 10.6562 14.0099 10.6767 14.0301C10.616 14.0632 10.4509 14.2285 10.5803 14.424C10.6767 14.5727 10.8805 14.5863 10.8805 14.5863C10.8805 14.5863 10.8337 14.7213 11.0292 14.7075C11.4505 14.6883 11.9213 14.5037 12.1388 14.5505C12.3566 14.605 12.4804 14.625 12.6345 14.8921C12.7978 15.1564 12.9401 15.1978 12.9401 15.1978C12.9401 15.1978 13.0365 14.9526 13.0146 14.5865C13.0936 14.3891 13.1374 14.1795 13.144 13.967L13.0008 12.9124L12.3758 12.1221L11.5663 12.571L11.5056 12.7278V12.7283Z" fill="#E3C571"/>
<path id="Vector_36" fill-rule="evenodd" clip-rule="evenodd" d="M12.2732 12.5709C12.2732 12.5709 12.3338 12.7141 12.5872 12.7277C12.5596 12.7884 12.5596 12.7967 12.568 12.8434C12.5734 12.8902 12.5816 12.959 12.5816 12.959C12.6095 12.9455 12.6347 12.927 12.656 12.9045C12.6698 12.9651 12.6422 13.0613 12.656 13.1303C12.6645 13.1723 12.6784 13.213 12.6972 13.2514C12.7012 13.242 12.7058 13.2328 12.711 13.224C12.7164 13.2102 12.7655 13.3726 12.901 13.4963C12.9009 13.4772 12.9056 13.4585 12.9147 13.4418C12.9167 13.4763 12.9282 13.5096 12.9477 13.5382C12.9375 13.5333 12.9283 13.5268 12.9203 13.5189C12.9203 13.5189 12.9339 13.9546 13.0083 14.1798C13.0208 14.1653 13.0318 14.1496 13.0414 14.133C13.0414 14.1194 13.0359 14.2543 13.0221 14.3508C13.0029 14.4472 13.0167 14.5821 13.0167 14.5821C13.0663 14.543 13.1209 14.5106 13.1789 14.4857C13.2615 14.4525 13.3968 14.3506 13.4792 14.1248C13.527 13.997 13.5638 13.8653 13.5893 13.7311C13.616 13.7824 13.6343 13.8375 13.6438 13.8945C13.6494 13.9633 13.7788 13.9275 13.7788 13.9275L13.8064 13.6273L13.9698 12.9472L14.1185 12.5259L14.8343 11.4108L16.1278 10.4147L17.2568 10.6735L18.2094 9.37935L16.5683 8.39355L15.0153 8.55601L13.6059 10.5082L12.477 12.2788L12.2732 12.5707V12.5709Z" fill="#D8B65B"/>
<path id="Vector_37" fill-rule="evenodd" clip-rule="evenodd" d="M20.4076 9.74568C20.4076 9.74568 20.3112 9.76492 20.0331 9.90905C19.755 10.0532 19.5622 10.0989 19.4548 10.3109C19.3473 10.5229 19.3392 10.691 19.3392 10.691C19.3392 10.691 19.5292 10.6084 19.6394 10.5808C19.755 10.5534 19.8844 10.5616 19.8706 10.6084C19.8574 10.6405 19.839 10.6703 19.8162 10.6965C19.8162 10.6965 20.034 10.691 20.0282 10.7985C20.0224 10.9059 19.987 11.0243 19.9458 11.0766C19.9044 11.131 19.7338 11.2116 19.7145 11.2749C19.6677 11.4044 19.7338 11.4098 19.7089 11.5144C19.6897 11.6164 19.5989 11.8146 19.3014 12.1615C18.9957 12.5085 18.8658 12.7536 18.8658 12.7536C18.8658 12.7536 18.7171 12.4755 18.64 12.2359C18.5855 12.2633 18.2931 12.4257 18.2931 12.4257L17.6157 10.0661L17.6293 9.90905C17.6293 9.90905 17.6899 9.83481 17.7037 9.69704C17.6019 9.664 17.5881 9.63641 17.4531 9.50717C17.318 9.37793 17.208 9.22074 16.9824 9.11329C16.9493 9.05266 16.908 8.97025 16.7428 8.93704C16.5776 8.90382 16.4785 8.87659 16.4785 8.87659C16.4785 8.87659 16.5665 8.84337 16.6079 8.77458C16.5059 8.78838 16.4235 8.82141 16.2004 8.81597C15.9746 8.81034 15.9497 8.80217 15.826 8.82141C15.7022 8.84065 15.5537 8.89583 15.4983 8.70579C15.4377 8.65895 15.3083 8.70034 15.1981 8.86261C15.0879 9.02489 15.0494 9.15449 14.8374 9.21784C14.8225 9.31129 14.7898 9.40101 14.741 9.48212C14.6804 9.58414 14.584 9.68597 14.4546 9.83735C14.2508 10.0769 14.2838 10.4707 13.9589 10.7709C13.6313 11.0709 14.0134 9.93918 14.0134 9.93918L14.5365 8.68673L16.0262 7.23007L18.3392 7.07324L18.565 8.27124L19.694 8.6595L20.4072 9.74714L20.4076 9.74568Z" fill="#D3AE4D"/>
<path id="Vector_38" fill-rule="evenodd" clip-rule="evenodd" d="M20.7738 10.0104L19.8018 8.60899L19.1217 8.08569C19.1217 8.08569 18.6371 7.19375 18.6041 7.16616C18.5765 7.14692 18.1194 7.09737 17.8276 7.07812L17.882 7.21299C17.9457 7.23368 18.0023 7.27186 18.0454 7.32317C18.1748 7.47182 18.2574 7.75262 17.9628 8.05284C18.0784 8.09404 18.1261 8.10729 18.2271 8.09404C18.1252 8.21529 17.894 8.47413 17.8802 8.69993C17.8664 8.88434 17.982 8.93934 17.982 8.93934C17.982 8.93934 17.8058 9.14318 17.7976 9.48387C17.8808 9.39001 17.9719 9.30342 18.0699 9.22504C18.2737 9.06168 18.5545 8.87799 18.7445 8.76237C18.7419 8.81089 18.7485 8.85946 18.7638 8.90558C18.7638 8.90558 19.1188 8.61371 19.4172 8.74313C19.5521 8.80375 19.4914 8.99379 19.4914 8.99379C19.4914 8.99379 19.676 8.925 19.8055 9.05442C19.9349 9.18384 20.1193 9.51691 20.2129 9.64651C20.2541 9.70713 20.3616 9.82276 20.4716 10.0015C20.6219 10.2522 20.7474 10.5168 20.8462 10.7918C20.8517 10.6817 20.8738 10.5276 21.064 10.5276L20.7749 10.0099L20.7738 10.0104Z" fill="#CAA13E"/>
<path id="Vector_39" fill-rule="evenodd" clip-rule="evenodd" d="M6.20221 13.9922C6.20221 13.9922 6.13341 13.8214 6.20221 13.4883C6.271 13.1553 6.37845 12.9983 6.41421 12.5082C6.44997 12.0181 6.76943 11.4068 6.76943 11.4068L7.65322 11.0049L8.27835 11.1755L8.46276 12.0126L7.67246 12.4483C7.67246 12.4483 7.63125 12.6327 7.40817 12.7814C7.1851 12.93 6.87671 13.0456 6.80247 13.1972C6.75809 13.29 6.7257 13.3881 6.70608 13.4891C6.70608 13.4891 6.48028 13.4422 6.34542 13.5909C6.20221 13.7425 6.20765 13.8773 6.20221 13.993V13.9922Z" fill="#F4EFC8"/>
<path id="Vector_40" fill-rule="evenodd" clip-rule="evenodd" d="M7.98628 13.7692C7.98628 13.7692 7.91186 13.816 7.85686 13.9325C7.80241 13.8445 7.67227 13.3212 7.66682 12.8504C7.66138 12.3795 7.63324 12.2628 7.74215 12.1005C7.85106 11.9383 8.27816 11.7673 8.21753 11.475C8.15691 11.197 7.90351 11.0813 7.5924 11.1612C7.37458 11.2157 7.21249 11.6789 6.98669 11.9101C6.81589 12.0864 6.61223 12.0588 6.55723 12.1552C6.48281 12.2846 6.5516 12.414 6.52964 12.4966C6.52401 12.5242 6.45522 12.6728 6.33125 12.8518C6.08076 13.2125 5.65674 13.722 5.60156 14.179C5.6208 13.9202 5.60719 13.9147 5.67598 13.6283L5.6346 13.5595L5.90687 12.6674L6.08312 11.9323L6.477 10.7013L7.17074 9.44302L7.84543 8.68848L8.54752 8.73531L8.63011 9.78989L9.03216 11.7698L9.87747 12.8106L8.52266 13.7223L7.98574 13.7692H7.98628Z" fill="#EBCC73"/>
<path id="Vector_41" fill-rule="evenodd" clip-rule="evenodd" d="M8.40765 14.143C8.40765 14.143 8.29202 14.1706 8.25064 14.1486C8.20925 14.1267 8.16823 14.1018 8.18184 14.0742C8.19546 14.0466 8.26988 14 8.26988 13.9778C8.2714 13.9578 8.26508 13.938 8.25223 13.9226C8.23939 13.9072 8.22104 13.8974 8.20108 13.8952C8.13773 13.8871 8.11849 13.9283 8.11849 13.9283C8.11849 13.9283 8.05787 13.8816 8.0085 13.8738C8.03771 13.8703 8.0671 13.8684 8.09653 13.8682C8.02044 13.8337 7.93972 13.8106 7.85693 13.7994C7.92573 13.7582 8.06077 13.637 8.14881 13.637C8.23684 13.637 8.29202 13.6233 8.27823 13.5765C8.26443 13.5297 8.19564 13.4609 8.1214 13.4333C8.14881 13.4003 8.16823 13.3507 8.10216 13.2155C8.03318 13.0806 8.06077 12.9897 8.08292 12.9568C8.10216 12.9154 8.17095 12.8412 8.20399 12.7943C8.23702 12.7475 8.26461 12.6842 8.31961 12.6511C8.3472 12.6319 8.43524 12.5967 8.52345 12.5631C8.61983 12.5301 8.6997 12.4887 8.7547 12.5301C8.81532 12.5713 8.78773 12.6264 8.78773 12.6264C8.78773 12.6264 8.97778 12.5575 9.1484 12.6457C9.3192 12.7281 9.73505 12.7805 9.73505 12.7805L9.88408 13.0808L8.89828 13.9261L8.49078 14.13L8.40819 14.1436L8.40765 14.143Z" fill="#E5C66B"/>
<path id="Vector_42" fill-rule="evenodd" clip-rule="evenodd" d="M9.77603 12.7613C9.77603 12.7613 9.47036 12.9651 9.40157 13.0393C9.44277 13.045 9.51157 13.0726 9.48398 13.1138C9.45094 13.155 9.25273 13.2982 9.14255 13.4332C9.02693 13.5681 8.91675 13.7389 8.87827 13.8215C8.83706 13.8957 8.52305 14.1134 8.41577 14.1408C8.64157 14.1408 9.0959 13.8627 9.26652 13.8627C9.26108 13.9453 9.31336 14.0389 9.40974 14.0471C9.50612 14.0553 9.7842 14.1077 10.1587 13.8765C10.5331 13.6507 10.4093 13.4826 10.5662 13.3726C10.8664 13.1742 10.9875 12.998 11.1526 12.888C11.3178 12.778 11.4033 12.7529 11.4033 12.7529C11.4033 12.7529 11.4087 12.6703 11.4578 12.6787C11.4712 12.6802 11.4839 12.6854 11.4946 12.6936C11.5053 12.7019 11.5135 12.7129 11.5184 12.7255C11.5184 12.7255 11.8048 12.5217 12.1718 12.4667C12.1633 12.4628 12.1564 12.456 12.1526 12.4474C12.1526 12.4474 12.18 12.4336 12.1856 12.4198C12.1856 12.4198 12.2049 12.3922 12.2187 12.406C12.2325 12.4198 12.2517 12.5217 12.2793 12.563C12.3399 12.5355 12.4555 12.2766 12.4555 12.2766L12.7338 11.4809V10.7539L12.516 10.7953L10.8824 11.489L9.89093 12.5162L9.77531 12.7613H9.77603Z" fill="#E6BD62"/>
<path id="Vector_43" fill-rule="evenodd" clip-rule="evenodd" d="M14.4793 9.19534C14.5676 9.1739 14.6523 9.13953 14.7307 9.09333C14.6976 9.18155 14.6976 9.27793 14.5544 9.48722C14.4112 9.69651 14.4058 9.72682 14.2901 9.94427C14.1745 10.1701 14.1607 10.495 14.0505 10.638C14.0999 10.614 14.1529 10.5983 14.2074 10.5914C14.2074 10.5914 14.0974 10.6878 14.0505 10.7896C14.0037 10.8914 13.9211 11.1034 13.7175 11.233C13.5138 11.3626 13.2548 11.445 12.9767 11.7507C12.6984 12.0508 12.4122 12.4309 12.2688 12.5675C12.3432 12.4381 12.445 12.1793 12.4726 12.0086C12.5002 11.838 12.467 11.634 12.5138 11.4084C12.5607 11.1828 12.5607 11.0201 12.7861 10.6262C13.0116 10.2323 13.3974 8.8639 13.3974 8.8639L14.229 8.59961L14.4796 9.19443L14.4793 9.19534Z" fill="#B6933F"/>
<path id="Vector_44" fill-rule="evenodd" clip-rule="evenodd" d="M13.879 8.69099C13.879 8.69099 13.6285 9.05166 13.5597 9.37112C13.4909 9.69058 13.5541 9.66299 13.5129 9.82C13.4882 9.91573 13.4882 10.0161 13.5129 10.1119C13.5996 9.97212 13.7184 9.85502 13.8594 9.77027C14.0962 9.62724 14.289 9.52523 14.4039 9.40416C14.5195 9.27474 14.6159 9.06273 14.8664 8.90027C14.7646 8.88648 14.6214 8.83965 14.5941 8.84582C14.6961 8.7302 15.0016 8.55395 15.31 8.34194C15.6157 8.12412 15.5964 8.03627 16.0922 7.81882C15.9297 7.84641 15.8526 7.80502 15.7175 7.81882C15.772 7.70319 15.9626 7.64801 16.1531 7.45815C16.3437 7.26829 16.0321 6.9873 16.0321 6.9873L14.58 7.86565L13.8779 8.69172L13.879 8.69099Z" fill="#C49937"/>
<path id="Vector_45" fill-rule="evenodd" clip-rule="evenodd" d="M9.93848 8.03587L9.97151 7.77159L10.3874 7.10526L10.8224 5.93504V4.33518L10.7894 3.41001L10.8582 2.80412L10.9105 2.61153L10.9657 2.53711L11.3207 2.72153L11.811 3.38786L11.8578 4.67388L11.3813 6.7032L10.0211 8.18744L9.93848 8.03587Z" fill="#DFC068"/>
<path id="Vector_46" fill-rule="evenodd" clip-rule="evenodd" d="M11.0209 2.46288C11.0209 2.46288 10.8031 2.46851 10.7566 3.37444C10.7101 4.28037 10.6876 4.75666 10.6546 5.20555C10.6215 5.65443 10.5446 5.92688 10.5059 6.19134C10.4673 6.45581 10.4453 6.8163 10.3215 7.03665C10.2671 7.13848 10.1507 7.45794 9.87807 7.69754C9.5724 7.96183 9.11572 8.14643 9.04657 8.16022C8.92532 8.18763 8.31126 8.24825 8.06078 8.38602C7.97274 8.43285 7.82118 8.48785 7.65328 8.64486C7.32003 8.9449 6.87677 9.48182 6.55731 10.1289C6.06723 11.0955 5.57715 13.8242 5.57715 13.8242L5.68733 13.6397C5.68733 13.6397 5.70112 13.3947 5.94616 12.9651C6.18576 12.5356 6.11696 12.0537 6.45004 11.2303C6.57946 10.9165 6.74191 10.509 6.94012 10.1619C7.25414 9.59744 7.63404 9.1128 8.01685 8.84852C8.64179 8.41906 9.33027 8.3254 9.33027 8.3254L10.071 7.83531C10.071 7.83531 10.2004 7.58482 10.3712 7.29839C10.6107 6.89652 10.9158 6.44764 10.9824 5.7951C11.0844 4.82854 10.8392 4.19524 10.853 3.62257C10.8668 3.04989 10.8722 2.6286 10.988 2.52659C11.1038 2.42458 11.0211 2.46324 11.0211 2.46324L11.0209 2.46288Z" fill="#A88F33"/>
<path id="Vector_47" fill-rule="evenodd" clip-rule="evenodd" d="M11.0207 6.78624C11.0207 6.78624 11.3474 5.98214 11.497 5.26897C11.5246 5.12576 11.5796 4.98272 11.5934 4.8671C11.6622 4.19241 11.6814 3.91434 11.5934 3.54532C11.5246 3.27305 11.2603 3.02764 11.1225 2.83742C10.9877 2.63902 10.9243 2.56515 10.9519 2.5234C10.9795 2.48165 11.0868 2.4134 11.1913 2.42157C11.3025 2.4248 11.4118 2.45061 11.5126 2.49742C11.6135 2.54422 11.7038 2.61105 11.778 2.69384C11.99 2.93888 12.1579 3.77058 12.1579 3.77058L12.3345 4.86801L12.7834 6.25023L11.0211 6.78733L11.0207 6.78624Z" fill="#C99E3D"/>
<path id="Vector_48" fill-rule="evenodd" clip-rule="evenodd" d="M14.0911 5.94848C14.0911 5.94848 14.0305 5.97589 13.9205 5.94848C13.9252 5.99343 13.9174 6.0388 13.8979 6.0796C13.8785 6.1204 13.8482 6.15505 13.8103 6.17972C13.6947 6.13289 12.6123 6.22656 12.6123 6.22656C12.6123 6.22656 12.1084 6.13834 11.9514 5.472C11.8414 5.02857 12.034 4.41741 11.9707 4.01536C11.8743 3.42326 11.7394 3.30746 11.7256 3.12322C11.7118 2.93899 11.698 2.89198 11.698 2.77635C11.6374 2.76256 11.6017 2.74332 11.5412 2.74332C11.5274 2.68886 11.5548 2.64131 11.4944 2.54492C11.5274 2.55872 11.7532 2.58631 12.0175 2.8368C12.2353 3.04063 12.2353 3.11487 12.2682 3.15626C12.3094 3.19746 12.6426 3.48298 12.7859 3.7676C12.9291 4.05221 13.2071 4.95977 13.2705 5.10843C13.2897 5.16906 13.3311 5.22968 13.4339 5.36727C13.5936 5.56567 13.8276 5.89366 14.0918 5.94811L14.0911 5.94848Z" fill="#B58634"/>
<path id="Vector_49" fill-rule="evenodd" clip-rule="evenodd" d="M12.3064 3.1709C12.4732 3.44036 12.6231 3.71994 12.7551 4.00804C12.9176 4.37415 13.0139 4.67437 13.2178 4.91942C13.1076 4.60013 12.9121 3.97228 12.7965 3.7492C12.6671 3.51323 12.4028 3.25911 12.3064 3.17108V3.1709Z" fill="#A88F33"/>
<path id="Vector_50" fill-rule="evenodd" clip-rule="evenodd" d="M10.4337 7.69745C10.4337 7.69745 10.1557 7.76624 9.638 8.03887C9.4672 8.12691 9.30493 8.20115 9.14793 8.27012C8.74007 8.45454 8.30264 8.62498 7.95559 8.719C7.98318 8.75204 7.99679 8.76565 7.99679 8.76565C7.99679 8.76565 7.99679 8.9007 8.07121 8.97766C8.03001 9.01904 7.47913 9.39351 7.64176 10.6463C7.75176 10.6051 7.88117 10.5499 7.90041 10.5499C7.93363 10.5556 7.9418 10.6463 7.983 10.6463C8.0242 10.6463 8.15925 10.5919 8.30246 10.4067C8.29701 10.4811 8.21442 11.2301 8.65767 11.7339C8.74026 11.6376 8.94954 11.3181 8.94954 11.3181L8.95498 11.2163C8.95498 11.2163 8.97422 10.861 9.09003 10.5361C9.20583 10.2112 9.43144 9.97163 9.43144 9.97163L10.6096 8.28918L10.4334 7.69727L10.4337 7.69745Z" fill="#E6C367"/>
<path id="Vector_51" fill-rule="evenodd" clip-rule="evenodd" d="M9.33262 10.1682C9.27868 10.2063 9.21925 10.236 9.15637 10.2562C9.13713 10.1874 9.10954 9.95055 9.272 9.7193C9.46204 9.44103 9.87771 9.08036 9.99333 8.79357C10.0678 8.60897 10.0347 8.14647 10.6956 7.55436C11.3565 6.96226 11.6152 6.7586 11.6152 6.7586L12.6835 6.22168L13.997 6.73936L13.3444 9.29691L12.8378 10.4949L10.823 10.115L9.33244 10.1682H9.33262Z" fill="#DCBA5A"/>
<path id="Vector_52" fill-rule="evenodd" clip-rule="evenodd" d="M10.1021 9.47321L10.3527 9.15937V8.93629C10.3527 8.93629 10.6308 8.86187 10.9308 8.55619C11.2309 8.25052 11.6467 7.66405 12.013 7.69981C12.3793 7.74119 12.4151 8.49557 12.4289 8.70776C12.4427 8.91995 12.4895 9.40151 12.5638 9.66053C12.6463 9.91937 11.6716 10.8996 11.6716 10.8996L11.0096 11.4034L10.1021 9.47321Z" fill="#E9CE77"/>
<path id="Vector_53" fill-rule="evenodd" clip-rule="evenodd" d="M10.8774 12.0861C10.8774 12.0861 11.0813 11.7666 10.9319 11.6979C11.0199 11.4996 11.1824 11.2904 11.1824 11.2904C11.1824 11.2904 11.298 11.0041 11.6724 10.6516C12.0469 10.2991 12.2783 10.065 12.3389 9.82827C12.3763 9.67401 12.3967 9.51612 12.3996 9.35742C12.4401 9.39049 12.4834 9.41995 12.529 9.44546C12.5896 9.47305 12.8758 9.70974 12.8346 10.1862C12.7934 10.6627 12.6168 10.8609 12.6168 10.8609C12.6168 10.8609 12.4462 11.0315 12.3252 11.1197C12.1956 11.2078 12.1489 11.3096 11.9313 11.3179C11.9536 11.3002 11.9788 11.2862 12.0057 11.2766C12.0057 11.2766 11.7799 11.2492 11.6587 11.3592C11.5374 11.4691 11.2797 11.808 11.1502 11.91C11.0208 11.9926 10.878 12.0863 10.878 12.0863L10.8774 12.0861Z" fill="#CDAE50"/>
<path id="Vector_54" fill-rule="evenodd" clip-rule="evenodd" d="M20.0331 6.73099C19.7078 6.61242 19.3659 6.54554 19.0199 6.53277C18.4416 6.51353 17.5963 6.54657 16.7675 6.55201C15.8754 6.55746 15.0658 6.24634 13.9425 6.19134C13.758 6.08116 13.289 5.59924 11.825 6.62081C11.913 6.61536 12.8879 6.395 13.2264 6.8192C13.5678 7.2405 13.4714 7.95639 13.4248 8.12702C13.3366 8.50711 13.0502 9.06055 12.9347 9.44881C12.8193 9.83707 12.8465 10.0411 12.7639 10.3134C12.6813 10.5856 12.4996 10.7209 12.6069 11.0347C12.7501 10.9467 12.8247 10.9467 13.0639 10.4097C13.3032 9.87283 13.254 9.49001 13.6506 9.03568C14.0388 8.57862 14.6852 7.95349 14.931 7.79648C15.1767 7.63947 17.1282 6.62625 19.1714 7.59282C19.6642 7.54054 20.0333 6.7308 20.0333 6.7308L20.0331 6.73099Z" fill="#D2A83E"/>
<path id="Vector_55" fill-rule="evenodd" clip-rule="evenodd" d="M12.648 6.35586C12.6459 6.33517 12.6414 6.31481 12.6344 6.29524C12.6152 6.25497 12.5902 6.21782 12.5599 6.18506C12.5599 6.18506 12.0753 6.09702 11.8303 6.12443C11.4006 6.17126 11.0124 6.70274 10.8307 6.97537C10.649 7.24801 10.4232 7.66913 10.1781 7.88676C10.1808 7.86556 10.1759 7.84409 10.1643 7.82614C10.1643 7.82614 10.1781 7.84538 10.1507 7.87297C10.1233 7.90056 10.1231 7.91417 10.1369 7.92742L10.1783 7.96863C10.1919 7.96863 10.572 7.79782 11.0897 7.31517C11.6404 6.81128 12.0617 6.55281 12.282 6.46423C12.3996 6.41429 12.5224 6.37793 12.6482 6.35586H12.648Z" fill="#C29637"/>
<path id="Vector_56" fill-rule="evenodd" clip-rule="evenodd" d="M22.0487 4.28613C22.0487 4.28613 21.9604 4.39613 21.8503 4.51738C21.6052 4.77622 21.2858 5.06791 21.0131 5.36814C20.7545 5.65457 20.4626 5.87765 20.1348 6.25211C19.807 6.62658 19.4269 7.04225 19.3307 7.1635C19.2426 7.28475 19.1739 7.48296 19.1739 7.58479C19.127 7.55176 19.072 7.516 19.072 7.516C19.0952 7.55923 19.1229 7.59987 19.1546 7.63725C19.2234 7.73363 19.3307 7.85507 19.3859 7.92912C19.4536 8.0234 19.5021 8.13002 19.5289 8.24296C19.5619 8.24841 19.7739 8.28979 20.0384 7.8547C20.3029 7.41961 20.6496 6.94332 20.6496 6.94332L21.2003 6.12542L21.5473 5.43167L21.983 4.65515L22.0492 4.28613H22.0487Z" fill="#AC8132"/>
<path id="Vector_57" fill-rule="evenodd" clip-rule="evenodd" d="M22.6132 3.72949C22.6132 3.72949 22.2799 4.00177 22.1505 4.16513C22.0211 4.3285 21.7148 4.75724 21.7148 4.75724L21.825 4.74345L22.3841 4.24791L22.6019 3.85964L22.613 3.73022L22.6132 3.72949Z" fill="#A88F33"/>
<path id="Vector_58" fill-rule="evenodd" clip-rule="evenodd" d="M22.511 25.6119C22.511 25.6119 22.5055 25.3861 22.6322 25.2513C22.7616 25.1162 23.0893 24.918 23.4087 24.1745C23.7282 23.431 23.7638 23.2631 23.7638 23.2631C23.7638 23.2631 23.1911 23.7532 22.8381 23.8689C22.9207 23.698 22.9675 23.577 23.0089 23.4888C22.962 23.4476 22.7638 23.4007 22.7446 23.3788C22.8546 23.2686 22.9152 22.9987 23.1383 22.8197C23.4247 22.6019 23.9478 22.2276 24.3544 21.894C24.761 21.5604 25.5604 20.7844 25.6624 20.5586C25.723 20.6466 25.7367 20.7016 25.7367 20.7016C25.7367 20.7016 25.3348 21.2249 25.1255 21.558C24.9409 21.8444 24.9547 22.0069 24.9547 22.0069L25.3348 21.8435C25.3348 21.8435 25.4448 22.251 24.9465 22.8707C25.1643 22.7881 25.2522 22.8377 25.376 22.7687C25.1721 22.8983 24.8913 23.0746 24.6271 23.559C24.3682 24.0437 24.0157 24.6082 23.4211 24.9605C22.8428 25.3322 22.5095 25.6103 22.5095 25.6103L22.511 25.6119Z" fill="#A67A2E"/>
<path id="Vector_59" fill-rule="evenodd" clip-rule="evenodd" d="M21.0185 7.01763C21.0185 7.01763 20.7927 7.48829 20.7597 7.85458C20.7543 7.94279 20.7321 8.01159 20.7321 8.11342C20.7267 8.44104 20.7513 8.80733 20.6777 8.97795C20.6501 8.90916 20.6363 8.86233 20.6087 8.83492C20.5675 8.95055 20.4931 9.31121 20.4324 9.44607C20.405 9.35804 20.3444 9.05237 20.35 8.69171C20.3557 8.33105 20.3636 8.26207 20.3636 8.18783C20.35 8.29783 20.2756 8.44667 20.248 8.5347C20.2068 8.46047 20.16 8.36408 20.1048 8.28422C20.0718 8.33867 20.0306 8.41908 19.9948 8.46047C19.9892 8.42743 19.9756 8.33922 19.9672 8.21543C19.9618 8.07221 19.9534 7.8878 19.9618 7.84913C19.9754 7.7749 20.0912 7.48303 20.3362 7.21584C20.6281 6.89638 20.9283 6.28251 21.0163 6.09247C21.1044 5.90242 21.4788 5.1123 21.4788 5.1123H21.7652L21.3494 6.05943C21.3494 6.05943 21.0989 6.5771 20.9695 6.76733C20.8401 6.95755 20.5675 7.50263 20.4462 7.71463C20.5343 7.59901 20.6087 7.53839 20.6969 7.42821C20.7822 7.35107 21.0189 7.01799 21.0189 7.01799L21.0185 7.01763Z" fill="#8C6228"/>
<path id="Vector_60" fill-rule="evenodd" clip-rule="evenodd" d="M22.6189 3.69336C22.5721 3.83736 22.4982 3.97106 22.4011 4.08724C22.2303 4.29108 21.864 4.56353 21.6852 4.78099C21.5219 4.99299 21.1952 5.5713 21.3436 6.25687C21.3981 6.10821 21.5006 5.81362 21.7733 5.48036C22.0459 5.1471 22.3377 4.76447 22.4811 4.46715C22.6242 4.16693 22.6434 3.93023 22.6434 3.93023L22.6978 3.86144L22.6648 3.70443L22.618 3.69336H22.6189Z" fill="#CBA94C"/>
<path id="Vector_61" fill-rule="evenodd" clip-rule="evenodd" d="M28.195 21.9577C28.195 21.9577 28.0848 21.6577 28.0517 21.385C28.0187 21.1124 28.1062 21.0583 28.0049 20.7463C27.9443 20.5562 27.8343 20.5829 27.8067 20.5562C27.7791 20.5296 27.7599 20.2424 27.7653 20.0854C27.7708 19.9284 27.7599 19.7247 27.7323 19.6365C27.6911 19.6035 27.6635 19.5759 27.6029 19.3722C27.5341 19.1684 27.501 19.0666 27.468 19.0061C27.435 18.9457 27.3384 18.8905 27.3384 18.8299C27.3384 18.7086 27.4486 18.6454 27.4486 18.612C27.4431 18.5433 27.3605 18.5984 27.3384 18.579C27.311 18.546 27.4074 18.3478 27.3716 18.3202C27.3578 18.3066 27.2614 18.4222 27.2366 18.3891C27.209 18.3559 27.1759 18.0283 27.1264 17.8108C27.0797 17.5988 27.03 17.4447 27.0246 17.3814C27.0191 17.3208 26.6445 16.2524 26.5537 15.9935C26.4806 15.7748 26.419 15.5524 26.3693 15.3272C26.3417 15.1978 26.3225 14.9333 26.3087 14.9609C26.2949 14.9885 26.3032 15.1234 26.2811 15.1179C26.2618 15.1123 26.193 14.6416 26.1711 14.5672C26.1518 14.4928 26.036 14.2405 26.0077 14.0579C25.9801 13.8733 25.9197 13.3914 25.8783 13.0637C25.8369 12.7361 25.8177 12.6012 25.8177 12.5192C25.8244 12.3185 25.8134 12.1176 25.7846 11.9189C25.7302 11.5719 25.6213 11.1506 25.5258 10.9057C25.3414 10.443 24.8511 9.25903 24.7634 8.96443C24.7634 8.89001 24.8598 8.9314 24.8598 8.9314C24.8598 8.9314 25.0992 9.53166 25.2755 9.99416C25.4463 10.4568 25.6087 10.8643 25.6501 10.9057C25.6832 10.9469 25.942 11.4012 26.0576 12.1447C26.1733 12.8882 26.2145 13.5738 26.2834 14.0308C26.3165 14.2486 26.3441 14.4797 26.4128 14.711C26.4871 14.9616 26.6027 15.2205 26.7543 15.6169C26.8837 15.9502 26.9801 16.2282 27.0324 16.4678C27.093 16.7735 27.093 17.0047 27.1287 17.1563C27.162 17.2857 27.2113 17.5444 27.3271 17.9187C27.4429 18.2929 27.6134 18.775 27.729 19.0751C27.955 19.6754 28.0557 20.1765 28.0899 20.4437C28.12 20.7191 28.222 21.6718 28.1944 21.9581L28.195 21.9577Z" fill="#A88F33"/>
<path id="Vector_62" fill-rule="evenodd" clip-rule="evenodd" d="M22.6326 3.66004L22.6188 3.69308C22.6188 3.69308 22.66 3.70687 22.6518 3.76205C22.6524 3.83755 22.6478 3.91299 22.638 3.98785C22.6244 4.08424 22.5968 4.15848 22.5914 4.2191C22.5914 4.34852 22.6106 4.49718 22.428 4.8662C22.3736 4.96803 22.34 5.05607 22.3124 5.11669C22.2436 5.26535 22.2298 5.2875 22.1692 5.35629C22.2656 5.30184 22.6126 5.08402 22.7887 5.11669C22.6676 5.18549 22.483 5.32053 22.3674 5.49678C22.395 5.50223 22.5106 5.52437 22.6941 5.49678C22.9998 5.44995 23.3412 5.33977 23.6412 5.36174C23.969 5.38098 23.8396 4.96803 23.8396 4.96803L23.4613 4.13651L22.7455 3.63281L22.6326 3.66022V3.66004Z" fill="#BE9C44"/>
<path id="Vector_63" fill-rule="evenodd" clip-rule="evenodd" d="M24.4996 9.88883C24.4996 9.88883 24.1802 9.56937 24.0508 8.47302C23.9213 7.3716 23.9489 5.75032 23.9489 5.75032L23.6901 5.11702C23.6901 5.11702 23.6356 4.69573 23.5 4.5389C23.3645 4.38208 23.0982 4.11761 22.9769 3.98819C22.8557 3.85877 22.7181 3.68252 22.6355 3.65493C22.6767 3.58614 22.8613 3.19788 23.5688 3.19244C24.2764 3.18699 24.4946 3.5807 24.5684 3.72391C24.6423 3.86712 24.9759 4.48627 25.0997 5.6661C25.2153 6.84449 25.221 6.9327 25.2017 7.3402C25.1879 7.566 25.1135 8.08912 24.9839 8.648C24.8656 9.12175 24.7362 9.6505 24.4993 9.88992L24.4996 9.88883Z" fill="#A17C34"/>
<path id="Vector_64" fill-rule="evenodd" clip-rule="evenodd" d="M23.4974 10.8277C23.6039 10.8354 23.7102 10.8114 23.8031 10.7587C23.9049 10.7533 24.274 10.8001 24.5575 10.4395C24.5767 10.5219 24.6265 10.7451 24.4969 10.9433C24.5658 10.8744 24.6677 10.8469 24.6815 10.8277C24.6869 10.9295 24.7833 11.2434 24.3758 12.0061C24.4858 11.885 24.6152 11.8905 24.7308 11.8767C24.7365 12.0199 24.8134 12.5016 24.6098 12.7606C24.4749 12.9369 24.2545 12.8817 24.2545 12.8817C24.2578 12.8432 24.2578 12.8045 24.2545 12.7661C24.2491 12.6917 24.2215 12.6174 24.2409 12.5679C24.1344 12.5192 24.0374 12.452 23.9545 12.3695C23.7149 12.1437 23.4037 11.7583 23.3818 11.4719C23.3542 11.1524 23.6406 11.0836 23.6406 11.0836C23.6166 11.0622 23.5962 11.0371 23.58 11.0092C23.5662 10.9626 23.5524 10.8882 23.4974 10.8277Z" fill="#8C6228"/>
<path id="Vector_65" fill-rule="evenodd" clip-rule="evenodd" d="M21.3742 7.36448C21.3742 7.36448 21.3604 7.34524 21.2861 7.43327C21.2999 7.34524 21.3137 7.26247 21.3192 7.1826C21.3543 7.10866 21.3998 7.04009 21.4542 6.97894C21.4128 7.06135 21.3852 7.13577 21.3852 7.13577C21.3852 7.13577 21.4872 6.94573 21.6359 6.8301C21.7377 6.74751 21.8671 6.70903 21.9221 6.63189C21.9828 6.5493 21.969 6.53551 21.9828 6.52171C21.9828 6.52171 22.1178 6.43368 22.3244 6.17466C22.3518 6.14162 22.3932 6.10586 22.4207 6.07283C22.4674 6.05359 22.5776 6.00404 22.707 5.93778C22.842 5.86354 22.9934 5.76172 23.0871 5.71997C23.2715 5.63738 23.4671 5.64573 23.5579 5.51613C23.6267 5.49689 23.7009 5.29033 23.6873 5.11426C23.7891 5.15546 24.3122 5.48037 24.4914 6.19081C24.6208 6.69469 24.3894 7.47121 24.293 7.84585C24.1966 8.22049 24.183 8.49839 24.048 8.66901C23.8772 8.895 23.3267 9.21355 23.1916 9.37129C23.076 9.50071 22.7291 9.82834 22.7427 10.065C22.7565 10.2413 22.974 10.3373 23.021 10.3707C23.068 10.4041 23.0676 10.4451 23.1559 10.4252C23.2441 10.4052 23.2769 10.3645 23.3129 10.3645C23.3541 10.37 23.3541 10.3783 23.3733 10.3783C23.3873 10.3779 23.4011 10.376 23.4147 10.3727C23.4147 10.3727 23.4009 10.6234 22.8144 10.6994C22.773 10.705 22.7318 10.7187 22.6794 10.727C22.7484 10.694 22.7896 10.694 22.864 10.5921C22.7814 10.5784 22.5445 10.5646 22.4839 10.5453C22.5031 10.5123 22.5665 10.4241 22.6188 10.3829C22.6656 10.3417 22.6133 10.3284 22.5721 10.3498C22.5012 10.3981 22.4331 10.4505 22.3683 10.5067C22.2995 10.5673 22.2389 10.6499 22.1287 10.7245C22.0957 10.6143 22.1011 10.405 22.2307 10.2536C22.1975 10.2591 22.1341 10.3555 22.0737 10.3362C22.0628 10.2358 22.0693 10.1342 22.0929 10.036C22.126 9.91202 22.3049 9.69456 22.3049 9.69456L23.1695 8.1497L23.3539 6.97949L21.3742 7.36411V7.36448Z" fill="#92723A"/>
<path id="Vector_66" fill-rule="evenodd" clip-rule="evenodd" d="M21.3272 7.43024C21.3272 7.43024 21.2804 7.46328 21.374 7.52663C21.3602 7.54587 21.3272 7.61466 21.2858 7.66149C21.2391 7.71594 21.1894 7.74971 21.1702 7.79654C21.129 7.89292 21.0959 7.95899 21.0959 8.00038C21.0959 8.04176 21.0821 8.30604 20.9665 8.47667C20.9251 8.53729 20.8783 8.63912 20.8452 8.70791C20.7764 8.82898 20.7158 8.92573 20.702 8.98018C20.6746 9.07657 20.6554 9.34085 20.6554 9.34085C20.6554 9.34085 20.716 9.26643 20.738 9.23902C20.7047 9.30782 20.669 9.38205 20.6167 9.43723C20.6497 9.40964 20.7461 9.34085 20.9086 9.19764C21.1344 9.00777 21.4869 8.68831 21.9166 8.43528C21.787 8.48211 21.677 8.48211 21.5889 8.49591C21.6577 8.42711 22.2773 7.70015 22.6022 7.63136C22.6219 7.60634 22.6318 7.57494 22.6298 7.54314L22.3515 7.51573L21.787 7.6368L21.7046 7.20117L21.3272 7.4297V7.43024Z" fill="#B18E3E"/>
<path id="Vector_67" fill-rule="evenodd" clip-rule="evenodd" d="M22.2252 9.90789C22.2252 9.90789 22.1508 9.98213 22.082 10.1667C22.0291 10.1114 21.9836 10.0494 21.947 9.98213C21.8451 9.81151 21.6883 9.59387 21.322 9.71785C21.3166 9.60222 21.3082 9.5416 21.322 9.45901C21.3827 9.4454 21.5671 9.29674 21.7515 9.0791C21.8811 8.93044 22.0022 8.75964 22.0847 8.54219C22.1392 8.5008 22.2334 8.43201 22.357 8.35214C22.5333 8.23107 22.7453 8.06571 22.7783 7.8813C22.6957 7.91433 22.5195 7.99692 22.255 7.98331C22.357 7.93648 22.5138 7.88692 22.4946 7.68308C22.536 7.65549 22.569 7.63625 22.569 7.63625C22.538 7.6259 22.5053 7.62123 22.4726 7.62246C22.467 7.60322 22.4588 7.57581 22.412 7.58942C22.3652 7.60304 22.3576 7.60322 22.3514 7.62246C22.3321 7.62808 22.2688 7.62246 22.222 7.65567C22.1751 7.68889 22.0457 7.79871 21.9962 7.81795C22.0154 7.78491 22.0428 7.73554 22.0428 7.73554C22.0428 7.73554 21.9079 7.74915 21.8116 7.78999C21.6353 7.85062 21.4317 7.9608 21.2251 8.06807C21.2443 8.03504 21.2527 8.01362 21.2663 8.00745C21.2799 8.00128 21.3131 7.99383 21.3131 7.98821C21.3131 7.98258 21.2995 7.93375 21.3077 7.91397C21.3694 7.78314 21.4423 7.65786 21.5255 7.53951C21.6219 7.40991 21.6411 7.22549 21.6411 7.22549L22.0624 7.01348L23.2464 6.74121L24.0148 6.78804L23.9184 7.31951L23.4646 8.24741L23.0764 9.09272L22.6329 9.61057L22.2254 9.90789H22.2252Z" fill="#543E26"/>
<path id="Vector_68" fill-rule="evenodd" clip-rule="evenodd" d="M24.1444 7.60795C24.1444 7.60795 23.6817 8.18063 23.5523 8.26884C23.6349 8.09259 24.1444 7.04344 24.3288 6.75157C24.2876 6.71854 24.2324 6.71854 24.3619 6.20703C24.2519 6.46569 24.2132 6.60073 24.1224 6.66953C24.0317 6.73832 24.0204 6.71636 23.9591 6.71636C23.9707 6.6954 23.9754 6.67135 23.9727 6.64756C23.9727 6.64756 23.5844 6.60073 23.3192 6.60073C23.054 6.60073 22.5291 6.74395 22.237 6.85957C22.0058 6.95595 21.8763 6.95595 21.7937 7.0164C21.7112 7.08519 21.6643 7.15961 21.6229 7.17885C21.5899 7.19809 21.4331 7.24765 21.3971 7.29992C21.3641 7.35438 21.3091 7.41555 21.3091 7.42934C21.3091 7.44314 21.2953 7.46256 21.3367 7.44858C21.3503 7.44314 21.4523 7.38796 21.5679 7.31916C21.7248 7.23113 21.9148 7.1293 22.0526 7.06867C22.4463 6.91167 22.5703 6.93926 22.7464 6.90622C22.9308 6.87318 23.1953 6.79604 23.3713 6.79604C23.5476 6.7906 23.8808 6.79604 23.958 6.80984C23.925 6.83743 23.8974 6.87046 23.9112 6.98609C23.9112 7.01912 23.8836 7.05488 23.8567 7.13475C23.7743 7.36055 23.6173 7.73501 23.53 7.92505C23.4089 8.18371 23.2713 8.40135 23.2032 8.53621C23.1352 8.67107 22.9854 9.0263 22.8371 9.21634C22.6888 9.40638 22.6113 9.52201 22.5648 9.56339C22.5184 9.60478 22.1847 9.84964 22.2096 9.93785C22.2702 9.91861 22.6531 9.77449 22.931 9.46156C23.2089 9.14864 23.2642 8.95768 23.4817 8.78688C23.6991 8.61608 23.87 8.32983 23.9718 8.09314C24.0571 7.87278 24.0379 7.80398 24.1451 7.6085L24.1444 7.60795Z" fill="#806031"/>
<path id="Vector_69" fill-rule="evenodd" clip-rule="evenodd" d="M14.1734 11.8827C14.1734 11.8827 14.1127 12.1332 13.975 12.2572C13.8401 12.3785 13.6005 12.483 13.5731 12.6868C13.5401 12.8905 13.8127 12.9925 13.8127 12.9925C13.8127 12.9925 13.6638 13.2376 13.6638 13.422C13.6638 13.612 13.6584 13.6478 13.6776 13.8295C13.6558 13.8435 13.6372 13.8621 13.6232 13.8839C13.6232 13.8839 13.6368 14.0602 13.7719 14.1702C13.9069 14.2802 14.0223 14.3464 14.0911 14.3188C14.1016 14.3413 14.1109 14.3643 14.1187 14.3878C14.1187 14.3878 14.2207 14.129 14.2895 13.9032C14.3583 13.6719 14.419 13.7048 14.4464 13.3937C14.4738 13.0825 14.7731 12.5484 14.7731 12.5484L14.9773 12.0918L14.6442 11.833L14.1734 11.8826V11.8827Z" fill="#B6903C"/>
<path id="Vector_70" fill-rule="evenodd" clip-rule="evenodd" d="M14.7931 12.3311C14.7244 12.4016 14.661 12.477 14.6034 12.5569C14.5154 12.6781 14.4466 12.7881 14.3172 12.8351C14.1878 12.8821 14.1052 12.8818 14.1133 13.0114C14.1215 13.141 14.2428 13.1958 14.3116 13.2619C14.386 13.3306 14.4466 13.4463 14.4136 13.5759C14.4548 13.5566 14.5292 13.5345 14.598 13.3858C14.6668 13.2372 15.148 12.3312 15.148 12.3312H14.7931V12.3311Z" fill="#685026"/>
<path id="Vector_71" fill-rule="evenodd" clip-rule="evenodd" d="M16.6907 10.2417C16.6907 10.2417 16.7319 10.1317 16.6907 10.0518C16.6493 9.96922 16.3988 9.94163 16.2748 9.84797C16.1454 9.75159 15.9884 9.68461 15.859 9.7269C15.8782 9.68007 15.9554 9.57806 15.892 9.5561C15.8314 9.53686 15.6058 9.63869 15.5451 9.68552C15.4845 9.73235 15.3468 9.78735 15.3193 9.82056C15.2919 9.85378 15.2449 9.91695 15.2173 9.88936C15.1897 9.87012 15.1761 9.82056 15.1293 9.84797C15.0825 9.87538 14.857 10.06 14.8155 10.1674C14.7739 10.2749 14.6804 10.5145 14.3996 10.7869C14.1188 11.0594 13.9976 11.2358 14.0802 11.3376C14.1628 11.4395 14.2014 11.3652 14.2152 11.4533C14.2258 11.5397 14.2212 11.6273 14.2014 11.7121C14.1684 11.8553 14.1134 11.9902 14.1876 12.0178C14.3777 12.0784 14.5623 11.9633 14.6035 11.9985C14.6861 12.0728 14.5566 12.34 14.7521 12.3922C14.9505 12.4467 15.146 12.3454 15.146 12.3454L15.8673 11.9571L16.5613 11.591L16.9163 10.8888L16.7259 10.3023L16.6896 10.2417H16.6907Z" fill="#D4B968"/>
<path id="Vector_72" fill-rule="evenodd" clip-rule="evenodd" d="M16.0099 11.9183C16.0099 11.9183 15.8887 11.7339 16.0375 11.5713C16.1864 11.4086 16.3982 11.34 16.4808 11.2382C16.465 11.2188 16.444 11.2045 16.4201 11.197C16.475 11.0989 16.5586 11.02 16.6597 10.971C16.6185 10.9298 16.5634 10.8968 16.5029 10.8968C16.3679 10.8968 16.2851 10.9794 16.1613 10.9794C16.0402 10.9794 16.0265 10.9187 16.0265 10.9187C16.0265 10.9187 16.2303 10.8995 16.2109 10.8086C16.1916 10.7122 16.1564 10.7122 16.1564 10.7122C16.1564 10.7122 16.5501 10.5488 16.6189 10.4617C16.6877 10.3746 16.6795 10.2716 16.6933 10.2304C16.74 10.2304 17.0126 10.0872 17.1228 10.1479C17.2329 10.2085 17.1558 10.3737 17.1558 10.3737C17.1558 10.3737 17.4892 10.123 17.6591 9.87722C17.8078 9.89101 17.8769 9.77539 17.9858 9.77539C18.1209 9.77539 18.3329 9.95981 18.3741 10.3535C18.4017 10.5793 18.4429 10.7087 18.4017 11.1081C18.3824 11.3339 18.3879 11.8159 18.4561 12.0552C18.5028 12.2452 18.613 12.226 18.613 12.226C18.596 12.2839 18.5625 12.3356 18.5166 12.3746C18.4422 12.4434 18.434 12.6253 18.4422 12.6941C18.4531 12.7444 18.4669 12.794 18.4835 12.8428C18.4835 12.8428 18.3955 12.9446 18.3734 13.0136C18.3541 13.0824 18.2634 13.1292 18.1971 13.1292C18.1309 13.1292 18.1641 13.1236 18.0761 13.1292C17.988 13.1348 17.9604 13.1484 17.9053 13.1292C17.8501 13.1099 17.8089 13.0878 17.831 12.9114C17.8503 12.7351 17.1509 12.3249 17.1509 12.3249L16.0074 11.9174L16.0099 11.9183Z" fill="#CCA849"/>
<path id="Vector_73" fill-rule="evenodd" clip-rule="evenodd" d="M14.6967 13.6584C14.6967 13.6584 14.9472 13.9916 15.9771 13.9916C16.4672 13.9916 16.638 13.9448 16.7395 13.9172C16.8497 13.8896 17.2626 13.7274 17.6784 13.2371C18.0529 12.7938 17.9703 12.6121 17.9703 12.6121L17.7525 12.5791L17.0446 12.6755L14.9499 13.5676L14.6958 13.6584H14.6967Z" fill="#585136"/>
<path id="Vector_74" fill-rule="evenodd" clip-rule="evenodd" d="M15.4644 13.7415C15.4644 13.7415 14.5723 13.9398 14.5723 13.3754C14.5723 12.8247 15.123 12.2464 15.2607 12.1446C15.404 12.0426 15.7454 11.9268 15.7454 11.9268H16.5687L16.7256 12.3426L16.6568 13.2401L15.4644 13.7413V13.7415Z" fill="#252211"/>
<path id="Vector_75" fill-rule="evenodd" clip-rule="evenodd" d="M16.2881 12.0951C16.2881 12.0951 16.1175 11.9381 15.7292 12.1496C15.3409 12.3611 15.0269 12.803 15.0077 13.2044C14.9884 13.5594 15.2996 13.8239 15.7842 13.8377C16.1449 13.8513 16.3625 13.8101 16.4727 13.7832C16.4451 13.7502 16.3019 13.5712 16.3019 13.5712L16.2883 12.0953L16.2881 12.0951Z" fill="#C3B378"/>
<path id="Vector_76" fill-rule="evenodd" clip-rule="evenodd" d="M16.1206 12.1821C16.1206 12.1821 16.0794 12.1491 15.9572 12.2151C15.8554 12.2696 15.7067 12.4135 15.5911 12.5153C15.5167 12.576 15.4699 12.6034 15.4277 12.6502C15.2569 12.854 15.1137 13.1873 15.1965 13.3524C15.2793 13.5176 15.5517 13.7076 16.2456 13.5782L16.1186 12.1823L16.1206 12.1821Z" fill="#E6D89C"/>
<path id="Vector_77" fill-rule="evenodd" clip-rule="evenodd" d="M15.8946 12.5241C15.8946 12.5241 15.7844 12.695 15.7844 12.9676C15.7844 13.2457 15.9414 13.6889 16.5197 13.722C16.9629 13.7496 17.2602 13.0832 17.5824 12.8244C17.8274 12.6262 17.9761 12.6205 17.9761 12.6205C17.9761 12.6205 17.7256 12.3483 17.0566 11.9956C16.3957 11.6403 15.655 11.5935 15.2529 12.1388C15.443 12.125 16.057 11.968 16.057 11.968L16.3572 12.0644L15.8946 12.5243V12.5241Z" fill="#252211"/>
<path id="Vector_78" fill-rule="evenodd" clip-rule="evenodd" d="M16.7594 12.8846C16.7401 12.8434 16.7263 12.7883 16.8062 12.7747C16.886 12.761 16.9218 12.769 16.9494 12.8291C16.9769 12.8892 17.0038 12.9393 16.963 12.9641C16.9218 12.9861 16.8143 12.9641 16.7592 12.8843L16.7594 12.8846ZM16.63 12.4964C16.63 12.4964 16.6024 12.5156 16.6162 12.4772C16.6216 12.4305 16.6575 12.3477 16.7456 12.3672C16.8336 12.3866 16.8145 12.4828 16.8 12.5104C16.7855 12.538 16.712 12.5846 16.6568 12.5648C16.6498 12.563 16.6433 12.5596 16.6379 12.5549C16.6325 12.5501 16.6283 12.5441 16.6256 12.5374C16.6229 12.5307 16.6218 12.5235 16.6225 12.5163C16.6231 12.5091 16.6254 12.5022 16.6292 12.496L16.63 12.4964Z" fill="#6F674D"/>
<path id="Vector_79" fill-rule="evenodd" clip-rule="evenodd" d="M9.17651 12.6726C9.17651 12.6726 9.39433 12.836 9.64736 12.8296C9.89785 12.824 10.22 12.5653 10.3687 12.4C10.4567 12.3036 10.5321 12.2018 10.6137 12.1219C10.6827 12.0531 10.7294 12.0201 10.7624 11.9732C10.8092 11.9188 10.8588 11.8164 10.8836 11.7832C10.823 11.83 10.735 11.9128 10.644 11.9678C10.556 12.0223 10.366 12.1246 10.2888 12.1522C10.2146 12.1798 9.44352 12.5879 9.44352 12.5879L9.17651 12.6726Z" fill="#AC924C"/>
<path id="Vector_80" fill-rule="evenodd" clip-rule="evenodd" d="M9.50879 10.6377C9.50879 10.6377 9.62986 10.5551 9.86401 10.5026C10.0898 10.4482 10.5441 10.4062 10.5441 10.4062L10.9186 10.5696L11.0673 11.1341L10.795 11.7208L10.4481 11.9386L10.0542 11.3053L9.5097 10.6388L9.50879 10.6377Z" fill="#9F8E57"/>
<path id="Vector_81" fill-rule="evenodd" clip-rule="evenodd" d="M9.01901 11.1424L8.8894 11.2392C8.8894 11.2392 8.92262 11.1786 8.95003 10.9941C8.97744 10.8097 9.12083 10.3608 9.33012 10.102C9.53941 9.84314 9.53396 9.85694 9.53396 9.85694C9.5147 9.85341 9.49492 9.85404 9.47592 9.85876C9.45692 9.86349 9.43915 9.87221 9.42378 9.88435C9.45137 9.82336 9.62762 9.60554 9.80387 9.49663C9.98012 9.38772 10.0489 9.35341 10.2333 9.44217C10.4178 9.53093 10.4646 9.57704 10.5996 9.57159C10.7347 9.56615 10.8501 9.42293 10.8501 9.42293C10.8501 9.42293 10.8777 9.51097 10.7759 9.71481C10.6741 9.91865 10.272 10.3343 10.272 10.3343L9.43485 10.907L9.01901 11.143V11.1424Z" fill="#EAC970"/>
<path id="Vector_82" fill-rule="evenodd" clip-rule="evenodd" d="M9.63842 10.5697C9.63842 10.5697 10.2443 10.6523 10.4287 10.4816C10.4342 10.5009 10.4563 10.5009 10.4563 10.5147C10.4548 10.5251 10.45 10.5347 10.4425 10.5421C10.4626 10.5389 10.4828 10.5371 10.5032 10.5366C10.5274 10.5438 10.5523 10.5485 10.5776 10.5504C10.5979 10.55 10.6181 10.5481 10.6382 10.5448C10.6363 10.5585 10.6316 10.5716 10.6245 10.5835C10.6174 10.5953 10.608 10.6056 10.5968 10.6138C10.6244 10.6138 10.6513 10.6192 10.6513 10.6412C10.6513 10.6631 10.6567 10.7294 10.6237 10.7432C10.5963 10.7508 10.5672 10.7488 10.5411 10.7376C10.5433 10.7897 10.5574 10.8406 10.5825 10.8864C10.6369 10.9882 10.7531 11.1042 10.9092 11.0708C10.9092 11.0708 10.9916 11.269 10.6447 11.7096C10.5981 11.7702 10.5483 11.8528 10.4879 11.9216C10.464 11.9736 10.4458 12.0281 10.4334 12.084C10.4334 12.084 11.0201 11.8582 11.188 11.3433C11.3588 10.8256 11.3918 10.3163 11.3588 9.83998C11.3532 9.70493 11.3312 9.60873 11.2982 9.53976C11.2156 9.36895 10.9842 9.39654 10.8907 9.49293C10.7556 9.62797 10.5298 9.96377 10.216 10.195C9.89653 10.4263 9.88292 10.4673 9.6377 10.5697H9.63842Z" fill="#D7BC6B"/>
<path id="Vector_83" fill-rule="evenodd" clip-rule="evenodd" d="M8.9116 11.3123C8.9116 11.3123 8.79598 11.3811 8.73535 11.639C8.67472 11.9033 8.7898 12.2255 8.85642 12.3273C8.92304 12.4292 9.07424 12.7074 9.3879 12.7212C9.46554 12.7208 9.54231 12.7049 9.6137 12.6744C9.7232 12.6242 9.82591 12.5603 9.91938 12.4843C10.0544 12.3825 10.1644 12.2945 10.1506 12.2861C10.1176 12.2723 9.3191 11.6114 9.3191 11.6114L9.01888 11.2764L8.91142 11.3127L8.9116 11.3123Z" fill="#585136"/>
<path id="Vector_84" fill-rule="evenodd" clip-rule="evenodd" d="M9.66652 12.4083C9.66652 12.4083 9.82898 12.3947 9.92537 12.3341C10.0218 12.2734 9.36084 11.6182 9.36084 11.6182L9.40767 12.3261L9.66652 12.4083Z" fill="#453A25"/>
<path id="Vector_85" fill-rule="evenodd" clip-rule="evenodd" d="M8.96349 11.2628C8.96349 11.2628 8.8809 11.4198 8.8809 11.4611C8.86711 11.596 8.90849 12.02 8.94153 12.1549C8.97456 12.2981 9.15353 12.5156 9.38496 12.5156C9.52799 12.5156 9.72638 12.4275 9.72638 12.4056C9.72638 12.378 9.52254 12.3511 9.46755 12.2486C9.43451 12.1941 9.42072 12.0587 9.41309 11.9218C9.40765 11.8338 9.40765 11.7374 9.44068 11.704C9.5151 11.6214 9.52871 11.3845 9.52871 11.3845L9.793 10.8936H9.4454L9.02956 11.1524L8.96349 11.2628Z" fill="#84754B"/>
<path id="Vector_86" fill-rule="evenodd" clip-rule="evenodd" d="M8.8623 11.4143C8.8623 11.4143 9.13457 11.0536 9.37997 10.9709C9.62537 10.8881 9.73518 10.9378 9.73518 10.9378L9.59197 11.3041L9.38814 11.5299L9.40193 11.6455C9.40193 11.6455 9.36871 11.9512 9.57255 12.1632C9.77638 12.3752 9.92776 12.367 10.016 12.367C10.1042 12.367 10.3574 12.2926 10.4868 11.987C10.6024 11.7007 10.6988 11.3335 10.4676 10.9654C10.2416 10.5991 9.84245 10.585 9.76531 10.585C9.68817 10.585 9.08247 10.6153 8.8623 11.4137V11.4143Z" fill="#252211"/>
<path id="Vector_87" fill-rule="evenodd" clip-rule="evenodd" d="M15.8529 12.6402C15.7511 12.5933 15.8475 12.3071 15.9493 12.2189C16.0511 12.1307 16.1805 12.029 16.4065 12.015C16.4889 12.0096 16.5688 12.0619 16.5552 12.117C16.536 12.2189 16.3927 12.3621 16.2633 12.4639C16.0843 12.6044 15.9685 12.6924 15.8529 12.6402Z" fill="#F7F7E7"/>
<path id="Vector_88" fill-rule="evenodd" clip-rule="evenodd" d="M10.3462 11.0785C10.4206 11.073 10.517 11.1329 10.5362 11.2135C10.5555 11.3016 10.4894 11.4778 10.3462 11.4778C10.2306 11.4778 10.1699 11.3346 10.1699 11.2934C10.1712 11.2595 10.1807 11.2264 10.1975 11.197C10.203 11.1887 10.2168 11.0923 10.3462 11.0785Z" fill="#F8F6DE"/>
<path id="Vector_89" fill-rule="evenodd" clip-rule="evenodd" d="M9.27203 11.1416C9.27203 11.1416 9.08198 11.2296 8.99395 11.4139C8.93104 11.5499 8.91201 11.7021 8.93949 11.8495C8.95329 11.9183 9.02208 12.0889 9.06891 12.1495C9.11574 12.2101 9.17909 12.2515 9.22592 12.2459C9.27275 12.2403 9.36895 12.1165 9.36895 12.0422C9.36895 11.968 9.37458 11.654 9.46534 11.4832C9.5452 11.3126 9.27257 11.1418 9.27257 11.1418L9.27203 11.1416Z" fill="#D4C38B"/>
<path id="Vector_90" fill-rule="evenodd" clip-rule="evenodd" d="M9.29969 11.128C9.26665 11.1473 9.21166 11.1749 9.22527 11.2106C9.23906 11.2436 9.35469 11.2651 9.39607 11.3456C9.4429 11.4282 9.4429 11.5163 9.42911 11.5576C9.46508 11.5406 9.49771 11.5172 9.52549 11.4887C9.58612 11.4199 9.66036 11.3264 9.72371 11.3264C9.76509 11.3264 9.8063 11.3456 9.84496 11.3456C9.90559 11.3456 9.96603 11.3264 9.97438 11.2631C9.98799 11.1805 9.85876 11.1061 9.78433 11.1199C9.79813 11.0654 9.81737 10.985 9.75674 10.9298C9.69612 10.8746 9.50625 10.9712 9.46487 10.9988C9.42348 11.0264 9.29969 11.1282 9.29969 11.1282V11.128Z" fill="#E2D59D"/>
<path id="Vector_91" fill-rule="evenodd" clip-rule="evenodd" d="M13.6753 16.9133L14.0828 16.793L14.1984 16.8756C14.1984 16.8756 14.2808 17.0518 14.4104 17.0738C14.369 17.1618 14.2616 17.2371 14.2672 17.2996C14.2728 17.362 14.3278 17.4098 14.3278 17.4098C14.3278 17.4098 13.9616 18.0155 14.6831 18.6259C14.5123 18.6947 14.2948 18.7893 14.1792 18.8437C14.2616 18.8629 14.4378 18.8982 14.5123 18.965C14.5867 19.0318 14.5867 19.053 14.6555 19.0944C14.7243 19.1358 14.7655 19.1908 14.7519 19.2154C14.705 19.1879 14.548 19.1054 14.5206 19.1824C14.4932 19.2594 13.8405 19.2292 13.8405 19.2292L12.7391 19.4412C12.7391 19.4412 12.7803 19.3311 12.6646 19.2292C12.5298 19.1082 12.3646 19.2347 12.1883 19.0998C11.9571 18.9236 11.9488 18.7197 11.8745 18.6428C11.9488 18.5959 12.1003 18.5271 12.461 18.4794C12.4472 18.4518 12.4004 18.3692 12.4279 18.295C12.461 18.1986 12.5986 18.138 12.5574 18.0227C12.618 18.0089 12.6454 18.0089 12.797 17.8189C12.9402 17.6288 13.0282 17.5876 13.1384 17.5738C13.2486 17.56 13.3146 17.5738 13.5185 17.3838C13.6615 17.2489 13.6149 17.1333 13.6149 17.1333C13.6149 17.1333 13.7083 17.103 13.6755 16.9129L13.6753 16.9133Z" fill="#CBAC5A"/>
<path id="Vector_92" fill-rule="evenodd" clip-rule="evenodd" d="M12.4721 16.9748C12.4775 16.9472 12.4997 16.9334 12.6483 16.9472C12.797 16.961 13.7387 16.8592 13.9948 16.8454C14.2537 16.8262 15.165 16.8398 15.6085 16.9334C16.0519 17.0271 16.5006 17.1373 16.7181 17.1923C16.9359 17.2529 17.0045 17.2747 16.9962 17.3022C16.9907 17.3298 16.9417 17.3567 16.9136 17.3491C16.8862 17.3436 16.1646 17.1233 15.9417 17.0768C15.7188 17.0304 14.9476 16.906 14.5259 16.9135C14.1322 16.9191 13.9752 16.908 13.6421 16.9465C13.3089 16.9879 12.7581 17.0429 12.593 17.0209C12.4296 17.0017 12.4634 17.0017 12.4717 16.9741L12.4721 16.9748Z" fill="#D6BC6F"/>
<path id="Vector_93" fill-rule="evenodd" clip-rule="evenodd" d="M14.6885 19.1326C14.6885 19.1326 15.253 19.4383 15.4568 19.8127C15.6055 20.0908 15.3688 20.2285 15.3688 20.2285C15.3688 20.2285 15.6883 20.2285 15.6469 20.4048C15.6276 20.5148 15.0962 20.8121 14.7409 20.9691C14.3803 21.1261 14.3941 21.118 14.2178 21.1454C14.047 21.1729 13.5789 21.0909 13.4825 21.2279C13.3861 21.365 13.4281 21.5062 13.4549 21.5282C13.4825 21.5474 13.7056 21.575 13.7056 21.575C13.7056 21.575 13.6588 21.7044 13.1963 21.7182C12.7338 21.732 12.618 21.7649 12.5904 21.8146C12.5628 21.8612 12.6784 21.8338 12.8906 21.869C13.1026 21.9021 13.3999 21.9235 13.3999 21.9235C13.3999 21.9235 13.3035 22.0061 13.0531 22.0722C12.7666 22.1464 12.3178 22.2154 12.1829 22.298C12.2517 22.3448 12.3537 22.4136 12.4007 22.419C12.2851 22.4466 12.1224 22.5072 12.095 22.5292C12.1362 22.5568 12.1914 22.5898 12.1914 22.5898C12.1914 22.5898 11.96 22.8679 11.8251 22.9369C11.6903 23.0058 10.9138 23.3663 10.6466 23.2975C9.98024 23.1213 9.89765 22.3916 9.7352 22.3366C9.49016 22.254 9.37453 22.419 9.1569 22.3034C9.25328 22.2346 9.30574 22.1934 9.40757 22.1466C9.29739 22.0921 8.72744 21.7307 8.72744 21.7307C8.66784 21.6008 8.60169 21.474 8.52923 21.3508C8.41905 21.1608 8.25696 20.9074 8.13535 20.6843C7.87107 20.1942 7.85727 19.9684 7.61768 19.6904C7.65906 19.6359 7.80209 19.6435 7.80209 19.6435L9.80962 20.3044L13.3693 20.4075L14.295 19.0859L14.6887 19.1328L14.6885 19.1326Z" fill="#DFC677"/>
<path id="Vector_94" fill-rule="evenodd" clip-rule="evenodd" d="M9.41577 21.1486C9.43725 21.1725 9.46229 21.1929 9.49001 21.2092C9.55899 21.256 9.66081 21.3112 9.72961 21.3936C9.7572 21.3524 9.82599 21.278 9.94742 21.3936C10.0689 21.5092 10.2197 21.4268 10.3135 21.4542C10.4099 21.4875 10.4154 21.5011 10.4154 21.5011C10.4154 21.5011 10.4698 21.4542 10.5916 21.4047C10.666 21.3771 10.7541 21.3579 10.8505 21.3304C10.9385 21.3112 11.0349 21.2836 11.1011 21.2836C11.1617 21.3248 11.3792 21.5559 12.2521 21.2148C13.0754 20.8954 13.2653 20.8596 13.4031 20.909C13.4169 20.8759 13.4307 20.8126 13.6427 20.8209C13.6427 20.7329 13.4664 20.4327 13.4664 20.4327L12.4944 20.0996H11.9628L10.3685 20.3915L9.48511 20.8955L9.41632 21.1497L9.41577 21.1486Z" fill="#C4A859"/>
<path id="Vector_95" fill-rule="evenodd" clip-rule="evenodd" d="M8.88403 20.5892C8.88403 20.5892 8.90327 20.7378 9.12363 20.8948C9.34145 21.0517 9.40988 21.1453 9.40988 21.1453C9.40988 21.1453 9.45126 21.0909 9.4843 21.0353C9.51733 20.9747 9.54492 20.9059 9.59992 20.8867C9.7101 20.8398 9.96059 20.9279 10.0158 20.9141C10.0626 20.9005 10.0488 20.8041 10.0984 20.8041C10.214 20.7984 10.2882 20.8783 10.3296 20.8783C10.371 20.8783 10.4726 20.8729 10.4864 20.8509C10.5002 20.8289 10.5057 20.6002 10.6627 20.4901C10.8335 20.369 11.0428 20.4213 11.0983 20.4489C11.0983 20.4901 11.1038 20.5921 11.2139 20.5975C11.3241 20.603 11.335 20.5837 11.4318 20.6168C11.5285 20.6498 11.6438 20.6113 11.696 20.7736C11.7429 20.76 11.853 20.7462 11.8255 20.5892C11.8799 20.548 11.9275 20.5204 12.0433 20.3579C12.0709 20.3167 12.1175 20.2699 12.1535 20.2093C12.2498 20.2093 12.3655 20.19 12.5196 20.3249C12.4727 20.3579 12.4451 20.3793 12.4315 20.4129C12.4718 20.4528 12.5086 20.4961 12.5415 20.5423C12.5829 20.5968 12.6105 20.6636 12.6628 20.6774C12.7784 20.7104 12.9684 20.6636 13.1805 20.6774C13.3843 20.6912 13.5549 20.7654 13.6293 20.8122C13.6569 20.7986 13.6569 20.793 13.7257 20.8068C13.7945 20.8206 13.8468 20.826 13.7725 20.738C13.8138 20.7572 13.8606 20.7986 13.902 20.7572C13.9434 20.7159 13.9762 20.6554 14.0918 20.6416C14.2075 20.6278 14.2488 20.6471 14.2957 20.526C14.3563 20.3773 14.147 20.3773 14.147 20.3773C14.147 20.3773 14.2434 20.2891 14.3508 20.1735C14.4803 20.0524 14.6289 19.8954 14.6647 19.7027C14.7253 19.3474 14.3784 19.3008 14.3784 19.3008L12.696 19.8185L10.6391 19.7164L8.88512 20.5893L8.88403 20.5892Z" fill="#927D49"/>
<path id="Vector_96" fill-rule="evenodd" clip-rule="evenodd" d="M7.3724 15.7296C7.3724 15.7296 7.31795 15.7984 7.28437 15.9609C7.25079 16.1233 7.26513 16.1041 7.23754 16.2197C7.20995 16.3354 6.87107 17.4864 6.99812 17.8746C7.12518 18.2629 7.34518 18.4061 7.48276 18.72C7.51035 18.7887 7.53722 18.8301 7.55155 18.8908C7.59838 19.0944 7.55718 19.2514 7.61218 19.4553C7.63142 19.5241 7.68115 19.6039 7.75539 19.6865C7.91875 19.8572 8.18503 20.0196 8.29993 20.1352C8.4622 20.3061 8.69363 20.6531 8.98822 20.686C9.14523 20.7052 9.36831 20.6391 9.55273 20.5291C9.71609 20.4271 9.81701 20.2841 9.98836 20.2024C10.1094 20.1418 10.2388 20.1198 10.3545 20.0922C10.5941 20.0454 10.8117 20.0378 10.9411 20.0646C11.1393 20.106 11.6074 20.2492 11.8668 20.2492C12.0695 20.246 12.2711 20.2182 12.4671 20.1666C12.8608 20.051 13.3371 19.8526 13.6511 19.7646C13.8355 19.7101 13.9842 19.6958 14.1357 19.6628C14.3946 19.6021 14.612 19.5195 14.736 19.3625C14.6534 19.2661 14.5516 19.1175 14.0007 19.1229C13.3757 19.1367 12.6542 19.4836 12.299 19.5388C11.9438 19.594 11.7897 19.6406 11.3931 19.4974C11.0043 19.3527 10.9914 19.2571 10.9914 19.2571C10.9914 19.2571 10.5832 18.9715 10.4124 18.2437C10.2416 17.5158 10.4124 16.9854 10.8558 16.4813C10.9714 16.3519 10.9438 16.2362 10.9438 16.2362C10.9438 16.2362 11.2357 15.8425 11.1558 15.4739C11.0678 15.1076 10.5033 15.182 10.5033 15.182L7.37258 15.7296H7.3724Z" fill="#6E6342"/>
<path id="Vector_97" fill-rule="evenodd" clip-rule="evenodd" d="M7.84298 16.9551C7.81871 17.0007 7.80729 17.0521 7.80995 17.1037C7.81539 17.178 7.83754 17.2743 8.06044 17.492C8.25048 17.6818 8.20909 17.8938 8.20909 17.8938C8.20909 17.8938 8.30475 17.9131 8.56431 17.7916C8.76815 17.6953 8.83658 17.8661 8.83658 17.8661C8.89592 17.8349 8.96023 17.8144 9.02663 17.8054C9.08678 17.7999 9.145 17.7813 9.19725 17.751C9.19725 17.751 9.43684 17.996 9.64613 18.1116C9.83617 18.2137 9.94635 18.2824 10.04 18.2137C10.128 18.153 10.128 18.0291 10.1224 17.9741C10.1006 17.9233 10.0729 17.8752 10.04 17.8309C9.97938 17.7428 9.883 17.6408 9.87665 17.5586C9.86285 17.3687 10.0199 17.1428 9.98664 17.0878C9.95343 17.0328 9.82982 17.019 9.52415 17.1291C9.20759 17.2337 7.84171 16.9556 7.84171 16.9556L7.84298 16.9551Z" fill="#39331F"/>
<path id="Vector_98" fill-rule="evenodd" clip-rule="evenodd" d="M8.56466 18.1857C8.56466 18.1857 8.40788 18.037 8.46286 17.3155C8.52942 17.3146 8.59588 17.321 8.66101 17.3348C8.66101 17.3348 8.74647 17.8938 8.56466 18.1857Z" fill="#292311"/>
<path id="Vector_99" fill-rule="evenodd" clip-rule="evenodd" d="M7.44676 15.1785C7.46864 15.1623 7.48894 15.1441 7.50739 15.1241C7.45293 15.2259 7.20154 15.6334 7.40537 16.275C7.60921 16.9138 8.12126 17.3901 8.75184 17.4122C9.38242 17.4343 9.71386 17.1258 10.0929 16.6633C10.2415 16.4789 10.4123 16.2474 10.5637 16.0906C10.7895 15.8454 10.9658 15.7766 10.9658 15.5399C10.9658 15.0553 10.47 14.8377 9.74036 14.6202C9.01068 14.4028 8.35251 14.4296 8.01108 14.5785C7.67801 14.7407 7.53479 14.9115 7.44658 15.1787L7.44676 15.1785Z" fill="#252211"/>
<path id="Vector_100" fill-rule="evenodd" clip-rule="evenodd" d="M9.78985 18.4028L9.8443 18.3752C9.8443 18.3752 9.85791 18.1574 9.94611 18.1632C10.0341 18.177 10.0755 18.2928 10.0672 18.334C10.0617 18.3752 10.0398 18.4442 9.95156 18.4359C9.83595 18.4386 9.78931 18.4028 9.78931 18.4028H9.78985Z" fill="#3F3824"/>
<path id="Vector_101" fill-rule="evenodd" clip-rule="evenodd" d="M9.54468 17.4782C9.54468 17.4782 9.59913 17.459 9.66575 17.525C9.7202 17.525 9.95762 17.4974 10.032 17.5443C10.1065 17.5911 10.1284 17.6323 10.1284 17.6323C10.1284 17.6323 9.85035 17.6929 9.69878 17.6323C9.54468 17.58 9.54468 17.4782 9.54468 17.4782Z" fill="#2D2815"/>
<path id="Vector_102" fill-rule="evenodd" clip-rule="evenodd" d="M10.7703 17.5187C10.7703 17.505 10.6217 17.4031 10.4647 17.3699C10.4371 17.3645 10.4315 17.3837 10.4102 17.3837C10.3964 17.3783 10.391 17.3369 10.391 17.3369L10.3017 17.3839C10.3017 17.3839 10.2879 17.4031 10.3347 17.4384C10.3759 17.4714 10.4449 17.499 10.4641 17.5539C10.4834 17.6089 10.4834 17.6282 10.4917 17.6365C10.4972 17.642 10.5935 17.6365 10.6404 17.6089C10.6872 17.5813 10.7754 17.5363 10.7698 17.5182L10.7703 17.5187Z" fill="#82764F"/>
<path id="Vector_103" fill-rule="evenodd" clip-rule="evenodd" d="M9.38013 18.0779C9.38013 18.0779 9.40754 17.888 9.59213 17.8796C9.782 17.8658 9.81794 18.0503 9.81794 18.0503L9.70776 18.1605C9.70776 18.1577 9.62517 18.0421 9.38103 18.0779H9.38013Z" fill="#2D2816"/>
<path id="Vector_104" fill-rule="evenodd" clip-rule="evenodd" d="M10.5779 17.2606C10.5779 17.2606 10.4759 17.3708 10.2503 17.4039C10.231 17.3763 10.1896 17.3212 10.2503 17.2332C10.3109 17.1451 10.3797 17.1175 10.4485 17.1449C10.4788 17.1499 10.5071 17.1634 10.5301 17.1839C10.553 17.2043 10.5696 17.231 10.5779 17.2606Z" fill="#574F35"/>
<path id="Vector_105" fill-rule="evenodd" clip-rule="evenodd" d="M10.9929 17.3953C10.9986 17.3677 10.9793 17.3623 10.9929 17.3485C11.0066 17.3347 11.0812 17.3073 11.0949 17.3209C11.1004 17.3265 11.0949 17.3485 11.0949 17.3753C11.0949 17.4022 11.0949 17.4298 11.0812 17.4496C11.0619 17.4772 11.0069 17.491 10.9793 17.4828C10.9517 17.4746 10.9463 17.436 10.9463 17.4283C10.9599 17.4229 10.9929 17.4091 10.9929 17.3953ZM11.4631 17.098C11.4631 17.0842 11.5099 17.0566 11.5375 17.0566C11.5787 17.0566 11.5787 17.0897 11.5843 17.098C11.5979 17.1035 11.5979 17.0924 11.6117 17.1173C11.6255 17.1421 11.6449 17.186 11.631 17.2136C11.617 17.2412 11.5622 17.2603 11.5486 17.2548C11.5293 17.241 11.4687 17.1173 11.4631 17.098Z" fill="#82764F"/>
<path id="Vector_106" fill-rule="evenodd" clip-rule="evenodd" d="M10.5168 17.4582C10.5168 17.4582 10.5775 17.4718 10.6601 17.5408C10.6325 17.56 10.5911 17.582 10.5911 17.582C10.5911 17.582 10.5856 17.5186 10.5168 17.458V17.4582Z" fill="#6E6342"/>
<path id="Vector_107" fill-rule="evenodd" clip-rule="evenodd" d="M10.3818 16.8526C10.368 16.839 10.423 16.8059 10.4561 16.8114C10.4891 16.8168 10.5029 16.839 10.5386 16.8444C10.5744 16.8499 10.58 16.8306 10.5931 16.8168C10.6062 16.803 10.6537 16.8114 10.6619 16.8168C10.667 16.8229 10.6716 16.8293 10.6757 16.8361C10.6763 16.8256 10.679 16.8154 10.6837 16.806C10.6884 16.7966 10.695 16.7883 10.7031 16.7816C10.7137 16.7739 10.7258 16.7686 10.7387 16.7662C10.7516 16.7638 10.7649 16.7644 10.7775 16.7678C10.783 16.7871 10.8106 16.8559 10.8051 16.8697C10.7997 16.8835 10.7171 16.9029 10.7031 16.8889C10.7169 16.9221 10.7775 16.9909 10.7857 17.0045C10.7939 17.0181 10.7251 17.0514 10.6977 17.0459C10.6592 17.0432 10.4223 16.9054 10.3811 16.8531L10.3818 16.8526ZM10.7425 16.3955C10.7374 16.3816 10.7276 16.37 10.7149 16.3625C10.6957 16.357 10.6323 16.3625 10.6323 16.3955C10.6323 16.4285 10.6868 16.6133 10.7479 16.7095C10.8169 16.8059 10.8636 16.8856 10.9104 16.9078C10.9251 16.9145 10.9418 16.9154 10.9571 16.9102C10.9724 16.9051 10.9853 16.8944 10.993 16.8802C10.9984 16.8664 11.0122 16.7646 11.0068 16.5249C11.0013 16.2853 10.993 16.0541 10.9792 16.0403C10.9654 16.0265 10.9104 16.0266 10.8912 16.0541C10.8719 16.0815 10.7479 16.3543 10.7423 16.3955H10.7425Z" fill="#585136"/>
<path id="Vector_108" fill-rule="evenodd" clip-rule="evenodd" d="M10.4978 17.8052C10.4978 17.8052 10.4014 17.7446 10.3078 17.7859C10.2197 17.8273 10.2252 17.9897 10.2252 17.9897C10.245 17.9975 10.2664 18.0002 10.2875 17.9978C10.3086 17.9954 10.3289 17.9879 10.3464 17.9759C10.4071 17.9347 10.484 17.866 10.4978 17.8054V17.8052Z" fill="#574F35"/>
<path id="Vector_109" fill-rule="evenodd" clip-rule="evenodd" d="M10.6792 18.0233C10.6738 17.9688 10.6248 17.9688 10.6248 17.9407C10.6281 17.9272 10.6359 17.9153 10.6469 17.9068C10.6578 17.8983 10.6713 17.8938 10.6852 17.8939C10.7128 17.8939 10.7397 17.9269 10.7734 17.9483C10.8065 17.9676 10.856 18.0028 10.8614 18.0447C10.8669 18.0866 10.807 18.2015 10.7404 18.2015C10.6738 18.2015 10.6935 18.0776 10.6798 18.0226L10.6792 18.0233ZM11.2107 17.9489C11.2107 17.9489 11.1005 17.9819 11.1087 17.9489C11.1168 17.9158 11.1419 17.9077 11.1776 17.9077C11.1958 17.8886 11.2202 17.8768 11.2464 17.8744C11.2614 17.8737 11.2761 17.8786 11.2876 17.8882C11.2876 17.8882 11.3621 17.8552 11.384 17.8744C11.406 17.8937 11.3897 17.8937 11.4033 17.9158C11.4206 17.9404 11.432 17.9687 11.4365 17.9984C11.4365 18.0204 11.3539 18.0672 11.2876 18.059C11.2107 18.0425 11.2243 17.9627 11.2107 17.9489ZM11.8521 17.8249C11.8521 17.8249 11.8852 17.8441 11.8578 17.8663C11.8385 17.8855 11.7422 17.9207 11.6594 17.9269C11.5768 17.9269 11.5026 17.9405 11.5026 17.9131C11.5026 17.8857 11.5713 17.8305 11.6126 17.8167C11.6208 17.8064 11.6313 17.798 11.6433 17.7923C11.6552 17.7866 11.6683 17.7836 11.6815 17.7837C11.7146 17.7837 11.8438 17.7699 11.8797 17.7644C11.9128 17.7588 11.9404 17.7781 11.9209 17.8056C11.9128 17.8249 11.8521 17.8249 11.8521 17.8249ZM12.0422 16.9746C12.0422 16.9746 12.0008 17.0627 11.9542 17.0627C11.9073 17.0572 11.9073 17.0434 11.9073 17.0296C11.9073 17.0104 11.9542 16.9609 11.9485 16.9471C11.9349 16.9471 11.9017 16.9471 11.9073 16.914C11.9073 16.8864 11.9542 16.8534 11.9954 16.8596C12.0265 16.834 12.0653 16.8195 12.1055 16.8184C12.1524 16.8184 12.1936 16.832 12.1936 16.8596C12.1936 16.8872 12.1391 16.9476 12.1192 16.9616C12.0972 16.9835 12.0696 16.9979 12.0422 16.9752V16.9746ZM11.4143 18.602C11.4143 18.602 11.3599 18.6076 11.3599 18.635C11.3599 18.6488 11.3735 18.6488 11.3929 18.6406C11.4041 18.64 11.4152 18.6381 11.426 18.635C11.4314 18.6406 11.4314 18.6681 11.4728 18.6681C11.5068 18.6635 11.5395 18.6522 11.5692 18.635C11.6022 18.6214 11.6298 18.6074 11.6298 18.5806C11.616 18.5337 11.5884 18.5116 11.5472 18.5116C11.5261 18.5102 11.505 18.515 11.4866 18.5254C11.4866 18.5254 11.4728 18.4978 11.426 18.5254C11.3791 18.553 11.3846 18.553 11.3984 18.5668C11.4231 18.5887 11.4149 18.6031 11.4149 18.6031L11.4143 18.602ZM11.1032 18.8884C11.1032 18.8746 11.172 18.847 11.1913 18.8554C11.2105 18.8608 11.2655 18.9654 11.2655 18.9765C11.2655 18.9902 11.1967 19.0233 11.1691 19.0233C11.1415 19.0233 11.0949 18.9765 11.0949 18.9688C11.0949 18.9634 11.1279 18.9552 11.1279 18.9496C11.1361 18.936 11.1032 18.9028 11.1032 18.889V18.8884ZM10.8854 18.4863C10.8992 18.4809 10.8992 18.4671 10.9184 18.4533C10.9245 18.4493 10.9313 18.4467 10.9385 18.4458C10.9457 18.4448 10.953 18.4456 10.9598 18.4479C10.9647 18.4392 10.9714 18.4317 10.9795 18.426C10.9876 18.4202 10.9969 18.4164 11.0067 18.4146C11.0397 18.4092 11.0673 18.4146 11.0611 18.4284C11.0611 18.4698 11.0887 18.4972 11.0887 18.5303C11.0887 18.5633 11.0695 18.6047 11.0007 18.6323C10.9319 18.6515 10.8382 18.6515 10.8244 18.6461C10.8106 18.6406 10.7968 18.5855 10.8106 18.5579C10.8244 18.5303 10.8629 18.5001 10.885 18.4863H10.8854Z" fill="#82764F"/>
<path id="Vector_110" fill-rule="evenodd" clip-rule="evenodd" d="M10.9733 18.5049C10.9733 18.5049 10.9264 18.5325 10.9264 18.5463C10.9223 18.5596 10.9204 18.5735 10.921 18.5874C10.921 18.5956 10.9817 18.582 10.9898 18.5737C10.9926 18.5682 10.9733 18.5192 10.9733 18.5049Z" fill="#6E6342"/>
<path id="Vector_111" fill-rule="evenodd" clip-rule="evenodd" d="M10.5634 18.3757C10.5908 18.3813 10.6377 18.3757 10.6734 18.3895C10.701 18.4033 10.7202 18.4309 10.6927 18.4639C10.6651 18.4969 10.6382 18.5465 10.577 18.5381C10.5082 18.5327 10.4422 18.4969 10.4422 18.4693C10.441 18.4519 10.4434 18.4344 10.449 18.4179C10.4547 18.4013 10.4636 18.3861 10.4752 18.373C10.5028 18.351 10.5164 18.3648 10.5632 18.3757H10.5634Z" fill="#585136"/>
<path id="Vector_112" fill-rule="evenodd" clip-rule="evenodd" d="M10.5307 18.4033C10.5307 18.4033 10.4427 18.4721 10.4205 18.5053C10.3929 18.5384 10.2581 18.709 10.2169 18.7447C10.2306 18.7206 10.2462 18.6976 10.2635 18.676C10.2091 18.7108 10.1682 18.7633 10.1479 18.8246C10.1149 18.9266 10.3325 18.9816 10.4755 19.023C10.6186 19.0644 10.6739 19.0775 10.6739 19.0775C10.6213 18.9983 10.5761 18.9145 10.5389 18.827C10.4844 18.6976 10.4563 18.6838 10.4921 18.6231C10.5197 18.5625 10.561 18.5213 10.561 18.4745C10.5445 18.4309 10.5307 18.4033 10.5307 18.4033Z" fill="#574F35"/>
<path id="Vector_113" fill-rule="evenodd" clip-rule="evenodd" d="M7.39123 18.6209C7.41127 18.6246 7.43182 18.6246 7.45186 18.6209C7.49306 18.6152 7.9227 18.4575 8.37158 18.4858C8.70762 18.5061 9.04068 18.5609 9.36554 18.6492C9.93004 18.7979 10.6321 19.0925 11.0865 19.2606C11.2075 19.3072 11.3261 19.39 11.4132 19.4228C11.7602 19.5579 11.7738 19.5579 11.9777 19.5937C12.2173 19.6267 12.4623 19.5468 12.7184 19.4918C13.0323 19.4228 13.5692 19.3898 14.04 19.321C14.1923 19.2999 14.3424 19.2658 14.4889 19.2192C14.4889 19.2192 14.1144 19.5937 13.2167 19.7285C12.8538 19.7836 12.485 19.7883 12.1209 19.7423C11.8345 19.7147 11.6446 19.6733 11.5014 19.6321C11.3389 19.5853 11.0057 19.4613 10.5955 19.3599C10.309 19.2854 9.98958 19.2304 9.62347 19.1616C8.72026 18.9963 7.7401 18.8064 7.39087 18.622L7.39123 18.6209Z" fill="#252211"/>
<path id="Vector_114" fill-rule="evenodd" clip-rule="evenodd" d="M6.37795 16.9189C6.16014 17.1034 5.92907 17.2796 5.70345 17.4502L5.02333 17.9728C4.79208 18.1434 4.56628 18.3197 4.33485 18.4905C4.10342 18.6613 3.87236 18.8236 3.62695 18.9806C3.84477 18.7962 4.07583 18.6254 4.30708 18.4575C4.53833 18.2896 4.7781 18.1249 5.00118 17.9547L5.68131 17.4314C5.91528 17.2607 6.14108 17.0845 6.37795 16.9193V16.9189ZM5.17471 18.8464C5.17471 18.8464 5.41975 18.6426 5.72541 18.3563C6.10532 18.0013 6.57072 17.5468 6.71937 17.4644L5.17453 18.8466L5.17471 18.8464Z" fill="#CFB66C"/>
<path id="Vector_115" fill-rule="evenodd" clip-rule="evenodd" d="M5.1748 18.8459C5.29606 18.7248 5.42547 18.6064 5.55489 18.4906L5.75311 18.32C5.81373 18.2656 5.88271 18.2044 5.94315 18.1438C6.06422 18.0227 6.18275 17.8931 6.30382 17.7693C6.36382 17.7071 6.42727 17.6482 6.49386 17.5931C6.52715 17.5636 6.56413 17.5386 6.60386 17.5186C6.63708 17.4994 6.67283 17.4642 6.71948 17.458C6.69207 17.4994 6.65904 17.5186 6.63145 17.5544C6.59841 17.582 6.57082 17.615 6.54341 17.6424C6.48279 17.7031 6.414 17.758 6.35337 17.8132C6.22395 17.9234 6.08909 18.031 5.95967 18.1463C5.83025 18.2616 5.70918 18.3859 5.57958 18.5015C5.43927 18.6201 5.30985 18.7357 5.1748 18.8464V18.8459ZM6.82149 17.7444C6.82149 17.7444 5.92391 18.623 5.73931 18.766L6.82149 17.7444Z" fill="#CFB66C"/>
<path id="Vector_116" fill-rule="evenodd" clip-rule="evenodd" d="M6.82168 17.7451C6.74094 17.8386 6.65437 17.9269 6.56248 18.0094L6.29021 18.2682C6.20218 18.3563 6.11941 18.4445 6.02593 18.5325C5.92955 18.6151 5.84151 18.6959 5.7395 18.7721L6.00379 18.5133C6.092 18.4252 6.18838 18.351 6.28204 18.2628L6.54633 18.004C6.63708 17.9132 6.7253 17.825 6.82168 17.7451ZM6.86289 18.2214C6.78015 18.4523 6.68266 18.6777 6.57101 18.8961C6.33977 19.3588 5.99289 19.9369 5.84133 20.2317L6.86289 18.2214Z" fill="#CFB66C"/>
<path id="Vector_117" fill-rule="evenodd" clip-rule="evenodd" d="M6.86258 18.2217C6.86258 18.3235 6.83499 18.4117 6.80196 18.4998C6.76976 18.5879 6.73304 18.6743 6.69196 18.7586C6.65058 18.8412 6.60375 18.9294 6.55691 19.0093C6.51008 19.0891 6.45509 19.1715 6.4137 19.2543L6.13562 19.7444C6.03924 19.9078 5.94558 20.072 5.84375 20.229C5.91254 20.0528 6.0062 19.8876 6.09442 19.7252C6.1908 19.5618 6.27884 19.3984 6.36669 19.2294C6.40958 19.1452 6.44817 19.0589 6.48231 18.9708C6.52352 18.8826 6.56472 18.8 6.59794 18.7201C6.63914 18.6321 6.67218 18.5493 6.71356 18.4696C6.76021 18.3841 6.79887 18.3015 6.86222 18.2217H6.86258Z" fill="#CFB66C"/>
<path id="Vector_118" fill-rule="evenodd" clip-rule="evenodd" d="M7.84314 20.4795C7.84314 20.4795 7.57088 20.8402 7.59811 21.2972C7.67234 21.0578 7.766 20.6915 7.84314 20.4795ZM8.10198 20.8411C8.10198 20.8411 8.0056 21.8212 7.92573 22.3032C8.03863 21.7461 8.06059 21.7929 8.10198 20.8411ZM9.90547 22.3611C9.90547 22.3611 9.49798 23.559 9.48963 23.8919C9.57784 23.5496 9.74846 22.8502 9.90547 22.3602V22.3611Z" fill="#DEC270"/>
<path id="Vector_119" fill-rule="evenodd" clip-rule="evenodd" d="M10.8582 20.4053C10.8582 20.4053 11.519 21.4956 12.0148 22.4262C11.8806 21.9579 11.572 21.099 10.8582 20.4053Z" fill="#CBAF59"/>
<path id="Vector_120" fill-rule="evenodd" clip-rule="evenodd" d="M12.6348 22.0098C12.9976 22.6512 13.3248 23.3121 13.6149 23.9895C13.5599 23.5214 13.4111 22.7202 12.6348 22.0098Z" fill="#E3C677"/>
<path id="Vector_121" fill-rule="evenodd" clip-rule="evenodd" d="M17.8552 23.6182C17.9651 23.5494 18.1828 23.1747 18.3728 23.0813C18.5627 22.9849 18.7059 22.9656 18.8767 22.7756C19.0473 22.5772 19.0945 22.4561 19.4686 22.2993C19.9919 22.0733 19.632 21.7814 19.632 21.7814C19.6896 21.7248 19.7512 21.6724 19.8164 21.6246C19.9514 21.5228 20.1083 21.3988 20.0947 21.1812C20.0754 20.8151 20.0066 20.2836 19.7064 19.9752C19.9983 19.9146 20.5571 19.8734 20.9044 19.7853C21.3062 19.6833 21.4908 19.5401 21.4908 19.5401C21.4908 19.5401 21.2596 19.1464 21.6341 18.75C22.0085 18.3536 22.3142 18.1167 22.54 17.6733C22.2811 17.6402 21.8865 17.5026 20.8795 17.8853C20.9339 17.9108 20.9863 17.9403 21.0365 17.9733C21.0365 17.9733 20.417 18.1441 20.1912 18.3341C19.7973 18.6672 19.7478 18.9399 19.321 19.1437C18.8943 19.3475 18.4647 19.2924 18.1096 19.4575C17.7546 19.6227 17.7021 19.7632 17.5725 19.8238C17.6001 19.8569 17.5671 19.9119 17.6194 19.9587C17.5863 20.0055 17.3936 20.3194 17.1981 20.3194C17.2173 20.3938 17.3825 20.4488 17.3825 20.4488C17.3825 20.4488 17.2614 20.537 16.953 20.559C17.1099 20.7223 17.2587 20.9004 17.6689 21.1592C17.6359 21.228 17.4981 21.33 17.5533 21.4594C17.6139 21.5889 17.7711 21.7651 18.3986 21.9083C18.0791 21.9219 17.7049 21.9964 17.2006 21.9276C16.6967 21.8669 16.6142 21.8312 16.303 21.9083C16.3361 21.9414 16.4241 21.9414 16.5013 22.0294C16.4187 22.0348 15.901 21.9688 15.7247 22.2002C15.5403 22.4396 15.4605 22.8335 15.4743 23.0978C15.3779 23.1446 15.2842 23.2272 15.331 23.398C15.3779 23.5688 15.6229 23.6238 15.7799 23.7311C15.9367 23.8467 15.9505 23.8879 16.0994 23.8605C16.2562 23.8275 16.4875 23.6706 16.6225 23.6706C16.7575 23.6706 16.8537 23.7725 16.8537 23.7725C16.8537 23.7725 17.22 23.5962 17.2558 23.6292C17.2888 23.6623 17.2612 23.8743 17.297 23.9073C17.3333 23.9322 17.7459 23.6872 17.8561 23.6182H17.8552Z" fill="#ECD592"/>
<path id="Vector_122" fill-rule="evenodd" clip-rule="evenodd" d="M25.8596 12.5986C24.1387 8.1544 19.8844 7.33105 19.8844 7.33105H7.74676L7.79359 11.8578H10.2108V21.9661H7.74658V26.4847H19.5484C22.3927 26.4847 24.6727 23.6264 24.6727 23.6264C28.3238 18.4444 25.8594 12.5986 25.8594 12.5986H25.8596ZM19.6117 20.581C19.6117 20.581 18.686 21.9166 17.6788 21.9166H15.664L15.6163 11.8689H18.2019C18.2019 11.8689 19.3999 12.1194 20.2369 14.4901C20.2369 14.4901 21.3465 17.8844 19.6117 20.581Z" fill="white" fill-opacity="0.8"/>
</g>
</g>
</g>
</svg>
