<svg width="43" height="43" viewBox="0 0 43 43" fill="none" xmlns="http://www.w3.org/2000/svg">
<g id="AvalancheBadge">
<rect width="43" height="43" rx="21.5" fill="black"/>
<path id="Vector" fill-rule="evenodd" clip-rule="evenodd" d="M21.5001 35.8337C29.4162 35.8337 35.8334 29.4164 35.8334 21.5003C35.8334 13.5843 29.4162 7.16699 21.5001 7.16699C13.584 7.16699 7.16675 13.5843 7.16675 21.5003C7.16675 29.4164 13.584 35.8337 21.5001 35.8337ZM17.1692 27.994H13.8067C13.0095 27.994 12.6109 27.994 12.3722 27.8396C12.1142 27.6728 11.9514 27.3928 11.9341 27.0862C11.9181 26.8025 12.1156 26.4566 12.5104 25.7649L12.5106 25.7646L19.8726 12.8673C20.2732 12.1653 20.4736 11.8143 20.7285 11.6837C21.0039 11.5425 21.3305 11.5423 21.6061 11.683C21.8612 11.8133 22.062 12.164 22.4637 12.8654L24.1617 15.8299L24.1617 15.83C24.4538 16.34 24.5999 16.595 24.6641 16.864C24.734 17.157 24.7341 17.4621 24.6645 17.755C24.6005 18.0241 24.4547 18.2794 24.1629 18.7896L19.7606 26.4911C19.4647 27.0088 19.3167 27.2677 19.1139 27.4612C18.8932 27.6718 18.6256 27.8271 18.3331 27.9141C18.0643 27.994 17.766 27.994 17.1692 27.994ZM29.1655 27.994H25.2671C24.4626 27.994 24.0604 27.994 23.8209 27.8383C23.5621 27.67 23.3998 27.3879 23.3846 27.0799C23.3704 26.7948 23.5728 26.4475 23.9777 25.7529L25.9237 22.4143C26.3234 21.7285 26.5234 21.3856 26.7764 21.2571C27.0499 21.1183 27.3733 21.1181 27.647 21.2565C27.9003 21.3845 28.1006 21.7272 28.5013 22.4123L28.5014 22.4125L30.4538 25.751C30.8603 26.446 31.0635 26.7936 31.0496 27.0789C31.0346 27.3872 30.8724 27.6695 30.6135 27.8381C30.374 27.994 29.9712 27.994 29.1655 27.994Z" fill="white"/>
</g>
</svg>
