<svg width="43" height="43" viewBox="0 0 43 43" fill="none" xmlns="http://www.w3.org/2000/svg">
<rect width="43" height="43" rx="21.5" fill="white"/>
<path d="M11.6174 22.9907C15.2528 24.9213 19.0463 26.9422 21.9761 28.5059L32.2501 22.9907C28.53 28.5171 25.4305 33.1179 21.9761 38.2097C18.5157 33.1291 14.694 27.523 11.6174 22.9907ZM12.0126 21.4663L21.9874 16.1437L31.8323 21.4274L21.993 26.7559L12.0126 21.4663ZM21.9761 14.4383L11.6174 19.8915L21.9309 4.79102L32.2501 19.9253L21.9761 14.4383Z" fill="#3AB83A"/>
<path d="M21.9761 28.5058L32.2502 22.9907C28.5301 28.5171 21.9761 38.2097 21.9761 38.2097V28.5058ZM21.9873 16.1436L31.8324 21.4274L21.993 26.7559L21.9873 16.1436ZM21.9761 14.4387L21.9309 4.79102L32.2502 19.9253L21.9761 14.4387Z" fill="#0B8311"/>
<path d="M12.0129 21.4664L21.9883 22.2851L31.8333 21.4326L21.9934 26.7615L12.0129 21.4664Z" fill="#0B8311"/>
<path d="M21.9878 22.2851L31.8329 21.4326L21.9934 26.7615L21.9878 22.2851Z" fill="#146714"/>
<rect x="0.5" y="0.5" width="42" height="42" rx="21" stroke="black" stroke-opacity="0.08"/>
</svg>
