<svg width="43" height="43" viewBox="0 0 43 43" fill="none" xmlns="http://www.w3.org/2000/svg">
<rect width="43" height="43" rx="21.5" fill="#FF007A"/>
<path d="M16.7809 9.71636C16.4321 9.66251 16.4174 9.65517 16.5814 9.63069C16.8959 9.58174 17.64 9.64905 18.1527 9.77021C19.3484 10.0554 20.4364 10.7835 21.599 12.0771L21.9074 12.4197L22.3479 12.35C24.2081 12.0502 26.1013 12.2888 27.6837 13.0194C28.1194 13.2201 28.8059 13.6203 28.8916 13.7243C28.9198 13.7561 28.9699 13.9678 29.003 14.193C29.1205 14.9726 29.0617 15.5698 28.8243 16.0165C28.6946 16.2588 28.6872 16.3347 28.7741 16.5427C28.8154 16.6287 28.8799 16.7013 28.9604 16.7523C29.0409 16.8034 29.1341 16.8308 29.2294 16.8315C29.6234 16.8315 30.0469 16.1952 30.2427 15.3104L30.321 14.9591L30.4752 15.1341C31.3221 16.0936 31.9866 17.4018 32.1004 18.3319L32.131 18.5755L31.9878 18.3552C31.7431 17.9758 31.4983 17.7164 31.1826 17.5071C30.6147 17.1314 30.0138 17.0041 28.4229 16.9197C26.9862 16.8438 26.1723 16.7214 25.3671 16.4583C23.9952 16.0116 23.3037 15.4156 21.6736 13.2776C20.9504 12.328 20.5024 11.8029 20.0582 11.3807C19.0461 10.4188 18.0524 9.91462 16.7809 9.71636Z" fill="white"/>
<path d="M29.3025 12.5542C29.3392 11.9178 29.4249 11.498 29.5987 11.115C29.6672 10.9632 29.7321 10.8384 29.7418 10.8384C29.7309 10.9243 29.7083 11.0083 29.6745 11.0881C29.5485 11.4601 29.5277 11.9692 29.6146 12.5603C29.7247 13.3117 29.7883 13.4194 30.5814 14.2308C30.9546 14.6114 31.3879 15.0911 31.5445 15.2979L31.8297 15.6724L31.5445 15.4044C31.1957 15.0777 30.3929 14.4376 30.2155 14.347C30.0968 14.2859 30.0784 14.2871 30.005 14.3593C29.9377 14.4278 29.923 14.5282 29.9144 15.0067C29.8997 15.7507 29.7981 16.2305 29.5522 16.7078C29.42 16.9648 29.3992 16.9109 29.5191 16.6184C29.6085 16.4006 29.617 16.3051 29.617 15.5843C29.617 14.1353 29.4445 13.7878 28.4348 13.1905C28.131 13.0143 27.819 12.8525 27.4998 12.7059C27.3422 12.6427 27.1892 12.5682 27.0421 12.4832C27.0703 12.455 28.0542 12.7414 28.4495 12.8944C29.0394 13.1208 29.1361 13.1502 29.2083 13.122C29.256 13.1037 29.2792 12.9641 29.3025 12.5542ZM17.5454 15.0324C16.8369 14.057 16.3987 12.5603 16.493 11.4417L16.5223 11.0954L16.6839 11.1248C16.9874 11.1798 17.5099 11.3744 17.7547 11.5237C18.4253 11.9313 18.7166 12.4685 19.0115 13.8465C19.0984 14.2504 19.2123 14.7068 19.2649 14.8623C19.3481 15.1107 19.6663 15.692 19.9257 16.0702C20.1117 16.3418 19.9869 16.4703 19.5757 16.4336C18.9467 16.3761 18.0949 15.7887 17.5454 15.0324ZM28.4434 22.2956C25.1306 20.9617 23.9643 19.804 23.9643 17.8508C23.9643 17.5632 23.9741 17.3282 23.9851 17.3282C23.9973 17.3282 24.1258 17.4225 24.2702 17.5387C24.9421 18.0772 25.6947 18.3073 27.7764 18.6108C29.0014 18.7907 29.6917 18.9351 30.328 19.1456C32.3498 19.8162 33.6005 21.1771 33.8991 23.0299C33.9848 23.5684 33.9346 24.578 33.7939 25.1104C33.6837 25.5314 33.3447 26.2889 33.2554 26.3183C33.2309 26.3256 33.2064 26.2314 33.1991 26.1004C33.1648 25.4053 32.8136 24.7273 32.2225 24.2195C31.5506 23.643 30.6499 23.1829 28.4434 22.2956ZM26.1182 22.8488C26.079 22.6124 26.0255 22.3786 25.9578 22.1488L25.8722 21.8967L26.0301 22.0729C26.2467 22.3177 26.4192 22.6285 26.5636 23.0446C26.675 23.3616 26.6872 23.4558 26.686 23.971C26.686 24.4777 26.6725 24.5829 26.5697 24.8693C26.4268 25.2892 26.1875 25.6698 25.871 25.9805C25.2652 26.5973 24.4881 26.9375 23.3646 27.0795C23.1688 27.104 22.601 27.1456 22.1004 27.1713C20.8399 27.2374 20.0114 27.372 19.2661 27.6339C19.1989 27.664 19.1267 27.6814 19.0532 27.6853C19.0238 27.6547 19.5304 27.3524 19.9502 27.1505C20.5413 26.8653 21.1287 26.7099 22.4468 26.4908C23.0978 26.3819 23.7709 26.251 23.941 26.1983C25.554 25.7039 26.3837 24.4287 26.1182 22.8488Z" fill="white"/>
<path d="M26.841 25.9536C26.4004 25.0076 26.3001 24.0934 26.5411 23.2416C26.5668 23.1511 26.6085 23.0764 26.6329 23.0764C26.7158 23.1064 26.7937 23.1485 26.8642 23.2012C27.0674 23.3383 27.4737 23.5684 28.5567 24.1583C29.909 24.8962 30.68 25.4677 31.2051 26.1188C31.664 26.6903 31.9479 27.3414 32.085 28.1344C32.1621 28.5835 32.1168 29.6641 32.0018 30.117C31.6383 31.5439 30.7926 32.6649 29.5884 33.3184C29.4748 33.3842 29.357 33.4426 29.236 33.4934C29.2188 33.4934 29.2825 33.3307 29.3791 33.13C29.783 32.2831 29.8307 31.4582 29.5236 30.5404C29.3363 29.9787 28.9533 29.2921 28.181 28.1344C27.2828 26.7882 27.0625 26.4284 26.841 25.9536ZM14.3986 31.0581C15.6285 30.0203 17.157 29.2835 18.5509 29.0571C19.1506 28.9592 20.1517 28.9984 20.7073 29.1404C21.5982 29.368 22.3961 29.8795 22.811 30.4878C23.2148 31.0825 23.3899 31.6014 23.5698 32.7542C23.6432 33.2095 23.7203 33.666 23.7435 33.77C23.8781 34.3672 24.1437 34.8457 24.4717 35.0856C24.9918 35.4662 25.8889 35.4894 26.77 35.1468C26.8621 35.1045 26.9591 35.0741 27.0588 35.0562C27.0906 35.088 26.6476 35.3854 26.3343 35.5421C25.9646 35.7399 25.5506 35.8402 25.1313 35.8333C24.3236 35.8333 23.653 35.4234 23.0937 34.5851C22.9835 34.4198 22.7363 33.9266 22.543 33.4873C21.9531 32.1411 21.6618 31.7299 20.9765 31.2808C20.3781 30.8892 19.6083 30.8194 19.0294 31.1033C18.2682 31.4766 18.0565 32.4495 18.6011 33.0651C18.8177 33.3099 19.2216 33.5216 19.552 33.562C19.6962 33.5811 19.8427 33.569 19.9818 33.5266C20.1209 33.4841 20.2492 33.4124 20.3582 33.3161C20.4671 33.2198 20.5541 33.1012 20.6133 32.9684C20.6724 32.8356 20.7024 32.6916 20.7012 32.5462C20.7012 32.1399 20.5445 31.9098 20.1529 31.7324C19.6181 31.4913 19.0429 31.7728 19.0454 32.2757C19.0466 32.4899 19.1396 32.6245 19.355 32.7224C19.4933 32.7836 19.4957 32.7897 19.3831 32.7665C18.8924 32.6637 18.7773 32.0726 19.1726 31.6798C19.6462 31.2074 20.6265 31.4154 20.9631 32.0591C21.105 32.3296 21.1209 32.8693 20.9973 33.1948C20.722 33.923 19.9167 34.3048 19.1004 34.0968C18.5448 33.9548 18.3184 33.8018 17.649 33.1116C16.4852 31.9123 16.0336 31.6798 14.3545 31.4179L14.0327 31.3677L14.3986 31.0581Z" fill="white"/>
<path fill-rule="evenodd" clip-rule="evenodd" d="M9.13745 7.3677L9.25494 7.51088C13.7928 13.0669 16.1376 15.9502 16.2869 16.1558C16.5317 16.496 16.4399 16.8008 16.0189 17.0406C15.7851 17.174 15.303 17.3086 15.0631 17.3086C14.7902 17.3086 14.483 17.1777 14.2591 16.966C14.1012 16.8154 13.4636 15.8633 11.9914 13.5785C11.3019 12.4986 10.6035 11.4245 9.89621 10.3562C9.83624 10.2999 9.83747 10.3011 11.8763 13.9493C13.1564 16.2403 13.5896 17.0492 13.5896 17.1581C13.5896 17.3784 13.5285 17.4934 13.2568 17.7969C12.804 18.3024 12.602 18.8702 12.4552 20.0451C12.2912 21.3631 11.831 22.2932 10.5534 23.8854C9.80687 24.8179 9.68449 24.9892 9.4948 25.3649C9.25738 25.8373 9.19252 26.1029 9.1656 26.7001C9.13745 27.3316 9.19252 27.7403 9.38588 28.3437C9.55477 28.8723 9.73099 29.2224 10.1814 29.9199C10.5705 30.5233 10.7945 30.9712 10.7945 31.1462C10.7945 31.2857 10.8214 31.2857 11.4247 31.1498C12.8676 30.8243 14.0388 30.2503 14.6984 29.5479C15.1059 29.1134 15.2014 28.8736 15.2051 28.2776C15.2063 27.8884 15.1928 27.8064 15.0876 27.5825C14.9162 27.2178 14.6042 26.9143 13.9164 26.4443C13.0145 25.8275 12.6302 25.3307 12.5237 24.649C12.4356 24.0897 12.5372 23.6944 13.0365 22.6493C13.5517 21.5675 13.6802 21.1073 13.7671 20.0169C13.8222 19.312 13.8993 19.0342 14.1024 18.8115C14.3129 18.5789 14.5038 18.4994 15.0264 18.4284C15.8782 18.3122 16.4203 18.0919 16.8658 17.6819C17.2525 17.3246 17.414 16.9807 17.4385 16.4642L17.4581 16.0726L17.2415 15.8205C16.9306 15.4583 14.3594 12.6215 9.52662 7.30773L9.3969 7.16699L9.13745 7.3677ZM11.235 27.416C11.3204 27.2649 11.3459 27.0871 11.3065 26.918C11.2671 26.749 11.1656 26.6009 11.0221 26.5031C10.7431 26.317 10.3086 26.4052 10.3086 26.6475C10.3086 26.7209 10.349 26.7747 10.4408 26.8225C10.5962 26.902 10.6072 26.9926 10.4861 27.1749C10.3625 27.361 10.3723 27.5249 10.5142 27.6363C10.7419 27.815 11.0637 27.7159 11.235 27.416ZM17.9953 18.634C17.5951 18.7564 17.2072 19.1811 17.086 19.6253C17.0126 19.8958 17.0542 20.3718 17.1644 20.5187C17.3418 20.7561 17.5144 20.8185 17.9794 20.8148C18.8899 20.8087 19.6805 20.4183 19.7735 19.93C19.8494 19.5298 19.5006 18.9755 19.0221 18.7307C18.7749 18.6059 18.2499 18.5557 17.9953 18.634ZM19.06 19.4662C19.2008 19.2667 19.1384 19.0501 18.9009 18.9057C18.4457 18.6279 17.7579 18.8568 17.7579 19.2875C17.7579 19.5005 18.1165 19.7342 18.4445 19.7342C18.6648 19.7342 18.9634 19.6033 19.06 19.4662Z" fill="white"/>
</svg>
