<svg width="43" height="43" viewBox="0 0 43 43" fill="none" xmlns="http://www.w3.org/2000/svg">
<rect width="43" height="43" rx="21.5" fill="#345D9D"/>
<path d="M20.1537 27.4274C24.2106 27.5039 28.1932 27.5784 32.25 27.7294C32.1014 28.3312 31.9506 28.8566 31.8762 29.384C31.6489 30.1369 31.4238 30.8153 31.2751 31.5682C31.1986 31.9446 31.0478 32.0191 30.674 32.0191H11.2881C11.9657 29.384 12.6411 26.9021 13.3165 24.267C12.2651 24.6434 11.3624 25.0199 10.311 25.4707C10.6127 24.3435 10.9121 23.3652 11.2881 22.3104C11.2881 22.1615 11.5132 22.0849 11.6641 22.0849C12.3417 21.785 13.0914 21.5575 13.7668 21.2555C13.9919 21.1832 14.2193 20.9577 14.2193 20.7302L17.3712 8.9925C17.4477 8.54163 17.5963 8.39062 18.1231 8.39062H24.9603C24.1341 11.4744 23.3822 14.5625 22.5559 17.7973C23.7581 17.272 24.886 16.819 26.1625 16.3682C26.0117 16.97 25.7866 17.4953 25.7123 18.0228C25.5614 19.2287 24.886 19.905 23.6838 20.207C23.1592 20.3558 22.6303 20.5813 22.1057 20.8089C21.9193 20.9203 21.7646 21.0753 21.6554 21.2597C21.1286 23.2908 20.6018 25.2474 20.1516 27.2785V27.4295L20.1537 27.4274Z" fill="white"/>
</svg>
