<svg width="43" height="43" viewBox="0 0 43 43" fill="none" xmlns="http://www.w3.org/2000/svg">
<g id="TezosBadge">
<rect width="43" height="43" rx="21.5" fill="#2C7DF7"/>
<path id="Vector" d="M23.7931 35.4754C21.7605 35.4754 20.2828 34.9885 19.3486 34.0147C18.4201 33.0409 17.9559 31.9935 17.9559 30.8668C17.9559 30.4535 18.0351 30.1081 18.1993 29.8307C18.3578 29.5533 18.59 29.3212 18.8617 29.1683C19.1448 29.0041 19.4902 28.9248 19.8978 28.9248C20.3111 28.9248 20.6565 29.0041 20.9339 29.1683C21.217 29.3325 21.4378 29.5533 21.5963 29.8307C21.7605 30.1138 21.8398 30.4592 21.8398 30.8668C21.8398 31.365 21.7209 31.767 21.4831 32.0841C21.2453 32.3955 20.9622 32.6049 20.6395 32.7012C20.9226 33.0918 21.3642 33.3636 21.97 33.5278C22.5758 33.7033 23.1816 33.7882 23.7874 33.7882C24.631 33.7882 25.3897 33.5618 26.0747 33.1088C26.7541 32.6559 27.258 31.9822 27.5807 31.0989C27.9034 30.21 28.0676 29.2079 28.0676 28.0813C28.0676 26.8583 27.8865 25.8166 27.5298 24.9503C27.1844 24.0728 26.6692 23.4274 25.9898 23.0027C25.3274 22.5894 24.563 22.3686 23.7874 22.3686C23.2665 22.3686 22.6211 22.5838 21.8398 23.0197L20.413 23.7331V23.0197L26.8334 14.4592H17.9559V23.3424C17.9559 24.0784 18.1201 24.6842 18.4428 25.1598C18.7655 25.6354 19.2637 25.8732 19.9375 25.8732C20.4583 25.8732 20.9509 25.6977 21.4265 25.3523C21.9077 25.0013 22.321 24.5767 22.6607 24.0898C22.706 23.9935 22.757 23.9199 22.8249 23.8803C22.8815 23.8293 22.9608 23.801 23.0344 23.801C23.1533 23.801 23.2948 23.8576 23.4534 23.9822C23.6062 24.152 23.6798 24.3559 23.6798 24.5823C23.6628 24.7352 23.6345 24.8881 23.6006 25.0353C23.2326 25.8562 22.723 26.4847 22.0776 26.9149C21.4435 27.3396 20.7018 27.566 19.9375 27.566C18.0125 27.566 16.682 27.1867 15.946 26.4337C15.2099 25.675 14.8419 24.6503 14.8419 23.3537V14.4649H10.3013V12.8117H14.8419V9.04667L13.8059 8.01058V7.16699H16.8235L17.9559 7.75015V12.806L29.6925 12.7777L30.8588 13.944L23.6628 21.14C24.0988 20.9645 24.5574 20.8569 25.0273 20.8173C25.803 20.8173 26.6805 21.0664 27.6543 21.5647C28.6395 22.0516 29.3925 22.7196 29.9247 23.5746C30.4569 24.4181 30.7966 25.2278 30.9438 26.0091C31.108 26.7904 31.1872 27.4811 31.1872 28.0869C31.1872 29.4684 30.8928 30.7592 30.3097 31.9482C29.7265 33.1371 28.8376 34.0204 27.6487 34.6092C26.4597 35.181 25.1745 35.4754 23.7931 35.4754Z" fill="white"/>
</g>
</svg>
