<svg width="43" height="43" viewBox="0 0 43 43" fill="none" xmlns="http://www.w3.org/2000/svg">
<rect width="43" height="43" rx="21.5" fill="#FF9900"/>
<path d="M11.364 11.9329C12.1824 11.9365 12.9822 11.8709 13.8006 11.8745C14.619 11.8781 15.4189 11.8125 16.2373 11.8161C16.4638 11.8297 16.5146 11.7418 16.5282 11.5152C16.4897 10.2622 16.4698 9.0786 16.4313 7.82563C16.4449 7.59905 16.4957 7.51114 16.7222 7.52474C17.4713 7.54696 18.1324 7.51843 18.8629 7.47132C19.0895 7.48492 19.1081 7.55425 19.0759 7.71149C19.0958 8.89513 19.1343 10.1481 19.1542 11.3317C19.1728 11.4011 19.1914 11.4704 19.1592 11.6277C19.751 11.6177 20.4122 11.5892 21.004 11.5792C21.0733 11.5606 21.1055 11.4034 21.1563 11.3155C21.1227 10.3584 21.1078 9.47069 21.1436 8.49505L21.1287 7.60732C21.0915 7.46865 21.1423 7.38074 21.2995 7.41292C22.0486 7.43514 22.7791 7.38803 23.5975 7.39167C23.6668 7.37309 23.6854 7.44243 23.7547 7.42385C23.7882 8.38091 23.8032 9.26864 23.8181 10.1564C23.8417 10.5216 23.8652 10.8869 23.8194 11.2707C23.8058 11.4973 23.8938 11.548 24.1203 11.5616L26.687 11.9885C27.4918 12.2188 28.2644 12.6062 28.9355 13.1695C29.8382 14.0423 30.2047 15.1331 30.2247 16.3167C30.221 17.1351 30.1295 17.9027 29.7234 18.606C29.4189 19.1335 28.9385 19.5594 28.4396 19.9161C28.3703 19.9346 28.3195 20.0225 28.1808 20.0597C28.5139 20.1934 28.8284 20.2577 29.1615 20.3914C30.1607 20.7925 30.9197 21.4065 31.4571 22.3029C31.8001 23.0284 31.9537 23.879 31.9501 24.6974C31.9328 25.7423 31.8091 26.6672 31.3895 27.5971C30.8683 28.7028 30.0277 29.4482 28.9555 29.8841C27.5553 30.4822 26.1314 30.7151 24.689 30.8787C24.4625 30.8651 24.3424 30.9716 24.3288 31.1981C24.3487 32.3818 24.3872 33.6348 24.4071 34.8184C24.4121 35.1143 24.4306 35.1836 24.0468 35.1379C23.3857 35.1664 22.6366 35.1442 21.9755 35.1727C21.7489 35.1591 21.7303 35.0898 21.7625 34.9325C21.724 33.6796 21.6855 32.4266 21.7349 31.2244C21.6978 31.0857 21.7485 30.9978 21.5913 30.9656C20.9995 30.9756 20.4076 30.9855 19.7465 31.0141C19.775 31.6752 19.7342 32.3549 19.7628 33.0161C19.7913 33.6772 19.7505 34.357 19.779 35.0181C19.7468 35.1754 19.7654 35.2447 19.5388 35.2311C18.7898 35.2089 18.0593 35.256 17.3288 35.3031C17.1022 35.2895 17.0837 35.2202 17.1158 35.0629C17.0773 33.81 17.0389 32.557 17.0883 31.3548C17.0697 31.2854 17.1205 31.1975 17.0833 31.0589C15.3772 31.0701 13.671 31.0814 11.8956 31.1113C11.9599 30.7968 11.9735 30.5702 12.0379 30.2558C12.148 29.5574 12.2582 28.8591 12.3175 28.2487C12.3311 28.0222 12.4005 28.0036 12.6085 27.9479C13.131 27.9565 13.7228 27.9465 14.2267 27.8858C14.8185 27.8759 15.1602 27.4871 15.0995 26.9831C15.0534 23.2057 15.0072 19.4282 14.8732 15.5999C14.8632 15.0081 14.3494 14.477 13.6696 14.4362C12.9899 14.3954 12.3287 14.4239 11.7369 14.4339C11.5983 14.471 11.5103 14.4203 11.5425 14.263C11.5462 13.4446 11.5312 12.5569 11.5349 11.7385C11.3133 12.0208 11.3133 12.0208 11.364 11.9329ZM19.4887 28.1107C19.558 28.0921 19.646 28.1429 19.646 28.1429C20.8296 28.123 22.1011 28.1538 23.2984 27.9073C24.149 27.7537 24.9116 27.5494 25.6 27.0677C26.8058 26.2987 26.8961 24.4167 25.8361 23.5118C25.3409 23.05 24.6933 22.852 24.0458 22.6539C22.612 22.295 21.0817 22.4078 19.6207 22.502C19.3941 22.4884 19.4127 22.5577 19.3991 22.7843C19.4462 23.5148 19.4054 24.1945 19.4525 24.925C19.4353 25.97 19.4874 26.9964 19.4887 28.1107ZM23.4178 19.4782C23.5564 19.441 23.8845 19.2788 24.1433 19.1352C25.3863 18.5049 25.6709 16.7938 24.6617 15.8009C24.1479 15.2698 23.4124 15.021 22.7141 14.9108C21.632 14.7549 20.6056 14.807 19.4913 14.8084C19.2647 14.7948 19.214 14.8827 19.2004 15.1092C19.2438 16.6581 19.2687 18.1377 19.2428 19.7051C19.2107 19.8624 19.2986 19.9131 19.4558 19.9453C19.7517 19.9403 19.9783 19.9539 20.2742 19.9489C21.3514 19.809 22.3084 19.7754 23.4178 19.4782Z" fill="white"/>
</svg>
