<svg width="21" height="34" viewBox="0 0 21 34" fill="none" xmlns="http://www.w3.org/2000/svg">
<g id="ravencoin-rvn-logo" clip-path="url(#clip0_1207_354)">
<path id="Vector" d="M9.10375 27.5885L0 34.0011L5.77935 7.90904L9.10375 27.5885ZM9.28787 27.5283L14.832 27.5985L5.99415 8.0094L9.28787 27.5283ZM15.3536 27.0968L19.5986 11.6623L17.9927 9.73549L15.3536 27.0968ZM13.3078 2.90137L6.32148 7.51766L16.53 4.27622L13.3078 2.90137ZM12.4282 2.90137L8.09109 3.04186L7.45689 4.81813L12.4282 2.90137Z" fill="#384182"/>
<path id="Vector_2" d="M17.6856 9.14314L6.50537 7.63783L16.5809 4.52684L17.6856 9.14314ZM15.0363 3.34266L15.65 1.70689L12.4279 0.332031L15.0363 3.34266ZM15.9671 1.54632L16.6934 4.11539L20.9895 3.00146L15.9671 1.54632Z" fill="#F79534"/>
<path id="Vector_3" d="M15.0777 27.497L6.11719 7.82763L17.7986 9.43329L15.0777 27.497ZM12.9706 2.90024L7.44695 5.01771L6.11719 7.42621L12.9706 2.90024ZM9.54388 1.29457L8.16297 2.78985L12.7455 2.67946L9.54388 1.29457ZM11.9579 0.13046L9.76892 1.12397L14.7606 3.28158L11.9579 0.13046ZM14.4538 0H12.1011L15.7426 1.38489L14.4538 0ZM15.8142 1.83648L15.2516 3.48229L16.3768 4.01417L15.8142 1.83648Z" fill="#F0513A"/>
</g>
<defs>
<clipPath id="clip0_1207_354">
<rect width="21" height="34" fill="white"/>
</clipPath>
</defs>
</svg>
