<svg width="96" height="36" viewBox="0 0 96 36" fill="none" xmlns="http://www.w3.org/2000/svg">
<g clip-path="url(#clip0_533_8148)">
<path d="M35.3524 13.1862C35.342 13.1478 35.3306 13.1094 35.3203 13.071C35.2881 12.9589 35.2559 12.8468 35.2217 12.7358C35.2123 12.7036 35.203 12.6725 35.1926 12.6403C35.1573 12.5282 35.122 12.4172 35.0847 12.3051C35.0214 12.1142 34.956 11.9242 34.8854 11.7364C34.3188 11.9678 33.7117 12.2169 33.0714 12.4795C26.3994 15.2109 16.1719 19.3984 11.8817 21.1533C8.26499 22.6322 5.37681 22.8294 3.75058 21.7075C2.53118 20.8659 1.9386 19.2376 1.99256 16.8672C2.18144 14.17 3.0397 11.6534 4.40232 9.48543C9.70856 0.694284 21.6951 0.377757 21.6951 0.377757C20.4933 0.127649 19.2563 0 17.9995 0C13.1914 0 8.67076 1.87218 5.27095 5.27199C2.16069 8.38329 0.330018 12.4328 0.0415117 16.7832C0.0145291 17.1869 0 17.5916 0 17.9995C0 22.8076 1.87218 27.3282 5.27199 30.728C8.6718 34.1278 13.1914 36 18.0005 36C22.8097 36 27.3292 34.1278 30.7291 30.728C34.1289 27.3282 36.001 22.8076 36.001 17.9995C36.001 16.4988 35.8184 15.0262 35.4645 13.6075C35.4292 13.4664 35.3919 13.3263 35.3524 13.1862ZM12.6185 22.9581C16.5829 21.336 25.6169 17.6383 32.2318 14.9307C31.7855 15.7578 31.1784 16.7386 30.3731 17.7722C27.4693 21.4989 23.506 24.11 18.5921 25.5318L18.4322 25.5785L11.7343 30.3606L12.5698 27.9436L13.0108 26.6651L11.6575 26.6495C11.6357 26.6495 9.46156 26.6142 7.18568 25.7497C6.05137 25.319 5.09972 24.7669 4.33071 24.0976C4.98556 24.2844 5.70579 24.3767 6.48621 24.3767C8.24527 24.3767 10.3084 23.9035 12.6185 22.9581ZM32.6168 18.0182C32.3148 18.9605 31.8841 19.9796 31.2718 21.0278C28.1699 26.3392 21.7438 30.1541 12.6237 32.1238L19.2967 27.3593C25.867 25.4166 29.8148 21.6909 31.9734 18.8961C32.2027 18.5983 32.4175 18.3056 32.6189 18.0182H32.6168ZM4.44279 26.581C5.08104 26.9691 5.78362 27.3085 6.54951 27.596C7.98271 28.1335 9.35467 28.3836 10.3136 28.4999L9.28617 31.4721C7.34239 30.2102 5.68711 28.5393 4.44383 26.581H4.44279ZM17.9995 34.05C16.8206 34.05 15.6717 33.9223 14.5654 33.6795C19.0082 32.5909 22.8034 31.0591 25.8794 29.108C29.0167 27.1175 31.4213 24.6901 33.0267 21.8912C33.3692 21.2945 33.6598 20.706 33.9078 20.1342C32.8607 27.9789 26.1275 34.05 18.0005 34.05H17.9995Z" fill="#0173E5"/>
<path d="M26.2728 18.9199L22.9768 20.5752H25.5038L26.2728 18.9199Z" fill="#0173E5"/>
<path d="M25.0725 12.484C26.1236 12.2338 26.7728 11.1789 26.5226 10.1279C26.2724 9.07685 25.2175 8.42764 24.1665 8.67784C23.1155 8.92803 22.4663 9.98289 22.7165 11.0339C22.9666 12.085 24.0215 12.7342 25.0725 12.484Z" fill="#0173E5"/>
<path d="M28.0823 7.41168C28.8495 7.09216 29.2125 6.2112 28.893 5.444C28.5734 4.6768 27.6925 4.31387 26.9253 4.63338C26.1581 4.9529 25.7951 5.83386 26.1147 6.60106C26.4342 7.36826 27.3151 7.73119 28.0823 7.41168Z" fill="#0173E5"/>
<path d="M24.5294 4.93992C24.7614 4.38399 24.4988 3.74527 23.9429 3.51329C23.3869 3.28131 22.7482 3.54392 22.5162 4.09985C22.2842 4.65578 22.5469 5.2945 23.1028 5.52648C23.6587 5.75846 24.2974 5.49585 24.5294 4.93992Z" fill="#0173E5"/>
</g>
<path d="M49.7588 17.8174L55.692 25.0871H52.9178L47.3288 18.3439V25.0871H45V10.9121H47.3288V17.2706L52.7153 10.9121H55.4895L49.7588 17.8174Z" fill="#0173E5"/>
<path d="M68.0352 25.0871H65.7064V15.4684L59.0239 25.0871H57.2014V10.9121H59.5302V20.5309L66.2127 10.9121H68.0352V25.0871Z" fill="#0173E5"/>
<path d="M69.7525 10.9121H80.08V13.1396H76.0907V25.0871H73.762V13.1396H69.7525V10.9121Z" fill="#0173E5"/>
<path d="M87.0265 25.0871H81.802V10.9121H84.1308V15.7721H87.0265C88.363 15.7721 89.4768 16.2176 90.3678 17.1289C91.279 18.0199 91.7245 19.1134 91.7245 20.4296C91.7245 21.7459 91.279 22.8394 90.3678 23.7506C89.4768 24.6416 88.363 25.0871 87.0265 25.0871ZM95.4303 25.0871H93.1015V10.9121H95.4303V25.0871ZM84.1308 17.9591V22.9001H87.0265C88.4035 22.9001 89.3958 21.8674 89.3958 20.4296C89.3958 18.9919 88.4035 17.9591 87.0265 17.9591H84.1308Z" fill="#0173E5"/>
<defs>
<clipPath id="clip0_533_8148">
<rect width="36" height="36" fill="white"/>
</clipPath>
</defs>
</svg>
