<svg width="24" height="24" viewBox="0 0 24 24" fill="none" xmlns="http://www.w3.org/2000/svg">
<path fill-rule="evenodd" clip-rule="evenodd" d="M4.17882 12C4.17882 11.5858 4.51461 11.25 4.92882 11.25L19.071 11.25C19.4852 11.25 19.821 11.5858 19.821 12C19.821 12.4142 19.4852 12.75 19.071 12.75L4.92882 12.75C4.51461 12.75 4.17882 12.4142 4.17882 12Z" fill="#1C1B1E"/>
<path fill-rule="evenodd" clip-rule="evenodd" d="M11.9999 4.17893C12.4141 4.17893 12.7499 4.51472 12.7499 4.92893V19.0711C12.7499 19.4853 12.4141 19.8211 11.9999 19.8211C11.5857 19.8211 11.2499 19.4853 11.2499 19.0711V4.92893C11.2499 4.51472 11.5857 4.17893 11.9999 4.17893Z" fill="#1C1B1E"/>
</svg>
