<svg width="43" height="43" viewBox="0 0 43 43" fill="none" xmlns="http://www.w3.org/2000/svg">
<g id="logo">
<rect width="43" height="43" rx="21.5" fill="white"/>
<g id="Group 299">
<path id="path" d="M38.7524 20.2539L39.2194 18.7874L37.7007 18.8354C36.9892 18.8093 36.304 18.5692 35.728 18.1459H35.9331C36.8583 18.1415 37.705 17.6134 38.1152 16.7842L38.783 15.357C38.2593 15.3615 37.7356 15.3309 37.2162 15.2654C36.7187 15.1476 36.2735 14.877 35.9374 14.493C35.4835 14.0085 34.8551 13.7335 34.1917 13.7292C33.9342 13.7292 33.6767 13.7728 33.4279 13.8513C33.4628 13.7335 33.4934 13.6157 33.5152 13.4935C33.62 12.6424 33.3799 11.7827 32.8519 11.1062L31.6997 9.68777L30.9927 11.3462C30.8792 11.5819 30.709 11.787 30.4908 11.9354C30.3685 11.3419 30.0805 10.8007 29.6528 10.373C28.937 9.63976 27.955 9.22951 26.9294 9.23824C26.7505 9.23824 26.5715 9.25133 26.397 9.27752L25.0179 9.54811C25.1357 9.08549 25.3233 8.64469 25.5765 8.2388L26.3358 7.05606L24.4243 7.235L23.8133 5.9257L22.6349 6.56725L21.5438 5.48926L20.4527 6.56725L19.2743 5.95625L18.6633 7.235L16.7518 7.01678L17.5111 8.20388C17.7643 8.60977 17.9519 9.05057 18.0697 9.5132L16.7605 9.2557H16.7168C16.5336 9.22951 16.3503 9.21641 16.1669 9.21641C15.1413 9.20769 14.1593 9.61794 13.4436 10.3511C13.0115 10.7832 12.7147 11.3331 12.5969 11.9354C12.3874 11.7914 12.2172 11.595 12.1037 11.3637L11.3923 9.69214L10.2314 11.1149C9.71204 11.7914 9.48073 12.6468 9.58111 13.4935C9.60293 13.6157 9.63348 13.7335 9.66839 13.8513C9.41962 13.7728 9.16212 13.7292 8.90463 13.7292C8.24125 13.7335 7.61278 14.0085 7.15889 14.493C6.8272 14.8726 6.38639 15.1433 5.89323 15.2654C5.36951 15.344 4.83705 15.3745 4.3046 15.357L4.95489 16.806C5.36514 17.6353 6.21182 18.1633 7.13707 18.1677H7.34219C6.77483 18.5823 6.09835 18.8223 5.39569 18.8529L3.86816 18.7874L4.33515 20.2539C4.6843 21.4017 5.675 22.244 6.86647 22.3968C6.74427 23.1692 6.25546 23.837 5.55717 24.1862L4.38752 24.6618L5.01599 25.7573C5.53535 26.5647 6.43004 27.0448 7.38584 27.036C7.6346 27.036 7.88337 27.0099 8.12777 26.9576C8.18888 27.2238 8.26744 27.4899 8.35472 27.7475C8.57294 28.3235 8.58603 28.952 8.39837 29.5369L7.831 30.7283L9.10103 31.0644C9.38471 31.1386 9.68149 31.1735 9.97389 31.1735C10.1834 31.1735 10.3885 31.1516 10.5936 31.1036C10.742 31.0687 10.8904 31.0251 11.0301 30.9683C11.1916 31.2608 11.3967 31.5314 11.628 31.7714C12.4398 32.605 13.592 33.0283 15.054 33.0283H16.0971L13.9455 33.923L15.5777 34.7304C16.2368 35.0534 16.9089 35.3458 17.5941 35.6033L17.3976 36.1706L17.9607 36.4282C18.8947 36.7948 19.8854 36.9999 20.8892 37.0348H22.229C23.2285 36.9999 24.2148 36.7904 25.1444 36.4238L25.69 36.1706L25.4979 35.6033C26.1919 35.337 26.8727 35.0359 27.536 34.6998L29.1378 33.923L26.9905 33.0502H28.0379C29.5 33.0502 30.6566 32.6138 31.464 31.7933C31.6997 31.5532 31.9004 31.2826 32.0619 30.9902C32.2016 31.0469 32.35 31.0906 32.4984 31.1255C32.7035 31.1735 32.9086 31.1953 33.1181 31.1953C33.4105 31.1953 33.7073 31.1561 33.991 31.0862L35.2653 30.7501L34.7111 29.5805C34.5015 28.987 34.5103 28.3367 34.7329 27.7475C34.8246 27.4812 34.8987 27.2107 34.9598 26.9401C35.2042 26.9925 35.4574 27.0186 35.7061 27.0186C36.6706 27.0274 37.5697 26.5298 38.0803 25.7093L38.7 24.6269L37.5479 24.1556C36.8496 23.8064 36.3608 23.1387 36.2386 22.3662C37.43 22.2091 38.4208 21.3712 38.7699 20.219L38.7524 20.2539Z" fill="white"/>
<path id="path_2" d="M26.7898 24.8886H16.3153V28.8165C16.3153 30.4313 17.4806 31.4351 19.2045 31.4351C20.6448 31.4351 21.0244 31.4919 21.5569 32.0243C21.8929 31.6621 22.3687 31.457 22.8662 31.4656V31.4046L23.1979 30.3833L22.6349 29.7679C22.4079 29.8378 22.1723 29.864 21.9366 29.8509C21.5831 29.8465 21.2339 29.8115 20.8891 29.7417H20.7801C20.732 29.7417 20.732 29.7417 20.7189 29.7679L20.6535 29.877L20.5356 30.0734L20.3087 30.0211L19.3005 29.7854L19.1609 30.0123V30.0385L19.283 30.1738L19.2307 30.3484C19.1391 30.5622 19.0081 30.7543 18.8423 30.9202L18.5892 31.1907L18.3578 30.9027L18.1876 30.6888C18.0043 30.4488 17.9606 30.1346 18.0654 29.8509L17.7817 29.9687L17.6552 29.6894L17.5854 29.4929C17.4064 29.0784 17.5417 28.5983 17.9039 28.3364L18.7157 27.9L19.4882 28.0527C19.4882 27.9786 19.5362 27.7123 19.5581 27.6468H19.5144L19.0779 27.8127L18.6415 27.5159C18.5542 27.4286 18.5498 27.2846 18.6415 27.193L19.0561 26.5645L18.0043 25.2552L19.5798 25.8749L19.6889 25.744L19.9072 25.4822L20.1559 25.7178C20.2214 25.7833 20.265 25.8618 20.2868 25.9535C20.7233 26.128 21.5307 26.6387 21.5961 27.4679L21.3474 27.5683C21.3779 27.6119 21.4173 27.6468 21.4653 27.6686L22.6174 27.7821L22.7222 27.7516C22.9186 27.6774 23.1281 27.6382 23.3376 27.6337C23.547 27.6337 23.7521 27.6818 23.9399 27.7735C24.0228 27.7429 24.1144 27.7254 24.2017 27.7211H24.2585C24.8738 27.7211 25.1837 28.1837 25.4281 28.5503L25.5546 28.7336C25.7685 29.0391 26.0522 29.4843 26.0653 29.5017L26.1918 29.6981L26.0347 29.8814C25.8907 30.0734 25.6638 30.1826 25.4237 30.1826C25.3539 30.1869 25.2841 30.1869 25.2142 30.1826C25.1531 30.1695 25.092 30.152 25.0309 30.1258C25.0309 30.1869 25.0309 30.2611 24.996 30.3222L24.8171 31.3522C26.0042 31.1121 26.8421 30.0473 26.7941 28.834L26.7898 24.8886ZM16.3022 24.57H24.4592C24.1275 24.2209 24.014 23.719 24.1624 23.2607C24.0533 23.2084 23.9485 23.1386 23.8569 23.06C23.5383 23.2956 22.5476 24.0026 22.3119 24.1816L22.2595 24.2165L19.0561 23.6491H18.9907C18.8859 23.6535 18.7811 23.6535 18.6764 23.6491C18.6458 23.7932 18.5193 23.8936 18.3753 23.8936H18.3229C18.1527 23.863 18.0349 23.7015 18.061 23.5313V23.4615C17.6464 23.1647 17.4501 22.6497 17.5591 22.1522V22.0954L17.6071 22.0605C17.6071 22.0605 17.6683 22.0169 17.7512 21.9689L17.5199 21.934C17.4326 21.9165 17.3758 21.838 17.3889 21.7507C17.402 21.6633 17.4806 21.6066 17.5679 21.6197H17.5722L18.1265 21.707L18.1788 19.7561L19.0038 18.8832L19.5187 19.9656L18.9776 21.8423L19.4663 21.9209C19.5536 21.9383 19.6104 22.0169 19.5973 22.1042C19.5842 22.1827 19.5187 22.2351 19.4402 22.2351H19.414L19.0168 22.1697V22.2002C19.0605 22.2787 19.126 22.3399 19.2089 22.3791L21.6486 22.4184L22.2726 21.8031C21.7969 21.6372 21.4565 21.2182 21.3998 20.7163C21.0942 20.5985 20.8455 20.3715 20.7058 20.0791C20.588 19.8041 20.5662 19.4943 20.6491 19.2063C20.265 19.0534 19.9159 18.8222 19.6322 18.5254H16.0098C16.1844 18.9531 16.2847 19.407 16.3022 19.8653V24.57Z" fill="#FCE527"/>
<path id="path_3" d="M19.6498 26.6045C19.5974 26.6045 19.5494 26.6437 19.545 26.6961V26.7005C19.5406 26.7572 19.5843 26.8096 19.641 26.8139H19.6454C19.7064 26.8139 19.7501 26.766 19.7501 26.7092C19.7501 26.6481 19.7064 26.6045 19.6498 26.6045Z" fill="#222220"/>
<path id="path_4" d="M19.6451 26.5998C19.6494 26.5998 19.6494 26.6042 19.6494 26.6042C19.6538 26.6042 19.6538 26.5998 19.6581 26.5998H19.6451ZM26.7763 33.7573L26.1741 33.526L26.3399 32.9019L26.5232 32.221C25.6984 32.6444 24.8342 32.9848 23.9439 33.238C23.5075 33.3601 23.1932 33.4169 23.1932 33.4169V33.8577C22.6564 33.945 22.1152 33.993 21.5697 33.9973H21.5217C20.9761 33.993 20.4349 33.945 19.8981 33.8577V33.4213C19.8981 33.4213 19.5795 33.3601 19.1431 33.238C18.2528 32.9848 17.3886 32.6444 16.5638 32.221L16.7427 32.9019L16.9129 33.526L16.3062 33.7573L15.6516 34.0061C16.5507 34.4731 17.489 34.8615 18.4579 35.167L18.2266 35.7955C19.2784 36.197 20.4044 36.3934 21.5304 36.3672H21.5566C22.6825 36.3934 23.8086 36.197 24.8604 35.7955L24.6334 35.167C25.598 34.8615 26.5363 34.4731 27.4353 34.0061L26.7763 33.7573ZM16.3805 34.0453L17.358 33.7181L17.0657 32.7579C17.7072 33.0764 18.3706 33.3427 19.0558 33.5522L18.5757 34.8615C17.8207 34.6607 17.0831 34.3858 16.3805 34.0453ZM21.5697 36.0573L21.5479 36.0399C20.5877 36.0355 19.6319 35.9045 18.7067 35.6514L19.2958 34.0541C20.0291 34.2374 20.7841 34.3378 21.5434 34.3421H21.5915C22.3509 34.3334 23.1059 34.2374 23.8391 34.0541L24.4283 35.6514C23.4987 35.9133 22.5342 36.0486 21.5697 36.0573ZM24.5462 34.8877V34.8746L24.0661 33.5653C24.7513 33.3558 25.4147 33.0896 26.0562 32.771L25.7638 33.7311L26.7545 34.0628C26.0475 34.4076 25.3055 34.687 24.5462 34.8877ZM21.5435 8.84559C22.5298 8.8194 23.4987 9.11617 24.3017 9.68791C24.4284 9.04198 24.6684 8.42224 25.0132 7.85924L24.0224 7.97272L23.5075 6.86853L22.508 7.38353L21.5435 6.42773L20.579 7.38353L19.5795 6.86853L19.0645 7.97272L18.0738 7.85924C18.4186 8.42224 18.6587 9.04198 18.7852 9.68791C19.5882 9.11617 20.5571 8.8194 21.5435 8.84559ZM19.0209 8.35677L19.2959 8.38733L19.4137 8.13856L19.7585 7.39662L20.4 7.72831L20.6488 7.85487L20.8496 7.67157L21.5435 6.96891L22.2374 7.67157L22.4382 7.86797L22.687 7.74141L23.3242 7.40971L23.6733 8.15165L23.7912 8.40042L24.0661 8.36987L24.328 8.33932C24.2232 8.57936 24.1316 8.82813 24.0574 9.08126C22.4818 8.27386 20.6095 8.27386 19.034 9.08126C18.9598 8.82813 18.8681 8.57936 18.7634 8.33932L19.0209 8.35677ZM34.4883 17.8536L34.3704 17.7096C33.5586 16.6752 32.7861 15.6932 31.4071 15.2437C31.4638 15.1957 31.5205 15.152 31.5816 15.1128C32.2362 14.7418 32.6989 14.1046 32.8473 13.367C32.9214 12.6993 32.7338 12.0315 32.3235 11.4991L31.8871 10.9535L31.6122 11.6038C31.6122 11.6431 31.1277 12.6862 30.1501 12.6862H29.862C29.9144 12.001 29.6657 11.3245 29.1812 10.8357C28.592 10.2334 27.7803 9.89737 26.9379 9.90173C26.7808 9.90173 26.6237 9.91483 26.471 9.93665L25.8032 10.0676L26.2178 10.6131C26.5408 11.0496 26.8331 11.8046 26.4884 12.2105C26.3226 12.3545 26.1349 12.468 25.9297 12.5465C25.4933 12.7517 24.8649 13.0441 24.8649 13.7773C24.8649 14.253 25.2358 14.7505 25.9036 15.1738C27.8719 16.4221 29.0895 17.7096 29.6177 19.1586C30.4337 21.3669 29.3689 22.6239 28.3345 23.2872L27.8719 23.584L28.2778 23.9549C28.64 24.2649 29.0852 24.4568 29.5609 24.5049H29.958C30.3639 24.5049 30.7654 24.4482 31.1539 24.3303C31.0579 24.5005 30.9401 24.662 30.8135 24.8103C30.2243 25.4955 29.3514 25.8709 28.448 25.8229H28.0596L28.029 26.2113C28.0246 26.7569 28.2647 27.2718 28.6793 27.6254C28.7884 27.7214 28.9106 27.8 29.0415 27.8611C28.3956 28.4895 28.029 29.3493 28.0159 30.2528C28.0159 30.7459 27.9024 31.2347 27.6885 31.6799L27.2521 32.3345H28.029C29.3121 32.3345 30.2941 31.981 30.975 31.2784C31.3285 30.9074 31.5904 30.4579 31.7431 29.9691C31.9962 30.1828 32.293 30.3313 32.616 30.4055C32.7687 30.4404 32.9258 30.4579 33.083 30.4579C33.3186 30.4579 33.5543 30.4273 33.7812 30.3749L34.2787 30.244L34.0605 29.7813C33.7856 29.0438 33.7856 28.2277 34.0605 27.4901C34.222 27.01 34.3355 26.5125 34.3966 26.0062C34.7894 26.207 35.2258 26.3074 35.6666 26.303C36.3911 26.3117 37.0676 25.9539 37.4603 25.3471L37.7004 24.9107L37.264 24.7274C35.8019 24.1208 35.479 22.4886 35.4135 21.6069C35.5576 21.6375 35.7015 21.655 35.8499 21.6593L35.9721 21.7422C37.5607 21.7422 38.0932 20.123 38.1151 20.0532L38.2939 19.4815H37.696C36.4391 19.4378 35.2651 18.8443 34.4883 17.8536ZM35.9765 21.3015H35.9154C35.5968 21.3058 35.2825 21.2185 35.012 21.0527C35.012 21.0527 34.7806 24.2081 37.1331 25.1857V25.1988C36.8232 25.6702 36.2907 25.9494 35.7277 25.9407C35.0906 25.98 34.4752 25.7094 34.0736 25.2163C34.0868 25.9582 33.9645 26.7001 33.7158 27.3984C33.3972 28.2407 33.3972 29.1747 33.7158 30.0171C33.5194 30.065 33.323 30.0912 33.1222 30.0912C33 30.0912 32.8734 30.0781 32.7556 30.0476C32.1752 29.9079 31.7125 29.4802 31.5249 28.9172C31.5249 28.9172 31.6165 31.9461 28.0857 31.9461H28.0596C28.3258 31.4399 28.4655 30.8768 28.4611 30.3051C28.6139 28.0662 30.1326 27.7476 30.1326 27.7476C29.7136 27.6952 29.3165 27.5468 28.9674 27.3112C28.6488 27.0449 28.4655 26.6521 28.4567 26.2376C29.4779 26.2811 30.4643 25.8578 31.132 25.081C31.5336 24.6227 31.7998 24.0641 31.9133 23.4661C31.3503 23.8895 30.6564 24.1033 29.9537 24.0728H29.5958C29.2161 24.0335 28.8539 23.8851 28.5615 23.6363C29.9057 22.7635 30.8484 21.2709 30.0147 19.0057C29.3427 17.1902 27.7322 15.8329 26.113 14.8117C25.5762 14.4799 25.2533 14.1046 25.2533 13.7816C25.2533 13.0223 26.3312 13.0004 26.7765 12.4723C27.287 11.8788 26.9684 10.9186 26.5233 10.3425C26.6498 10.3207 26.7808 10.312 26.9074 10.312C27.6362 10.3033 28.3389 10.5957 28.8452 11.1194C29.3601 11.6082 29.5565 12.3458 29.3601 13.0266L29.5958 13.0746C29.7398 13.1008 29.8839 13.1139 30.0322 13.1183H30.1282C31.4071 13.1183 31.9831 11.7784 31.9831 11.7784C31.9831 11.7784 33.3447 13.4544 31.3416 14.7636C30.9968 14.9862 30.844 15.2001 30.9052 15.4183L30.9356 15.5623L31.0797 15.5885C32.533 15.9813 33.2619 16.9851 34.1653 18.1242C35.0207 19.2109 36.3126 19.8656 37.696 19.9136H37.7222C37.7222 19.9136 37.2858 21.3015 35.9765 21.3015Z" fill="#222220"/>
<path id="path_5" d="M33.1748 15.4404C33.6636 15.7197 34.0869 16.0995 34.4187 16.5533C34.6674 16.9374 35.0209 17.2429 35.4399 17.4262C35.597 17.4786 35.7672 17.5048 35.933 17.5048C36.6008 17.5048 37.2118 17.1251 37.5173 16.5315L37.7704 15.9642L37.155 15.9292C36.4917 15.807 35.8938 15.4666 35.453 14.9559C35.1257 14.6024 34.6674 14.3973 34.183 14.393C33.8076 14.3973 33.4454 14.5108 33.1312 14.7116L32.5638 15.1087L33.1748 15.4404ZM34.1961 14.8163L34.183 14.8206C34.5539 14.8206 34.9031 14.9822 35.1519 15.2571C35.6625 15.8419 36.3608 16.2304 37.1289 16.3569C36.8933 16.7977 36.4349 17.0727 35.933 17.077C35.8109 17.077 35.6887 17.0552 35.5709 17.0159C34.8638 16.7759 34.6151 15.7066 33.3886 15.0608C33.6287 14.9036 33.908 14.8206 34.1961 14.8163ZM33.4629 21.0661L33.4542 21.0573C33.0963 18.1768 31.0058 16.095 28.6796 14.8337C28.4657 14.7159 28.265 14.6199 28.0729 14.5282C29.0331 14.7247 30.0326 14.489 30.805 13.8867C30.805 13.8867 29.4564 14.8774 26.6981 13.9783C27.4619 14.4759 28.9458 15.1741 30.3031 16.3089C33.6898 19.2854 31.2676 22.1921 31.2676 22.1921C32.2802 21.2319 32.6337 19.7655 32.1798 18.4474C32.8956 19.6389 33.2403 21.0181 33.1661 22.4059C33.0701 24.6928 31.8001 26.6917 30.4908 28.2847C30.098 28.7866 29.8274 29.3757 29.7139 30.0043C29.9365 29.3801 30.2726 28.804 30.709 28.3065C32.1274 26.6437 33.3276 24.9198 33.4978 22.4364C33.6463 22.8729 34.2485 24.1429 35.2087 24.6186C35.2087 24.6186 34.0041 23.8942 33.4629 21.0661ZM15.3945 31.7108C15.185 31.2656 15.0715 30.7768 15.0671 30.2836C15.054 29.3802 14.6831 28.5204 14.0372 27.8919C14.168 27.8309 14.2903 27.7523 14.3994 27.6563C14.814 27.3028 15.054 26.7877 15.0497 26.2423L15.0235 25.8538H14.6307C13.7316 25.8974 12.8588 25.5265 12.2696 24.8413C12.143 24.6929 12.0296 24.5315 11.9292 24.3612C12.3176 24.479 12.7191 24.5358 13.125 24.5358H13.5222C13.9979 24.4878 14.4474 24.2957 14.8097 23.9859L15.2155 23.6149L14.7529 23.3181C13.7142 22.6547 12.6537 21.3978 13.4698 19.1894C13.9979 17.7536 15.2155 16.4573 17.2013 15.2091C17.8691 14.7727 18.2357 14.2882 18.2357 13.8126C18.2357 13.0793 17.6203 12.787 17.1708 12.5818C16.9657 12.5032 16.7779 12.3898 16.6121 12.2457C16.263 11.8399 16.5554 11.0674 16.8827 10.6484L17.3192 10.1028L16.6471 9.97192C16.4943 9.94574 16.3372 9.93701 16.1801 9.93701C15.329 9.91082 14.5085 10.2381 13.9062 10.8361C13.413 11.3205 13.1556 12.0013 13.2036 12.6909H12.9417C11.9597 12.6909 11.4971 11.6522 11.4796 11.6086L11.2047 10.9583L10.7683 11.5038C10.3624 12.0363 10.1747 12.704 10.2489 13.3718C10.3973 14.1094 10.8555 14.7465 11.5102 15.1175C11.5713 15.1567 11.6324 15.2004 11.6848 15.2484C10.3056 15.6849 9.53314 16.6799 8.72137 17.7143L8.60354 17.8627C7.82668 18.8534 6.6483 19.447 5.39137 19.4905H4.79346L4.97675 20.0623C4.97675 20.1322 5.52667 21.7513 7.11965 21.7513H7.19821C7.34661 21.7469 7.49063 21.7295 7.63465 21.6989C7.56919 22.5718 7.24622 24.2128 5.7798 24.8195L5.34336 25.0028L5.5834 25.4392C5.9762 26.0458 6.65267 26.4037 7.37715 26.395C7.81795 26.3993 8.25003 26.2989 8.64281 26.0982C8.70392 26.6045 8.81739 27.102 8.97887 27.5821C9.25383 28.3197 9.25383 29.1358 8.97887 29.8734L8.76066 30.336L9.25819 30.4669C9.48514 30.5193 9.72081 30.5498 9.95648 30.5498C10.1136 30.5498 10.2707 30.5324 10.4235 30.4975C10.7464 30.4233 11.0432 30.2749 11.2963 30.061C11.4491 30.5498 11.711 30.9994 12.0645 31.3703C12.7497 32.073 13.7316 32.4221 15.0104 32.4265H15.7872L15.3945 31.7108ZM15.0191 31.9551C11.4884 31.9551 11.5757 28.9263 11.5757 28.9263C11.388 29.4893 10.9254 29.917 10.3449 30.0567C10.2271 30.0873 10.1005 30.1003 9.97831 30.1003C9.77754 30.1003 9.58115 30.0742 9.38912 30.0261C9.70772 29.1838 9.70772 28.2499 9.38912 27.4075C9.14035 26.7092 9.02251 25.9672 9.03561 25.2253C8.63409 25.7185 8.01871 25.9891 7.38152 25.9498H7.35969C6.79232 25.9586 6.25988 25.6749 5.95001 25.2035C8.3024 24.2259 8.07109 21.0705 8.07109 21.0705C7.8005 21.2364 7.48626 21.3236 7.16767 21.3193H7.11965C5.81035 21.3193 5.37392 19.9314 5.37392 19.9314H5.4001C6.7836 19.8877 8.07981 19.2331 8.93523 18.1464C9.83428 17.0073 10.5675 16.0035 12.0208 15.6106L12.1649 15.5845L12.1954 15.4404C12.2347 15.2179 12.0819 15.004 11.759 14.7858C9.75572 13.4765 11.1174 11.8006 11.1174 11.8006C11.1174 11.8006 11.6848 13.1405 12.9723 13.1405H13.0334C13.1817 13.1361 13.3258 13.123 13.4698 13.0968L13.7055 13.0488C13.5047 12.368 13.7055 11.6304 14.2205 11.1416C14.7267 10.6178 15.4294 10.3254 16.1582 10.3342C16.2848 10.3342 16.4158 10.3429 16.5423 10.3647C16.1058 10.9452 15.7829 11.9053 16.2935 12.4945C16.73 13.0052 17.8123 13.027 17.8123 13.8038C17.8123 14.1268 17.5112 14.5021 16.9744 14.8381C15.3508 15.8594 13.7404 17.2167 13.0726 19.0323C12.239 21.2974 13.1817 22.8031 14.526 23.6629C14.2335 23.9073 13.8713 24.06 13.4916 24.0994H13.1293C12.4267 24.1299 11.7328 23.9161 11.1698 23.4927C11.2833 24.0906 11.5495 24.6493 11.9466 25.1075C12.6144 25.88 13.6051 26.3077 14.6264 26.264C14.6176 26.6787 14.4343 27.0714 14.1157 27.3377C13.7665 27.5733 13.3694 27.7217 12.9505 27.7741C12.9505 27.7741 14.4736 28.084 14.6395 30.3316C14.635 30.9033 14.7748 31.4664 15.041 31.9726L15.0191 31.9551Z" fill="#222220"/>
<path id="path_6" d="M7.1502 17.5H7.15456C7.32041 17.5 7.49062 17.4738 7.64774 17.4215C8.06671 17.2381 8.42022 16.9327 8.66899 16.5486C8.99632 16.0947 9.41966 15.715 9.90847 15.4357L10.5195 15.1084L9.95212 14.7112C9.63788 14.5104 9.27564 14.397 8.90467 14.3926C8.42022 14.397 7.96196 14.6021 7.63464 14.96C7.19821 15.4662 6.59592 15.811 5.93691 15.9332L5.32153 15.9638L5.5703 16.5311C5.87581 17.1247 6.48245 17.4957 7.1502 17.5ZM7.93578 15.2568C8.18019 14.9818 8.52933 14.8203 8.9003 14.8203C9.18399 14.8247 9.46331 14.912 9.70334 15.0647C8.46823 15.7238 8.21074 16.7799 7.52117 17.0199C7.40769 17.0593 7.28549 17.0811 7.16329 17.0811C6.65702 17.0811 6.1944 16.8017 5.95873 16.3566C6.72685 16.23 7.42515 15.8416 7.93578 15.2568ZM9.93033 22.423C9.85614 21.0351 10.1966 19.656 10.9167 18.4646C10.4628 19.7825 10.8163 21.249 11.8288 22.2091C11.8288 22.2091 9.40225 19.3025 12.7933 16.326C14.1507 15.1913 15.6302 14.493 16.394 13.9955C13.6357 14.8945 12.2871 13.9038 12.2871 13.9038C13.0595 14.5061 14.0547 14.7417 15.0148 14.5453C14.8228 14.637 14.622 14.7374 14.4082 14.8509C12.082 16.1165 9.97834 18.1984 9.63356 21.0788V21.057C9.09237 23.8851 7.88781 24.6096 7.88781 24.6096C8.84361 24.1382 9.45025 22.8638 9.59427 22.4273C9.75576 24.9151 10.969 26.639 12.3875 28.2974C12.8195 28.795 13.1599 29.371 13.3826 29.9952C13.2647 29.371 12.9941 28.7819 12.5969 28.2843C11.2876 26.6913 10.022 24.6925 9.93033 22.423ZM20.7452 17.1683C20.8979 17.0199 21.1118 16.9501 21.3256 16.9763V17.8011C21.3213 18.0062 21.2689 18.2027 21.1685 18.3816H21.9933C21.893 18.2027 21.8406 18.0062 21.8363 17.8011V16.9763C22.0457 16.9501 22.2596 17.0199 22.4123 17.1683V16.5966H20.7452V17.1683ZM20.4004 13.2099H20.3917C20.5182 13.319 20.6666 13.4062 20.8282 13.4586L20.9329 13.5066V12.9655L19.964 12.5596C20.012 12.8302 20.1691 13.0658 20.4004 13.2099ZM22.7005 13.2055L22.696 13.2099C22.9274 13.0658 23.0845 12.8302 23.1325 12.5596L22.1636 12.9655V13.5023L22.264 13.4542C22.4255 13.4019 22.5739 13.3146 22.7005 13.2055Z" fill="#222220"/>
<path id="path_7" d="M24.4374 11.0191C24.4374 10.2029 23.0626 9.46973 21.5482 9.46973C20.0337 9.46973 18.659 10.2029 18.659 11.0191L18.6895 11.2198L19.2962 14.7113L18.6895 15.0648L17.1053 15.9639C17.1053 15.9639 16.7518 16.1472 16.5859 16.2563C15.988 16.6927 15.8614 17.2775 16.2063 17.5307C16.2935 16.9371 16.8129 16.5007 17.4152 16.5182C17.9171 16.5313 18.3841 16.7844 18.6678 17.199C18.755 17.3038 18.8336 17.4173 18.9034 17.5307C18.995 17.6791 19.0867 17.81 19.1783 17.9366H15.137C15.4774 18.5214 15.6738 19.1804 15.7174 19.8569V28.8344C15.7174 31.0165 17.3889 32.0422 19.2089 32.0422C20.6055 32.0422 20.7932 31.9767 21.5613 32.7449C22.3294 31.9767 22.5171 32.0422 23.9137 32.0422C25.7205 32.0422 27.4052 31.0078 27.4052 28.8344V19.8656C27.4488 19.1892 27.6452 18.5301 27.9857 17.9453H23.9005C23.9922 17.8188 24.0839 17.6878 24.1756 17.5394C24.2497 17.4259 24.3283 17.3124 24.4112 17.2077C24.6992 16.7931 25.1662 16.54 25.6681 16.5268C26.2704 16.5094 26.7898 16.9458 26.877 17.5394C27.2262 17.2906 27.0997 16.6666 26.4974 16.2651C26.3359 16.1516 25.9824 15.9726 25.9824 15.9726L24.4112 15.0474L23.8046 14.6939L24.4112 11.2024L24.4374 11.0191ZM19.2438 11.4206L21.3736 12.1407V15.4838L19.8068 14.6546L19.2438 11.4206ZM16.0098 18.5258H19.6802C19.9639 18.8226 20.3131 19.0582 20.6972 19.2066C20.6142 19.4947 20.636 19.8045 20.7539 20.0795C20.8936 20.3719 21.1423 20.5989 21.4478 20.7167C21.5045 21.2186 21.845 21.6376 22.3207 21.8034C22.0588 22.0697 21.8013 22.3184 21.6966 22.4188L19.2569 22.3795C19.174 22.3402 19.1085 22.2791 19.0648 22.2006V22.17L19.462 22.2355H19.4883C19.5667 22.2355 19.6322 22.1831 19.6453 22.1046C19.6584 22.0173 19.6017 21.9387 19.5144 21.9213L19.0256 21.8427L19.5667 19.966L19.0518 18.8836L18.2269 19.7565L18.1745 21.7074L17.6203 21.6201C17.533 21.6027 17.4544 21.6594 17.437 21.7466V21.7511C17.4238 21.8383 17.4806 21.9169 17.5679 21.9344L17.7992 21.9693C17.7163 22.0173 17.6595 22.0522 17.6552 22.0609L17.6072 22.0958V22.1526C17.4981 22.65 17.6989 23.1651 18.1091 23.4619V23.5317C18.0829 23.7019 18.2008 23.8634 18.371 23.8939H18.4233C18.5674 23.8939 18.6939 23.7936 18.7245 23.6495C18.8292 23.6538 18.9296 23.6538 19.0344 23.6495H19.0998L22.2989 24.23L22.3513 24.1951C22.6044 24.0161 23.5776 23.3222 23.8962 23.0735C23.9879 23.1519 24.0926 23.2218 24.2017 23.2742C24.0534 23.7324 24.1668 24.2343 24.4985 24.5835H16.3022V19.8656C16.2848 19.4074 16.1844 18.9534 16.0098 18.5258ZM23.6213 22.8421C23.2896 23.0865 22.4734 23.6801 22.1766 23.8895L19.2744 23.3833V23.3047C19.3224 23.1084 19.3485 22.9076 19.353 22.7068L21.797 22.7461L21.845 22.6981C21.8843 22.6588 22.6567 21.9125 23.0496 21.4804C23.1543 21.6113 23.2765 21.7205 23.4161 21.8078C23.3463 22.1656 23.4205 22.5366 23.6213 22.8421ZM18.7725 22.3184V22.3314C18.838 22.4537 18.934 22.5584 19.0518 22.6283C19.0474 22.8072 19.0299 22.9818 18.9994 23.1564C18.9994 23.1956 18.9994 23.2349 18.9689 23.2742V23.3353C18.7681 23.3353 18.5717 23.3047 18.3796 23.2436C18.0306 23.056 17.8341 22.6719 17.8908 22.2791C18.048 22.17 18.2269 22.1002 18.4146 22.074C18.5761 22.0697 18.7201 22.1656 18.7725 22.3184ZM18.4713 21.7379L18.5194 19.8918L18.9558 19.4553L19.222 20.0097L18.7027 21.8078L18.4713 21.7379ZM23.5994 31.4617H23.1804L23.5078 30.3924C23.5602 30.244 23.2896 30.052 23.1761 29.8819C23.4423 30.0433 23.7172 30.1873 24.0009 30.3183C24.0009 30.3532 23.5994 31.4617 23.5994 31.4617ZM24.721 30.2659L24.6861 30.2354L24.4592 31.4137C24.3152 31.4137 24.1624 31.4443 24.0228 31.453L24.2628 30.3183C24.3326 29.9822 23.4292 29.8819 22.9841 29.2141C22.6916 29.4584 22.3164 29.5719 21.941 29.5327C21.6093 29.5283 21.282 29.4933 20.959 29.4279C20.9023 29.4235 20.8456 29.4235 20.7888 29.4279C20.6535 29.4192 20.5226 29.489 20.4527 29.6068L20.3872 29.716L19.1434 29.4149L18.8466 29.9298C18.7986 29.9997 18.8074 30.0956 18.8685 30.1568L18.9514 30.2484C18.8685 30.4099 18.7637 30.5583 18.6372 30.6849L18.4539 30.4579C18.3142 30.2309 18.3273 29.9386 18.4845 29.7247L18.9732 28.8998L20.0163 29.0569L19.8549 28.686C19.6367 28.1972 19.9683 27.5731 20.0032 27.2152C20.0032 27.3243 19.8898 27.3461 19.7763 27.3461H19.4751C19.4533 27.3418 19.4271 27.3418 19.4053 27.3461L19.1216 27.5163L18.899 27.3112C18.8641 27.2457 18.8772 27.1672 18.9296 27.1192L19.4446 26.5387L18.8336 25.8273L19.7065 26.2637L19.9683 25.9496C20.0382 26.0194 20.0076 26.2027 20.0076 26.2027C20.6404 26.3598 21.0812 26.9359 21.0638 27.5906V27.7171C21.151 27.8568 21.2907 27.9527 21.4478 27.9921L22.6306 28.1099C22.8663 28.0357 23.1063 27.9876 23.3507 27.9572C23.5602 27.9572 23.7697 28.0226 23.9442 28.136C24.0272 28.0794 24.1275 28.0444 24.2279 28.0401H24.2672C24.7953 28.0401 25.0178 28.5201 25.3015 28.913C25.5154 29.2141 25.8034 29.668 25.8034 29.668C25.7205 29.7902 25.5852 29.8644 25.4368 29.8644C25.3845 29.8687 25.3364 29.8687 25.2841 29.8644C24.7167 29.7596 24.6338 28.5899 24.3108 28.4983H24.2585C24.1973 28.4983 24.1407 28.5332 24.1101 28.5899C24.2585 28.9871 24.1712 29.1486 24.3326 29.4629C24.4505 29.6505 24.5989 29.8207 24.7691 29.9648C24.7691 29.9648 24.7473 30.1393 24.721 30.2659ZM18.3622 29.1224H18.3535L18.4059 29.2577C18.371 29.3755 17.9694 29.5457 17.9694 29.5457L17.8822 29.3537C17.7687 29.0788 17.8516 28.7646 18.0916 28.5856L18.7507 28.1841L19.4533 28.3325C19.4489 28.4721 19.4926 28.6074 19.5755 28.7209L18.8379 28.5813L18.4015 28.8867C18.3317 28.9479 18.3186 29.0438 18.3622 29.1224ZM26.8029 28.8387C26.8509 30.0521 26.0085 31.1169 24.8171 31.3526L25.0178 30.2964C25.0178 30.2354 25.0397 30.1611 25.0484 30.1001C25.1095 30.1262 25.1706 30.1437 25.2317 30.1568C25.3015 30.1611 25.3713 30.1611 25.4412 30.1568C25.6813 30.1568 25.9082 30.0476 26.0522 29.8556L26.2093 29.6723L26.0784 29.4934C26.0784 29.4934 25.786 29.0308 25.5678 28.7252L25.4456 28.542C25.2011 28.1754 24.8913 27.7127 24.2759 27.7127H24.2191C24.1319 27.7171 24.0403 27.7345 23.9573 27.7651C23.7697 27.6735 23.5645 27.6255 23.3551 27.6255C23.1455 27.6298 22.9361 27.6691 22.7397 27.7433L22.6349 27.7739L21.4827 27.6604C21.4347 27.6385 21.3955 27.6036 21.3649 27.56L21.6137 27.4596C21.5439 26.626 20.7408 26.1154 20.3043 25.9451C20.2825 25.8535 20.2389 25.7749 20.1735 25.7095L19.9247 25.4738L19.7065 25.7357L19.5973 25.8666L17.9825 25.2032L19.0344 26.5125L18.6197 27.141C18.5325 27.2283 18.528 27.3724 18.6197 27.464L19.0562 27.7608L19.4926 27.5949H19.5363C19.5363 27.6604 19.4883 27.9266 19.4664 28.0008L18.707 27.8698L17.8952 28.3062C17.5199 28.5769 17.3889 29.0744 17.5854 29.4934L17.677 29.6898L17.8036 29.9691L18.0873 29.8513C17.9825 30.135 18.0261 30.4492 18.2094 30.6892L18.3796 30.9075L18.6066 31.1955L18.8597 30.9249C19.0256 30.7591 19.1565 30.567 19.2481 30.3532L19.3005 30.1786L19.1783 30.0433V30.0171L19.318 29.7902L20.3262 30.0258L20.5531 30.0782L20.6754 29.8774L20.7408 29.7684C20.7408 29.7465 20.7408 29.7421 20.8019 29.7421H20.911C21.2558 29.8119 21.6049 29.8469 21.9541 29.8513C22.1897 29.8644 22.4254 29.8382 22.6524 29.7684L23.211 30.4056L22.8793 31.4268V31.4879C22.3818 31.4792 21.9061 31.6843 21.57 32.0465C21.0332 31.5141 20.6535 31.4574 19.2176 31.4574C17.4937 31.4574 16.3284 30.4492 16.3284 28.8387V24.9108H26.8029V28.8387ZM27.0866 18.5258C26.9076 18.9491 26.8116 19.403 26.7941 19.8656V22.8072C26.4145 22.7243 26.1308 22.4013 26.1046 22.0129V21.8776H25.9736C25.7467 21.8601 25.5372 21.7554 25.3801 21.5939C25.188 21.3713 25.0833 21.092 25.079 20.7996C24.8913 21.1051 24.9088 21.4979 25.127 21.786C25.2972 21.9998 25.546 22.1438 25.8165 22.1787C25.8951 22.685 26.301 23.0778 26.8072 23.1433V24.5835H24.9743C24.4942 24.3391 24.2934 23.7673 24.5073 23.2742L24.5771 23.117L24.4156 23.056C23.8919 22.8727 23.6038 22.3097 23.7697 21.7772L23.8046 21.6462L23.6823 21.5895C23.2241 21.3233 22.971 20.804 23.0451 20.2803C22.8051 20.5246 22.744 20.8956 22.8967 21.2011C22.8095 21.3015 22.696 21.4193 22.5695 21.5503C22.1112 21.4543 21.7795 21.0571 21.7621 20.5901V20.481L21.6617 20.4417C21.3955 20.3632 21.1773 20.1799 21.0507 19.9354C20.9677 19.7347 20.9503 19.5078 21.007 19.2982C21.0943 19.3157 21.1816 19.3288 21.2689 19.3375C21.3561 19.3419 21.4478 19.3419 21.5351 19.3375C22.2421 19.3375 22.9142 19.032 23.3856 18.5083L27.0866 18.5258ZM24.2585 15.5493L24.9743 15.9857L25.1531 16.0904C24.7822 16.1908 24.4461 16.3916 24.1799 16.6709L24.1493 16.6971C24.0883 16.7626 24.0315 16.828 23.9748 16.8979L23.9399 16.9415C23.8831 17.0113 23.8307 17.0855 23.7827 17.1641L23.7566 17.2034C23.6954 17.2906 23.6387 17.3867 23.582 17.4827C23.1849 18.2727 22.4123 18.8007 21.5351 18.888C20.6579 18.8007 19.8853 18.2727 19.4883 17.4827C19.4315 17.3867 19.3748 17.295 19.318 17.2034L19.2831 17.1554L19.1434 16.9284L19.1042 16.8804C19.0474 16.8105 18.9907 16.7451 18.934 16.684L18.9034 16.6535C18.6372 16.3741 18.3011 16.1733 17.9302 16.073L18.1135 15.9682L18.8336 15.5318L19.5712 15.0954L21.5394 16.1647L23.5078 15.1303L24.2585 15.5493ZM23.2896 14.6764L21.7227 15.5013V12.1451L23.8482 11.425L23.2896 14.6764ZM21.5439 11.7916L19.2132 10.8576C19.4097 10.3862 20.3262 9.98472 21.5439 9.98472C22.7615 9.98472 23.678 10.3862 23.8744 10.8576L21.5439 11.7916Z" fill="#222220"/>
</g>
<rect x="0.5" y="0.5" width="42" height="42" rx="21" stroke="black" stroke-opacity="0.08"/>
</g>
</svg>
