<svg width="43" height="43" viewBox="0 0 43 43" fill="none" xmlns="http://www.w3.org/2000/svg">
<g id="logo">
<rect width="43" height="43" rx="21.5" fill="white"/>
<path id="path" d="M38.003 8.35254C39.0108 9.67301 39.864 11.1076 40.5452 12.6275L21.2202 27.0647L13.1438 21.9338V15.7611L21.2202 20.892L38.003 8.35254Z" fill="#21A038"/>
<path id="path_2" d="M4.90121 21.4994C4.90121 21.2225 4.90788 20.9473 4.92121 20.6737L0.0266566 20.4307C0.00999712 20.7852 5.91483e-06 21.1432 5.91483e-06 21.5044C-0.00207658 24.3272 0.545765 27.1224 1.61212 29.7299C2.67846 32.3376 4.24232 34.7061 6.21398 36.6997L9.68581 33.1829C8.16809 31.651 6.96408 29.8301 6.14298 27.8251C5.32187 25.82 4.89987 23.6703 4.90121 21.4994Z" fill="url(#paint0_linear_533_7458)"/>
<path id="path_3" d="M21.2158 4.96674C21.4889 4.96674 21.7604 4.97687 22.0303 4.99037L22.2752 0.0282701C21.9243 0.0113864 21.5711 0.00294563 21.2158 0.00294563C18.4292 -0.000498218 15.6696 0.553915 13.0951 1.63435C10.5207 2.71479 8.18215 4.29997 6.21387 6.29887L9.68569 9.81741C11.1973 8.27877 12.9942 7.05812 14.973 6.22567C16.9517 5.39322 19.0732 4.96537 21.2158 4.96674Z" fill="url(#paint1_linear_533_7458)"/>
<path id="path_4" d="M21.2159 38.0335C20.9428 38.0335 20.6712 38.0335 20.3997 38.0115L20.1548 42.972C20.5068 42.99 20.8606 42.999 21.2159 42.999C24.0013 43.0019 26.7596 42.4472 29.3327 41.3664C31.9058 40.2857 34.2428 38.7003 36.2096 36.7014L32.7444 33.1846C31.2325 34.7224 29.4358 35.9424 27.4574 36.7745C25.4791 37.6066 23.358 38.0346 21.2159 38.0335Z" fill="url(#paint2_linear_533_7458)"/>
<path id="path_5" d="M30.4123 7.85093L34.5371 4.76966C30.7669 1.67567 26.0608 -0.0085886 21.2095 3.29357e-05V4.96551C24.4945 4.96138 27.7034 5.9675 30.4123 7.85093Z" fill="url(#paint3_linear_533_7458)"/>
<path id="path_6" d="M42.4302 21.5003C42.4328 20.2086 42.3213 18.9191 42.0969 17.6475L37.5306 21.0579C37.5306 21.2049 37.5306 21.3518 37.5306 21.5003C37.5318 23.8105 37.054 26.0951 36.1282 28.2061C35.2023 30.3171 33.8491 32.2074 32.1562 33.7544L35.4499 37.4436C37.6507 35.43 39.4093 32.9703 40.6118 30.2238C41.8144 27.4772 42.4339 24.5051 42.4302 21.5003Z" fill="#21A038"/>
<path id="path_7" d="M21.2159 38.0336C18.9363 38.0344 16.6818 37.55 14.5986 36.6117C12.5154 35.6735 10.6499 34.3022 9.12279 32.5869L5.48438 35.9231C7.47094 38.1539 9.89797 39.9365 12.6081 41.1555C15.3182 42.3744 18.2508 43.0026 21.2159 42.999V38.0336Z" fill="url(#paint4_linear_533_7458)"/>
<path id="path_8" d="M10.2756 9.24474L6.98366 5.55566C4.78223 7.56883 3.02291 10.0285 1.81981 12.775C0.616725 15.5216 -0.00328004 18.4938 1.30496e-05 21.4989H4.90123C4.90021 19.1888 5.37811 16.9042 6.30393 14.7932C7.22975 12.6822 8.58285 10.7919 10.2756 9.24474Z" fill="url(#paint5_linear_533_7458)"/>
</g>
<defs>
<linearGradient id="paint0_linear_533_7458" x1="7.20522" y1="36.0801" x2="1.72166" y2="20.4388" gradientUnits="userSpaceOnUse">
<stop offset="0.14" stop-color="#F1E813"/>
<stop offset="0.3" stop-color="#E6E418"/>
<stop offset="0.58" stop-color="#C9DA26"/>
<stop offset="0.89" stop-color="#A2CC39"/>
</linearGradient>
<linearGradient id="paint1_linear_533_7458" x1="7.61325" y1="7.17681" x2="21.4519" y2="1.97314" gradientUnits="userSpaceOnUse">
<stop offset="0.06" stop-color="#0FA7DF"/>
<stop offset="0.54" stop-color="#0098F8"/>
<stop offset="0.92" stop-color="#0290EA"/>
</linearGradient>
<linearGradient id="paint2_linear_533_7458" x1="19.8317" y1="40.0021" x2="35.4481" y2="36.521" gradientUnits="userSpaceOnUse">
<stop offset="0.12" stop-color="#A2CC39"/>
<stop offset="0.28" stop-color="#86C239"/>
<stop offset="0.87" stop-color="#219F38"/>
</linearGradient>
<linearGradient id="paint3_linear_533_7458" x1="20.19" y1="1.66307" x2="33.5548" y2="5.73265" gradientUnits="userSpaceOnUse">
<stop offset="0.06" stop-color="#0290EA"/>
<stop offset="0.79" stop-color="#0C89CA"/>
</linearGradient>
<linearGradient id="paint4_linear_533_7458" x1="6.71384" y1="35.3187" x2="21.2747" y2="40.6883" gradientUnits="userSpaceOnUse">
<stop offset="0.13" stop-color="#F1E813"/>
<stop offset="0.3" stop-color="#EAE616"/>
<stop offset="0.53" stop-color="#D8DF1F"/>
<stop offset="0.8" stop-color="#BAD52D"/>
<stop offset="0.98" stop-color="#A2CC39"/>
</linearGradient>
<linearGradient id="paint5_linear_533_7458" x1="1.82589" y1="22.0999" x2="7.78876" y2="6.7943" gradientUnits="userSpaceOnUse">
<stop offset="0.07" stop-color="#A2CC39"/>
<stop offset="0.26" stop-color="#81C45E"/>
<stop offset="0.92" stop-color="#0FA7DF"/>
</linearGradient>
</defs>
</svg>
