<svg width="28" height="28" viewBox="0 0 28 28" fill="none" xmlns="http://www.w3.org/2000/svg">
<g id="logo">
<path id="path" d="M18.0304 4.2002C12.5034 4.2002 8.06263 8.67137 8.06263 14.1358C8.06263 19.6453 12.5473 24.0714 18.0293 24.0714C23.5113 24.0714 28 19.6003 28 14.1358C28 8.67137 23.5124 4.2002 18.0304 4.2002ZM18.0304 17.8391C15.9918 17.8391 14.3161 16.168 14.3161 14.1358C14.3161 12.1036 15.9918 10.4326 18.0304 10.4326C20.0691 10.4326 21.7454 12.1036 21.7454 14.1358C21.6997 16.168 20.0691 17.8391 18.0304 17.8391ZM8.06263 7.08694V21.5388H4.53087L0 7.08694H8.06263Z" fill="#8B3FFD"/>
</g>
</svg>
