<svg width="145" height="29" viewBox="0 0 145 29" fill="none" xmlns="http://www.w3.org/2000/svg">
<g clip-path="url(#clip0_533_8219)">
<path d="M6.54192 14.5L3.28667 17.7565L0 14.5L3.28546 11.2145L6.54192 14.5ZM14.5 6.54192L20.1067 12.1486L23.3933 8.86433L14.5 0L5.60667 8.89333L8.89333 12.1776L14.5 6.54192ZM25.7145 11.2145L22.4581 14.5L25.7435 17.7855L29.0278 14.5L25.7145 11.2145ZM14.5 22.4581L8.89333 16.8224L5.60667 20.1079L14.5 29L23.3933 20.1067L20.1067 16.8224L14.5 22.4581ZM14.5 17.7577L17.7855 14.471L14.5 11.2158L11.2145 14.5L14.5 17.7565V17.7577ZM49.0511 18.096V18.0404C49.0511 15.9162 47.9177 14.8395 46.0774 14.1315C47.2096 13.5092 48.1726 12.4881 48.1726 10.7046V10.649C48.1726 8.15625 46.162 6.54192 42.9333 6.54192H35.5419V22.4303H43.1037C46.6997 22.4581 49.0511 20.9851 49.0511 18.0972V18.096ZM44.689 11.3003C44.689 12.4893 43.726 12.9703 42.1684 12.9703H38.941V9.60021H42.3956C43.8685 9.60021 44.689 10.1947 44.689 11.2435V11.3003ZM45.5675 17.6441C45.5675 18.8331 44.6334 19.372 43.1025 19.372H38.941V15.8872H42.9901C44.7748 15.8872 45.5675 16.5397 45.5675 17.6151V17.6441ZM56.3857 22.4581V6.54192H52.8743V22.4303H56.3857V22.4581ZM75.191 22.4581V6.54192H71.7351V16.3415L64.287 6.54192H61.0583V22.4303H64.5141V12.348L72.2173 22.4581H75.1898H75.191ZM94.5605 22.4581L87.7371 6.45733H84.5096L77.6838 22.4581H81.281L82.7249 18.8899H89.4372L90.8812 22.4581H94.563H94.5605ZM88.189 15.8026H83.9695L86.0938 10.649L88.189 15.8026ZM111.243 22.4581V6.54192H107.787V16.3415L100.339 6.54192H97.1101V22.4303H100.566V12.348L108.269 22.4581H111.242H111.243ZM129.282 19.8807L127.045 17.6441C125.798 18.7763 124.694 19.5122 122.854 19.5122C120.135 19.5122 118.238 17.2465 118.238 14.5278V14.4432C118.238 11.7245 120.163 9.48783 122.854 9.48783C124.439 9.48783 125.686 10.1669 126.932 11.2713L129.168 8.69396C127.697 7.25 125.912 6.23017 122.91 6.23017C118.04 6.23017 114.613 9.93975 114.613 14.4432V14.5C114.613 19.059 118.095 22.684 122.769 22.684C125.827 22.713 127.64 21.6364 129.282 19.8807ZM144.207 22.4581V19.343H135.569V16.0007H143.074V12.8857H135.569V9.657H144.094V6.54192H132.114V22.4303H144.207V22.4581Z" fill="#0E0E0E"/>
</g>
<defs>
<clipPath id="clip0_533_8219">
<rect width="145" height="29" fill="white"/>
</clipPath>
</defs>
</svg>
