<svg width="43" height="43" viewBox="0 0 43 43" fill="none" xmlns="http://www.w3.org/2000/svg">
<g id="BinanceBadge">
<rect width="43" height="43" rx="21.5" fill="#2F2B32"/>
<path id="Union" fill-rule="evenodd" clip-rule="evenodd" d="M15.9339 19.2131L21.5014 13.6456L27.0736 19.2178L30.3129 15.9785L21.5014 7.16699L12.6946 15.9737L15.9339 19.2131ZM7.16602 21.5019L10.4045 18.2634L13.643 21.5019L10.4045 24.7403L7.16602 21.5019ZM21.5013 29.3604L15.9338 23.793L12.6898 27.0275L12.6945 27.0323L21.5013 35.8391L30.3128 27.0275L27.0735 23.7882L21.5013 29.3604ZM29.3568 21.5041L32.5953 18.2657L35.8338 21.5041L32.5953 24.7426L29.3568 21.5041ZM21.5013 18.216L24.7883 21.503L21.5013 24.7948L18.2143 21.5078V21.4982L18.7915 20.921L19.073 20.6443L21.5013 18.216Z" fill="#F3BA2F"/>
</g>
</svg>
