<svg width="43" height="43" viewBox="0 0 43 43" fill="none" xmlns="http://www.w3.org/2000/svg">
<g id="DashBadge">
<rect width="43" height="43" rx="21.5" fill="#008DE4"/>
<g id="Vector">
<path d="M25.2264 9.6748H14.7914L13.926 14.5098L23.3448 14.521C27.9844 14.521 29.3523 16.2071 29.3132 18.9987C29.2909 20.428 28.6712 22.851 28.4032 23.6383C27.6885 25.7319 26.2202 28.116 20.7152 28.1104L11.5588 28.1048L10.6934 32.9454H21.106C24.7797 32.9454 26.3374 32.5155 27.9956 31.7562C31.6637 30.0533 33.8468 26.4354 34.7233 21.7121C36.0242 14.6773 34.4051 9.6748 25.2264 9.6748Z" fill="white"/>
<path d="M10.2858 18.8814C7.55008 18.8814 7.15926 20.6624 6.90243 21.74C6.56186 23.1469 6.4502 23.722 6.4502 23.722H17.1363C19.8721 23.722 20.2629 21.941 20.5197 20.8634C20.8603 19.4565 20.972 18.8814 20.972 18.8814H10.2858Z" fill="white"/>
</g>
</g>
</svg>
