<svg width="43" height="43" viewBox="0 0 43 43" fill="none" xmlns="http://www.w3.org/2000/svg">
<g id="PolygonBadge">
<rect width="43" height="43" rx="21.5" fill="#8247E5"/>
<path id="Vector" d="M28.799 16.6703C28.27 16.3586 27.5824 16.3586 27.0007 16.6703L22.8752 19.0602L20.072 20.6188L15.9466 23.0086C15.4177 23.3203 14.7301 23.3203 14.1483 23.0086L10.8691 21.1383C10.3402 20.8265 9.96995 20.2551 9.96995 19.6317V15.943C9.96995 15.3195 10.2873 14.7481 10.8691 14.4363L14.0954 12.618C14.6243 12.3063 15.3119 12.3063 15.8937 12.618L19.12 14.4363C19.6489 14.7481 20.0191 15.3195 20.0191 15.943V18.3328L22.8223 16.7223V14.3324C22.8223 13.709 22.505 13.1375 21.9232 12.8258L15.9466 9.39688C15.4177 9.08516 14.7301 9.08516 14.1483 9.39688L8.06589 12.8258C7.48409 13.1375 7.16675 13.709 7.16675 14.3324V21.2422C7.16675 21.8656 7.48409 22.4372 8.06589 22.7489L14.1483 26.1778C14.6772 26.4895 15.3648 26.4895 15.9466 26.1778L20.072 23.8399L22.8752 22.2293L27.0007 19.8914C27.5296 19.5797 28.2171 19.5797 28.799 19.8914L32.0253 21.7098C32.5541 22.0215 32.9244 22.593 32.9244 23.2165V26.9051C32.9244 27.5286 32.6071 28.1 32.0253 28.4117L28.799 30.2821C28.27 30.5938 27.5824 30.5938 27.0007 30.2821L23.7744 28.4637C23.2455 28.152 22.8752 27.5805 22.8752 26.9571V24.5673L20.072 26.1778V28.5676C20.072 29.191 20.3894 29.7626 20.9711 30.0743L27.0536 33.5032C27.5824 33.8149 28.27 33.8149 28.8518 33.5032L34.9343 30.0743C35.4632 29.7626 35.8334 29.191 35.8334 28.5676V21.6578C35.8334 21.0344 35.516 20.463 34.9343 20.1513L28.799 16.6703Z" fill="white"/>
</g>
</svg>
