<svg width="43" height="43" viewBox="0 0 43 43" fill="none" xmlns="http://www.w3.org/2000/svg">
<g id="CardanoBadge">
<rect width="43" height="43" rx="21.5" fill="#0033AD"/>
<g id="Vector">
<path d="M14.8363 21.5591C14.805 22.1055 14.9918 22.642 15.3558 23.0507C15.7198 23.4595 16.2311 23.707 16.7775 23.7389H16.8901C17.2925 23.7385 17.6859 23.6202 18.0219 23.3987C18.3579 23.1773 18.6216 22.8623 18.7806 22.4926C18.9396 22.123 18.9869 21.7148 18.9167 21.3186C18.8464 20.9224 18.6617 20.5554 18.3852 20.263C18.1088 19.9706 17.7528 19.7655 17.3612 19.673C16.9696 19.5806 16.5594 19.6048 16.1814 19.7428C15.8034 19.8807 15.4741 20.1263 15.234 20.4493C14.994 20.7723 14.8538 21.1584 14.8307 21.5602L14.8363 21.5591Z" fill="white"/>
<path d="M7.15282 21.0366C7.02146 21.0293 6.89086 21.061 6.77754 21.1279C6.66422 21.1947 6.57326 21.2936 6.51615 21.4122C6.45904 21.5307 6.43835 21.6635 6.45669 21.7938C6.47504 21.9241 6.53159 22.046 6.6192 22.1441C6.70682 22.2423 6.82156 22.3123 6.94893 22.3452C7.07631 22.3782 7.21059 22.3727 7.33482 22.3293C7.45905 22.286 7.56764 22.2068 7.64687 22.1018C7.72611 21.9967 7.77243 21.8706 7.77998 21.7392C7.78515 21.6518 7.77301 21.5643 7.74425 21.4817C7.7155 21.399 7.6707 21.3229 7.61242 21.2576C7.55414 21.1923 7.48354 21.1392 7.40467 21.1012C7.32579 21.0633 7.24021 21.0414 7.15282 21.0366Z" fill="white"/>
<path d="M14.7057 9.60028C14.8227 9.5402 14.9193 9.44685 14.9834 9.33198C15.0475 9.21712 15.0761 9.08586 15.0657 8.95475C15.0553 8.82364 15.0064 8.69853 14.9251 8.59516C14.8438 8.4918 14.7337 8.4148 14.6087 8.37387C14.4837 8.33294 14.3494 8.32989 14.2227 8.36512C14.096 8.40035 13.9825 8.47228 13.8966 8.57186C13.8107 8.67143 13.7561 8.7942 13.7398 8.92471C13.7235 9.05522 13.7462 9.18763 13.805 9.30528C13.8445 9.38403 13.8992 9.45418 13.966 9.51169C14.0327 9.56919 14.1102 9.61292 14.1939 9.64034C14.2777 9.66776 14.366 9.67834 14.4538 9.67147C14.5417 9.66459 14.6273 9.6404 14.7057 9.60028Z" fill="white"/>
<path d="M16.7966 13.2461C16.9783 13.1545 17.1288 13.011 17.2289 12.8338C17.3291 12.6567 17.3745 12.4538 17.3594 12.2509C17.3443 12.0479 17.2694 11.854 17.1441 11.6937C17.0188 11.5333 16.8487 11.4137 16.6555 11.3499C16.4622 11.2862 16.2544 11.2812 16.0582 11.3356C15.8621 11.3899 15.6865 11.5012 15.5537 11.6553C15.4208 11.8095 15.3366 11.9996 15.3117 12.2015C15.2869 12.4035 15.3224 12.6083 15.414 12.7901C15.4748 12.9109 15.5588 13.0185 15.6612 13.1068C15.7636 13.195 15.8824 13.2623 16.0108 13.3046C16.1392 13.347 16.2747 13.3636 16.4095 13.3536C16.5444 13.3435 16.6759 13.307 16.7966 13.2461Z" fill="white"/>
<path d="M9.76053 15.7536C9.90068 15.8458 10.065 15.8943 10.2328 15.8931C10.4005 15.8918 10.5641 15.8408 10.7028 15.7465C10.8416 15.6523 10.9492 15.519 11.0122 15.3635C11.0752 15.208 11.0906 15.0374 11.0566 14.8731C11.0225 14.7089 10.9405 14.5584 10.8209 14.4408C10.7014 14.3232 10.5496 14.2437 10.3848 14.2123C10.22 14.181 10.0496 14.1992 9.89522 14.2647C9.7408 14.3303 9.60929 14.4401 9.51733 14.5804C9.39416 14.7683 9.35059 14.9973 9.39619 15.2173C9.44179 15.4373 9.57283 15.6302 9.76053 15.7536Z" fill="white"/>
<path d="M11.0137 20.6617C10.8106 20.6502 10.6085 20.6992 10.4332 20.8026C10.2579 20.9059 10.1172 21.0588 10.0288 21.2421C9.94038 21.4254 9.90832 21.6308 9.93663 21.8323C9.96494 22.0339 10.0524 22.2225 10.1878 22.3743C10.3233 22.5261 10.5008 22.6344 10.6978 22.6854C10.8948 22.7364 11.1025 22.7279 11.2946 22.6609C11.4868 22.5939 11.6547 22.4714 11.7773 22.309C11.8998 22.1465 11.9715 21.9514 11.9832 21.7482C11.9985 21.4756 11.9051 21.2081 11.7233 21.0043C11.5415 20.8006 11.2863 20.6773 11.0137 20.6617Z" fill="white"/>
<path d="M9.87313 27.5807C9.7235 27.6563 9.59965 27.7746 9.51723 27.9206C9.43481 28.0666 9.39753 28.2337 9.4101 28.4009C9.42267 28.5681 9.48452 28.7278 9.58784 28.8598C9.69115 28.9919 9.8313 29.0903 9.99055 29.1427C10.1498 29.1951 10.321 29.1991 10.4826 29.1543C10.6441 29.1094 10.7887 29.0176 10.8981 28.8905C11.0075 28.7635 11.0767 28.6069 11.0971 28.4404C11.1175 28.274 11.0881 28.1053 11.0126 27.9556C10.9624 27.8561 10.8932 27.7675 10.8087 27.6948C10.7243 27.6222 10.6264 27.5668 10.5206 27.532C10.4147 27.4972 10.3031 27.4836 10.192 27.4919C10.0809 27.5003 9.97256 27.5304 9.87313 27.5807Z" fill="white"/>
<path d="M13.8736 18.5347C14.0741 18.6661 14.3089 18.735 14.5485 18.7329C14.7881 18.7308 15.0217 18.6577 15.2197 18.5228C15.4177 18.3879 15.5713 18.1973 15.6611 17.9752C15.7508 17.753 15.7727 17.5092 15.7239 17.2746C15.6751 17.0401 15.5578 16.8252 15.3869 16.6573C15.216 16.4894 14.9991 16.3759 14.7637 16.3312C14.5283 16.2865 14.285 16.3126 14.0644 16.4062C13.8438 16.4998 13.656 16.6567 13.5246 16.8571C13.4372 16.9901 13.3769 17.139 13.3471 17.2954C13.3174 17.4518 13.3187 17.6125 13.3511 17.7683C13.3836 17.9241 13.4464 18.072 13.5361 18.2036C13.6257 18.3351 13.7404 18.4476 13.8736 18.5347Z" fill="white"/>
<path d="M26.5654 13.1651C26.736 13.2764 26.9358 13.3346 27.1396 13.3323C27.3433 13.3301 27.5417 13.2675 27.7099 13.1525C27.878 13.0375 28.0083 12.8752 28.0843 12.6862C28.1602 12.4972 28.1784 12.2898 28.1365 12.0905C28.0947 11.8911 27.9947 11.7086 27.8491 11.5661C27.7036 11.4235 27.519 11.3273 27.3188 11.2897C27.1186 11.252 26.9117 11.2745 26.7243 11.3544C26.5369 11.4343 26.3774 11.5679 26.2659 11.7385C26.1917 11.8517 26.1406 11.9785 26.1155 12.1116C26.0903 12.2447 26.0917 12.3814 26.1196 12.5139C26.1474 12.6465 26.2011 12.7722 26.2776 12.8839C26.3541 12.9957 26.4519 13.0912 26.5654 13.1651Z" fill="white"/>
<path d="M28.6777 9.53047C28.788 9.60277 28.9173 9.64072 29.0491 9.63954C29.181 9.63835 29.3095 9.59808 29.4185 9.52381C29.5275 9.44955 29.612 9.34463 29.6613 9.22233C29.7106 9.10003 29.7226 8.96585 29.6956 8.83676C29.6687 8.70767 29.604 8.58948 29.5099 8.49714C29.4158 8.40479 29.2963 8.34245 29.1667 8.31799C29.0372 8.29354 28.9032 8.30807 28.7819 8.35975C28.6606 8.41143 28.5573 8.49793 28.4852 8.60831C28.3885 8.75617 28.3545 8.93633 28.3906 9.10923C28.4267 9.28214 28.53 9.43364 28.6777 9.53047Z" fill="white"/>
<path d="M26.7276 19.5976C26.4573 19.5821 26.1867 19.62 25.9311 19.709C25.6755 19.7981 25.44 19.9366 25.2379 20.1167C24.8299 20.4804 24.583 20.9914 24.5516 21.5371C24.5203 22.0828 24.707 22.6187 25.0707 23.0267C25.4345 23.4348 25.9454 23.6817 26.4911 23.713C26.5305 23.713 26.571 23.713 26.6105 23.713C27.008 23.7128 27.397 23.5976 27.7306 23.3813C28.0641 23.165 28.328 22.8568 28.4903 22.4939C28.6527 22.131 28.7066 21.7289 28.6455 21.3361C28.5845 20.9433 28.4111 20.5765 28.1463 20.28C27.9669 20.0778 27.7491 19.9133 27.5055 19.7961C27.262 19.679 26.9975 19.6115 26.7276 19.5976Z" fill="white"/>
<path d="M17.4733 18.3917C17.6444 18.7335 17.9074 19.0207 18.2329 19.221C18.5583 19.4213 18.9332 19.5268 19.3154 19.5256C19.6677 19.5257 20.0142 19.4354 20.3217 19.2635C20.6293 19.0916 20.8876 18.8438 21.0721 18.5436C21.2567 18.2435 21.3612 17.9011 21.3757 17.549C21.3903 17.197 21.3143 16.8471 21.1552 16.5328C20.983 16.1926 20.7194 15.9071 20.3941 15.7082C20.0687 15.5094 19.6944 15.405 19.3131 15.4068C18.9619 15.4074 18.6166 15.4978 18.3101 15.6692C18.0036 15.8407 17.7459 16.0877 17.5616 16.3867C17.3773 16.6857 17.2725 17.0269 17.257 17.3778C17.2416 17.7287 17.316 18.0777 17.4733 18.3917Z" fill="white"/>
<path d="M33.6308 15.7514C33.7804 15.6759 33.9044 15.5577 33.9869 15.4117C34.0694 15.2658 34.1068 15.0987 34.0943 14.9315C34.0819 14.7644 34.0202 14.6046 33.917 14.4725C33.8138 14.3404 33.6737 14.2419 33.5145 14.1893C33.3553 14.1368 33.1842 14.1326 33.0226 14.1773C32.861 14.2221 32.7164 14.3137 32.6069 14.4406C32.4974 14.5675 32.4279 14.7241 32.4074 14.8904C32.3868 15.0568 32.416 15.2255 32.4913 15.3753C32.5927 15.5762 32.7696 15.7286 32.9832 15.7991C33.1969 15.8697 33.4298 15.8525 33.6308 15.7514Z" fill="white"/>
<path d="M28.4052 16.4078C28.1912 16.5156 28.014 16.6844 27.8959 16.8929C27.7779 17.1014 27.7243 17.3403 27.742 17.5793C27.7596 17.8182 27.8478 18.0466 27.9953 18.2354C28.1427 18.4243 28.3429 18.5652 28.5704 18.6403C28.798 18.7154 29.0427 18.7214 29.2736 18.6574C29.5045 18.5935 29.7113 18.4625 29.8678 18.281C30.0242 18.0995 30.1234 17.8757 30.1526 17.6379C30.1819 17.4001 30.14 17.1589 30.0322 16.9449C29.9608 16.8027 29.862 16.676 29.7415 16.572C29.621 16.468 29.4812 16.3888 29.3301 16.3389C29.179 16.2891 29.0195 16.2695 28.8608 16.2813C28.7021 16.2931 28.5473 16.3361 28.4052 16.4078Z" fill="white"/>
<path d="M21.6743 9.21971C21.8417 9.22924 22.0082 9.1889 22.1527 9.10379C22.2973 9.01868 22.4133 8.89262 22.4861 8.74155C22.559 8.59049 22.5854 8.42121 22.5621 8.25513C22.5387 8.08905 22.4666 7.93363 22.3549 7.80853C22.2432 7.68343 22.0969 7.59427 21.9345 7.55233C21.7721 7.51039 21.6009 7.51755 21.4426 7.57291C21.2843 7.62828 21.146 7.72935 21.0451 7.86335C20.9442 7.99734 20.8854 8.15825 20.876 8.3257C20.8634 8.55009 20.9404 8.77031 21.0901 8.93794C21.2398 9.10558 21.4499 9.20693 21.6743 9.21971Z" fill="white"/>
<path d="M21.6653 14.5556C21.9044 14.569 22.1422 14.5112 22.3485 14.3895C22.5549 14.2678 22.7205 14.0877 22.8245 13.8719C22.9285 13.6561 22.9662 13.4143 22.9328 13.1771C22.8994 12.9399 22.7964 12.7179 22.6369 12.5392C22.4774 12.3605 22.2685 12.2331 22.0366 12.1731C21.8047 12.1131 21.5602 12.1232 21.334 12.2021C21.1078 12.281 20.9101 12.4252 20.7658 12.6164C20.6216 12.8077 20.5373 13.0374 20.5235 13.2765C20.5054 13.5975 20.6155 13.9126 20.8296 14.1524C21.0437 14.3923 21.3443 14.5373 21.6653 14.5556Z" fill="white"/>
<path d="M15.1009 26.9231C15.3149 26.8152 15.4921 26.6463 15.6101 26.4377C15.728 26.2291 15.7815 25.9902 15.7637 25.7513C15.7459 25.5123 15.6576 25.284 15.51 25.0952C15.3624 24.9064 15.1622 24.7656 14.9346 24.6906C14.707 24.6156 14.4622 24.6098 14.2313 24.6739C14.0004 24.7381 13.7937 24.8692 13.6374 25.0508C13.481 25.2324 13.3821 25.4563 13.353 25.6942C13.3239 25.9321 13.366 26.1732 13.4739 26.3872C13.6187 26.6739 13.8714 26.8915 14.1765 26.992C14.4816 27.0925 14.8141 27.0677 15.1009 26.9231Z" fill="white"/>
<path d="M22.4478 16.3234C22.1965 16.7068 22.0803 17.1631 22.1176 17.6201C22.1548 18.077 22.3434 18.5085 22.6534 18.8462C22.9635 19.1839 23.3773 19.4086 23.8294 19.4846C24.2815 19.5607 24.746 19.4838 25.1495 19.2661C25.553 19.0485 25.8724 18.7025 26.0571 18.2829C26.2418 17.8633 26.2813 17.394 26.1693 16.9495C26.0574 16.5049 25.8004 16.1104 25.4389 15.8283C25.0775 15.5463 24.6323 15.3928 24.1739 15.3922C23.8315 15.392 23.4944 15.477 23.1931 15.6395C22.8918 15.8021 22.6356 16.0371 22.4478 16.3234Z" fill="white"/>
<path d="M26.0306 24.9403C25.8655 24.6129 25.6161 24.3356 25.308 24.1368C24.9999 23.938 24.6444 23.825 24.2781 23.8094C23.9118 23.7939 23.548 23.8764 23.2242 24.0484C22.9004 24.2204 22.6284 24.4756 22.4362 24.7878C22.244 25.1 22.1385 25.4579 22.1308 25.8244C22.123 26.191 22.2132 26.5529 22.392 26.873C22.5708 27.1931 22.8317 27.4596 23.1479 27.6452C23.4642 27.8308 23.8241 27.9286 24.1908 27.9286C24.5133 27.9264 24.8309 27.8493 25.1186 27.7034C25.6051 27.4571 25.9743 27.0281 26.1452 26.5102C26.3161 25.9923 26.2749 25.4278 26.0306 24.9403Z" fill="white"/>
<path d="M29.6314 24.7962C29.4311 24.6647 29.1963 24.5955 28.9567 24.5975C28.7171 24.5994 28.4834 24.6724 28.2853 24.8071C28.0871 24.9419 27.9334 25.1323 27.8435 25.3545C27.7536 25.5766 27.7316 25.8204 27.7802 26.055C27.8289 26.2896 27.946 26.5045 28.1168 26.6726C28.2877 26.8406 28.5045 26.9543 28.7398 26.9991C28.9752 27.0439 29.2186 27.018 29.4392 26.9245C29.6599 26.831 29.8478 26.6742 29.9793 26.4739C30.1551 26.2051 30.2171 25.8776 30.1519 25.5631C30.0867 25.2487 29.8995 24.9729 29.6314 24.7962Z" fill="white"/>
<path d="M33.5767 21.7009C33.5882 21.4978 33.5392 21.2957 33.4359 21.1204C33.3325 20.9451 33.1796 20.8044 32.9963 20.716C32.813 20.6276 32.6076 20.5955 32.4061 20.6238C32.2046 20.6521 32.016 20.7396 31.8641 20.875C31.7123 21.0105 31.604 21.188 31.553 21.385C31.502 21.582 31.5105 21.7897 31.5775 21.9818C31.6445 22.174 31.767 22.3419 31.9294 22.4645C32.0919 22.587 32.287 22.6587 32.4902 22.6704C32.7628 22.6857 33.0304 22.5923 33.2341 22.4105C33.4378 22.2287 33.5611 21.9735 33.5767 21.7009Z" fill="white"/>
<path d="M36.4277 20.9679C36.296 20.9604 36.1651 20.992 36.0515 21.0588C35.9378 21.1256 35.8466 21.2246 35.7892 21.3433C35.7318 21.462 35.711 21.5951 35.7292 21.7257C35.7475 21.8562 35.804 21.9785 35.8917 22.0769C35.9794 22.1753 36.0944 22.2455 36.222 22.2786C36.3496 22.3117 36.4842 22.3062 36.6087 22.2628C36.7332 22.2195 36.842 22.1402 36.9214 22.0349C37.0008 21.9297 37.0473 21.8033 37.0548 21.6717C37.0647 21.4952 37.0042 21.3221 36.8866 21.1902C36.7691 21.0583 36.604 20.9784 36.4277 20.9679Z" fill="white"/>
<path d="M33.7434 27.5773C33.6031 27.4854 33.4388 27.4372 33.2711 27.4387C33.1035 27.4403 32.9401 27.4914 32.8015 27.5858C32.6629 27.6802 32.5555 27.8136 32.4927 27.9691C32.4299 28.1245 32.4146 28.2951 32.4488 28.4592C32.4829 28.6234 32.565 28.7737 32.6845 28.8912C32.8041 29.0088 32.9559 29.0882 33.1206 29.1195C33.2853 29.1508 33.4556 29.1325 33.6099 29.0671C33.7643 29.0016 33.8957 28.8918 33.9877 28.7517C34.0488 28.6585 34.091 28.5543 34.1118 28.4448C34.1326 28.3354 34.1316 28.2229 34.1089 28.1138C34.0862 28.0048 34.0423 27.9013 33.9795 27.8092C33.9168 27.7171 33.8366 27.6383 33.7434 27.5773Z" fill="white"/>
<path d="M14.8273 33.8004C14.7171 33.7281 14.5879 33.6901 14.4561 33.6912C14.3243 33.6923 14.1958 33.7324 14.0868 33.8066C13.9778 33.8807 13.8932 33.9855 13.8438 34.1077C13.7943 34.2299 13.7822 34.364 13.809 34.4931C13.8357 34.6221 13.9001 34.7404 13.9941 34.8328C14.0881 34.9253 14.2073 34.9878 14.3368 35.0125C14.4663 35.0372 14.6002 35.0229 14.7216 34.9715C14.8429 34.9201 14.9464 34.8339 15.0187 34.7237C15.0668 34.6505 15.1 34.5686 15.1164 34.4826C15.1328 34.3966 15.1321 34.3082 15.1143 34.2224C15.0966 34.1367 15.0621 34.0553 15.0128 33.9829C14.9636 33.9105 14.9005 33.8485 14.8273 33.8004Z" fill="white"/>
<path d="M28.7982 33.7306C28.6805 33.79 28.583 33.8829 28.518 33.9977C28.4531 34.1124 28.4237 34.2438 28.4335 34.3753C28.4433 34.5068 28.4918 34.6324 28.573 34.7363C28.6542 34.8402 28.7643 34.9177 28.8896 34.9589C29.0148 35.0002 29.1494 35.0034 29.2765 34.9682C29.4035 34.9329 29.5172 34.8607 29.6033 34.7608C29.6893 34.6609 29.7438 34.5378 29.7598 34.4069C29.7759 34.276 29.7527 34.1433 29.6933 34.0256C29.654 33.9474 29.5997 33.8777 29.5334 33.8205C29.4671 33.7633 29.3901 33.7198 29.307 33.6924C29.2238 33.6649 29.1361 33.6542 29.0488 33.6608C28.9615 33.6674 28.8763 33.6911 28.7982 33.7306Z" fill="white"/>
<path d="M21.0561 27.0042C21.3074 26.6207 21.4236 26.1643 21.3864 25.7073C21.3491 25.2503 21.1604 24.8188 20.8503 24.4811C20.5402 24.1434 20.1263 23.9188 19.6741 23.8428C19.2219 23.7669 18.7574 23.8439 18.3539 24.0617C17.9504 24.2795 17.6311 24.6256 17.4465 25.0453C17.2619 25.465 17.2226 25.9343 17.3348 26.3789C17.4469 26.8235 17.7042 27.2179 18.0658 27.4998C18.4274 27.7817 18.8727 27.935 19.3312 27.9353C19.6736 27.9365 20.0108 27.8519 20.3121 27.6893C20.6134 27.5266 20.8692 27.2911 21.0561 27.0042Z" fill="white"/>
<path d="M16.9385 30.167C16.7682 30.0556 16.5687 29.9972 16.3652 29.9991C16.1617 30.0011 15.9634 30.0633 15.7953 30.178C15.6271 30.2926 15.4968 30.4546 15.4207 30.6433C15.3446 30.832 15.3261 31.0391 15.3677 31.2383C15.4092 31.4375 15.5089 31.6199 15.6541 31.7625C15.7993 31.9051 15.9835 32.0014 16.1834 32.0393C16.3833 32.0772 16.59 32.055 16.7773 31.9755C16.9647 31.8959 17.1242 31.7626 17.2358 31.5924C17.3852 31.364 17.4378 31.0855 17.3821 30.8182C17.3264 30.5509 17.1668 30.3167 16.9385 30.167Z" fill="white"/>
<path d="M21.743 34.1112C21.5756 34.1017 21.4091 34.142 21.2646 34.2271C21.1201 34.3122 21.0041 34.4382 20.9312 34.5892C20.8584 34.7402 20.8319 34.9094 20.8552 35.0754C20.8785 35.2415 20.9504 35.3969 21.062 35.522C21.1736 35.6471 21.3198 35.7364 21.4821 35.7784C21.6444 35.8205 21.8156 35.8135 21.9739 35.7583C22.1322 35.7031 22.2706 35.6022 22.3716 35.4684C22.4726 35.3345 22.5316 35.1737 22.5413 35.0063C22.5476 34.8951 22.5321 34.7838 22.4954 34.6786C22.4587 34.5734 22.4017 34.4765 22.3276 34.3934C22.2534 34.3102 22.1636 34.2425 22.0633 34.1941C21.963 34.1457 21.8542 34.1175 21.743 34.1112Z" fill="white"/>
<path d="M21.752 28.7764C21.5126 28.7619 21.2743 28.8187 21.0672 28.9397C20.8601 29.0607 20.6937 29.2404 20.5888 29.4561C20.484 29.6718 20.4455 29.9138 20.4783 30.1514C20.5111 30.3889 20.6137 30.6114 20.773 30.7907C20.9323 30.9699 21.1413 31.0978 21.3734 31.1582C21.6055 31.2186 21.8503 31.2088 22.0768 31.1299C22.3033 31.0511 22.5013 30.9068 22.6457 30.7153C22.7901 30.5238 22.8745 30.2938 22.888 30.0544C22.9065 29.7344 22.7973 29.4201 22.5843 29.1805C22.3713 28.9409 22.072 28.7956 21.752 28.7764Z" fill="white"/>
<path d="M26.7073 30.0848C26.5255 30.177 26.3751 30.3211 26.2753 30.4989C26.1754 30.6766 26.1305 30.88 26.1463 31.0832C26.1621 31.2865 26.2378 31.4805 26.3639 31.6407C26.49 31.8009 26.6607 31.9201 26.8546 31.9832C27.0485 32.0463 27.2567 32.0505 27.4529 31.9952C27.6491 31.9399 27.8245 31.8276 27.9569 31.6726C28.0893 31.5175 28.1727 31.3267 28.1966 31.1242C28.2205 30.9218 28.1838 30.7168 28.0911 30.5352C28.0299 30.4146 27.9455 30.3074 27.8428 30.2195C27.7402 30.1316 27.6211 30.0648 27.4926 30.023C27.3641 29.9812 27.2285 29.9651 27.0938 29.9757C26.959 29.9863 26.8277 30.0234 26.7073 30.0848Z" fill="white"/>
</g>
</g>
</svg>
