<svg width="43" height="43" viewBox="0 0 43 43" fill="none" xmlns="http://www.w3.org/2000/svg">
<g id="BitcoinCashBadge">
<rect width="43" height="43" rx="21.5" fill="#4BCF51"/>
<path id="Vector" d="M11.3639 11.9327C12.1823 11.9363 12.9821 11.8706 13.8005 11.8743C14.6189 11.8779 15.4187 11.8122 16.2371 11.8159C16.4637 11.8295 16.5145 11.7415 16.5281 11.515C16.4896 10.262 16.4697 9.07836 16.4312 7.82538C16.4448 7.59881 16.4955 7.5109 16.7221 7.5245C17.4712 7.54672 18.1323 7.51819 18.8628 7.47107C19.0894 7.48467 19.108 7.55401 19.0758 7.71125C19.0957 8.89489 19.1342 10.1479 19.1541 11.3315C19.1727 11.4008 19.1913 11.4702 19.1591 11.6274C19.7509 11.6175 20.412 11.5889 21.0039 11.579C21.0732 11.5604 21.1054 11.4031 21.1561 11.3152C21.1226 10.3582 21.1077 9.47044 21.1435 8.4948L21.1286 7.60707C21.0914 7.46841 21.1422 7.3805 21.2994 7.41267C22.0485 7.4349 22.779 7.38778 23.5974 7.39143C23.6667 7.37285 23.6853 7.44218 23.7546 7.4236C23.7881 8.38067 23.8031 9.2684 23.818 10.1561C23.8415 10.5214 23.8651 10.8866 23.8193 11.2704C23.8057 11.497 23.8936 11.5478 24.1202 11.5614L26.6869 11.9883C27.4917 12.2185 28.2643 12.606 28.9354 13.1693C29.838 14.0421 30.2046 15.1328 30.2245 16.3165C30.2209 17.1348 30.1293 17.9025 29.7233 18.6058C29.4188 19.1332 28.9384 19.5592 28.4395 19.9158C28.3701 19.9344 28.3194 20.0223 28.1807 20.0595C28.5138 20.1931 28.8283 20.2575 29.1613 20.3912C30.1605 20.7923 30.9196 21.4063 31.457 22.3026C31.8 23.0282 31.9536 23.8787 31.95 24.6971C31.9327 25.7421 31.809 26.667 31.3893 27.5968C30.8682 28.7025 30.0276 29.4479 28.9554 29.8839C27.5551 30.482 26.1313 30.7149 24.6889 30.8784C24.4623 30.8648 24.3423 30.9713 24.3287 31.1979C24.3486 32.3815 24.3871 33.6345 24.407 34.8181C24.4119 35.1141 24.4305 35.1834 24.0467 35.1376C23.3856 35.1661 22.6365 35.1439 21.9753 35.1725C21.7488 35.1589 21.7302 35.0895 21.7624 34.9323C21.7239 33.6793 21.6854 32.4263 21.7348 31.2241C21.6976 31.0855 21.7484 30.9975 21.5912 30.9654C20.9993 30.9753 20.4075 30.9853 19.7464 31.0138C19.7749 31.675 19.7341 32.3547 19.7626 33.0158C19.7912 33.677 19.7504 34.3567 19.7789 35.0179C19.7467 35.1751 19.7653 35.2445 19.5387 35.2309C18.7897 35.2086 18.0592 35.2558 17.3287 35.3029C17.1021 35.2893 17.0835 35.2199 17.1157 35.0627C17.0772 33.8097 17.0387 32.5567 17.0882 31.3545C17.0696 31.2852 17.1203 31.1973 17.0832 31.0586C15.3771 31.0699 13.6709 31.0812 11.8955 31.1111C11.9598 30.7966 11.9734 30.57 12.0378 30.2555C12.1479 29.5572 12.258 28.8589 12.3174 28.2485C12.331 28.0219 12.4004 28.0033 12.6084 27.9476C13.1308 27.9562 13.7227 27.9463 14.2266 27.8856C14.8184 27.8756 15.1601 27.4868 15.0994 26.9829C15.0532 23.2054 15.0071 19.4279 14.873 15.5997C14.8631 15.0078 14.3492 14.4767 13.6695 14.4359C12.9898 14.3951 12.3286 14.4237 11.7368 14.4336C11.5981 14.4708 11.5102 14.42 11.5424 14.2628C11.546 13.4444 11.5311 12.5567 11.5348 11.7383C11.3132 12.0206 11.3132 12.0206 11.3639 11.9327ZM19.4886 28.1104C19.5579 28.0919 19.6458 28.1426 19.6458 28.1426C20.8295 28.1227 22.101 28.1536 23.2983 27.9071C24.1488 27.7535 24.9115 27.5491 25.5998 27.0674C26.8057 26.2985 26.8959 24.4165 25.836 23.5115C25.3407 23.0498 24.6932 22.8517 24.0456 22.6537C22.6119 22.2947 21.0816 22.4075 19.6206 22.5018C19.394 22.4882 19.4126 22.5575 19.399 22.7841C19.4461 23.5146 19.4053 24.1943 19.4524 24.9248C19.4352 25.9697 19.4873 26.9961 19.4886 28.1104ZM23.4176 19.478C23.5563 19.4408 23.8844 19.2786 24.1431 19.1349C25.3862 18.5046 25.6708 16.7935 24.6616 15.8006C24.1478 15.2695 23.4123 15.0207 22.714 14.9106C21.6319 14.7547 20.6055 14.8068 19.4912 14.8081C19.2646 14.7945 19.2138 14.8824 19.2002 15.109C19.2437 16.6579 19.2686 18.1374 19.2427 19.7049C19.2105 19.8621 19.2985 19.9129 19.4557 19.9451C19.7516 19.9401 19.9782 19.9537 20.2741 19.9487C21.3512 19.8087 22.3083 19.7752 23.4176 19.478Z" fill="white"/>
</g>
</svg>
