<svg width="29" height="33" viewBox="0 0 29 33" fill="none" xmlns="http://www.w3.org/2000/svg">
<g id="Group 18">
<path id="Vector" d="M14.4621 27.1615C20.4677 27.1615 25.3363 22.3712 25.3363 16.4621C25.3363 10.553 20.4677 5.7627 14.4621 5.7627C8.45643 5.7627 3.58789 10.553 3.58789 16.4621C3.58789 22.3712 8.45643 27.1615 14.4621 27.1615Z" fill="#1B1E36"/>
<path id="Vector_2" d="M14.5004 0.375C12.4775 0.375 10.8372 7.59438 10.8372 16.5C10.8372 25.4056 12.4775 32.625 14.5004 32.625C16.5234 32.625 18.1637 25.4056 18.1637 16.5C18.1637 7.59438 16.5234 0.375 14.5004 0.375ZM14.7533 31.715C14.522 32.0186 14.2907 31.7908 14.2907 31.7908C13.359 30.7287 12.8932 28.7555 12.8932 28.7555C11.2637 23.5956 11.6516 12.5168 11.6516 12.5168C12.4174 3.72137 13.8105 1.64363 14.2845 1.18235C14.3329 1.13527 14.3967 1.1065 14.4645 1.1011C14.5324 1.09571 14.6 1.11403 14.6554 1.15285C15.3433 1.63242 15.9202 3.63803 15.9202 3.63803C17.6238 9.86036 17.4695 15.7033 17.4695 15.7033C17.6238 20.7874 16.6159 26.4785 16.6159 26.4785C15.84 30.8036 14.7533 31.715 14.7533 31.715Z" fill="#6F7390"/>
<path id="Vector_3" d="M28.7157 8.47582C27.7085 6.74872 20.5284 8.94167 12.6737 13.3733C4.81897 17.805 -0.721665 22.7979 0.284782 24.5243C1.29123 26.2506 8.47204 24.0584 16.3268 19.6268C24.1815 15.1951 29.7221 10.2022 28.7157 8.47582ZM1.21402 24.2874C0.82841 24.2396 0.915517 23.9277 0.915517 23.9277C1.38853 22.6044 2.89378 21.2248 2.89378 21.2248C6.63336 17.2661 16.5938 12.084 16.5938 12.084C24.7278 8.36047 27.2544 8.51757 27.8953 8.69119C27.9611 8.70926 28.0182 8.74966 28.0567 8.80522C28.0951 8.86079 28.1123 8.92794 28.1052 8.99478C28.0281 9.82086 26.5434 11.3108 26.5434 11.3108C21.9089 15.8629 16.6809 18.6394 16.6809 18.6394C12.2756 21.3021 6.7569 23.2727 6.7569 23.2727C2.55765 24.7616 1.21417 24.2874 1.21417 24.2874H1.21402Z" fill="#6F7390"/>
<path id="Vector_4" d="M28.68 24.5819C29.695 22.8594 24.1683 17.8436 16.3412 13.3787C8.51413 8.91371 1.335 6.69362 0.320915 8.41909C-0.693173 10.1446 4.83259 15.1574 12.6642 19.6223C20.4958 24.0873 27.6659 26.3075 28.68 24.5819ZM0.993475 9.08468C0.843551 8.73492 1.16004 8.65069 1.16004 8.65069C2.56123 8.39033 4.52944 8.98363 4.52944 8.98363C9.88399 10.1834 19.4319 16.068 19.4319 16.068C26.7832 21.1293 27.9106 23.3587 28.0796 23.9916C28.0967 24.0565 28.0901 24.1253 28.0607 24.1858C28.0314 24.2463 27.9812 24.2947 27.9191 24.3224C27.1526 24.6678 25.0995 24.1532 25.0995 24.1532C18.7717 22.4838 13.711 19.4251 13.711 19.4251C9.1639 17.0121 4.66767 13.2992 4.66767 13.2992C1.25119 10.4688 0.994525 9.08851 0.994525 9.08851L0.993475 9.08468Z" fill="#6F7390"/>
<path id="Vector_5" d="M14.462 18.3595C15.5268 18.3595 16.39 17.5102 16.39 16.4625C16.39 15.4148 15.5268 14.5654 14.462 14.5654C13.3971 14.5654 12.5339 15.4148 12.5339 16.4625C12.5339 17.5102 13.3971 18.3595 14.462 18.3595Z" fill="#B7B9C8"/>
<path id="Vector_6" d="M22.3673 10.3155C22.9849 10.3155 23.4856 9.80591 23.4856 9.17729C23.4856 8.54866 22.9849 8.03906 22.3673 8.03906C21.7497 8.03906 21.249 8.54866 21.249 9.17729C21.249 9.80591 21.7497 10.3155 22.3673 10.3155Z" fill="#B7B9C8"/>
<path id="Vector_7" d="M4.01184 14.1856C4.62946 14.1856 5.13013 13.676 5.13013 13.0474C5.13013 12.4188 4.62946 11.9092 4.01184 11.9092C3.39423 11.9092 2.89355 12.4188 2.89355 13.0474C2.89355 13.676 3.39423 14.1856 4.01184 14.1856Z" fill="#B7B9C8"/>
<path id="Vector_8" d="M12.1869 28.1484C12.8045 28.1484 13.3052 27.6388 13.3052 27.0102C13.3052 26.3816 12.8045 25.8721 12.1869 25.8721C11.5693 25.8721 11.0686 26.3816 11.0686 27.0102C11.0686 27.6388 11.5693 28.1484 12.1869 28.1484Z" fill="#B7B9C8"/>
</g>
</svg>
