<svg width="139" height="139" viewBox="0 0 139 139" fill="none" xmlns="http://www.w3.org/2000/svg">
<g clip-path="url(#clip0_533_5872)">
<path d="M139 0H0V139H139V0Z" fill="white"/>
<g style="mix-blend-mode:multiply">
<path d="M132.05 63.0225H127.741V67.3315H132.05V63.0225Z" fill="black"/>
<path d="M127.741 6.94995H101.859V37.1407H132.05V6.94995H127.741ZM127.741 15.5819V32.8318H106.168V11.259H127.741V15.5819Z" fill="black"/>
<path d="M127.741 41.4636H123.418V45.7726H119.109V50.0816H123.418H127.741V54.4045H132.05V50.0816V45.7726H127.741V41.4636Z" fill="black"/>
<path d="M127.727 54.4045H123.418V58.7135H127.727V54.4045Z" fill="black"/>
<path d="M127.741 75.9774V80.2864V84.5954H132.05V80.2864V75.9774V71.6545H127.741H123.418V75.9774H127.741Z" fill="black"/>
<path d="M119.109 80.2863H114.8H110.477H106.168H101.859V84.5953H106.168H110.477H114.8V88.9182H119.109H123.418V84.5953V80.2863V75.9773H119.109V80.2863Z" fill="black"/>
<path d="M119.109 93.2272V97.5362H114.8V93.2272H110.477V88.9182H106.168H101.859V93.2272V97.5362H106.168H110.477V101.859H114.8H119.109V106.168V110.477H123.418V114.8H119.109H114.8V119.109H119.109H123.418V123.418H127.741V119.109H132.05V114.8H127.741V110.477V106.168H123.418V101.859H127.741H132.05V97.5362V93.2272H127.741V88.9182H123.418V93.2272H119.109Z" fill="black"/>
<path d="M114.8 15.5818H110.478V19.8908V24.1998V28.5227H114.8H119.109H123.418V24.1998V19.8908V15.5818H119.109H114.8Z" fill="black"/>
<path d="M119.109 43.6181H121.695V39.3091H117.386V41.4636H114.8V45.7726H119.109V43.6181Z" fill="black"/>
<path d="M114.8 58.7136V63.0226H119.109V67.3455V71.6545H123.418V67.3455V63.0226V58.7136H119.109H114.8Z" fill="black"/>
<path d="M106.168 75.9773H110.477H114.8V71.6544V67.3454V63.0225H110.477V67.3454H106.168V71.6544V75.9773Z" fill="black"/>
<path d="M106.169 119.109H101.86H97.5366V123.418H101.86H106.169H110.478H114.8V119.109H110.478H106.169Z" fill="black"/>
<path d="M106.168 101.859H101.859V106.168H106.168V101.859Z" fill="black"/>
<path d="M97.5366 50.0816H101.86V54.4045H97.5366V58.7135H101.86H106.169H110.478V54.4045H106.169V50.0816H110.478H114.8V45.7726H110.478V41.4636H106.169V45.7726H101.86V41.4636H97.5366V45.7726V50.0816Z" fill="black"/>
<path d="M93.2274 63.0224H88.9184V58.7134V54.4044V50.0815H84.5955V54.4044V58.7134H80.2865H75.9775V63.0224V67.3453H80.2865V71.6543V75.9772H84.5955V71.6543V67.3453H88.9184H93.2274H97.5364V71.6543H101.859V67.3453H106.168V63.0224H101.859H97.5364V58.7134H93.2274V63.0224Z" fill="black"/>
<path d="M88.9185 45.7727V50.0817H93.2275V45.7727V41.4637H97.5365V37.1408V32.8318H93.2275V37.1408H88.9185V41.4637V45.7727Z" fill="black"/>
<path d="M93.2275 75.9774V71.6545H88.9185V75.9774V80.2864V84.5954H93.2275H97.5365V80.2864H93.2275V75.9774Z" fill="black"/>
<path d="M88.9185 123.418H84.5956V127.741H80.2866V132.05H84.5956H88.9185H93.2275V127.741H97.5365V123.418H93.2275H88.9185Z" fill="black"/>
<path d="M84.5956 15.5819H88.9185V11.259H93.2275H97.5365V6.94995H93.2275H88.9185H84.5956H80.2866V11.259H84.5956V15.5819Z" fill="black"/>
<path d="M88.9047 32.8318H84.5957V37.1408H88.9047V32.8318Z" fill="black"/>
<path d="M84.5957 110.477H88.9186V106.168H93.2276V110.477V114.8V119.109H97.5366V114.8H101.86H106.168H110.478H114.8V110.477V106.168H110.478V110.477H106.168H101.86H97.5366V106.168V101.859V97.5362V93.2272V88.9182H93.2276H88.9186V93.2272V97.5362H93.2276V101.859H88.9186H84.5957V106.168V110.477Z" fill="black"/>
<path d="M88.9047 114.8H84.5957V119.109H88.9047V114.8Z" fill="black"/>
<path d="M84.5957 123.418V119.109H80.2867V114.8H84.5957V110.477H80.2867V106.168V101.859H84.5957V97.5362H80.2867V93.2272H84.5957V88.9182V84.5953H80.2867V80.2863V75.9773H75.9777V80.2863V84.5953H71.6548V88.9182H75.9777V93.2272H71.6548H67.3458V97.5362H71.6548H75.9777V101.859H71.6548V106.168H75.9777V110.477H71.6548V114.8H75.9777V119.109H71.6548V114.8H67.3458H63.0229H58.7139V119.109H63.0229V123.418H58.7139V127.741V132.05H63.0229V127.741H67.3458H71.6548H75.9777H80.2867V123.418H84.5957Z" fill="black"/>
<path d="M75.9777 37.1407H80.2867V32.8318H84.5957V28.5228H88.9186H93.2276H97.5366V24.1999V19.8909V15.5819H93.2276V19.8909V24.1999H88.9186V19.8909H84.5957H80.2867H75.9777V15.5819H80.2867V11.259H75.9777V6.94995H71.6548V11.259H67.3458V6.94995H63.0229H58.7139V11.259H63.0229V15.5819H58.7139V19.8909V24.1999H63.0229V19.8909H67.3458V15.5819H71.6548V19.8909H67.3458V24.1999H71.6548H75.9777V28.5228H71.6548V32.8318H75.9777V37.1407Z" fill="black"/>
<path d="M75.9777 50.0816H80.2867V45.7726H84.5957V41.4636H80.2867H75.9777H71.6548V45.7726H75.9777V50.0816Z" fill="black"/>
<path d="M71.6547 32.8318H67.3457V37.1408V41.4637H71.6547V37.1408V32.8318Z" fill="black"/>
<path d="M71.6547 71.6545H75.9776V67.3455H71.6547H67.3457V71.6545V75.9774H71.6547V71.6545Z" fill="black"/>
<path d="M71.6547 106.168H67.3457V110.477H71.6547V106.168Z" fill="black"/>
<path d="M67.3458 84.5953V80.2863V75.9773H63.0229H58.7139V80.2863V84.5953H63.0229V88.9182H58.7139V93.2272V97.5362H63.0229V93.2272H67.3458V88.9182V84.5953Z" fill="black"/>
<path d="M58.7138 37.1407H63.0228V32.8317V28.5227H58.7138H54.4048V32.8317H58.7138V37.1407Z" fill="black"/>
<path d="M63.0228 50.0817V54.4046V58.7136H58.7138H54.4048V63.0226H58.7138V67.3455V71.6545H63.0228V67.3455V63.0226H67.3457V58.7136V54.4046H71.6547H75.9776V50.0817H71.6547V45.7727H67.3457H63.0228H58.7138V50.0817H63.0228Z" fill="black"/>
<path d="M58.7138 71.6545H54.4048V75.9635H58.7138V71.6545Z" fill="black"/>
<path d="M58.7138 106.168H63.0228V101.859H58.7138H54.4048V97.5363V93.2273H50.0819V88.9183V84.5954H54.4048V80.2864V75.9774H50.0819V80.2864H45.7729V84.5954H41.4639V88.9183H37.141H32.832V84.5954V80.2864H37.141V84.5954H41.4639V80.2864H45.7729V75.9774V71.6545H41.4639V75.9774H37.141H32.832V71.6545V67.3455H28.523V71.6545H24.2001V75.9774H19.8911V71.6545H15.5821H11.2592H6.9502V75.9774H11.2592H15.5821V80.2864H11.2592H6.9502V84.5954V88.9183V93.2273V97.5363H11.2592V93.2273V88.9183V84.5954H15.5821H19.8911V88.9183H24.2001V84.5954H28.523V88.9183V93.2273H32.832V97.5363H37.141H41.4639V93.2273H45.7729V97.5363H50.0819V101.859H45.7729V97.5363H41.4639V101.859V106.168H45.7729H50.0819H54.4048V110.477H50.0819H45.7729H41.4639V114.8V119.109V123.418V127.741V132.05H45.7729H50.0819H54.4048V127.741V123.418H50.0819V127.741H45.7729V123.418V119.109V114.8H50.0819V119.109H54.4048V114.8H58.7138V110.477V106.168Z" fill="black"/>
<path d="M54.4049 11.259V6.94995H50.082V11.259V15.5819H54.4049V11.259Z" fill="black"/>
<path d="M50.082 54.4046H54.4049V50.0817V45.7727H50.082V50.0817V54.4046Z" fill="black"/>
<path d="M50.0819 32.8318V28.5228V24.1999H54.4048V19.8909H50.0819H45.7729H41.4639V24.1999H45.7729V28.5228H41.4639V32.8318V37.1408H45.7729V32.8318H50.0819Z" fill="black"/>
<path d="M50.0819 67.3455V63.0226V58.7136H45.7729V63.0226V67.3455V71.6545H50.0819V67.3455Z" fill="black"/>
<path d="M45.7729 11.259H41.4639V15.568H45.7729V11.259Z" fill="black"/>
<path d="M41.4501 67.3455H37.1411V71.6545H41.4501V67.3455Z" fill="black"/>
<path d="M28.523 101.859H6.9502V132.05H37.141V101.859H28.523ZM32.832 110.477V127.741H11.2592V106.168H32.832V110.477Z" fill="black"/>
<path d="M24.2 28.5227H28.5229V24.1998V19.8908V15.5818H24.2H19.891H15.582V19.8908V24.1998V28.5227H19.891H24.2Z" fill="black"/>
<path d="M24.2001 67.3455H28.523V63.0226H24.2001V58.7136H28.523V63.0226H41.4639V54.4046H45.7729V45.7727H50.0402V41.4637H54.3631V45.7727H58.6721V37.1408H54.3631V32.8318H50.0402V37.1408H45.7312V41.4637H41.4222V50.04H37.141V41.422H32.832V45.731H28.523V54.3629H24.2001V50.04H19.8911V54.3629H15.5821V50.04H19.8911V45.731H28.523V41.422H15.5821V45.731H11.2592V41.422H6.9502V54.3629H11.2592V58.6719H19.8911V62.9809H6.9502V67.3038H19.8911V71.6128H24.2001V67.3455ZM37.141 54.4046V58.7136H32.832V54.4046H37.141Z" fill="black"/>
<path d="M19.891 110.477H15.582V114.8V119.109V123.418H19.891H24.2H28.5229V119.109V114.8V110.477H24.2H19.891Z" fill="black"/>
<path d="M15.582 93.2272V97.5362H19.891H24.2V93.2272H19.891V88.9182H15.582V93.2272Z" fill="black"/>
<path d="M15.5821 37.1407H37.141V6.94995H6.9502V37.1407H15.5821ZM11.2592 28.5228V11.259H32.832V32.8318H11.2592V28.5228Z" fill="black"/>
<path d="M127.741 132.05H132.05V127.741V123.418H127.741V127.741V132.05Z" fill="black"/>
<path d="M114.8 132.05H119.109H123.418V127.741H119.109V123.418H114.8V127.741V132.05Z" fill="black"/>
<path d="M110.477 127.741H106.168V132.05H110.477V127.741Z" fill="black"/>
</g>
</g>
<defs>
<clipPath id="clip0_533_5872">
<rect width="139" height="139" fill="white"/>
</clipPath>
</defs>
</svg>
