<svg width="110" height="20" viewBox="0 0 110 20" fill="none" xmlns="http://www.w3.org/2000/svg">
<g id="Group 415">
<path id="Star 1" d="M9.39627 1.46353C9.54594 1.00287 10.1976 1.00287 10.3473 1.46353L11.9759 6.47575C12.0428 6.68176 12.2348 6.82124 12.4514 6.82124L17.7216 6.82124C18.206 6.82124 18.4073 7.44105 18.0155 7.72575L13.7518 10.8235C13.5766 10.9508 13.5033 11.1765 13.5702 11.3825L15.1988 16.3947C15.3484 16.8554 14.8212 17.2384 14.4293 16.9537L10.1657 13.856C9.99045 13.7287 9.75315 13.7287 9.5779 13.856L5.31425 16.9537C4.92239 17.2384 4.39515 16.8554 4.54483 16.3947L6.1734 11.3825C6.24034 11.1765 6.16701 10.9508 5.99176 10.8235L1.72811 7.72575C1.33625 7.44105 1.53764 6.82124 2.022 6.82124L7.29217 6.82124C7.50878 6.82124 7.70076 6.68176 7.7677 6.47575L9.39627 1.46353Z" fill="#F6C833"/>
<path id="Star 2" d="M31.9605 1.46353C32.1102 1.00287 32.7619 1.00287 32.9115 1.46353L34.5401 6.47575C34.607 6.68176 34.799 6.82124 35.0156 6.82124L40.2858 6.82124C40.7702 6.82124 40.9715 7.44105 40.5797 7.72575L36.316 10.8235C36.1408 10.9508 36.0675 11.1765 36.1344 11.3825L37.763 16.3947C37.9126 16.8554 37.3854 17.2384 36.9936 16.9537L32.7299 13.856C32.5547 13.7287 32.3174 13.7287 32.1421 13.856L27.8785 16.9537C27.4866 17.2384 26.9594 16.8554 27.109 16.3947L28.7376 11.3825C28.8045 11.1765 28.7312 10.9508 28.556 10.8235L24.2923 7.72575C23.9005 7.44105 24.1018 6.82124 24.5862 6.82124L29.8564 6.82124C30.073 6.82124 30.265 6.68176 30.3319 6.47575L31.9605 1.46353Z" fill="#F6C833"/>
<path id="Star 3" d="M54.5244 1.46353C54.6741 1.00287 55.3258 1.00287 55.4755 1.46353L57.1041 6.47575C57.171 6.68176 57.363 6.82124 57.5796 6.82124L62.8498 6.82124C63.3341 6.82124 63.5355 7.44105 63.1437 7.72575L58.88 10.8235C58.7048 10.9508 58.6314 11.1765 58.6984 11.3825L60.3269 16.3947C60.4766 16.8554 59.9494 17.2384 59.5575 16.9537L55.2939 13.856C55.1186 13.7287 54.8813 13.7287 54.7061 13.856L50.4424 16.9537C50.0506 17.2384 49.5233 16.8554 49.673 16.3947L51.3016 11.3825C51.3685 11.1765 51.2952 10.9508 51.1199 10.8235L46.8563 7.72575C46.4644 7.44105 46.6658 6.82124 47.1502 6.82124L52.4203 6.82124C52.637 6.82124 52.8289 6.68176 52.8959 6.47575L54.5244 1.46353Z" fill="#F6C833"/>
<path id="Star 4" d="M77.0886 1.46353C77.2383 1.00287 77.89 1.00287 78.0397 1.46353L79.6683 6.47575C79.7352 6.68176 79.9272 6.82124 80.1438 6.82124L85.414 6.82124C85.8983 6.82124 86.0997 7.44105 85.7079 7.72575L81.4442 10.8235C81.269 10.9508 81.1956 11.1765 81.2626 11.3825L82.8911 16.3947C83.0408 16.8554 82.5136 17.2384 82.1217 16.9537L77.8581 13.856C77.6828 13.7287 77.4455 13.7287 77.2703 13.856L73.0066 16.9537C72.6148 17.2384 72.0875 16.8554 72.2372 16.3947L73.8658 11.3825C73.9327 11.1765 73.8594 10.9508 73.6841 10.8235L69.4205 7.72575C69.0286 7.44105 69.23 6.82124 69.7144 6.82124L74.9846 6.82124C75.2012 6.82124 75.3931 6.68176 75.4601 6.47575L77.0886 1.46353Z" fill="#F6C833"/>
<path id="Star 5" d="M99.6526 1.46353C99.8023 1.00287 100.454 1.00287 100.604 1.46353L102.232 6.47575C102.299 6.68176 102.491 6.82124 102.708 6.82124L107.978 6.82124C108.462 6.82124 108.664 7.44105 108.272 7.72575L104.008 10.8235C103.833 10.9508 103.76 11.1765 103.827 11.3825L105.455 16.3947C105.605 16.8554 105.078 17.2384 104.686 16.9537L100.422 13.856C100.247 13.7287 100.009 13.7287 99.8343 13.856L95.5706 16.9537C95.1787 17.2384 94.6515 16.8554 94.8012 16.3947L96.4297 11.3825C96.4967 11.1765 96.4234 10.9508 96.2481 10.8235L91.9845 7.72575C91.5926 7.44105 91.794 6.82124 92.2783 6.82124L97.5485 6.82124C97.7651 6.82124 97.9571 6.68176 98.024 6.47575L99.6526 1.46353Z" fill="#F6C833"/>
</g>
</svg>
