<svg width="133" height="22" viewBox="0 0 133 22" fill="none" xmlns="http://www.w3.org/2000/svg">
<path d="M107.216 5.15303C108.293 5.15303 109.2 5.51569 109.936 6.24103C110.672 6.96636 111.04 7.85703 111.04 8.91303C111.04 9.96903 110.672 10.8597 109.936 11.585C109.2 12.3104 108.293 12.673 107.216 12.673H105.248V16.353H103.04V5.15303H107.216ZM107.216 10.609C107.685 10.609 108.075 10.449 108.384 10.129C108.693 9.79836 108.848 9.39303 108.848 8.91303C108.848 8.42236 108.693 8.01703 108.384 7.69703C108.075 7.37703 107.685 7.21703 107.216 7.21703H105.248V10.609H107.216ZM119.817 16.353L119.145 14.337H114.681L114.009 16.353H111.625L115.545 5.15303H118.281L122.217 16.353H119.817ZM115.385 12.273H118.457L116.921 7.69703L115.385 12.273ZM131.995 5.15303L128.155 11.985V16.353H125.963V11.985L122.139 5.15303H124.635L127.067 9.82503L129.499 5.15303H131.995Z" fill="black"/>
<path d="M4.56088 10.7805L2.29139 13.0508L0 10.7805L2.29055 8.48991L4.56088 10.7805ZM10.1091 5.23226L14.0179 9.1411L16.3093 6.8514L10.1091 0.671387L3.90884 6.87162L6.20023 9.16132L10.1091 5.23226ZM17.9276 8.48991L15.6573 10.7805L17.9478 13.071L20.2375 10.7805L17.9276 8.48991ZM10.1091 16.3287L6.20023 12.3996L3.90884 14.6901L10.1091 20.8895L16.3093 14.6893L14.0179 12.3996L10.1091 16.3287ZM10.1091 13.0516L12.3996 10.7602L10.1091 8.49075L7.81852 10.7805L10.1091 13.0516ZM34.1973 13.2875V13.2488C34.1973 11.7678 33.4071 11.0172 32.1241 10.5235C32.9135 10.0897 33.5849 9.37782 33.5849 8.13441V8.09566C33.5849 6.35774 32.1831 5.23226 29.9321 5.23226H24.779V16.3093H30.0509C32.558 16.3287 34.1973 15.3009 34.1973 13.2875ZM31.1562 8.54972C31.1562 9.37867 30.4847 9.71395 29.3989 9.71395H27.1488V7.36443H29.5572C30.5842 7.36443 31.1562 7.77891 31.1562 8.51013V8.54972ZM31.7686 12.9724C31.7686 13.8014 31.1174 14.1771 30.0501 14.1771H27.1488V11.7476H29.9717C31.216 11.7476 31.7686 12.2025 31.7686 12.9522V12.9724ZM39.3108 16.3287V5.23226H36.8627V16.3093H39.3108V16.3287ZM52.4214 16.3287V5.23226H50.0121V12.0643L44.8194 5.23226H42.5685V16.3093H44.9778V9.2801L50.3482 16.3287H52.4214ZM65.9255 16.3287L61.1683 5.17329H58.9182L54.1594 16.3287H56.6672L57.6739 13.841H62.3536L63.3603 16.3287H65.9272H65.9255ZM61.4834 11.6886H58.5416L60.0226 8.09566L61.4834 11.6886ZM77.556 16.3287V5.23226H75.1466V12.0643L69.9539 5.23226H67.703V16.3093H70.1123V9.2801L75.4827 16.3287H77.556ZM90.1325 14.5318L88.5732 12.9724C87.7038 13.7618 86.9338 14.2748 85.6508 14.2748C83.7553 14.2748 82.4327 12.6953 82.4327 10.7998V10.7409C82.4327 8.84541 83.7747 7.28609 85.6508 7.28609C86.7561 7.28609 87.6254 7.75953 88.494 8.5295L90.0533 6.73262C89.0272 5.72592 87.783 5.01492 85.6904 5.01492C82.2946 5.01492 79.9055 7.60116 79.9055 10.7409V10.7805C79.9055 13.9589 82.3333 16.4862 85.5918 16.4862C87.724 16.5064 88.9876 15.7558 90.1325 14.5318ZM100.538 16.3287V14.1569H94.5156V11.8267H99.7479V9.65498H94.5156V7.40403H100.459V5.23226H92.1071V16.3093H100.538V16.3287Z" fill="#E1BE33"/>
</svg>
