<svg width="39" height="38" viewBox="0 0 39 38" fill="none" xmlns="http://www.w3.org/2000/svg">
<path d="M5.39076 29.9286C5.39076 29.0043 4.62604 28.2521 3.68635 28.2521C2.74665 28.2521 1.98193 29.0043 1.98193 29.9286C1.98193 30.8529 2.74665 31.6051 3.68635 31.6051C4.62604 31.6051 5.39076 30.8529 5.39076 29.9286ZM3.11821 29.9286C3.11821 29.6201 3.37273 29.3698 3.68635 29.3698C3.99996 29.3698 4.25448 29.6201 4.25448 29.9286C4.25448 30.2371 3.99996 30.4874 3.68635 30.4874C3.37273 30.4874 3.11821 30.2371 3.11821 29.9286ZM1.98193 21.7945C1.98193 22.7188 2.74665 23.471 3.68635 23.471C4.62604 23.471 5.39076 22.7188 5.39076 21.7945C5.39076 20.8702 4.62604 20.118 3.68635 20.118C2.74665 20.118 1.98193 20.8702 1.98193 21.7945ZM3.68635 21.2357C3.99996 21.2357 4.25448 21.486 4.25448 21.7945C4.25448 22.103 3.99996 22.3533 3.68635 22.3533C3.37273 22.3533 3.11821 22.103 3.11821 21.7945C3.11821 21.486 3.37273 21.2357 3.68635 21.2357ZM17.8898 26.2651C17.8898 26.5736 18.1443 26.824 18.4579 26.824H19.5942C20.5339 26.824 21.2986 27.5762 21.2986 28.5005C21.2986 29.4248 20.5339 30.177 19.5942 30.177V31.2946H18.4579V30.177C17.5182 30.177 16.7535 29.4248 16.7535 28.5005H17.8898C17.8898 28.809 18.1443 29.0593 18.4579 29.0593H19.5942C19.9078 29.0593 20.1623 28.809 20.1623 28.5005C20.1623 28.192 19.9078 27.9416 19.5942 27.9416H18.4579C17.5182 27.9416 16.7535 27.1895 16.7535 26.2651C16.7535 25.3408 17.5182 24.5886 18.4579 24.5886V23.471H19.5942V24.5886C20.5339 24.5886 21.2986 25.3408 21.2986 26.2651H20.1623C20.1623 25.9567 19.9078 25.7063 19.5942 25.7063H18.4579C18.1443 25.7063 17.8898 25.9567 17.8898 26.2651ZM36.0702 29.9286C36.0702 30.8529 35.3055 31.6051 34.3658 31.6051C33.4261 31.6051 32.6613 30.8529 32.6613 29.9286C32.6613 29.0043 33.4261 28.2521 34.3658 28.2521C35.3055 28.2521 36.0702 29.0043 36.0702 29.9286ZM34.9339 29.9286C34.9339 29.6201 34.6794 29.3698 34.3658 29.3698C34.0521 29.3698 33.7976 29.6201 33.7976 29.9286C33.7976 30.2371 34.0521 30.4874 34.3658 30.4874C34.6794 30.4874 34.9339 30.2371 34.9339 29.9286ZM34.3658 20.118C35.3055 20.118 36.0702 20.8702 36.0702 21.7945C36.0702 22.7188 35.3055 23.471 34.3658 23.471C33.4261 23.471 32.6613 22.7188 32.6613 21.7945C32.6613 20.8702 33.4261 20.118 34.3658 20.118ZM34.3658 21.2357C34.0521 21.2357 33.7976 21.486 33.7976 21.7945C33.7976 22.103 34.0521 22.3533 34.3658 22.3533C34.6794 22.3533 34.9339 22.103 34.9339 21.7945C34.9339 21.486 34.6794 21.2357 34.3658 21.2357ZM31.5251 30.4874V29.3698H30.3888V26.5756H28.1162V27.6933H29.2525V30.4874H31.5251ZM31.5251 22.3533V21.2357H29.2525V24.0298H28.1162V25.1475H30.3888V22.3533H31.5251ZM6.52703 29.3698V30.4874H8.79958V27.6933H9.93585V26.5756H7.66331V29.3698H6.52703ZM9.93585 24.0298H8.79958V21.2357H6.52703V22.3533H7.66331V25.1475H9.93585V24.0298ZM16.7535 12.8532V12.5933L16.5672 12.4709C15.7246 11.9177 15.1849 11.0347 15.073 10.059H14.481C13.5413 10.059 12.7765 9.30681 12.7765 8.3825C12.7765 7.97064 12.9345 7.59734 13.1862 7.30507C12.9203 6.77195 12.7765 6.18797 12.7765 5.58834C12.7765 3.43181 14.5611 1.67651 16.7535 1.67651H21.2986C23.491 1.67651 25.2756 3.43181 25.2756 5.58834C25.2756 6.18797 25.1318 6.77195 24.8665 7.30563C25.1182 7.5979 25.2756 7.97064 25.2756 8.3825C25.2756 9.30681 24.5108 10.059 23.5711 10.059H22.9791C22.8672 11.0347 22.3275 11.9182 21.4849 12.4709L21.2986 12.5933V12.8532H29.8207C30.074 12.8532 30.3058 12.9381 30.495 13.0761L30.7217 12.8532C31.4541 12.1328 32.7324 12.1328 33.4647 12.8532H33.7976C34.7373 12.8532 35.502 13.6054 35.502 14.5297V15.6473C35.502 16.5716 34.7373 17.3238 33.7976 17.3238H30.9569H29.2525H24.1393V19.5586H25.1455L26.6311 24.6742C26.8629 25.4683 26.98 26.292 26.98 27.1207C26.98 29.9082 25.6261 32.5721 23.3587 34.2453L21.7531 35.4294C20.9696 36.0062 20.001 36.3236 19.0261 36.3236C18.0511 36.3236 17.0836 36.0073 16.3018 35.4317L14.694 34.2453C12.426 32.5721 11.0721 29.9087 11.0721 27.1207C11.0721 26.292 11.1892 25.4683 11.421 24.673L12.9061 19.5586H13.9128V17.3238H8.79958H7.09517H4.25448C3.31478 17.3238 2.55007 16.5716 2.55007 15.6473V14.5297C2.55007 13.6054 3.31478 12.8532 4.25448 12.8532H4.58741C5.31974 12.1328 6.59805 12.1328 7.33038 12.8532L7.55706 13.0761C7.74625 12.9381 7.97805 12.8532 8.23144 12.8532H16.7535ZM7.09517 16.2062V14.2022L6.52703 13.6434C6.22308 13.3455 5.69471 13.3455 5.39076 13.6434L5.05783 13.9708H4.25448C3.94087 13.9708 3.68635 14.2212 3.68635 14.5297V15.6473C3.68635 15.9558 3.94087 16.2062 4.25448 16.2062H7.09517ZM24.2893 20.6763H22.7769C21.7747 20.6763 20.8049 20.3868 19.9714 19.8402L19.0261 19.2199L18.0801 19.8402C17.2472 20.3873 16.2763 20.6763 15.2729 20.6763H13.7634L12.5141 24.9804C12.3112 25.6761 12.2084 26.3959 12.2084 27.1207C12.2084 29.5583 13.3924 31.8876 15.3758 33.3511L16.9825 34.537C18.1551 35.3993 19.8959 35.4004 21.0719 34.5347L22.6763 33.3511C24.6597 31.8881 25.8437 29.5589 25.8437 27.1207C25.8437 26.3959 25.7409 25.6761 25.5392 24.9815L24.2893 20.6763ZM31.5251 13.6434L30.9569 14.2022V16.2062H33.7976C34.1112 16.2062 34.3658 15.9558 34.3658 15.6473V14.5297C34.3658 14.2212 34.1112 13.9708 33.7976 13.9708H32.9943L32.6613 13.6434C32.3574 13.3455 31.829 13.3455 31.5251 13.6434ZM29.8207 13.9708H22.8252H21.2986L19.0261 15.8787L17.0309 13.9708H15.2269H8.23144V16.2062H8.79958H15.0491V19.5586H15.2729C16.0513 19.5586 16.8041 19.3345 17.4495 18.9104L19.0261 17.876L20.6021 18.9104C21.248 19.3345 21.9997 19.5586 22.7763 19.5586H23.003V16.2062H29.2525H29.8207V13.9708ZM24.1393 8.3825C24.1393 8.07403 23.8848 7.82367 23.5711 7.82367H23.003V8.16903V8.94134H23.5711C23.8848 8.94134 24.1393 8.69098 24.1393 8.3825ZM14.481 8.94134H15.0491V7.82367H14.481C14.1673 7.82367 13.9128 8.07403 13.9128 8.3825C13.9128 8.69098 14.1673 8.94134 14.481 8.94134ZM16.52 5.26198C17.0648 5.08372 17.6483 5.12339 18.1625 5.3771L19.0863 5.83143C19.5061 6.0382 19.9765 6.14717 20.4464 6.14717C20.9179 6.14717 21.3895 6.22765 21.8344 6.38132L22.3628 6.48116L23.003 6.70601H23.5711C23.6791 6.70601 23.7836 6.7183 23.8859 6.7373C24.0518 6.37741 24.1393 5.98735 24.1393 5.58834C24.1393 4.04764 22.865 2.79418 21.2986 2.79418H16.7535C15.1871 2.79418 13.9128 4.04764 13.9128 5.58834C13.9128 5.98735 14.0003 6.37741 14.1656 6.7373C14.2685 6.7183 14.373 6.70601 14.481 6.70601H15.132C15.3195 6.03876 15.828 5.48887 16.52 5.26198ZM17.1972 11.541L17.3836 11.6634C17.7006 11.8713 17.8898 12.2189 17.8898 12.5933V13.1806L19.0261 14.2983L20.1623 13.1806V12.5933C20.1623 12.2189 20.3515 11.8713 20.6685 11.6634L20.8549 11.541C21.4884 11.1253 21.8667 10.4301 21.8667 9.68123V7.6102L21.8071 7.58058C21.3867 7.37381 20.9162 7.26484 20.4464 7.26484C19.801 7.26484 19.155 7.11451 18.5778 6.83118L17.654 6.37685C17.4108 6.25726 17.1347 6.23826 16.8802 6.32209C16.4643 6.459 16.1854 6.83901 16.1854 7.26931V9.68123C16.1854 10.4301 16.5637 11.1253 17.1972 11.541Z" fill="#E1E1E1"/>
</svg>
