<svg width="39" height="38" viewBox="0 0 39 38" fill="none" xmlns="http://www.w3.org/2000/svg">
<path d="M15.743 8.50494H12.0517L19.3055 0.290405L26.5594 8.50434H22.868V21.9688H21.6805V7.31744H23.9267L19.3055 2.08472L14.6844 7.31744H16.9305V21.9688H15.743V8.50494ZM9.21178 23.1563H29.3993V37.4063H9.21178V23.1563ZM28.2118 24.3438H21.6805V36.2188H28.2118V24.3438ZM13.9618 25.2392C13.9618 25.4001 14.093 25.5313 14.2539 25.5313H16.6384C16.7993 25.5313 16.9305 25.4001 16.9305 25.2392V24.3438H13.9618V25.2392ZM10.3993 36.2188H20.493V24.3438H18.118V25.2392C18.118 26.055 17.4542 26.7188 16.6384 26.7188H14.2539C13.4381 26.7188 12.7743 26.055 12.7743 25.2392V24.3438H10.3993V36.2188ZM5.64928 37.4063H6.83678V17.8126H5.676L8.61803 14.0298L11.5601 17.8126H10.3993V21.9688H11.5868V19.0001H13.9885L8.61803 12.0953L3.24756 19.0001H5.64928V37.4063ZM27.0243 16.0313V21.9688H28.2118V14.8438H27.051L29.993 11.061L32.9351 14.8438H31.7743V37.4063H32.9618V16.0313H35.3635L29.993 9.12659L24.6226 16.0313H27.0243Z" fill="#E1E1E1"/>
</svg>
