<svg width="180" height="45" viewBox="0 0 180 45" fill="none" xmlns="http://www.w3.org/2000/svg">
<path d="M21.3815 14.6682L17.4191 10.9542L13.7198 14.6682L10.9609 12.2976L17.4191 5.8201L23.815 12.1821L21.3815 14.6682Z" fill="url(#paint0_linear_328_804)"/>
<path d="M13.7078 14.6498L17.4166 5.84741L10.9385 12.2761L13.7078 14.6498Z" fill="url(#paint1_linear_328_804)"/>
<path d="M21.3728 14.6498L17.4167 5.84741L23.7959 12.1772L21.3728 14.6498Z" fill="url(#paint2_linear_328_804)"/>
<path d="M13.5069 28.94L17.4692 32.6539L21.1685 28.94L23.7025 31.5361L17.4692 37.7882L11.0732 31.4262L13.5069 28.94Z" fill="url(#paint3_linear_328_804)"/>
<path d="M17.5158 37.793L23.6973 31.5127L21.1752 28.9412L17.5158 37.793Z" fill="url(#paint4_linear_328_804)"/>
<path d="M17.4695 37.7882L11.0736 31.4262L13.5072 28.94L17.4695 37.7882Z" fill="url(#paint5_linear_328_804)"/>
<path d="M28.3689 21.9207L22.8467 27.4434L25.4126 30.0103L33.5024 21.9207L25.4135 13.8315L22.8467 16.3985L28.3689 21.9207Z" fill="#FAD436"/>
<path d="M22.8564 16.432L33.538 21.9686L25.4286 13.8585L22.8564 16.432Z" fill="url(#paint6_linear_328_804)"/>
<path d="M22.8467 27.4434L33.5024 21.9207L25.4126 30.0103L22.8467 27.4434Z" fill="url(#paint7_linear_328_804)"/>
<path d="M6.02613 21.9213L11.5483 16.3985L8.98241 13.8315L0.892578 21.9213L8.98148 30.0104L11.5483 27.4434L6.02613 21.9213Z" fill="#FAD436"/>
<path d="M11.5323 16.3806L0.900254 21.9686L9.0087 13.8586L11.5323 16.3806Z" fill="url(#paint8_linear_328_804)"/>
<path d="M11.5483 27.4434L0.892578 21.9213L8.98148 30.0104L11.5483 27.4434Z" fill="url(#paint9_linear_328_804)"/>
<path d="M16.7246 24.4775L14.2112 21.9613L16.7246 19.4466V14.2542L9.10909 21.9613L16.7246 29.5841V24.4775Z" fill="#FAD436"/>
<path d="M16.74 24.4656L9.07617 21.936L16.74 29.5997V24.4656Z" fill="url(#paint10_linear_328_804)"/>
<path d="M16.7246 19.4222L9.10909 21.9686L16.7246 14.2542V19.4222Z" fill="url(#paint11_linear_328_804)"/>
<path d="M16.7246 24.4775L14.2112 21.9613L16.7246 19.4466V14.2542L9.10909 21.9613L16.7246 29.5841V24.4775Z" fill="#FAD436"/>
<path d="M16.74 24.4656L9.07617 21.936L16.74 29.5997V24.4656Z" fill="url(#paint12_linear_328_804)"/>
<path d="M16.7246 19.4222L9.10909 21.9686L16.7246 14.2542V19.4222Z" fill="url(#paint13_linear_328_804)"/>
<path d="M18.0257 24.467L20.5557 21.9535L18.0257 19.4413V14.2542L25.6915 21.9535L18.0257 29.5685V24.467Z" fill="#FAD436"/>
<path d="M18.0102 24.4552L25.7246 21.9281L18.0102 29.5841V24.4552Z" fill="url(#paint14_linear_328_804)"/>
<path d="M18.0257 19.4169L25.6915 21.9607L18.0257 14.2542V19.4169Z" fill="url(#paint15_linear_328_804)"/>
<path d="M44.3847 21.5875C45.2992 22.1144 45.7564 22.9096 45.7564 23.9732C45.7564 24.8579 45.4433 25.5835 44.8171 26.1501C44.1908 26.7167 43.4205 27 42.506 27H38.0776V16.5627H42.1928C43.0875 16.5627 43.838 16.8411 44.4443 17.3977C45.0606 17.9444 45.3688 18.6452 45.3688 19.5001C45.3688 20.3649 45.0407 21.0607 44.3847 21.5875ZM42.1928 18.4862H40.1352V20.7824H42.1928C42.5109 20.7824 42.7743 20.673 42.9831 20.4543C43.2018 20.2357 43.3111 19.9623 43.3111 19.6343C43.3111 19.3062 43.2067 19.0329 42.998 18.8142C42.7893 18.5955 42.5209 18.4862 42.1928 18.4862ZM42.506 25.0766C42.8539 25.0766 43.1421 24.9622 43.3708 24.7336C43.5994 24.4951 43.7137 24.1968 43.7137 23.839C43.7137 23.4911 43.5994 23.2028 43.3708 22.9742C43.1421 22.7356 42.8539 22.6163 42.506 22.6163H40.1352V25.0766H42.506ZM53.7554 16.5627C54.7594 16.5627 55.6043 16.9007 56.2902 17.5766C56.976 18.2526 57.319 19.0826 57.319 20.0667C57.319 21.0508 56.976 21.8808 56.2902 22.5567C55.6043 23.2326 54.7594 23.5706 53.7554 23.5706H51.9214V27H49.8638V16.5627H53.7554ZM53.7554 21.6472C54.1928 21.6472 54.5556 21.4981 54.8438 21.1999C55.1321 20.8917 55.2762 20.514 55.2762 20.0667C55.2762 19.6094 55.1321 19.2317 54.8438 18.9335C54.5556 18.6353 54.1928 18.4862 53.7554 18.4862H51.9214V21.6472H53.7554ZM67.0637 27L66.4375 25.1213H62.2775L61.6513 27H59.4296L63.0827 16.5627H65.6323L69.3003 27H67.0637ZM62.9336 23.1978H65.7963L64.3649 18.9335L62.9336 23.1978ZM79.9783 16.5627L76.3998 22.9295V27H74.3571V22.9295L70.7935 16.5627H73.1196L75.3859 20.9166L77.6523 16.5627H79.9783Z" fill="#E1BE33"/>
<path d="M85.0045 26.0159H90.0741V27H83.9608V16.5627H89.9995V17.5468H85.0045V21.2446H89.6268V22.2287H85.0045V26.0159ZM101.783 27H100.59L97.757 22.5418L94.924 27H93.7312L97.1606 21.6173L93.9549 16.5627H95.1328L97.757 20.678L100.381 16.5627H101.559L98.3534 21.6173L101.783 27ZM110.458 27.1789C108.877 27.1789 107.57 26.6571 106.536 25.6133C105.503 24.5696 104.986 23.2923 104.986 21.7814C104.986 20.2704 105.503 18.9931 106.536 17.9494C107.57 16.9057 108.877 16.3838 110.458 16.3838C111.422 16.3838 112.307 16.6174 113.112 17.0846C113.917 17.5418 114.538 18.1631 114.976 18.9484L114.051 19.4852C113.723 18.849 113.236 18.342 112.59 17.9643C111.944 17.5866 111.233 17.3977 110.458 17.3977C109.156 17.3977 108.092 17.8202 107.267 18.6651C106.442 19.51 106.029 20.5488 106.029 21.7814C106.029 23.014 106.442 24.0527 107.267 24.8976C108.092 25.7426 109.156 26.165 110.458 26.165C111.233 26.165 111.944 25.9762 112.59 25.5984C113.236 25.2207 113.723 24.7137 114.051 24.0776L114.976 24.5994C114.548 25.3847 113.927 26.0109 113.112 26.4781C112.307 26.9453 111.422 27.1789 110.458 27.1789ZM126.16 16.5627H127.204V27H126.16V22.1243H120.494V27H119.45V16.5627H120.494V21.1402H126.16V16.5627ZM139.292 27L138.322 24.4354H133.372L132.403 27H131.3L135.31 16.5627H136.384L140.395 27H139.292ZM133.745 23.4513H137.95L135.847 17.8599L133.745 23.4513ZM151.203 16.5627H152.247V27H151.352L145.537 18.5011V27H144.494V16.5627H145.388L151.203 25.0616V16.5627ZM167.361 22.0348V22.5716C167.361 23.8638 166.899 24.9573 165.975 25.8519C165.05 26.7366 163.813 27.1789 162.262 27.1789C160.682 27.1789 159.374 26.6571 158.341 25.6133C157.307 24.5696 156.79 23.2923 156.79 21.7814C156.79 20.2704 157.307 18.9931 158.341 17.9494C159.374 16.9057 160.682 16.3838 162.262 16.3838C163.226 16.3838 164.111 16.6174 164.916 17.0846C165.721 17.5518 166.343 18.173 166.78 18.9484L165.855 19.4852C165.527 18.849 165.04 18.342 164.394 17.9643C163.748 17.5866 163.037 17.3977 162.262 17.3977C160.96 17.3977 159.896 17.8202 159.071 18.6651C158.246 19.51 157.834 20.5488 157.834 21.7814C157.834 23.014 158.246 24.0527 159.071 24.8976C159.896 25.7426 160.96 26.165 162.262 26.165C163.435 26.165 164.374 25.8718 165.08 25.2853C165.786 24.6889 166.188 23.9334 166.288 23.0189H162.143V22.0348H167.361ZM172.954 26.0159H178.023V27H171.91V16.5627H177.949V17.5468H172.954V21.2446H177.576V22.2287H172.954V26.0159Z" fill="#2E2E2E"/>
<defs>
<linearGradient id="paint0_linear_328_804" x1="-3.69764" y1="10.2441" x2="60.5116" y2="10.2441" gradientUnits="userSpaceOnUse">
<stop stop-color="#FAD436"/>
<stop offset="1" stop-color="#FAD436"/>
</linearGradient>
<linearGradient id="paint1_linear_328_804" x1="11.5361" y1="10.2486" x2="17.4166" y2="10.2486" gradientUnits="userSpaceOnUse">
<stop stop-color="#D4B331"/>
<stop offset="1" stop-color="#FDD915"/>
</linearGradient>
<linearGradient id="paint2_linear_328_804" x1="23.8453" y1="10.2486" x2="17.4167" y2="10.2486" gradientUnits="userSpaceOnUse">
<stop stop-color="#D4B331"/>
<stop offset="1" stop-color="#FDD915"/>
</linearGradient>
<linearGradient id="paint3_linear_328_804" x1="17.3879" y1="47.8785" x2="17.3879" y2="3.67969" gradientUnits="userSpaceOnUse">
<stop stop-color="#FAD436"/>
<stop offset="1" stop-color="#D4B331"/>
</linearGradient>
<linearGradient id="paint4_linear_328_804" x1="23.7467" y1="33.3424" x2="17.5158" y2="33.3424" gradientUnits="userSpaceOnUse">
<stop stop-color="#FAD436"/>
<stop offset="1" stop-color="#E0BA25"/>
</linearGradient>
<linearGradient id="paint5_linear_328_804" x1="23.7467" y1="33.3424" x2="17.5158" y2="33.3424" gradientUnits="userSpaceOnUse">
<stop stop-color="#FAD436"/>
<stop offset="1" stop-color="#E0BA25"/>
</linearGradient>
<linearGradient id="paint6_linear_328_804" x1="22.8564" y1="17.9135" x2="33.5379" y2="17.9135" gradientUnits="userSpaceOnUse">
<stop stop-color="#D4B331"/>
<stop offset="0.980392" stop-color="#FAD436" stop-opacity="0"/>
<stop offset="1" stop-color="#00D4FD"/>
</linearGradient>
<linearGradient id="paint7_linear_328_804" x1="22.8466" y1="25.9655" x2="33.5024" y2="25.9655" gradientUnits="userSpaceOnUse">
<stop stop-color="#D4B331"/>
<stop offset="0.980392" stop-color="#FAD436" stop-opacity="0"/>
<stop offset="1" stop-color="#00D4FD"/>
</linearGradient>
<linearGradient id="paint8_linear_328_804" x1="0.900254" y1="17.9136" x2="11.5818" y2="17.9136" gradientUnits="userSpaceOnUse">
<stop stop-color="#00D4FD" stop-opacity="0"/>
<stop offset="0.0117647" stop-color="#FAD436" stop-opacity="0"/>
<stop offset="1" stop-color="#D4B331"/>
</linearGradient>
<linearGradient id="paint9_linear_328_804" x1="0.900254" y1="17.9136" x2="11.5818" y2="17.9136" gradientUnits="userSpaceOnUse">
<stop stop-color="#00D4FD" stop-opacity="0"/>
<stop offset="0.0117647" stop-color="#FAD436" stop-opacity="0"/>
<stop offset="1" stop-color="#D4B331"/>
</linearGradient>
<linearGradient id="paint10_linear_328_804" x1="9.10909" y1="18.1114" x2="16.7246" y2="18.1114" gradientUnits="userSpaceOnUse">
<stop stop-color="#D4B331"/>
<stop offset="1" stop-color="#FAD436"/>
</linearGradient>
<linearGradient id="paint11_linear_328_804" x1="9.10909" y1="18.1114" x2="16.7246" y2="18.1114" gradientUnits="userSpaceOnUse">
<stop stop-color="#D4B331"/>
<stop offset="1" stop-color="#FAD436"/>
</linearGradient>
<linearGradient id="paint12_linear_328_804" x1="9.10909" y1="18.1114" x2="16.7246" y2="18.1114" gradientUnits="userSpaceOnUse">
<stop stop-color="#D4B331"/>
<stop offset="1" stop-color="#FAD436"/>
</linearGradient>
<linearGradient id="paint13_linear_328_804" x1="9.10909" y1="18.1114" x2="16.7246" y2="18.1114" gradientUnits="userSpaceOnUse">
<stop stop-color="#D4B331"/>
<stop offset="1" stop-color="#FAD436"/>
</linearGradient>
<linearGradient id="paint14_linear_328_804" x1="25.6915" y1="18.1074" x2="18.0257" y2="18.1074" gradientUnits="userSpaceOnUse">
<stop stop-color="#D4B331"/>
<stop offset="1" stop-color="#FAD436"/>
</linearGradient>
<linearGradient id="paint15_linear_328_804" x1="25.6915" y1="18.1074" x2="18.0257" y2="18.1074" gradientUnits="userSpaceOnUse">
<stop stop-color="#D4B331"/>
<stop offset="1" stop-color="#FAD436"/>
</linearGradient>
</defs>
</svg>
