<svg width="56" height="56" viewBox="0 0 56 56" fill="none" xmlns="http://www.w3.org/2000/svg">
<path d="M28.0003 4.66675C15.1105 4.66675 4.66699 15.1103 4.66699 28.0001C4.66699 40.8899 15.1105 51.3334 28.0003 51.3334C40.8901 51.3334 51.3337 40.8899 51.3337 28.0001C51.3337 15.1103 40.8901 4.66675 28.0003 4.66675ZM36.7023 34.1157L34.8206 36.4678C34.6971 36.6222 34.5444 36.7508 34.3713 36.8461C34.1981 36.9415 34.0078 37.0019 33.8113 37.0237C33.6149 37.0455 33.416 37.0285 33.2261 36.9734C33.0362 36.9184 32.859 36.8265 32.7046 36.703L26.4009 32.0251C25.9604 31.6724 25.6049 31.2253 25.3606 30.7167C25.1163 30.208 24.9895 29.651 24.9896 29.0868V14.4517C24.9896 14.0524 25.1482 13.6695 25.4305 13.3872C25.7128 13.1049 26.0957 12.9463 26.4949 12.9463H29.5057C29.905 12.9463 30.2879 13.1049 30.5702 13.3872C30.8525 13.6695 31.0111 14.0524 31.0111 14.4517V28.0001L36.4681 31.9987C36.6225 32.1223 36.7511 32.2751 36.8465 32.4484C36.9419 32.6217 37.0022 32.8121 37.0239 33.0087C37.0457 33.2053 37.0285 33.4042 36.9733 33.5942C36.9181 33.7841 36.826 33.9613 36.7023 34.1157Z" fill="#E1BE33"/>
</svg>
